M48
; DRILL file {KiCad (5.1.12)-1} date 01/17/23 22:17:04
; FORMAT={-:-/ absolute / metric / decimal}
; #@! TF.CreationDate,2023-01-17T22:17:04+01:00
; #@! TF.GenerationSoftware,Kicad,Pcbnew,(5.1.12)-1
; #@! TF.FileFunction,Plated,1,4,PTH
FMAT,2
METRIC
T1C0.400
T2C0.800
T3C1.000
T4C1.016
%
G90
G05
T1
X23.947Y-56.101
X25.987Y-76.781
X26.377Y-69.681
X26.687Y-77.781
X27.367Y-65.331
X27.427Y-81.261
X27.51Y-79.986
X28.337Y-64.591
X29.947Y-98.281
X30.387Y-68.391
X30.707Y-103.761
X30.997Y-93.301
X31.02Y-105.444
X31.127Y-95.331
X31.647Y-66.401
X31.807Y-107.421
X32.217Y-78.731
X32.687Y-104.401
X32.937Y-106.061
X32.977Y-65.441
X33.437Y-99.221
X33.771Y-108.28
X34.267Y-48.511
X35.447Y-103.631
X35.957Y-97.686
X37.817Y-106.281
X38.027Y-76.921
X38.343Y-87.096
X38.557Y-104.361
X38.747Y-88.191
X39.787Y-66.651
X39.937Y-106.281
X41.067Y-76.791
X41.187Y-48.271
X41.197Y-57.031
X41.217Y-51.191
X41.257Y-52.671
X42.347Y-77.601
X42.507Y-88.106
X42.837Y-58.811
X43.587Y-67.661
X45.397Y-105.881
X45.977Y-99.136
X46.127Y-88.721
X46.587Y-107.311
X48.497Y-99.136
X48.617Y-90.071
X49.247Y-106.581
X49.757Y-54.301
X50.717Y-73.211
X51.067Y-70.811
X51.117Y-58.021
X51.367Y-102.281
X51.927Y-92.821
X52.637Y-80.451
X53.267Y-55.401
X53.317Y-49.771
X53.517Y-67.591
X53.647Y-88.401
X54.787Y-79.721
X56.127Y-49.046
X56.352Y-106.981
X56.699Y-76.446
X57.347Y-51.336
X58.677Y-65.491
X60.057Y-55.361
X61.219Y-67.849
X61.257Y-65.011
X62.367Y-75.696
X63.247Y-114.041
X63.947Y-56.211
X64.747Y-65.771
X65.024Y-76.446
X65.077Y-97.941
X65.147Y-55.831
X66.277Y-89.211
X66.417Y-55.861
X67.587Y-98.641
X68.867Y-106.936
X69.677Y-98.666
X70.717Y-87.631
X71.027Y-70.981
X71.517Y-104.631
X74.237Y-57.726
X75.877Y-102.171
X76.077Y-83.921
X76.077Y-91.741
X76.107Y-97.901
X76.737Y-79.231
X77.237Y-65.571
X77.997Y-87.771
X79.967Y-60.351
X80.477Y-95.981
X80.562Y-80.181
X80.917Y-59.191
X81.057Y-66.301
X81.787Y-106.211
X82.237Y-79.761
X83.147Y-65.641
X83.257Y-95.071
X83.307Y-49.851
X85.237Y-76.371
X86.117Y-96.371
X88.367Y-87.701
X89.857Y-59.081
X91.117Y-98.651
X92.517Y-58.351
X92.587Y-78.671
X92.617Y-67.861
X93.697Y-56.666
X94.947Y-67.941
X96.087Y-88.301
X96.267Y-65.661
X96.267Y-99.111
X97.467Y-98.161
X97.547Y-77.741
X98.797Y-86.181
X100.257Y-58.261
X101.177Y-50.416
X102.737Y-69.211
X102.787Y-88.211
X105.217Y-97.351
X106.697Y-47.731
X107.687Y-98.081
X107.937Y-82.751
X110.577Y-49.511
X111.107Y-105.011
X111.657Y-67.961
X111.767Y-70.231
X112.697Y-102.001
X112.857Y-95.671
X112.907Y-84.741
X114.037Y-94.521
X114.287Y-82.581
X114.317Y-70.241
X115.407Y-50.231
X115.507Y-101.041
X116.627Y-104.991
X116.817Y-83.461
X116.817Y-49.191
X116.827Y-67.801
X119.237Y-71.831
X119.287Y-81.911
X119.447Y-97.751
X121.327Y-100.351
X121.897Y-72.381
X121.907Y-97.951
X122.637Y-104.871
X122.667Y-99.221
X123.087Y-96.121
X124.057Y-115.441
X127.057Y-83.391
X127.177Y-94.741
X127.957Y-102.381
X130.657Y-97.901
X132.147Y-71.431
X132.187Y-113.341
X132.717Y-76.921
X132.987Y-96.841
X133.247Y-112.561
X133.417Y-84.701
X135.627Y-82.971
X135.647Y-49.701
X136.797Y-87.961
X138.067Y-65.446
X141.847Y-111.471
X144.072Y-110.601
X144.322Y-88.826
X145.672Y-76.676
X145.687Y-96.221
X145.697Y-110.976
X146.947Y-109.746
X148.227Y-96.251
X148.277Y-77.251
X149.477Y-109.296
X149.497Y-66.901
X150.772Y-110.101
X152.047Y-109.026
X152.527Y-98.271
X153.222Y-57.651
X153.272Y-89.376
X154.687Y-107.766
X155.722Y-91.826
X155.722Y-100.626
X156.077Y-114.011
X157.407Y-88.001
X162.747Y-94.401
X162.797Y-70.851
X162.822Y-78.876
X162.872Y-86.776
X162.897Y-106.891
X166.047Y-56.501
X168.547Y-67.176
X168.597Y-55.351
X168.647Y-78.826
X171.122Y-55.351
X185.522Y-49.701
X185.622Y-111.276
X186.622Y-109.751
X194.022Y-77.526
X196.572Y-78.876
X196.597Y-76.276
X196.747Y-68.401
X209.247Y-57.801
X211.747Y-68.401
X214.247Y-52.801
X214.272Y-56.501
X214.297Y-84.376
X214.322Y-94.276
X216.747Y-56.501
X219.147Y-78.801
X219.147Y-108.801
X221.955Y-78.869
X221.997Y-76.326
X224.567Y-67.741
X225.767Y-56.531
X253.817Y-56.621
X267.807Y-109.321
X269.847Y-109.301
T2
X24.135Y-52.649
X24.135Y-60.269
X26.675Y-52.649
X26.675Y-60.269
X29.215Y-52.649
X29.215Y-60.269
X30.867Y-73.721
X30.867Y-81.341
X31.755Y-52.649
X31.755Y-60.269
X33.407Y-73.721
X33.407Y-81.341
X33.427Y-84.131
X33.427Y-91.751
X33.437Y-94.541
X33.437Y-102.161
X33.447Y-63.311
X33.447Y-70.931
X34.295Y-52.649
X34.295Y-60.269
X35.947Y-73.721
X35.947Y-81.341
X35.967Y-84.131
X35.967Y-91.751
X35.977Y-94.541
X35.977Y-102.161
X35.987Y-63.311
X35.987Y-70.931
X36.835Y-52.649
X36.835Y-60.269
X38.487Y-73.721
X38.487Y-81.341
X38.507Y-84.131
X38.507Y-91.751
X38.517Y-94.541
X38.517Y-102.161
X38.527Y-63.311
X38.527Y-70.931
X39.375Y-52.649
X39.375Y-60.269
X41.027Y-73.721
X41.027Y-81.341
X41.047Y-84.131
X41.047Y-91.751
X41.057Y-94.541
X41.057Y-102.161
X41.067Y-63.311
X41.067Y-70.931
X43.567Y-73.721
X43.567Y-81.341
X43.587Y-84.131
X43.587Y-91.751
X43.597Y-94.541
X43.597Y-102.161
X43.607Y-63.311
X43.607Y-70.931
X43.947Y-50.269
X43.947Y-60.269
X46.107Y-73.721
X46.107Y-81.341
X46.127Y-84.131
X46.127Y-91.751
X46.137Y-94.541
X46.137Y-102.161
X46.147Y-63.311
X46.147Y-70.931
X48.519Y-52.649
X48.519Y-60.269
X48.647Y-73.721
X48.647Y-81.341
X48.667Y-84.131
X48.667Y-91.751
X48.677Y-94.541
X48.677Y-102.161
X48.687Y-63.311
X48.687Y-70.931
X51.059Y-52.649
X51.059Y-60.269
X53.599Y-52.649
X53.599Y-60.269
X53.599Y-63.317
X53.599Y-70.937
X53.599Y-74.145
X53.599Y-84.145
X53.599Y-92.179
X53.599Y-102.179
X56.139Y-52.649
X56.139Y-60.269
X56.139Y-63.317
X56.139Y-70.937
X58.679Y-52.649
X58.679Y-60.269
X58.679Y-63.317
X58.679Y-70.937
X58.679Y-73.731
X58.679Y-81.351
X58.679Y-84.145
X58.679Y-91.765
X58.679Y-94.559
X58.679Y-102.179
X61.219Y-52.649
X61.219Y-60.269
X61.219Y-63.317
X61.219Y-70.937
X61.219Y-73.731
X61.219Y-81.351
X61.219Y-84.145
X61.219Y-91.765
X61.219Y-94.559
X61.219Y-102.179
X63.759Y-52.649
X63.759Y-60.269
X63.759Y-63.317
X63.759Y-70.937
X63.759Y-73.731
X63.759Y-81.351
X63.759Y-84.145
X63.759Y-91.765
X63.759Y-94.559
X63.759Y-102.179
X66.299Y-52.649
X66.299Y-60.269
X66.299Y-63.317
X66.299Y-70.937
X66.299Y-73.731
X66.299Y-81.351
X66.299Y-84.145
X66.299Y-91.765
X66.299Y-94.559
X66.299Y-102.179
X68.839Y-52.649
X68.839Y-60.269
X68.839Y-63.317
X68.839Y-70.937
X68.839Y-73.731
X68.839Y-81.351
X68.839Y-84.145
X68.839Y-91.765
X68.839Y-94.559
X68.839Y-102.179
X71.379Y-52.649
X71.379Y-60.269
X71.379Y-73.731
X71.379Y-81.351
X71.379Y-84.145
X71.379Y-91.765
X71.379Y-94.559
X71.379Y-102.179
X73.467Y-63.541
X73.467Y-71.161
X73.919Y-52.649
X73.919Y-60.269
X73.919Y-73.731
X73.919Y-81.351
X73.919Y-84.145
X73.919Y-91.765
X73.919Y-94.559
X73.919Y-102.179
X76.007Y-63.541
X76.007Y-71.161
X76.459Y-52.649
X76.459Y-60.269
X76.459Y-73.731
X76.459Y-81.351
X78.027Y-92.131
X78.027Y-102.131
X78.547Y-63.541
X78.547Y-71.161
X81.087Y-63.541
X81.087Y-71.161
X81.285Y-75.161
X81.285Y-85.161
X81.317Y-92.021
X81.317Y-102.181
X83.571Y-52.649
X83.571Y-60.269
X86.111Y-52.649
X86.111Y-60.269
X86.111Y-63.317
X86.111Y-70.937
X86.111Y-73.731
X86.111Y-81.351
X86.111Y-84.145
X86.111Y-91.765
X86.111Y-94.559
X86.111Y-102.179
X88.651Y-52.649
X88.651Y-60.269
X88.651Y-63.317
X88.651Y-70.937
X88.651Y-73.731
X88.651Y-81.351
X88.651Y-84.145
X88.651Y-91.765
X88.651Y-94.559
X88.651Y-102.179
X91.191Y-52.649
X91.191Y-60.269
X91.191Y-63.317
X91.191Y-70.937
X91.191Y-73.731
X91.191Y-81.351
X91.191Y-84.145
X91.191Y-91.765
X91.191Y-94.559
X91.191Y-102.179
X93.731Y-52.649
X93.731Y-60.269
X93.731Y-63.317
X93.731Y-70.937
X93.731Y-73.731
X93.731Y-81.351
X93.731Y-84.145
X93.731Y-91.765
X93.731Y-94.559
X93.731Y-102.179
X96.271Y-52.649
X96.271Y-60.269
X96.271Y-63.317
X96.271Y-70.937
X96.271Y-73.731
X96.271Y-81.351
X96.271Y-84.145
X96.271Y-91.765
X96.271Y-94.559
X96.271Y-102.179
X98.811Y-52.649
X98.811Y-60.269
X98.811Y-63.317
X98.811Y-70.937
X98.811Y-73.731
X98.811Y-81.351
X98.811Y-84.145
X98.811Y-91.765
X98.811Y-94.559
X98.811Y-102.179
X101.351Y-63.317
X101.351Y-70.937
X101.351Y-73.731
X101.351Y-81.351
X101.351Y-84.145
X101.351Y-91.765
X101.351Y-94.559
X101.351Y-102.179
X103.891Y-94.559
X103.891Y-102.179
X104.145Y-52.841
X104.172Y-56.926
X104.197Y-60.801
X106.431Y-94.559
X106.431Y-102.179
X106.657Y-90.491
X106.685Y-52.841
X106.685Y-64.333
X106.685Y-74.493
X106.685Y-77.033
X106.685Y-87.193
X106.712Y-56.926
X106.737Y-60.801
X108.971Y-94.559
X108.971Y-102.179
X109.197Y-90.491
X109.217Y-77.041
X109.217Y-87.201
X109.225Y-52.841
X109.225Y-64.333
X109.225Y-74.493
X109.252Y-56.926
X109.277Y-60.801
X111.637Y-77.021
X111.637Y-87.181
X111.737Y-90.491
X111.765Y-52.841
X111.765Y-64.333
X111.765Y-74.493
X111.792Y-56.926
X111.817Y-60.801
X113.987Y-104.961
X113.987Y-114.961
X114.247Y-77.021
X114.247Y-87.181
X114.277Y-90.491
X114.305Y-52.841
X114.305Y-64.333
X114.305Y-74.493
X114.332Y-56.926
X114.357Y-60.801
X116.817Y-77.011
X116.817Y-87.171
X116.817Y-90.491
X116.845Y-52.841
X116.845Y-64.333
X116.845Y-74.493
X116.872Y-56.926
X116.897Y-60.801
X119.287Y-77.061
X119.287Y-87.221
X119.357Y-90.491
X119.377Y-94.771
X119.377Y-114.771
X119.385Y-52.841
X119.385Y-64.333
X119.385Y-74.493
X119.412Y-56.926
X119.437Y-60.801
X121.887Y-77.041
X121.887Y-87.201
X121.897Y-90.491
X121.925Y-52.841
X121.925Y-64.333
X121.925Y-74.493
X121.952Y-56.926
X121.977Y-60.801
X124.437Y-77.021
X124.437Y-87.181
X124.437Y-90.491
X124.465Y-52.841
X124.467Y-64.331
X124.467Y-74.491
X124.492Y-56.926
X124.517Y-60.801
X126.977Y-90.491
X127.005Y-52.841
X127.005Y-64.333
X127.005Y-74.493
X127.007Y-77.031
X127.007Y-87.191
X127.032Y-56.926
X127.057Y-60.801
X129.517Y-90.491
X129.545Y-66.993
X129.545Y-74.493
X129.545Y-79.693
X129.545Y-87.193
X129.837Y-104.971
X129.837Y-114.971
X130.447Y-94.721
X130.447Y-102.341
X132.777Y-52.841
X132.777Y-60.341
X132.987Y-94.721
X132.987Y-102.341
X135.527Y-63.21
X135.527Y-70.83
X135.527Y-73.721
X135.527Y-81.341
X135.527Y-94.721
X135.527Y-102.341
X135.527Y-105.221
X135.527Y-112.841
X138.027Y-52.721
X138.027Y-60.341
X138.027Y-84.221
X138.027Y-91.841
X138.067Y-63.21
X138.067Y-70.83
X138.067Y-73.721
X138.067Y-81.341
X138.067Y-94.721
X138.067Y-102.341
X138.067Y-105.221
X138.067Y-112.841
X140.567Y-52.721
X140.567Y-60.341
X140.567Y-84.221
X140.567Y-91.841
X140.607Y-63.21
X140.607Y-70.83
X140.607Y-73.721
X140.607Y-81.341
X140.607Y-94.721
X140.607Y-102.341
X140.607Y-105.221
X140.607Y-112.841
X143.107Y-52.721
X143.107Y-60.341
X143.107Y-84.221
X143.107Y-91.841
X143.147Y-63.21
X143.147Y-70.83
X143.147Y-73.721
X143.147Y-81.341
X143.147Y-94.721
X143.147Y-102.341
X143.147Y-105.221
X143.147Y-112.841
X145.647Y-52.721
X145.647Y-60.341
X145.647Y-84.221
X145.647Y-91.841
X145.687Y-63.21
X145.687Y-70.83
X145.687Y-73.721
X145.687Y-81.341
X145.687Y-94.721
X145.687Y-102.341
X145.687Y-105.221
X145.687Y-112.841
X148.187Y-52.721
X148.187Y-60.341
X148.187Y-84.221
X148.187Y-91.841
X148.227Y-63.21
X148.227Y-70.83
X148.227Y-73.721
X148.227Y-81.341
X148.227Y-94.721
X148.227Y-102.341
X148.227Y-105.221
X148.227Y-112.841
X150.727Y-52.721
X150.727Y-60.341
X150.727Y-84.221
X150.727Y-91.841
X150.767Y-63.21
X150.767Y-70.83
X150.767Y-73.721
X150.767Y-81.341
X150.767Y-94.721
X150.767Y-102.341
X150.767Y-105.221
X150.767Y-112.841
X153.267Y-52.721
X153.267Y-60.341
X153.267Y-84.221
X153.267Y-91.841
X153.307Y-63.21
X153.307Y-70.83
X153.307Y-73.721
X153.307Y-81.341
X153.307Y-94.721
X153.307Y-102.341
X155.807Y-52.721
X155.807Y-60.341
X159.527Y-63.341
X159.527Y-70.841
X159.527Y-73.841
X159.527Y-81.341
X159.527Y-84.341
X159.527Y-91.841
X159.527Y-94.841
X159.527Y-102.341
X159.527Y-105.341
X159.527Y-112.841
X160.777Y-52.841
X160.777Y-60.341
X166.027Y-52.721
X166.027Y-60.341
X166.027Y-63.221
X166.027Y-70.841
X166.027Y-73.721
X166.027Y-81.341
X166.027Y-84.221
X166.027Y-91.841
X166.027Y-94.721
X166.027Y-102.341
X166.027Y-105.221
X166.027Y-112.841
X168.567Y-52.721
X168.567Y-60.341
X168.567Y-63.221
X168.567Y-70.841
X168.567Y-73.721
X168.567Y-81.341
X168.567Y-84.221
X168.567Y-91.841
X168.567Y-94.721
X168.567Y-102.341
X168.567Y-105.221
X168.567Y-112.841
X171.107Y-52.721
X171.107Y-60.341
X171.107Y-63.221
X171.107Y-70.841
X171.107Y-73.721
X171.107Y-81.341
X171.107Y-84.221
X171.107Y-91.841
X171.107Y-94.721
X171.107Y-102.341
X171.107Y-105.221
X171.107Y-112.841
X173.647Y-52.721
X173.647Y-60.341
X173.647Y-63.221
X173.647Y-70.841
X173.647Y-73.721
X173.647Y-81.341
X173.647Y-84.221
X173.647Y-91.841
X173.647Y-94.721
X173.647Y-102.341
X173.647Y-105.221
X173.647Y-112.841
X176.187Y-52.721
X176.187Y-60.341
X176.187Y-63.221
X176.187Y-70.841
X176.187Y-73.721
X176.187Y-81.341
X176.187Y-84.221
X176.187Y-91.841
X176.187Y-94.721
X176.187Y-102.341
X176.187Y-105.221
X176.187Y-112.841
X178.727Y-52.721
X178.727Y-60.341
X178.727Y-63.221
X178.727Y-70.841
X178.727Y-73.721
X178.727Y-81.341
X178.727Y-84.221
X178.727Y-91.841
X178.727Y-94.721
X178.727Y-102.341
X178.727Y-105.221
X178.727Y-112.841
X181.267Y-52.721
X181.267Y-60.341
X181.267Y-63.221
X181.267Y-70.841
X181.267Y-73.721
X181.267Y-81.341
X181.267Y-84.221
X181.267Y-91.841
X181.267Y-94.721
X181.267Y-102.341
X181.267Y-105.221
X181.267Y-112.841
X183.807Y-52.721
X183.807Y-60.341
X183.807Y-63.221
X183.807Y-70.841
X183.807Y-73.721
X183.807Y-81.341
X183.807Y-84.221
X183.807Y-91.841
X183.807Y-94.721
X183.807Y-102.341
X183.807Y-105.221
X183.807Y-112.841
X188.777Y-52.841
X188.777Y-60.341
X188.777Y-63.341
X188.777Y-70.841
X188.777Y-73.841
X188.777Y-81.341
X188.777Y-84.341
X188.777Y-91.841
X188.777Y-94.841
X188.777Y-102.341
X188.777Y-105.341
X188.777Y-112.841
X194.027Y-52.721
X194.027Y-60.341
X194.027Y-63.221
X194.027Y-70.841
X194.027Y-73.721
X194.027Y-81.341
X194.027Y-84.221
X194.027Y-91.841
X194.027Y-94.721
X194.027Y-102.341
X194.027Y-105.221
X194.027Y-112.841
X196.567Y-52.721
X196.567Y-60.341
X196.567Y-63.221
X196.567Y-70.841
X196.567Y-73.721
X196.567Y-81.341
X196.567Y-84.221
X196.567Y-91.841
X196.567Y-94.721
X196.567Y-102.341
X196.567Y-105.221
X196.567Y-112.841
X199.107Y-52.721
X199.107Y-60.341
X199.107Y-63.221
X199.107Y-70.841
X199.107Y-73.721
X199.107Y-81.341
X199.107Y-84.221
X199.107Y-91.841
X199.107Y-94.721
X199.107Y-102.341
X199.107Y-105.221
X199.107Y-112.841
X201.647Y-52.721
X201.647Y-60.341
X201.647Y-63.221
X201.647Y-70.841
X201.647Y-73.721
X201.647Y-81.341
X201.647Y-84.221
X201.647Y-91.841
X201.647Y-94.721
X201.647Y-102.341
X201.647Y-105.221
X201.647Y-112.841
X204.187Y-52.721
X204.187Y-60.341
X204.187Y-63.221
X204.187Y-70.841
X204.187Y-73.721
X204.187Y-81.341
X204.187Y-84.221
X204.187Y-91.841
X204.187Y-94.721
X204.187Y-102.341
X204.187Y-105.221
X204.187Y-112.841
X206.727Y-52.721
X206.727Y-60.341
X206.727Y-63.221
X206.727Y-70.841
X206.727Y-73.721
X206.727Y-81.341
X206.727Y-84.221
X206.727Y-91.841
X206.727Y-94.721
X206.727Y-102.341
X206.727Y-105.221
X206.727Y-112.841
X209.267Y-52.721
X209.267Y-60.341
X209.267Y-63.221
X209.267Y-70.841
X209.267Y-73.721
X209.267Y-81.341
X209.267Y-84.221
X209.267Y-91.841
X209.267Y-94.721
X209.267Y-102.341
X209.267Y-105.221
X209.267Y-112.841
X211.807Y-52.721
X211.807Y-60.341
X211.807Y-63.221
X211.807Y-70.841
X211.807Y-73.721
X211.807Y-81.341
X211.807Y-84.221
X211.807Y-91.841
X211.807Y-94.721
X211.807Y-102.341
X211.807Y-105.221
X211.807Y-112.841
X216.777Y-52.841
X216.777Y-60.341
X216.777Y-63.341
X216.777Y-70.841
X216.777Y-73.841
X216.777Y-81.341
X216.777Y-84.341
X216.777Y-91.841
X216.777Y-94.841
X216.777Y-102.341
X216.777Y-105.341
X216.777Y-112.841
X222.027Y-52.721
X222.027Y-60.341
X222.027Y-63.221
X222.027Y-70.841
X222.027Y-73.721
X222.027Y-81.341
X222.027Y-84.221
X222.027Y-91.841
X222.027Y-94.721
X222.027Y-102.341
X222.027Y-105.221
X222.027Y-112.841
X224.567Y-52.721
X224.567Y-60.341
X224.567Y-63.221
X224.567Y-70.841
X224.567Y-73.721
X224.567Y-81.341
X224.567Y-84.221
X224.567Y-91.841
X224.567Y-94.721
X224.567Y-102.341
X224.567Y-105.221
X224.567Y-112.841
X227.107Y-52.721
X227.107Y-60.341
X227.107Y-63.221
X227.107Y-70.841
X227.107Y-73.721
X227.107Y-81.341
X227.107Y-84.221
X227.107Y-91.841
X227.107Y-94.721
X227.107Y-102.341
X227.107Y-105.221
X227.107Y-112.841
X229.647Y-52.721
X229.647Y-60.341
X229.647Y-63.221
X229.647Y-70.841
X229.647Y-73.721
X229.647Y-81.341
X229.647Y-84.221
X229.647Y-91.841
X229.647Y-94.721
X229.647Y-102.341
X229.647Y-105.221
X229.647Y-112.841
X232.187Y-52.721
X232.187Y-60.341
X232.187Y-63.221
X232.187Y-70.841
X232.187Y-73.721
X232.187Y-81.341
X232.187Y-84.221
X232.187Y-91.841
X232.187Y-94.721
X232.187Y-102.341
X232.187Y-105.221
X232.187Y-112.841
X234.727Y-52.721
X234.727Y-60.341
X234.727Y-63.221
X234.727Y-70.841
X234.727Y-73.721
X234.727Y-81.341
X234.727Y-84.221
X234.727Y-91.841
X234.727Y-94.721
X234.727Y-102.341
X234.727Y-105.221
X234.727Y-112.841
X237.267Y-52.721
X237.267Y-60.341
X237.267Y-63.221
X237.267Y-70.841
X237.267Y-73.721
X237.267Y-81.341
X237.267Y-84.221
X237.267Y-91.841
X237.267Y-94.721
X237.267Y-102.341
X237.267Y-105.221
X237.267Y-112.841
X239.807Y-52.721
X239.807Y-60.341
X239.807Y-63.221
X239.807Y-70.841
X239.807Y-73.721
X239.807Y-81.341
X239.807Y-84.221
X239.807Y-91.841
X239.807Y-94.721
X239.807Y-102.341
X239.807Y-105.221
X239.807Y-112.841
X244.777Y-52.841
X244.777Y-60.341
X244.777Y-63.341
X244.777Y-70.841
X244.777Y-73.841
X244.777Y-81.341
X244.777Y-84.341
X244.777Y-91.841
X244.777Y-94.841
X244.777Y-102.341
X244.777Y-105.341
X244.777Y-112.841
X250.027Y-52.721
X250.027Y-60.341
X250.027Y-63.221
X250.027Y-70.841
X250.027Y-73.721
X250.027Y-81.341
X250.027Y-84.221
X250.027Y-91.841
X250.027Y-94.721
X250.027Y-102.341
X250.027Y-105.221
X250.027Y-112.841
X252.567Y-52.721
X252.567Y-60.341
X252.567Y-63.221
X252.567Y-70.841
X252.567Y-73.721
X252.567Y-81.341
X252.567Y-84.221
X252.567Y-91.841
X252.567Y-94.721
X252.567Y-102.341
X252.567Y-105.221
X252.567Y-112.841
X255.107Y-52.721
X255.107Y-60.341
X255.107Y-63.221
X255.107Y-70.841
X255.107Y-73.721
X255.107Y-81.341
X255.107Y-84.221
X255.107Y-91.841
X255.107Y-94.721
X255.107Y-102.341
X255.107Y-105.221
X255.107Y-112.841
X257.647Y-52.721
X257.647Y-60.341
X257.647Y-63.221
X257.647Y-70.841
X257.647Y-73.721
X257.647Y-81.341
X257.647Y-84.221
X257.647Y-91.841
X257.647Y-94.721
X257.647Y-102.341
X257.647Y-105.221
X257.647Y-112.841
X260.187Y-52.721
X260.187Y-60.341
X260.187Y-63.221
X260.187Y-70.841
X260.187Y-73.721
X260.187Y-81.341
X260.187Y-84.221
X260.187Y-91.841
X260.187Y-94.721
X260.187Y-102.341
X260.187Y-105.221
X260.187Y-112.841
X262.727Y-52.721
X262.727Y-60.341
X262.727Y-63.221
X262.727Y-70.841
X262.727Y-73.721
X262.727Y-81.341
X262.727Y-84.221
X262.727Y-91.841
X262.727Y-94.721
X262.727Y-102.341
X262.727Y-105.221
X262.727Y-112.841
X265.267Y-52.721
X265.267Y-60.341
X265.267Y-63.221
X265.267Y-70.841
X265.267Y-73.721
X265.267Y-81.341
X265.267Y-84.221
X265.267Y-91.841
X265.267Y-94.721
X265.267Y-102.341
X265.267Y-105.221
X265.267Y-112.841
X267.807Y-52.721
X267.807Y-60.341
X267.807Y-63.221
X267.807Y-70.841
X267.807Y-73.721
X267.807Y-81.341
X267.807Y-84.221
X267.807Y-91.841
X267.807Y-94.721
X267.807Y-102.341
X267.807Y-105.221
X267.807Y-112.841
T3
X124.727Y-94.891
X124.727Y-110.131
T4
X37.851Y-109.291
X37.851Y-111.831
X40.391Y-109.291
X40.391Y-111.831
X42.931Y-109.291
X42.931Y-111.831
X45.471Y-109.291
X45.471Y-111.831
X48.011Y-109.291
X48.011Y-111.831
X50.551Y-109.291
X50.551Y-111.831
X53.091Y-109.291
X53.091Y-111.831
X55.631Y-109.291
X55.631Y-111.831
X58.171Y-109.291
X58.171Y-111.831
X60.711Y-109.291
X60.711Y-111.831
X63.251Y-109.291
X63.251Y-111.831
X65.791Y-109.291
X65.791Y-111.831
X68.331Y-109.291
X68.331Y-111.831
X70.871Y-109.291
X70.871Y-111.831
X73.411Y-109.291
X73.411Y-111.831
X75.951Y-109.291
X75.951Y-111.831
X78.491Y-109.291
X78.491Y-111.831
X81.031Y-109.291
X81.031Y-111.831
X83.571Y-109.291
X83.571Y-111.831
X86.111Y-109.291
X86.111Y-111.831
X88.651Y-109.291
X88.651Y-111.831
X91.191Y-109.291
X91.191Y-111.831
X93.731Y-109.291
X93.731Y-111.831
X96.271Y-109.291
X96.271Y-111.831
X98.811Y-109.291
X98.811Y-111.831
X101.351Y-109.291
X101.351Y-111.831
T0
M30
