G04 #@! TF.GenerationSoftware,KiCad,Pcbnew,(5.1.12)-1*
G04 #@! TF.CreationDate,2023-01-17T22:17:09+01:00*
G04 #@! TF.ProjectId,arcobaleno memory extension,6172636f-6261-46c6-956e-6f206d656d6f,rev?*
G04 #@! TF.SameCoordinates,Original*
G04 #@! TF.FileFunction,Legend,Top*
G04 #@! TF.FilePolarity,Positive*
%FSLAX46Y46*%
G04 Gerber Fmt 4.6, Leading zero omitted, Abs format (unit mm)*
G04 Created by KiCad (PCBNEW (5.1.12)-1) date 2023-01-17 22:17:09*
%MOMM*%
%LPD*%
G01*
G04 APERTURE LIST*
%ADD10C,0.150000*%
%ADD11C,0.120000*%
%ADD12C,0.010000*%
%ADD13O,1.600000X1.600000*%
%ADD14R,1.600000X1.600000*%
%ADD15C,3.700000*%
%ADD16C,1.524000*%
%ADD17C,1.600000*%
%ADD18C,2.000000*%
%ADD19O,2.000000X2.000000*%
G04 APERTURE END LIST*
D10*
X39089937Y-117893460D02*
X39089937Y-117226794D01*
X39089937Y-117417270D02*
X39137556Y-117322032D01*
X39185175Y-117274413D01*
X39280413Y-117226794D01*
X39375651Y-117226794D01*
X40089937Y-117845841D02*
X39994699Y-117893460D01*
X39804222Y-117893460D01*
X39708984Y-117845841D01*
X39661365Y-117750603D01*
X39661365Y-117369651D01*
X39708984Y-117274413D01*
X39804222Y-117226794D01*
X39994699Y-117226794D01*
X40089937Y-117274413D01*
X40137556Y-117369651D01*
X40137556Y-117464889D01*
X39661365Y-117560127D01*
X40470889Y-117226794D02*
X40708984Y-117893460D01*
X40947080Y-117226794D01*
X41708984Y-117845841D02*
X41613746Y-117893460D01*
X41423270Y-117893460D01*
X41328032Y-117845841D01*
X41280413Y-117750603D01*
X41280413Y-117369651D01*
X41328032Y-117274413D01*
X41423270Y-117226794D01*
X41613746Y-117226794D01*
X41708984Y-117274413D01*
X41756603Y-117369651D01*
X41756603Y-117464889D01*
X41280413Y-117560127D01*
X42185175Y-117893460D02*
X42185175Y-117226794D01*
X42185175Y-117417270D02*
X42232794Y-117322032D01*
X42280413Y-117274413D01*
X42375651Y-117226794D01*
X42470889Y-117226794D01*
X42756603Y-117845841D02*
X42851841Y-117893460D01*
X43042318Y-117893460D01*
X43137556Y-117845841D01*
X43185175Y-117750603D01*
X43185175Y-117702984D01*
X43137556Y-117607746D01*
X43042318Y-117560127D01*
X42899460Y-117560127D01*
X42804222Y-117512508D01*
X42756603Y-117417270D01*
X42756603Y-117369651D01*
X42804222Y-117274413D01*
X42899460Y-117226794D01*
X43042318Y-117226794D01*
X43137556Y-117274413D01*
X43994699Y-117845841D02*
X43899460Y-117893460D01*
X43708984Y-117893460D01*
X43613746Y-117845841D01*
X43566127Y-117750603D01*
X43566127Y-117369651D01*
X43613746Y-117274413D01*
X43708984Y-117226794D01*
X43899460Y-117226794D01*
X43994699Y-117274413D01*
X44042318Y-117369651D01*
X44042318Y-117464889D01*
X43566127Y-117560127D01*
X45613746Y-117845841D02*
X45518508Y-117893460D01*
X45328032Y-117893460D01*
X45232794Y-117845841D01*
X45185175Y-117750603D01*
X45185175Y-117369651D01*
X45232794Y-117274413D01*
X45328032Y-117226794D01*
X45518508Y-117226794D01*
X45613746Y-117274413D01*
X45661365Y-117369651D01*
X45661365Y-117464889D01*
X45185175Y-117560127D01*
X46089937Y-117226794D02*
X46089937Y-117893460D01*
X46089937Y-117322032D02*
X46137556Y-117274413D01*
X46232794Y-117226794D01*
X46375651Y-117226794D01*
X46470889Y-117274413D01*
X46518508Y-117369651D01*
X46518508Y-117893460D01*
X47423270Y-117226794D02*
X47423270Y-118036318D01*
X47375651Y-118131556D01*
X47328032Y-118179175D01*
X47232794Y-118226794D01*
X47089937Y-118226794D01*
X46994699Y-118179175D01*
X47423270Y-117845841D02*
X47328032Y-117893460D01*
X47137556Y-117893460D01*
X47042318Y-117845841D01*
X46994699Y-117798222D01*
X46947080Y-117702984D01*
X46947080Y-117417270D01*
X46994699Y-117322032D01*
X47042318Y-117274413D01*
X47137556Y-117226794D01*
X47328032Y-117226794D01*
X47423270Y-117274413D01*
X47899460Y-117893460D02*
X47899460Y-117226794D01*
X47899460Y-116893460D02*
X47851841Y-116941080D01*
X47899460Y-116988699D01*
X47947080Y-116941080D01*
X47899460Y-116893460D01*
X47899460Y-116988699D01*
X48375651Y-117226794D02*
X48375651Y-117893460D01*
X48375651Y-117322032D02*
X48423270Y-117274413D01*
X48518508Y-117226794D01*
X48661365Y-117226794D01*
X48756603Y-117274413D01*
X48804222Y-117369651D01*
X48804222Y-117893460D01*
X49661365Y-117845841D02*
X49566127Y-117893460D01*
X49375651Y-117893460D01*
X49280413Y-117845841D01*
X49232794Y-117750603D01*
X49232794Y-117369651D01*
X49280413Y-117274413D01*
X49375651Y-117226794D01*
X49566127Y-117226794D01*
X49661365Y-117274413D01*
X49708984Y-117369651D01*
X49708984Y-117464889D01*
X49232794Y-117560127D01*
X50518508Y-117845841D02*
X50423270Y-117893460D01*
X50232794Y-117893460D01*
X50137556Y-117845841D01*
X50089937Y-117750603D01*
X50089937Y-117369651D01*
X50137556Y-117274413D01*
X50232794Y-117226794D01*
X50423270Y-117226794D01*
X50518508Y-117274413D01*
X50566127Y-117369651D01*
X50566127Y-117464889D01*
X50089937Y-117560127D01*
X50994699Y-117893460D02*
X50994699Y-117226794D01*
X50994699Y-117417270D02*
X51042318Y-117322032D01*
X51089937Y-117274413D01*
X51185175Y-117226794D01*
X51280413Y-117226794D01*
X51613746Y-117893460D02*
X51613746Y-117226794D01*
X51613746Y-116893460D02*
X51566127Y-116941080D01*
X51613746Y-116988699D01*
X51661365Y-116941080D01*
X51613746Y-116893460D01*
X51613746Y-116988699D01*
X52089937Y-117226794D02*
X52089937Y-117893460D01*
X52089937Y-117322032D02*
X52137556Y-117274413D01*
X52232794Y-117226794D01*
X52375651Y-117226794D01*
X52470889Y-117274413D01*
X52518508Y-117369651D01*
X52518508Y-117893460D01*
X53423270Y-117226794D02*
X53423270Y-118036318D01*
X53375651Y-118131556D01*
X53328032Y-118179175D01*
X53232794Y-118226794D01*
X53089937Y-118226794D01*
X52994699Y-118179175D01*
X53423270Y-117845841D02*
X53328032Y-117893460D01*
X53137556Y-117893460D01*
X53042318Y-117845841D01*
X52994699Y-117798222D01*
X52947080Y-117702984D01*
X52947080Y-117417270D01*
X52994699Y-117322032D01*
X53042318Y-117274413D01*
X53137556Y-117226794D01*
X53328032Y-117226794D01*
X53423270Y-117274413D01*
X54661365Y-117893460D02*
X54661365Y-116893460D01*
X54661365Y-117274413D02*
X54756603Y-117226794D01*
X54947080Y-117226794D01*
X55042318Y-117274413D01*
X55089937Y-117322032D01*
X55137556Y-117417270D01*
X55137556Y-117702984D01*
X55089937Y-117798222D01*
X55042318Y-117845841D01*
X54947080Y-117893460D01*
X54756603Y-117893460D01*
X54661365Y-117845841D01*
X55470889Y-117226794D02*
X55708984Y-117893460D01*
X55947080Y-117226794D02*
X55708984Y-117893460D01*
X55613746Y-118131556D01*
X55566127Y-118179175D01*
X55470889Y-118226794D01*
X57089937Y-117893460D02*
X57089937Y-116893460D01*
X57661365Y-117893460D01*
X57661365Y-116893460D01*
X58137556Y-117893460D02*
X58137556Y-117226794D01*
X58137556Y-116893460D02*
X58089937Y-116941080D01*
X58137556Y-116988699D01*
X58185175Y-116941080D01*
X58137556Y-116893460D01*
X58137556Y-116988699D01*
X59042318Y-117845841D02*
X58947080Y-117893460D01*
X58756603Y-117893460D01*
X58661365Y-117845841D01*
X58613746Y-117798222D01*
X58566127Y-117702984D01*
X58566127Y-117417270D01*
X58613746Y-117322032D01*
X58661365Y-117274413D01*
X58756603Y-117226794D01*
X58947080Y-117226794D01*
X59042318Y-117274413D01*
X59613746Y-117893460D02*
X59518508Y-117845841D01*
X59470889Y-117798222D01*
X59423270Y-117702984D01*
X59423270Y-117417270D01*
X59470889Y-117322032D01*
X59518508Y-117274413D01*
X59613746Y-117226794D01*
X59756603Y-117226794D01*
X59851841Y-117274413D01*
X59899460Y-117322032D01*
X59947080Y-117417270D01*
X59947080Y-117702984D01*
X59899460Y-117798222D01*
X59851841Y-117845841D01*
X59756603Y-117893460D01*
X59613746Y-117893460D01*
X60518508Y-117893460D02*
X60423270Y-117845841D01*
X60375651Y-117750603D01*
X60375651Y-116893460D01*
X61328032Y-117893460D02*
X61328032Y-117369651D01*
X61280413Y-117274413D01*
X61185175Y-117226794D01*
X60994699Y-117226794D01*
X60899460Y-117274413D01*
X61328032Y-117845841D02*
X61232794Y-117893460D01*
X60994699Y-117893460D01*
X60899460Y-117845841D01*
X60851841Y-117750603D01*
X60851841Y-117655365D01*
X60899460Y-117560127D01*
X60994699Y-117512508D01*
X61232794Y-117512508D01*
X61328032Y-117464889D01*
X62518508Y-117607746D02*
X62994699Y-117607746D01*
X62423270Y-117893460D02*
X62756603Y-116893460D01*
X63089937Y-117893460D01*
X63328032Y-117226794D02*
X63566127Y-117893460D01*
X63804222Y-117226794D01*
X64613746Y-117893460D02*
X64613746Y-117369651D01*
X64566127Y-117274413D01*
X64470889Y-117226794D01*
X64280413Y-117226794D01*
X64185175Y-117274413D01*
X64613746Y-117845841D02*
X64518508Y-117893460D01*
X64280413Y-117893460D01*
X64185175Y-117845841D01*
X64137556Y-117750603D01*
X64137556Y-117655365D01*
X64185175Y-117560127D01*
X64280413Y-117512508D01*
X64518508Y-117512508D01*
X64613746Y-117464889D01*
X65089937Y-117226794D02*
X65089937Y-117893460D01*
X65089937Y-117322032D02*
X65137556Y-117274413D01*
X65232794Y-117226794D01*
X65375651Y-117226794D01*
X65470889Y-117274413D01*
X65518508Y-117369651D01*
X65518508Y-117893460D01*
X65899460Y-117226794D02*
X66423270Y-117226794D01*
X65899460Y-117893460D01*
X66423270Y-117893460D01*
X66804222Y-117893460D02*
X66804222Y-117226794D01*
X66804222Y-116893460D02*
X66756603Y-116941080D01*
X66804222Y-116988699D01*
X66851841Y-116941080D01*
X66804222Y-116893460D01*
X66804222Y-116988699D01*
D11*
X22805080Y-57459080D02*
X22805080Y-59109080D01*
X22805080Y-59109080D02*
X40705080Y-59109080D01*
X40705080Y-59109080D02*
X40705080Y-53809080D01*
X40705080Y-53809080D02*
X22805080Y-53809080D01*
X22805080Y-53809080D02*
X22805080Y-55459080D01*
X22805080Y-55459080D02*
G75*
G02*
X22805080Y-57459080I0J-1000000D01*
G01*
D12*
G36*
X247976082Y-117028102D02*
G01*
X247986161Y-119162782D01*
X247007702Y-119162782D01*
X246687832Y-119161913D01*
X246439039Y-119159094D01*
X246254269Y-119154005D01*
X246126465Y-119146328D01*
X246048571Y-119135744D01*
X246013532Y-119121936D01*
X246010557Y-119117747D01*
X246007317Y-119074388D01*
X246004598Y-118965490D01*
X246002426Y-118797570D01*
X246000828Y-118577145D01*
X245999829Y-118310731D01*
X245999456Y-118004844D01*
X245999735Y-117666003D01*
X246000535Y-117360022D01*
X246212995Y-117360022D01*
X246218497Y-117608186D01*
X246270231Y-117844766D01*
X246368650Y-118052044D01*
X246433114Y-118136495D01*
X246602441Y-118277843D01*
X246794000Y-118354316D01*
X246997339Y-118363752D01*
X247202005Y-118303990D01*
X247214351Y-118298032D01*
X247302707Y-118261784D01*
X247354585Y-118254839D01*
X247360311Y-118262003D01*
X247395642Y-118281772D01*
X247486783Y-118294884D01*
X247575234Y-118298102D01*
X247790157Y-118298102D01*
X247790157Y-115916464D01*
X247585003Y-115927354D01*
X247379849Y-115938243D01*
X247368660Y-116311934D01*
X247363042Y-116478253D01*
X247356257Y-116583233D01*
X247345398Y-116637573D01*
X247327553Y-116651972D01*
X247299815Y-116637129D01*
X247283770Y-116624129D01*
X247156770Y-116562385D01*
X246991096Y-116542218D01*
X246809661Y-116560839D01*
X246635376Y-116615461D01*
X246491152Y-116703296D01*
X246469338Y-116723216D01*
X246338870Y-116899819D01*
X246253271Y-117117994D01*
X246212995Y-117360022D01*
X246000535Y-117360022D01*
X246000691Y-117300723D01*
X246002014Y-116983066D01*
X246012157Y-114893421D01*
X247966003Y-114893421D01*
X247976082Y-117028102D01*
G37*
X247976082Y-117028102D02*
X247986161Y-119162782D01*
X247007702Y-119162782D01*
X246687832Y-119161913D01*
X246439039Y-119159094D01*
X246254269Y-119154005D01*
X246126465Y-119146328D01*
X246048571Y-119135744D01*
X246013532Y-119121936D01*
X246010557Y-119117747D01*
X246007317Y-119074388D01*
X246004598Y-118965490D01*
X246002426Y-118797570D01*
X246000828Y-118577145D01*
X245999829Y-118310731D01*
X245999456Y-118004844D01*
X245999735Y-117666003D01*
X246000535Y-117360022D01*
X246212995Y-117360022D01*
X246218497Y-117608186D01*
X246270231Y-117844766D01*
X246368650Y-118052044D01*
X246433114Y-118136495D01*
X246602441Y-118277843D01*
X246794000Y-118354316D01*
X246997339Y-118363752D01*
X247202005Y-118303990D01*
X247214351Y-118298032D01*
X247302707Y-118261784D01*
X247354585Y-118254839D01*
X247360311Y-118262003D01*
X247395642Y-118281772D01*
X247486783Y-118294884D01*
X247575234Y-118298102D01*
X247790157Y-118298102D01*
X247790157Y-115916464D01*
X247585003Y-115927354D01*
X247379849Y-115938243D01*
X247368660Y-116311934D01*
X247363042Y-116478253D01*
X247356257Y-116583233D01*
X247345398Y-116637573D01*
X247327553Y-116651972D01*
X247299815Y-116637129D01*
X247283770Y-116624129D01*
X247156770Y-116562385D01*
X246991096Y-116542218D01*
X246809661Y-116560839D01*
X246635376Y-116615461D01*
X246491152Y-116703296D01*
X246469338Y-116723216D01*
X246338870Y-116899819D01*
X246253271Y-117117994D01*
X246212995Y-117360022D01*
X246000535Y-117360022D01*
X246000691Y-117300723D01*
X246002014Y-116983066D01*
X246012157Y-114893421D01*
X247966003Y-114893421D01*
X247976082Y-117028102D01*
G36*
X250252003Y-119162782D02*
G01*
X248298157Y-119162782D01*
X248298157Y-116604768D01*
X249079695Y-116604768D01*
X249079695Y-118298102D01*
X249470464Y-118298102D01*
X249470464Y-116604768D01*
X249079695Y-116604768D01*
X248298157Y-116604768D01*
X248298157Y-116352570D01*
X249075795Y-116352570D01*
X249474365Y-116352570D01*
X249462645Y-116145407D01*
X249450926Y-115938243D01*
X249099234Y-115938243D01*
X249087514Y-116145407D01*
X249075795Y-116352570D01*
X248298157Y-116352570D01*
X248298157Y-114875407D01*
X250252003Y-114875407D01*
X250252003Y-119162782D01*
G37*
X250252003Y-119162782D02*
X248298157Y-119162782D01*
X248298157Y-116604768D01*
X249079695Y-116604768D01*
X249079695Y-118298102D01*
X249470464Y-118298102D01*
X249470464Y-116604768D01*
X249079695Y-116604768D01*
X248298157Y-116604768D01*
X248298157Y-116352570D01*
X249075795Y-116352570D01*
X249474365Y-116352570D01*
X249462645Y-116145407D01*
X249450926Y-115938243D01*
X249099234Y-115938243D01*
X249087514Y-116145407D01*
X249075795Y-116352570D01*
X248298157Y-116352570D01*
X248298157Y-114875407D01*
X250252003Y-114875407D01*
X250252003Y-119162782D01*
G36*
X252557541Y-119162782D02*
G01*
X251579392Y-119162782D01*
X251259575Y-119161913D01*
X251010836Y-119159092D01*
X250826116Y-119154001D01*
X250698361Y-119146321D01*
X250620512Y-119135733D01*
X250585514Y-119121919D01*
X250582557Y-119117747D01*
X250579317Y-119074388D01*
X250576598Y-118965490D01*
X250574426Y-118797570D01*
X250572828Y-118577145D01*
X250571829Y-118310731D01*
X250571456Y-118004844D01*
X250571735Y-117666003D01*
X250572202Y-117487209D01*
X250783176Y-117487209D01*
X250823679Y-117700729D01*
X250909427Y-117887615D01*
X251032524Y-118040264D01*
X251185077Y-118151075D01*
X251359189Y-118212445D01*
X251546965Y-118216772D01*
X251735095Y-118159084D01*
X251893234Y-118083088D01*
X251893234Y-118187648D01*
X251877903Y-118318947D01*
X251822956Y-118405481D01*
X251734131Y-118461562D01*
X251600662Y-118502239D01*
X251467496Y-118506022D01*
X251354900Y-118476997D01*
X251283145Y-118419252D01*
X251268003Y-118367585D01*
X251232667Y-118349263D01*
X251141517Y-118337111D01*
X251053080Y-118334130D01*
X250919999Y-118338937D01*
X250855010Y-118361915D01*
X250848268Y-118415897D01*
X250889926Y-118513718D01*
X250900058Y-118533582D01*
X251010507Y-118667407D01*
X251178910Y-118753949D01*
X251403665Y-118792585D01*
X251566007Y-118792456D01*
X251774164Y-118770394D01*
X251927345Y-118726513D01*
X251982041Y-118699477D01*
X252063827Y-118651171D01*
X252128091Y-118604272D01*
X252177081Y-118549740D01*
X252213043Y-118478535D01*
X252238226Y-118381619D01*
X252254876Y-118249950D01*
X252265242Y-118074491D01*
X252271572Y-117846200D01*
X252276112Y-117556038D01*
X252276672Y-117514485D01*
X252288880Y-116604768D01*
X252109369Y-116604768D01*
X251974513Y-116616319D01*
X251910964Y-116651458D01*
X251908054Y-116657155D01*
X251883270Y-116685533D01*
X251832758Y-116678989D01*
X251743782Y-116639141D01*
X251590871Y-116581679D01*
X251449050Y-116576103D01*
X251285239Y-116621375D01*
X251277050Y-116624502D01*
X251084100Y-116725106D01*
X250943811Y-116862789D01*
X250848365Y-117047791D01*
X250795814Y-117254656D01*
X250783176Y-117487209D01*
X250572202Y-117487209D01*
X250572691Y-117300723D01*
X250574014Y-116983066D01*
X250584157Y-114893421D01*
X252557541Y-114874169D01*
X252557541Y-119162782D01*
G37*
X252557541Y-119162782D02*
X251579392Y-119162782D01*
X251259575Y-119161913D01*
X251010836Y-119159092D01*
X250826116Y-119154001D01*
X250698361Y-119146321D01*
X250620512Y-119135733D01*
X250585514Y-119121919D01*
X250582557Y-119117747D01*
X250579317Y-119074388D01*
X250576598Y-118965490D01*
X250574426Y-118797570D01*
X250572828Y-118577145D01*
X250571829Y-118310731D01*
X250571456Y-118004844D01*
X250571735Y-117666003D01*
X250572202Y-117487209D01*
X250783176Y-117487209D01*
X250823679Y-117700729D01*
X250909427Y-117887615D01*
X251032524Y-118040264D01*
X251185077Y-118151075D01*
X251359189Y-118212445D01*
X251546965Y-118216772D01*
X251735095Y-118159084D01*
X251893234Y-118083088D01*
X251893234Y-118187648D01*
X251877903Y-118318947D01*
X251822956Y-118405481D01*
X251734131Y-118461562D01*
X251600662Y-118502239D01*
X251467496Y-118506022D01*
X251354900Y-118476997D01*
X251283145Y-118419252D01*
X251268003Y-118367585D01*
X251232667Y-118349263D01*
X251141517Y-118337111D01*
X251053080Y-118334130D01*
X250919999Y-118338937D01*
X250855010Y-118361915D01*
X250848268Y-118415897D01*
X250889926Y-118513718D01*
X250900058Y-118533582D01*
X251010507Y-118667407D01*
X251178910Y-118753949D01*
X251403665Y-118792585D01*
X251566007Y-118792456D01*
X251774164Y-118770394D01*
X251927345Y-118726513D01*
X251982041Y-118699477D01*
X252063827Y-118651171D01*
X252128091Y-118604272D01*
X252177081Y-118549740D01*
X252213043Y-118478535D01*
X252238226Y-118381619D01*
X252254876Y-118249950D01*
X252265242Y-118074491D01*
X252271572Y-117846200D01*
X252276112Y-117556038D01*
X252276672Y-117514485D01*
X252288880Y-116604768D01*
X252109369Y-116604768D01*
X251974513Y-116616319D01*
X251910964Y-116651458D01*
X251908054Y-116657155D01*
X251883270Y-116685533D01*
X251832758Y-116678989D01*
X251743782Y-116639141D01*
X251590871Y-116581679D01*
X251449050Y-116576103D01*
X251285239Y-116621375D01*
X251277050Y-116624502D01*
X251084100Y-116725106D01*
X250943811Y-116862789D01*
X250848365Y-117047791D01*
X250795814Y-117254656D01*
X250783176Y-117487209D01*
X250572202Y-117487209D01*
X250572691Y-117300723D01*
X250574014Y-116983066D01*
X250584157Y-114893421D01*
X252557541Y-114874169D01*
X252557541Y-119162782D01*
G36*
X254843541Y-114893421D02*
G01*
X254843541Y-119144768D01*
X252870157Y-119164020D01*
X252870157Y-116604768D01*
X253651695Y-116604768D01*
X253651695Y-118298102D01*
X254081541Y-118298102D01*
X254081541Y-116604768D01*
X253651695Y-116604768D01*
X252870157Y-116604768D01*
X252870157Y-116352570D01*
X253647795Y-116352570D01*
X254085441Y-116352570D01*
X254073722Y-116145407D01*
X254062003Y-115938243D01*
X253671234Y-115938243D01*
X253659514Y-116145407D01*
X253647795Y-116352570D01*
X252870157Y-116352570D01*
X252870157Y-114874169D01*
X254843541Y-114893421D01*
G37*
X254843541Y-114893421D02*
X254843541Y-119144768D01*
X252870157Y-119164020D01*
X252870157Y-116604768D01*
X253651695Y-116604768D01*
X253651695Y-118298102D01*
X254081541Y-118298102D01*
X254081541Y-116604768D01*
X253651695Y-116604768D01*
X252870157Y-116604768D01*
X252870157Y-116352570D01*
X253647795Y-116352570D01*
X254085441Y-116352570D01*
X254073722Y-116145407D01*
X254062003Y-115938243D01*
X253671234Y-115938243D01*
X253659514Y-116145407D01*
X253647795Y-116352570D01*
X252870157Y-116352570D01*
X252870157Y-114874169D01*
X254843541Y-114893421D01*
G36*
X257129541Y-119162782D02*
G01*
X255175695Y-119162782D01*
X255175695Y-116712853D01*
X255683695Y-116712853D01*
X255689027Y-116805703D01*
X255714178Y-116846972D01*
X255772880Y-116856915D01*
X255781387Y-116856967D01*
X255879080Y-116856967D01*
X255879080Y-118087474D01*
X255995285Y-118194614D01*
X256069832Y-118255864D01*
X256141029Y-118286184D01*
X256239050Y-118294071D01*
X256337208Y-118290921D01*
X256562926Y-118280087D01*
X256574836Y-118108953D01*
X256586746Y-117937818D01*
X256449211Y-117937818D01*
X256331209Y-117919752D01*
X256271224Y-117868130D01*
X256255977Y-117806953D01*
X256243358Y-117689836D01*
X256234573Y-117532883D01*
X256230826Y-117352197D01*
X256230772Y-117327704D01*
X256230772Y-116856967D01*
X256543387Y-116856967D01*
X256543387Y-116568740D01*
X256230772Y-116568740D01*
X256230772Y-115956258D01*
X255879080Y-115956258D01*
X255879080Y-116262499D01*
X255878183Y-116410795D01*
X255872458Y-116501301D01*
X255857354Y-116548283D01*
X255828321Y-116566007D01*
X255781387Y-116568740D01*
X255718446Y-116576606D01*
X255690471Y-116613708D01*
X255683730Y-116700303D01*
X255683695Y-116712853D01*
X255175695Y-116712853D01*
X255175695Y-114875407D01*
X257129541Y-114875407D01*
X257129541Y-119162782D01*
G37*
X257129541Y-119162782D02*
X255175695Y-119162782D01*
X255175695Y-116712853D01*
X255683695Y-116712853D01*
X255689027Y-116805703D01*
X255714178Y-116846972D01*
X255772880Y-116856915D01*
X255781387Y-116856967D01*
X255879080Y-116856967D01*
X255879080Y-118087474D01*
X255995285Y-118194614D01*
X256069832Y-118255864D01*
X256141029Y-118286184D01*
X256239050Y-118294071D01*
X256337208Y-118290921D01*
X256562926Y-118280087D01*
X256574836Y-118108953D01*
X256586746Y-117937818D01*
X256449211Y-117937818D01*
X256331209Y-117919752D01*
X256271224Y-117868130D01*
X256255977Y-117806953D01*
X256243358Y-117689836D01*
X256234573Y-117532883D01*
X256230826Y-117352197D01*
X256230772Y-117327704D01*
X256230772Y-116856967D01*
X256543387Y-116856967D01*
X256543387Y-116568740D01*
X256230772Y-116568740D01*
X256230772Y-115956258D01*
X255879080Y-115956258D01*
X255879080Y-116262499D01*
X255878183Y-116410795D01*
X255872458Y-116501301D01*
X255857354Y-116548283D01*
X255828321Y-116566007D01*
X255781387Y-116568740D01*
X255718446Y-116576606D01*
X255690471Y-116613708D01*
X255683730Y-116700303D01*
X255683695Y-116712853D01*
X255175695Y-116712853D01*
X255175695Y-114875407D01*
X257129541Y-114875407D01*
X257129541Y-119162782D01*
G36*
X259425620Y-117028102D02*
G01*
X259435700Y-119162782D01*
X258457240Y-119162782D01*
X258137370Y-119161913D01*
X257888578Y-119159094D01*
X257703808Y-119154005D01*
X257576004Y-119146328D01*
X257498110Y-119135744D01*
X257463070Y-119121936D01*
X257460096Y-119117747D01*
X257456855Y-119074388D01*
X257454136Y-118965490D01*
X257451964Y-118797570D01*
X257450366Y-118577145D01*
X257449367Y-118310731D01*
X257448995Y-118004844D01*
X257449117Y-117856024D01*
X257706111Y-117856024D01*
X257743286Y-118029207D01*
X257839587Y-118169408D01*
X257981401Y-118269994D01*
X258155111Y-118324333D01*
X258347104Y-118325793D01*
X258543765Y-118267740D01*
X258547586Y-118265957D01*
X258641251Y-118226912D01*
X258684365Y-118225077D01*
X258692618Y-118247943D01*
X258717667Y-118279624D01*
X258800467Y-118295252D01*
X258897772Y-118298144D01*
X259102926Y-118298186D01*
X259090771Y-117589549D01*
X259084475Y-117313128D01*
X259074557Y-117099386D01*
X259058478Y-116938949D01*
X259033700Y-116822445D01*
X258997681Y-116740503D01*
X258947883Y-116683750D01*
X258881766Y-116642815D01*
X258828047Y-116619944D01*
X258672104Y-116582841D01*
X258480974Y-116569523D01*
X258286839Y-116579484D01*
X258121883Y-116612217D01*
X258070701Y-116631846D01*
X257941410Y-116727460D01*
X257843278Y-116864364D01*
X257795635Y-117013670D01*
X257793849Y-117045554D01*
X257801002Y-117109622D01*
X257837321Y-117138052D01*
X257925091Y-117145096D01*
X257949632Y-117145194D01*
X258054701Y-117138166D01*
X258114000Y-117104637D01*
X258159449Y-117025941D01*
X258161589Y-117021240D01*
X258222489Y-116927718D01*
X258311566Y-116882439D01*
X258348135Y-116874736D01*
X258507107Y-116871170D01*
X258630401Y-116915828D01*
X258702992Y-117002600D01*
X258709368Y-117021678D01*
X258718790Y-117102116D01*
X258704551Y-117146747D01*
X258654293Y-117168237D01*
X258548434Y-117201415D01*
X258407095Y-117240127D01*
X258361308Y-117251768D01*
X258110669Y-117324585D01*
X257929090Y-117404674D01*
X257807485Y-117500411D01*
X257736772Y-117620176D01*
X257707864Y-117772346D01*
X257706111Y-117856024D01*
X257449117Y-117856024D01*
X257449273Y-117666003D01*
X257450230Y-117300723D01*
X257451553Y-116983066D01*
X257461695Y-114893421D01*
X259415541Y-114893421D01*
X259425620Y-117028102D01*
G37*
X259425620Y-117028102D02*
X259435700Y-119162782D01*
X258457240Y-119162782D01*
X258137370Y-119161913D01*
X257888578Y-119159094D01*
X257703808Y-119154005D01*
X257576004Y-119146328D01*
X257498110Y-119135744D01*
X257463070Y-119121936D01*
X257460096Y-119117747D01*
X257456855Y-119074388D01*
X257454136Y-118965490D01*
X257451964Y-118797570D01*
X257450366Y-118577145D01*
X257449367Y-118310731D01*
X257448995Y-118004844D01*
X257449117Y-117856024D01*
X257706111Y-117856024D01*
X257743286Y-118029207D01*
X257839587Y-118169408D01*
X257981401Y-118269994D01*
X258155111Y-118324333D01*
X258347104Y-118325793D01*
X258543765Y-118267740D01*
X258547586Y-118265957D01*
X258641251Y-118226912D01*
X258684365Y-118225077D01*
X258692618Y-118247943D01*
X258717667Y-118279624D01*
X258800467Y-118295252D01*
X258897772Y-118298144D01*
X259102926Y-118298186D01*
X259090771Y-117589549D01*
X259084475Y-117313128D01*
X259074557Y-117099386D01*
X259058478Y-116938949D01*
X259033700Y-116822445D01*
X258997681Y-116740503D01*
X258947883Y-116683750D01*
X258881766Y-116642815D01*
X258828047Y-116619944D01*
X258672104Y-116582841D01*
X258480974Y-116569523D01*
X258286839Y-116579484D01*
X258121883Y-116612217D01*
X258070701Y-116631846D01*
X257941410Y-116727460D01*
X257843278Y-116864364D01*
X257795635Y-117013670D01*
X257793849Y-117045554D01*
X257801002Y-117109622D01*
X257837321Y-117138052D01*
X257925091Y-117145096D01*
X257949632Y-117145194D01*
X258054701Y-117138166D01*
X258114000Y-117104637D01*
X258159449Y-117025941D01*
X258161589Y-117021240D01*
X258222489Y-116927718D01*
X258311566Y-116882439D01*
X258348135Y-116874736D01*
X258507107Y-116871170D01*
X258630401Y-116915828D01*
X258702992Y-117002600D01*
X258709368Y-117021678D01*
X258718790Y-117102116D01*
X258704551Y-117146747D01*
X258654293Y-117168237D01*
X258548434Y-117201415D01*
X258407095Y-117240127D01*
X258361308Y-117251768D01*
X258110669Y-117324585D01*
X257929090Y-117404674D01*
X257807485Y-117500411D01*
X257736772Y-117620176D01*
X257707864Y-117772346D01*
X257706111Y-117856024D01*
X257449117Y-117856024D01*
X257449273Y-117666003D01*
X257450230Y-117300723D01*
X257451553Y-116983066D01*
X257461695Y-114893421D01*
X259415541Y-114893421D01*
X259425620Y-117028102D01*
G36*
X260734387Y-114883795D02*
G01*
X261721080Y-114893421D01*
X261721080Y-119144768D01*
X260734387Y-119154394D01*
X259747695Y-119164020D01*
X259747695Y-115884201D01*
X260529234Y-115884201D01*
X260529234Y-118298102D01*
X260920003Y-118298102D01*
X260920003Y-115884201D01*
X260529234Y-115884201D01*
X259747695Y-115884201D01*
X259747695Y-114874169D01*
X260734387Y-114883795D01*
G37*
X260734387Y-114883795D02*
X261721080Y-114893421D01*
X261721080Y-119144768D01*
X260734387Y-119154394D01*
X259747695Y-119164020D01*
X259747695Y-115884201D01*
X260529234Y-115884201D01*
X260529234Y-118298102D01*
X260920003Y-118298102D01*
X260920003Y-115884201D01*
X260529234Y-115884201D01*
X259747695Y-115884201D01*
X259747695Y-114874169D01*
X260734387Y-114883795D01*
G36*
X247071729Y-116937720D02*
G01*
X247209712Y-117003994D01*
X247246086Y-117034337D01*
X247301487Y-117089814D01*
X247335306Y-117143834D01*
X247352844Y-117215759D01*
X247359404Y-117324951D01*
X247360311Y-117451435D01*
X247358700Y-117604142D01*
X247350332Y-117704167D01*
X247329906Y-117770871D01*
X247292118Y-117823616D01*
X247246086Y-117868533D01*
X247110343Y-117956521D01*
X246972377Y-117972504D01*
X246832620Y-117916494D01*
X246757031Y-117856754D01*
X246644279Y-117703253D01*
X246594981Y-117516656D01*
X246612094Y-117309487D01*
X246620386Y-117278057D01*
X246695484Y-117110979D01*
X246803290Y-116995623D01*
X246932480Y-116936400D01*
X247071729Y-116937720D01*
G37*
X247071729Y-116937720D02*
X247209712Y-117003994D01*
X247246086Y-117034337D01*
X247301487Y-117089814D01*
X247335306Y-117143834D01*
X247352844Y-117215759D01*
X247359404Y-117324951D01*
X247360311Y-117451435D01*
X247358700Y-117604142D01*
X247350332Y-117704167D01*
X247329906Y-117770871D01*
X247292118Y-117823616D01*
X247246086Y-117868533D01*
X247110343Y-117956521D01*
X246972377Y-117972504D01*
X246832620Y-117916494D01*
X246757031Y-117856754D01*
X246644279Y-117703253D01*
X246594981Y-117516656D01*
X246612094Y-117309487D01*
X246620386Y-117278057D01*
X246695484Y-117110979D01*
X246803290Y-116995623D01*
X246932480Y-116936400D01*
X247071729Y-116937720D01*
G36*
X251731563Y-116992966D02*
G01*
X251773005Y-117022297D01*
X251832237Y-117071962D01*
X251867915Y-117120585D01*
X251886000Y-117187496D01*
X251892448Y-117292026D01*
X251893234Y-117412329D01*
X251890814Y-117563561D01*
X251880550Y-117661606D01*
X251857932Y-117725268D01*
X251818453Y-117773351D01*
X251803432Y-117786870D01*
X251658972Y-117869787D01*
X251503466Y-117883535D01*
X251357912Y-117832774D01*
X251249024Y-117730957D01*
X251182087Y-117587413D01*
X251158347Y-117421928D01*
X251179050Y-117254288D01*
X251245444Y-117104279D01*
X251307421Y-117031251D01*
X251442370Y-116947067D01*
X251584904Y-116934283D01*
X251731563Y-116992966D01*
G37*
X251731563Y-116992966D02*
X251773005Y-117022297D01*
X251832237Y-117071962D01*
X251867915Y-117120585D01*
X251886000Y-117187496D01*
X251892448Y-117292026D01*
X251893234Y-117412329D01*
X251890814Y-117563561D01*
X251880550Y-117661606D01*
X251857932Y-117725268D01*
X251818453Y-117773351D01*
X251803432Y-117786870D01*
X251658972Y-117869787D01*
X251503466Y-117883535D01*
X251357912Y-117832774D01*
X251249024Y-117730957D01*
X251182087Y-117587413D01*
X251158347Y-117421928D01*
X251179050Y-117254288D01*
X251245444Y-117104279D01*
X251307421Y-117031251D01*
X251442370Y-116947067D01*
X251584904Y-116934283D01*
X251731563Y-116992966D01*
G36*
X258707376Y-117507777D02*
G01*
X258718859Y-117526603D01*
X258728967Y-117637042D01*
X258689725Y-117764463D01*
X258612054Y-117879975D01*
X258571060Y-117917632D01*
X258455105Y-117980369D01*
X258327960Y-118009038D01*
X258216104Y-118000635D01*
X258155109Y-117964839D01*
X258091740Y-117849592D01*
X258102959Y-117741810D01*
X258185247Y-117646366D01*
X258335088Y-117568132D01*
X258470334Y-117528047D01*
X258599096Y-117500507D01*
X258671850Y-117493787D01*
X258707376Y-117507777D01*
G37*
X258707376Y-117507777D02*
X258718859Y-117526603D01*
X258728967Y-117637042D01*
X258689725Y-117764463D01*
X258612054Y-117879975D01*
X258571060Y-117917632D01*
X258455105Y-117980369D01*
X258327960Y-118009038D01*
X258216104Y-118000635D01*
X258155109Y-117964839D01*
X258091740Y-117849592D01*
X258102959Y-117741810D01*
X258185247Y-117646366D01*
X258335088Y-117568132D01*
X258470334Y-117528047D01*
X258599096Y-117500507D01*
X258671850Y-117493787D01*
X258707376Y-117507777D01*
D10*
X226696520Y-46700780D02*
X226097080Y-46601720D01*
X227097840Y-46799840D02*
X226696520Y-46700780D01*
X227598220Y-47102100D02*
X227097840Y-46799840D01*
X228096060Y-47599940D02*
X227598220Y-47102100D01*
X228398320Y-48100320D02*
X228096060Y-47599940D01*
X228596440Y-48702300D02*
X228398320Y-48100320D01*
X228596440Y-49301740D02*
X228596440Y-48702300D01*
X228497380Y-49901180D02*
X228596440Y-49301740D01*
X228096060Y-50602220D02*
X228497380Y-49901180D01*
X227598220Y-51100060D02*
X228096060Y-50602220D01*
X226996240Y-51402320D02*
X227598220Y-51100060D01*
X226396800Y-51600440D02*
X226996240Y-51402320D01*
X225596700Y-51600440D02*
X226396800Y-51600440D01*
X224898200Y-51300720D02*
X225596700Y-51600440D01*
X224397820Y-50901940D02*
X224898200Y-51300720D01*
X223795840Y-50200900D02*
X224397820Y-50901940D01*
X223597720Y-49400800D02*
X223795840Y-50200900D01*
X223597720Y-48801360D02*
X223597720Y-49400800D01*
X223696780Y-48300980D02*
X223597720Y-48801360D01*
X223897440Y-47902200D02*
X223696780Y-48300980D01*
X224397820Y-47300220D02*
X223897440Y-47902200D01*
X224898200Y-46901440D02*
X224397820Y-47300220D01*
X225396040Y-46700780D02*
X224898200Y-46901440D01*
X225998020Y-46601720D02*
X225396040Y-46700780D01*
X226097080Y-46601720D02*
X225998020Y-46601720D01*
X225847080Y-47951080D02*
X226097080Y-47901080D01*
X225597080Y-48151080D02*
X225847080Y-47951080D01*
X225447080Y-48651080D02*
X225597080Y-48151080D01*
X225347080Y-49151080D02*
X225447080Y-48651080D01*
X225447080Y-49701080D02*
X225347080Y-49151080D01*
X225597080Y-50101080D02*
X225447080Y-49701080D01*
X225847080Y-50351080D02*
X225597080Y-50101080D01*
X226147080Y-50401080D02*
X225847080Y-50351080D01*
X226447080Y-50201080D02*
X226147080Y-50401080D01*
X226597080Y-49951080D02*
X226447080Y-50201080D01*
X226797080Y-49501080D02*
X226597080Y-49951080D01*
X226797080Y-49151080D02*
X226797080Y-49501080D01*
X226797080Y-48701080D02*
X226797080Y-49151080D01*
X226647080Y-48301080D02*
X226797080Y-48701080D01*
X226397080Y-48001080D02*
X226647080Y-48301080D01*
X226097080Y-47901080D02*
X226397080Y-48001080D01*
X220846520Y-46650780D02*
X220247080Y-46551720D01*
X221247840Y-46749840D02*
X220846520Y-46650780D01*
X221748220Y-47052100D02*
X221247840Y-46749840D01*
X222246060Y-47549940D02*
X221748220Y-47052100D01*
X222548320Y-48050320D02*
X222246060Y-47549940D01*
X222746440Y-48652300D02*
X222548320Y-48050320D01*
X222746440Y-49251740D02*
X222746440Y-48652300D01*
X222647380Y-49851180D02*
X222746440Y-49251740D01*
X222246060Y-50552220D02*
X222647380Y-49851180D01*
X221748220Y-51050060D02*
X222246060Y-50552220D01*
X221146240Y-51352320D02*
X221748220Y-51050060D01*
X220546800Y-51550440D02*
X221146240Y-51352320D01*
X219746700Y-51550440D02*
X220546800Y-51550440D01*
X219048200Y-51250720D02*
X219746700Y-51550440D01*
X218547820Y-50851940D02*
X219048200Y-51250720D01*
X217945840Y-50150900D02*
X218547820Y-50851940D01*
X217747720Y-49350800D02*
X217945840Y-50150900D01*
X217747720Y-48751360D02*
X217747720Y-49350800D01*
X217846780Y-48250980D02*
X217747720Y-48751360D01*
X218047440Y-47852200D02*
X217846780Y-48250980D01*
X218547820Y-47250220D02*
X218047440Y-47852200D01*
X219048200Y-46851440D02*
X218547820Y-47250220D01*
X219546040Y-46650780D02*
X219048200Y-46851440D01*
X220148020Y-46551720D02*
X219546040Y-46650780D01*
X220247080Y-46551720D02*
X220148020Y-46551720D01*
X219647640Y-50051840D02*
X219848300Y-49851180D01*
X219246320Y-50051840D02*
X219647640Y-50051840D01*
X218946600Y-49950240D02*
X219246320Y-50051840D01*
X218745940Y-49650520D02*
X218946600Y-49950240D01*
X218646880Y-49150140D02*
X218745940Y-49650520D01*
X218646880Y-48751360D02*
X218646880Y-49150140D01*
X218745940Y-48350040D02*
X218646880Y-48751360D01*
X219048200Y-48151920D02*
X218745940Y-48350040D01*
X219446980Y-48050320D02*
X219048200Y-48151920D01*
X219746700Y-48151920D02*
X219446980Y-48050320D01*
X219848300Y-48250980D02*
X219746700Y-48151920D01*
X221748220Y-50051840D02*
X221847280Y-49851180D01*
X221445960Y-50051840D02*
X221748220Y-50051840D01*
X221247840Y-50051840D02*
X221445960Y-50051840D01*
X220846520Y-49851180D02*
X221247840Y-50051840D01*
X220645860Y-49449860D02*
X220846520Y-49851180D01*
X220645860Y-49051080D02*
X220645860Y-49449860D01*
X220747460Y-48550700D02*
X220645860Y-49051080D01*
X220948120Y-48151920D02*
X220747460Y-48550700D01*
X221247840Y-48050320D02*
X220948120Y-48151920D01*
X221547560Y-48050320D02*
X221247840Y-48050320D01*
X221748220Y-48151920D02*
X221547560Y-48050320D01*
X221847280Y-48250980D02*
X221748220Y-48151920D01*
X231447080Y-48551080D02*
X231797080Y-48451080D01*
X231097080Y-48451080D02*
X231447080Y-48551080D01*
X230897080Y-48151080D02*
X231097080Y-48451080D01*
X230797080Y-47851080D02*
X230897080Y-48151080D01*
X230897080Y-47401080D02*
X230797080Y-47851080D01*
X231147080Y-47101080D02*
X230897080Y-47401080D01*
X231497080Y-47051080D02*
X231147080Y-47101080D01*
X231797080Y-47201080D02*
X231497080Y-47051080D01*
X233047080Y-48551080D02*
X233297080Y-48401080D01*
X232747080Y-48501080D02*
X233047080Y-48551080D01*
X232447080Y-48201080D02*
X232747080Y-48501080D01*
X232347080Y-47801080D02*
X232447080Y-48201080D01*
X232397080Y-47401080D02*
X232347080Y-47801080D01*
X232747080Y-47051080D02*
X232397080Y-47401080D01*
X233147080Y-47101080D02*
X232747080Y-47051080D01*
X233397080Y-47201080D02*
X233147080Y-47101080D01*
X233897080Y-48001080D02*
X235147080Y-48001080D01*
X236397080Y-47801080D02*
X235897080Y-47801080D01*
X236647080Y-47701080D02*
X236397080Y-47801080D01*
X236697080Y-47451080D02*
X236647080Y-47701080D01*
X236697080Y-47251080D02*
X236697080Y-47451080D01*
X236497080Y-47051080D02*
X236697080Y-47251080D01*
X235897080Y-47051080D02*
X236497080Y-47051080D01*
X235897080Y-48551080D02*
X235897080Y-47051080D01*
X237647080Y-47051080D02*
X237497080Y-47051080D01*
X237997080Y-47151080D02*
X237647080Y-47051080D01*
X238147080Y-47401080D02*
X237997080Y-47151080D01*
X238247080Y-47801080D02*
X238147080Y-47401080D01*
X238197080Y-48151080D02*
X238247080Y-47801080D01*
X237997080Y-48451080D02*
X238197080Y-48151080D01*
X237697080Y-48551080D02*
X237997080Y-48451080D01*
X237397080Y-48551080D02*
X237697080Y-48551080D01*
X237397080Y-47051080D02*
X237397080Y-48551080D01*
X239797080Y-48951080D02*
X241147080Y-46951080D01*
X243397080Y-47851080D02*
X242947080Y-47851080D01*
X243597080Y-47701080D02*
X243397080Y-47851080D01*
X243697080Y-47451080D02*
X243597080Y-47701080D01*
X243597080Y-47151080D02*
X243697080Y-47451080D01*
X243347080Y-47051080D02*
X243597080Y-47151080D01*
X242847080Y-47051080D02*
X243347080Y-47051080D01*
X242847080Y-48551080D02*
X242847080Y-47051080D01*
X244647080Y-48551080D02*
X244997080Y-48451080D01*
X244447080Y-48501080D02*
X244647080Y-48551080D01*
X244297080Y-48351080D02*
X244447080Y-48501080D01*
X244297080Y-48001080D02*
X244297080Y-48351080D01*
X244297080Y-47601080D02*
X244297080Y-48001080D01*
X244997080Y-47551080D02*
X244997080Y-48551080D01*
X246097080Y-47551080D02*
X245797080Y-47551080D01*
X246347080Y-47651080D02*
X246097080Y-47551080D01*
X246447080Y-48001080D02*
X246347080Y-47651080D01*
X246347080Y-48401080D02*
X246447080Y-48001080D01*
X246097080Y-48551080D02*
X246347080Y-48401080D01*
X245697080Y-48551080D02*
X246097080Y-48551080D01*
X245747080Y-47051080D02*
X245697080Y-48551080D01*
X247097080Y-48401080D02*
X247297080Y-48551080D01*
X247097080Y-47101080D02*
X247097080Y-48401080D01*
X247897080Y-47201080D02*
X247847080Y-47201080D01*
X247897080Y-47101080D02*
X247897080Y-47201080D01*
X247897080Y-47551080D02*
X247897080Y-48501080D01*
X248997080Y-48551080D02*
X249247080Y-48501080D01*
X248697080Y-48501080D02*
X248997080Y-48551080D01*
X248547080Y-48251080D02*
X248697080Y-48501080D01*
X248547080Y-47901080D02*
X248547080Y-48251080D01*
X248697080Y-47601080D02*
X248547080Y-47901080D01*
X249047080Y-47551080D02*
X248697080Y-47601080D01*
X249297080Y-47651080D02*
X249047080Y-47551080D01*
X251597080Y-47101080D02*
X251097080Y-47051080D01*
X251847080Y-47351080D02*
X251597080Y-47101080D01*
X251947080Y-47851080D02*
X251847080Y-47351080D01*
X251847080Y-48301080D02*
X251947080Y-47851080D01*
X251497080Y-48551080D02*
X251847080Y-48301080D01*
X251097080Y-48551080D02*
X251497080Y-48551080D01*
X251097080Y-47051080D02*
X251097080Y-48551080D01*
X253247080Y-47751080D02*
X253047080Y-47601080D01*
X253297080Y-47901080D02*
X253247080Y-47751080D01*
X253297080Y-48251080D02*
X253297080Y-47901080D01*
X253097080Y-48501080D02*
X253297080Y-48251080D01*
X252797080Y-48551080D02*
X253097080Y-48501080D01*
X252547080Y-48301080D02*
X252797080Y-48551080D01*
X252547080Y-47951080D02*
X252547080Y-48301080D01*
X252697080Y-47651080D02*
X252547080Y-47951080D01*
X252947080Y-47551080D02*
X252697080Y-47651080D01*
X253997080Y-48601080D02*
X253997080Y-47551080D01*
X254347080Y-47601080D02*
X254097080Y-47651080D01*
X254547080Y-47651080D02*
X254347080Y-47601080D01*
X254647080Y-47751080D02*
X254547080Y-47651080D01*
X254647080Y-48601080D02*
X254647080Y-47751080D01*
X254897080Y-47601080D02*
X254697080Y-47701080D01*
X255147080Y-47601080D02*
X254897080Y-47601080D01*
X255247080Y-47701080D02*
X255147080Y-47601080D01*
X255297080Y-47901080D02*
X255247080Y-47701080D01*
X255297080Y-48651080D02*
X255297080Y-47901080D01*
X256647080Y-47751080D02*
X256697080Y-48601080D01*
X256497080Y-47551080D02*
X256647080Y-47751080D01*
X256147080Y-47551080D02*
X256497080Y-47551080D01*
X255997080Y-47651080D02*
X256147080Y-47551080D01*
X256197080Y-48551080D02*
X256597080Y-48501080D01*
X255997080Y-48451080D02*
X256197080Y-48551080D01*
X255997080Y-48201080D02*
X255997080Y-48451080D01*
X256147080Y-48051080D02*
X255997080Y-48201080D01*
X256447080Y-48051080D02*
X256147080Y-48051080D01*
X257397080Y-47051080D02*
X257397080Y-47151080D01*
X257397080Y-47601080D02*
X257397080Y-48551080D01*
X258147080Y-47601080D02*
X258147080Y-48501080D01*
X258547080Y-47601080D02*
X258197080Y-47651080D01*
X258697080Y-47651080D02*
X258547080Y-47601080D01*
X258797080Y-47851080D02*
X258697080Y-47651080D01*
X258847080Y-48551080D02*
X258797080Y-47851080D01*
X230147080Y-49651080D02*
X230147080Y-51151080D01*
X230697080Y-50201080D02*
X230297080Y-50201080D01*
X230797080Y-50401080D02*
X230697080Y-50201080D01*
X230847080Y-51251080D02*
X230797080Y-50401080D01*
X231697080Y-51201080D02*
X231897080Y-51201080D01*
X231547080Y-51051080D02*
X231697080Y-51201080D01*
X231547080Y-49651080D02*
X231547080Y-51051080D01*
X231197080Y-50151080D02*
X231797080Y-50151080D01*
X232697080Y-51151080D02*
X232797080Y-51151080D01*
X232447080Y-51051080D02*
X232697080Y-51151080D01*
X232447080Y-49651080D02*
X232447080Y-51051080D01*
X232797080Y-50151080D02*
X232297080Y-50151080D01*
X233297080Y-51701080D02*
X233297080Y-50151080D01*
X233747080Y-50151080D02*
X233397080Y-50251080D01*
X233997080Y-50301080D02*
X233747080Y-50151080D01*
X234047080Y-50651080D02*
X233997080Y-50301080D01*
X233947080Y-50951080D02*
X234047080Y-50651080D01*
X233697080Y-51151080D02*
X233947080Y-50951080D01*
X233347080Y-51151080D02*
X233697080Y-51151080D01*
X234647080Y-50201080D02*
X234647080Y-50301080D01*
X234697080Y-51001080D02*
X234647080Y-51151080D01*
X235147080Y-51551080D02*
X236447080Y-49601080D01*
X236747080Y-51551080D02*
X238047080Y-49551080D01*
X238897080Y-51151080D02*
X239197080Y-51051080D01*
X238597080Y-51001080D02*
X238897080Y-51151080D01*
X238497080Y-50601080D02*
X238597080Y-51001080D01*
X238697080Y-50201080D02*
X238497080Y-50601080D01*
X238997080Y-50151080D02*
X238697080Y-50201080D01*
X239247080Y-50251080D02*
X238997080Y-50151080D01*
X239847080Y-51151080D02*
X239847080Y-50101080D01*
X240147080Y-50201080D02*
X239947080Y-50351080D01*
X240397080Y-50151080D02*
X240147080Y-50201080D01*
X241497080Y-50451080D02*
X240847080Y-50701080D01*
X241497080Y-50351080D02*
X241497080Y-50451080D01*
X241297080Y-50151080D02*
X241497080Y-50351080D01*
X241047080Y-50151080D02*
X241297080Y-50151080D01*
X240847080Y-50251080D02*
X241047080Y-50151080D01*
X240747080Y-50501080D02*
X240847080Y-50251080D01*
X240797080Y-50851080D02*
X240747080Y-50501080D01*
X240897080Y-51151080D02*
X240797080Y-50851080D01*
X241147080Y-51151080D02*
X240897080Y-51151080D01*
X241447080Y-51101080D02*
X241147080Y-51151080D01*
X242197080Y-50651080D02*
X242697080Y-50601080D01*
X242097080Y-50801080D02*
X242197080Y-50651080D01*
X242147080Y-51051080D02*
X242097080Y-50801080D01*
X242297080Y-51151080D02*
X242147080Y-51051080D01*
X242797080Y-51151080D02*
X242297080Y-51151080D01*
X242797080Y-51201080D02*
X242797080Y-51151080D01*
X242797080Y-50351080D02*
X242797080Y-51201080D01*
X242647080Y-50151080D02*
X242797080Y-50351080D01*
X242247080Y-50151080D02*
X242647080Y-50151080D01*
X242097080Y-50201080D02*
X242247080Y-50151080D01*
X243697080Y-51101080D02*
X243847080Y-51151080D01*
X243547080Y-50951080D02*
X243697080Y-51101080D01*
X243547080Y-49701080D02*
X243547080Y-50951080D01*
X243247080Y-50151080D02*
X243897080Y-50151080D01*
X244397080Y-49601080D02*
X244397080Y-49751080D01*
X244397080Y-50151080D02*
X244397080Y-51151080D01*
X245347080Y-51151080D02*
X245697080Y-50151080D01*
X244947080Y-50101080D02*
X245347080Y-51151080D01*
X247047080Y-50451080D02*
X246297080Y-50701080D01*
X246997080Y-50351080D02*
X247047080Y-50451080D01*
X246797080Y-50151080D02*
X246997080Y-50351080D01*
X246447080Y-50151080D02*
X246797080Y-50151080D01*
X246197080Y-50251080D02*
X246447080Y-50151080D01*
X246197080Y-50601080D02*
X246197080Y-50251080D01*
X246247080Y-50951080D02*
X246197080Y-50601080D01*
X246447080Y-51151080D02*
X246247080Y-50951080D01*
X246697080Y-51151080D02*
X246447080Y-51151080D01*
X246947080Y-51101080D02*
X246697080Y-51151080D01*
X247997080Y-51151080D02*
X248197080Y-51051080D01*
X247697080Y-51101080D02*
X247997080Y-51151080D01*
X247547080Y-51001080D02*
X247697080Y-51101080D01*
X247497080Y-50751080D02*
X247547080Y-51001080D01*
X247597080Y-50351080D02*
X247497080Y-50751080D01*
X247797080Y-50151080D02*
X247597080Y-50351080D01*
X248047080Y-50151080D02*
X247797080Y-50151080D01*
X248297080Y-50251080D02*
X248047080Y-50151080D01*
X249597080Y-50351080D02*
X249397080Y-50201080D01*
X249647080Y-50651080D02*
X249597080Y-50351080D01*
X249547080Y-50951080D02*
X249647080Y-50651080D01*
X249347080Y-51101080D02*
X249547080Y-50951080D01*
X249097080Y-51151080D02*
X249347080Y-51101080D01*
X248847080Y-51051080D02*
X249097080Y-51151080D01*
X248747080Y-50551080D02*
X248847080Y-51051080D01*
X249047080Y-50201080D02*
X248747080Y-50551080D01*
X249247080Y-50201080D02*
X249047080Y-50201080D01*
X250297080Y-51201080D02*
X250297080Y-50151080D01*
X250747080Y-50201080D02*
X250347080Y-50251080D01*
X250897080Y-50351080D02*
X250747080Y-50201080D01*
X250897080Y-51201080D02*
X250897080Y-50351080D01*
X251247080Y-50151080D02*
X250947080Y-50251080D01*
X251447080Y-50201080D02*
X251247080Y-50151080D01*
X251597080Y-50351080D02*
X251447080Y-50201080D01*
X251597080Y-51251080D02*
X251597080Y-50351080D01*
X252297080Y-51201080D02*
X252297080Y-50201080D01*
X252547080Y-50201080D02*
X252397080Y-50251080D01*
X252797080Y-50151080D02*
X252547080Y-50201080D01*
X252997080Y-50301080D02*
X252797080Y-50151080D01*
X252997080Y-51251080D02*
X252997080Y-50301080D01*
X253197080Y-50201080D02*
X253047080Y-50301080D01*
X253447080Y-50151080D02*
X253197080Y-50201080D01*
X253597080Y-50301080D02*
X253447080Y-50151080D01*
X253647080Y-51201080D02*
X253597080Y-50301080D01*
X255097080Y-50601080D02*
X255047080Y-50351080D01*
X255047080Y-50801080D02*
X255097080Y-50601080D01*
X254947080Y-51051080D02*
X255047080Y-50801080D01*
X254697080Y-51151080D02*
X254947080Y-51051080D01*
X254447080Y-51101080D02*
X254697080Y-51151080D01*
X254297080Y-50901080D02*
X254447080Y-51101080D01*
X254247080Y-50701080D02*
X254297080Y-50901080D01*
X254297080Y-50401080D02*
X254247080Y-50701080D01*
X254397080Y-50201080D02*
X254297080Y-50401080D01*
X254597080Y-50151080D02*
X254397080Y-50201080D01*
X254847080Y-50151080D02*
X254597080Y-50151080D01*
X254997080Y-50251080D02*
X254847080Y-50151080D01*
X255697080Y-51201080D02*
X255697080Y-50151080D01*
X256047080Y-50201080D02*
X255747080Y-50301080D01*
X256247080Y-50201080D02*
X256047080Y-50201080D01*
X256397080Y-50401080D02*
X256247080Y-50201080D01*
X256347080Y-51251080D02*
X256397080Y-50401080D01*
X257147080Y-51201080D02*
X257047080Y-51101080D01*
X257397080Y-51151080D02*
X257147080Y-51201080D01*
X257647080Y-51001080D02*
X257397080Y-51151080D01*
X257597080Y-50751080D02*
X257647080Y-51001080D01*
X257347080Y-50651080D02*
X257597080Y-50751080D01*
X257047080Y-50501080D02*
X257347080Y-50651080D01*
X257047080Y-50251080D02*
X257047080Y-50501080D01*
X257297080Y-50101080D02*
X257047080Y-50251080D01*
X257597080Y-50201080D02*
X257297080Y-50101080D01*
X258297080Y-51001080D02*
X258297080Y-51151080D01*
X259797080Y-50451080D02*
X259597080Y-50201080D01*
X259797080Y-50701080D02*
X259797080Y-50451080D01*
X259697080Y-51051080D02*
X259797080Y-50701080D01*
X259397080Y-51201080D02*
X259697080Y-51051080D01*
X259097080Y-51001080D02*
X259397080Y-51201080D01*
X258997080Y-50701080D02*
X259097080Y-51001080D01*
X258997080Y-50351080D02*
X258997080Y-50701080D01*
X259247080Y-50151080D02*
X258997080Y-50351080D01*
X259547080Y-50151080D02*
X259247080Y-50151080D01*
X260397080Y-50151080D02*
X260397080Y-51201080D01*
X260747080Y-50151080D02*
X260497080Y-50301080D01*
X260897080Y-50151080D02*
X260747080Y-50151080D01*
X262347080Y-51251080D02*
X262347080Y-50101080D01*
X262197080Y-51551080D02*
X262347080Y-51251080D01*
X261897080Y-51651080D02*
X262197080Y-51551080D01*
X261647080Y-51551080D02*
X261897080Y-51651080D01*
X261997080Y-51101080D02*
X262247080Y-51101080D01*
X261797080Y-51001080D02*
X261997080Y-51101080D01*
X261597080Y-50701080D02*
X261797080Y-51001080D01*
X261647080Y-50301080D02*
X261597080Y-50701080D01*
X261897080Y-50151080D02*
X261647080Y-50301080D01*
X262247080Y-50201080D02*
X261897080Y-50151080D01*
X262847080Y-51501080D02*
X264147080Y-49451080D01*
X226647080Y-48301080D02*
X225597080Y-49851080D01*
D11*
X57349080Y-99369080D02*
X57349080Y-101019080D01*
X57349080Y-101019080D02*
X75249080Y-101019080D01*
X75249080Y-101019080D02*
X75249080Y-95719080D01*
X75249080Y-95719080D02*
X57349080Y-95719080D01*
X57349080Y-95719080D02*
X57349080Y-97369080D01*
X57349080Y-97369080D02*
G75*
G02*
X57349080Y-99369080I0J-1000000D01*
G01*
X53599080Y-75185080D02*
X53599080Y-77125080D01*
X53599080Y-83105080D02*
X53599080Y-81165080D01*
X52179080Y-77125080D02*
X52179080Y-81165080D01*
X55019080Y-77125080D02*
X52179080Y-77125080D01*
X55019080Y-81165080D02*
X55019080Y-77125080D01*
X52179080Y-81165080D02*
X55019080Y-81165080D01*
X105442080Y-55526080D02*
X105442080Y-58326080D01*
X128472080Y-55526080D02*
X102732080Y-55526080D01*
X128472080Y-58326080D02*
X128472080Y-55526080D01*
X102732080Y-58326080D02*
X128472080Y-58326080D01*
X102732080Y-55526080D02*
X102732080Y-58326080D01*
X42527080Y-57289080D02*
X45367080Y-57289080D01*
X45367080Y-57289080D02*
X45367080Y-53249080D01*
X45367080Y-53249080D02*
X42527080Y-53249080D01*
X42527080Y-53249080D02*
X42527080Y-57289080D01*
X43947080Y-59229080D02*
X43947080Y-57289080D01*
X43947080Y-51309080D02*
X43947080Y-53249080D01*
X78027080Y-93171080D02*
X78027080Y-95111080D01*
X78027080Y-101091080D02*
X78027080Y-99151080D01*
X76607080Y-95111080D02*
X76607080Y-99151080D01*
X79447080Y-95111080D02*
X76607080Y-95111080D01*
X79447080Y-99151080D02*
X79447080Y-95111080D01*
X76607080Y-99151080D02*
X79447080Y-99151080D01*
X52179080Y-99199080D02*
X55019080Y-99199080D01*
X55019080Y-99199080D02*
X55019080Y-95159080D01*
X55019080Y-95159080D02*
X52179080Y-95159080D01*
X52179080Y-95159080D02*
X52179080Y-99199080D01*
X53599080Y-101139080D02*
X53599080Y-99199080D01*
X53599080Y-93219080D02*
X53599080Y-95159080D01*
X81285080Y-76201080D02*
X81285080Y-78141080D01*
X81285080Y-84121080D02*
X81285080Y-82181080D01*
X79865080Y-78141080D02*
X79865080Y-82181080D01*
X82705080Y-78141080D02*
X79865080Y-78141080D01*
X82705080Y-82181080D02*
X82705080Y-78141080D01*
X79865080Y-82181080D02*
X82705080Y-82181080D01*
X119377080Y-113731080D02*
X119377080Y-110891080D01*
X119377080Y-95811080D02*
X119377080Y-98651080D01*
X122747080Y-110891080D02*
X122747080Y-98651080D01*
X116007080Y-110891080D02*
X122747080Y-110891080D01*
X116007080Y-98651080D02*
X116007080Y-110891080D01*
X122747080Y-98651080D02*
X116007080Y-98651080D01*
X112567080Y-111981080D02*
X115407080Y-111981080D01*
X115407080Y-111981080D02*
X115407080Y-107941080D01*
X115407080Y-107941080D02*
X112567080Y-107941080D01*
X112567080Y-107941080D02*
X112567080Y-111981080D01*
X113987080Y-113921080D02*
X113987080Y-111981080D01*
X113987080Y-106001080D02*
X113987080Y-107941080D01*
X129837080Y-113931080D02*
X129837080Y-111991080D01*
X129837080Y-106011080D02*
X129837080Y-107951080D01*
X131257080Y-111991080D02*
X131257080Y-107951080D01*
X128417080Y-111991080D02*
X131257080Y-111991080D01*
X128417080Y-107951080D02*
X128417080Y-111991080D01*
X131257080Y-107951080D02*
X128417080Y-107951080D01*
X82241080Y-53809080D02*
X82241080Y-55459080D01*
X100141080Y-53809080D02*
X82241080Y-53809080D01*
X100141080Y-59109080D02*
X100141080Y-53809080D01*
X82241080Y-59109080D02*
X100141080Y-59109080D01*
X82241080Y-57459080D02*
X82241080Y-59109080D01*
X82241080Y-55459080D02*
G75*
G02*
X82241080Y-57459080I0J-1000000D01*
G01*
X84781080Y-64477080D02*
X84781080Y-66127080D01*
X102681080Y-64477080D02*
X84781080Y-64477080D01*
X102681080Y-69777080D02*
X102681080Y-64477080D01*
X84781080Y-69777080D02*
X102681080Y-69777080D01*
X84781080Y-68127080D02*
X84781080Y-69777080D01*
X84781080Y-66127080D02*
G75*
G02*
X84781080Y-68127080I0J-1000000D01*
G01*
X52269080Y-68127080D02*
X52269080Y-69777080D01*
X52269080Y-69777080D02*
X70169080Y-69777080D01*
X70169080Y-69777080D02*
X70169080Y-64477080D01*
X70169080Y-64477080D02*
X52269080Y-64477080D01*
X52269080Y-64477080D02*
X52269080Y-66127080D01*
X52269080Y-66127080D02*
G75*
G02*
X52269080Y-68127080I0J-1000000D01*
G01*
X32117080Y-64471080D02*
X32117080Y-66121080D01*
X50017080Y-64471080D02*
X32117080Y-64471080D01*
X50017080Y-69771080D02*
X50017080Y-64471080D01*
X32117080Y-69771080D02*
X50017080Y-69771080D01*
X32117080Y-68121080D02*
X32117080Y-69771080D01*
X32117080Y-66121080D02*
G75*
G02*
X32117080Y-68121080I0J-1000000D01*
G01*
X84781080Y-78541080D02*
X84781080Y-80191080D01*
X84781080Y-80191080D02*
X102681080Y-80191080D01*
X102681080Y-80191080D02*
X102681080Y-74891080D01*
X102681080Y-74891080D02*
X84781080Y-74891080D01*
X84781080Y-74891080D02*
X84781080Y-76541080D01*
X84781080Y-76541080D02*
G75*
G02*
X84781080Y-78541080I0J-1000000D01*
G01*
X57349080Y-78541080D02*
X57349080Y-80191080D01*
X57349080Y-80191080D02*
X77789080Y-80191080D01*
X77789080Y-80191080D02*
X77789080Y-74891080D01*
X77789080Y-74891080D02*
X57349080Y-74891080D01*
X57349080Y-74891080D02*
X57349080Y-76541080D01*
X57349080Y-76541080D02*
G75*
G02*
X57349080Y-78541080I0J-1000000D01*
G01*
X29537080Y-74881080D02*
X29537080Y-76531080D01*
X49977080Y-74881080D02*
X29537080Y-74881080D01*
X49977080Y-80181080D02*
X49977080Y-74881080D01*
X29537080Y-80181080D02*
X49977080Y-80181080D01*
X29537080Y-78531080D02*
X29537080Y-80181080D01*
X29537080Y-76531080D02*
G75*
G02*
X29537080Y-78531080I0J-1000000D01*
G01*
X136697080Y-89031080D02*
X136697080Y-90681080D01*
X136697080Y-90681080D02*
X154597080Y-90681080D01*
X154597080Y-90681080D02*
X154597080Y-85381080D01*
X154597080Y-85381080D02*
X136697080Y-85381080D01*
X136697080Y-85381080D02*
X136697080Y-87031080D01*
X136697080Y-87031080D02*
G75*
G02*
X136697080Y-89031080I0J-1000000D01*
G01*
X84781080Y-85305080D02*
X84781080Y-86955080D01*
X102681080Y-85305080D02*
X84781080Y-85305080D01*
X102681080Y-90605080D02*
X102681080Y-85305080D01*
X84781080Y-90605080D02*
X102681080Y-90605080D01*
X84781080Y-88955080D02*
X84781080Y-90605080D01*
X84781080Y-86955080D02*
G75*
G02*
X84781080Y-88955080I0J-1000000D01*
G01*
X57349080Y-85305080D02*
X57349080Y-86955080D01*
X75249080Y-85305080D02*
X57349080Y-85305080D01*
X75249080Y-90605080D02*
X75249080Y-85305080D01*
X57349080Y-90605080D02*
X75249080Y-90605080D01*
X57349080Y-88955080D02*
X57349080Y-90605080D01*
X57349080Y-86955080D02*
G75*
G02*
X57349080Y-88955080I0J-1000000D01*
G01*
X32097080Y-88941080D02*
X32097080Y-90591080D01*
X32097080Y-90591080D02*
X49997080Y-90591080D01*
X49997080Y-90591080D02*
X49997080Y-85291080D01*
X49997080Y-85291080D02*
X32097080Y-85291080D01*
X32097080Y-85291080D02*
X32097080Y-86941080D01*
X32097080Y-86941080D02*
G75*
G02*
X32097080Y-88941080I0J-1000000D01*
G01*
X129117080Y-99531080D02*
X129117080Y-101181080D01*
X129117080Y-101181080D02*
X154637080Y-101181080D01*
X154637080Y-101181080D02*
X154637080Y-95881080D01*
X154637080Y-95881080D02*
X129117080Y-95881080D01*
X129117080Y-95881080D02*
X129117080Y-97531080D01*
X129117080Y-97531080D02*
G75*
G02*
X129117080Y-99531080I0J-1000000D01*
G01*
X84781080Y-95719080D02*
X84781080Y-97369080D01*
X110301080Y-95719080D02*
X84781080Y-95719080D01*
X110301080Y-101019080D02*
X110301080Y-95719080D01*
X84781080Y-101019080D02*
X110301080Y-101019080D01*
X84781080Y-99369080D02*
X84781080Y-101019080D01*
X84781080Y-97369080D02*
G75*
G02*
X84781080Y-99369080I0J-1000000D01*
G01*
X32107080Y-95701080D02*
X32107080Y-97351080D01*
X50007080Y-95701080D02*
X32107080Y-95701080D01*
X50007080Y-101001080D02*
X50007080Y-95701080D01*
X32107080Y-101001080D02*
X50007080Y-101001080D01*
X32107080Y-99351080D02*
X32107080Y-101001080D01*
X32107080Y-97351080D02*
G75*
G02*
X32107080Y-99351080I0J-1000000D01*
G01*
X134197080Y-106381080D02*
X134197080Y-108031080D01*
X152097080Y-106381080D02*
X134197080Y-106381080D01*
X152097080Y-111681080D02*
X152097080Y-106381080D01*
X134197080Y-111681080D02*
X152097080Y-111681080D01*
X134197080Y-110031080D02*
X134197080Y-111681080D01*
X134197080Y-108031080D02*
G75*
G02*
X134197080Y-110031080I0J-1000000D01*
G01*
X110267080Y-85371080D02*
X113007080Y-85371080D01*
X113007080Y-85371080D02*
X113007080Y-78831080D01*
X113007080Y-78831080D02*
X110267080Y-78831080D01*
X110267080Y-78831080D02*
X110267080Y-85371080D01*
X111637080Y-86141080D02*
X111637080Y-85371080D01*
X111637080Y-78061080D02*
X111637080Y-78831080D01*
X114247080Y-78061080D02*
X114247080Y-78831080D01*
X114247080Y-86141080D02*
X114247080Y-85371080D01*
X112877080Y-78831080D02*
X112877080Y-85371080D01*
X115617080Y-78831080D02*
X112877080Y-78831080D01*
X115617080Y-85371080D02*
X115617080Y-78831080D01*
X112877080Y-85371080D02*
X115617080Y-85371080D01*
X121887080Y-78081080D02*
X121887080Y-78851080D01*
X121887080Y-86161080D02*
X121887080Y-85391080D01*
X120517080Y-78851080D02*
X120517080Y-85391080D01*
X123257080Y-78851080D02*
X120517080Y-78851080D01*
X123257080Y-85391080D02*
X123257080Y-78851080D01*
X120517080Y-85391080D02*
X123257080Y-85391080D01*
X125637080Y-85381080D02*
X128377080Y-85381080D01*
X128377080Y-85381080D02*
X128377080Y-78841080D01*
X128377080Y-78841080D02*
X125637080Y-78841080D01*
X125637080Y-78841080D02*
X125637080Y-85381080D01*
X127007080Y-86151080D02*
X127007080Y-85381080D01*
X127007080Y-78071080D02*
X127007080Y-78841080D01*
X119287080Y-78101080D02*
X119287080Y-78871080D01*
X119287080Y-86181080D02*
X119287080Y-85411080D01*
X117917080Y-78871080D02*
X117917080Y-85411080D01*
X120657080Y-78871080D02*
X117917080Y-78871080D01*
X120657080Y-85411080D02*
X120657080Y-78871080D01*
X117917080Y-85411080D02*
X120657080Y-85411080D01*
X115447080Y-85361080D02*
X118187080Y-85361080D01*
X118187080Y-85361080D02*
X118187080Y-78821080D01*
X118187080Y-78821080D02*
X115447080Y-78821080D01*
X115447080Y-78821080D02*
X115447080Y-85361080D01*
X116817080Y-86131080D02*
X116817080Y-85361080D01*
X116817080Y-78051080D02*
X116817080Y-78821080D01*
X123067080Y-85371080D02*
X125807080Y-85371080D01*
X125807080Y-85371080D02*
X125807080Y-78831080D01*
X125807080Y-78831080D02*
X123067080Y-78831080D01*
X123067080Y-78831080D02*
X123067080Y-85371080D01*
X124437080Y-86141080D02*
X124437080Y-85371080D01*
X124437080Y-78061080D02*
X124437080Y-78831080D01*
X105315080Y-72683080D02*
X108055080Y-72683080D01*
X108055080Y-72683080D02*
X108055080Y-66143080D01*
X108055080Y-66143080D02*
X105315080Y-66143080D01*
X105315080Y-66143080D02*
X105315080Y-72683080D01*
X106685080Y-73453080D02*
X106685080Y-72683080D01*
X106685080Y-65373080D02*
X106685080Y-66143080D01*
X109217080Y-78081080D02*
X109217080Y-78851080D01*
X109217080Y-86161080D02*
X109217080Y-85391080D01*
X107847080Y-78851080D02*
X107847080Y-85391080D01*
X110587080Y-78851080D02*
X107847080Y-78851080D01*
X110587080Y-85391080D02*
X110587080Y-78851080D01*
X107847080Y-85391080D02*
X110587080Y-85391080D01*
X116845080Y-65373080D02*
X116845080Y-66143080D01*
X116845080Y-73453080D02*
X116845080Y-72683080D01*
X115475080Y-66143080D02*
X115475080Y-72683080D01*
X118215080Y-66143080D02*
X115475080Y-66143080D01*
X118215080Y-72683080D02*
X118215080Y-66143080D01*
X115475080Y-72683080D02*
X118215080Y-72683080D01*
X125635080Y-72683080D02*
X128375080Y-72683080D01*
X128375080Y-72683080D02*
X128375080Y-66143080D01*
X128375080Y-66143080D02*
X125635080Y-66143080D01*
X125635080Y-66143080D02*
X125635080Y-72683080D01*
X127005080Y-73453080D02*
X127005080Y-72683080D01*
X127005080Y-65373080D02*
X127005080Y-66143080D01*
X120555080Y-72683080D02*
X123295080Y-72683080D01*
X123295080Y-72683080D02*
X123295080Y-66143080D01*
X123295080Y-66143080D02*
X120555080Y-66143080D01*
X120555080Y-66143080D02*
X120555080Y-72683080D01*
X121925080Y-73453080D02*
X121925080Y-72683080D01*
X121925080Y-65373080D02*
X121925080Y-66143080D01*
X119385080Y-65373080D02*
X119385080Y-66143080D01*
X119385080Y-73453080D02*
X119385080Y-72683080D01*
X118015080Y-66143080D02*
X118015080Y-72683080D01*
X120755080Y-66143080D02*
X118015080Y-66143080D01*
X120755080Y-72683080D02*
X120755080Y-66143080D01*
X118015080Y-72683080D02*
X120755080Y-72683080D01*
X112935080Y-72683080D02*
X115675080Y-72683080D01*
X115675080Y-72683080D02*
X115675080Y-66143080D01*
X115675080Y-66143080D02*
X112935080Y-66143080D01*
X112935080Y-66143080D02*
X112935080Y-72683080D01*
X114305080Y-73453080D02*
X114305080Y-72683080D01*
X114305080Y-65373080D02*
X114305080Y-66143080D01*
X124467080Y-65371080D02*
X124467080Y-66141080D01*
X124467080Y-73451080D02*
X124467080Y-72681080D01*
X123097080Y-66141080D02*
X123097080Y-72681080D01*
X125837080Y-66141080D02*
X123097080Y-66141080D01*
X125837080Y-72681080D02*
X125837080Y-66141080D01*
X123097080Y-72681080D02*
X125837080Y-72681080D01*
X111765080Y-65373080D02*
X111765080Y-66143080D01*
X111765080Y-73453080D02*
X111765080Y-72683080D01*
X110395080Y-66143080D02*
X110395080Y-72683080D01*
X113135080Y-66143080D02*
X110395080Y-66143080D01*
X113135080Y-72683080D02*
X113135080Y-66143080D01*
X110395080Y-72683080D02*
X113135080Y-72683080D01*
X107855080Y-72683080D02*
X110595080Y-72683080D01*
X110595080Y-72683080D02*
X110595080Y-66143080D01*
X110595080Y-66143080D02*
X107855080Y-66143080D01*
X107855080Y-66143080D02*
X107855080Y-72683080D01*
X109225080Y-73453080D02*
X109225080Y-72683080D01*
X109225080Y-65373080D02*
X109225080Y-66143080D01*
X106685080Y-78073080D02*
X106685080Y-78843080D01*
X106685080Y-86153080D02*
X106685080Y-85383080D01*
X105315080Y-78843080D02*
X105315080Y-85383080D01*
X108055080Y-78843080D02*
X105315080Y-78843080D01*
X108055080Y-85383080D02*
X108055080Y-78843080D01*
X105315080Y-85383080D02*
X108055080Y-85383080D01*
X81317080Y-93061080D02*
X81317080Y-93831080D01*
X81317080Y-101141080D02*
X81317080Y-100371080D01*
X79947080Y-93831080D02*
X79947080Y-100371080D01*
X82687080Y-93831080D02*
X79947080Y-93831080D01*
X82687080Y-100371080D02*
X82687080Y-93831080D01*
X79947080Y-100371080D02*
X82687080Y-100371080D01*
X105217080Y-89091080D02*
X105217080Y-91891080D01*
X105217080Y-91891080D02*
X130957080Y-91891080D01*
X130957080Y-91891080D02*
X130957080Y-89091080D01*
X130957080Y-89091080D02*
X105217080Y-89091080D01*
X107927080Y-89091080D02*
X107927080Y-91891080D01*
X105467080Y-59401080D02*
X105467080Y-62201080D01*
X128497080Y-59401080D02*
X102757080Y-59401080D01*
X128497080Y-62201080D02*
X128497080Y-59401080D01*
X102757080Y-62201080D02*
X128497080Y-62201080D01*
X102757080Y-59401080D02*
X102757080Y-62201080D01*
X102705080Y-51441080D02*
X102705080Y-54241080D01*
X102705080Y-54241080D02*
X128445080Y-54241080D01*
X128445080Y-54241080D02*
X128445080Y-51441080D01*
X128445080Y-51441080D02*
X102705080Y-51441080D01*
X105415080Y-51441080D02*
X105415080Y-54241080D01*
X248697080Y-57531080D02*
X248697080Y-59181080D01*
X248697080Y-59181080D02*
X269137080Y-59181080D01*
X269137080Y-59181080D02*
X269137080Y-53881080D01*
X269137080Y-53881080D02*
X248697080Y-53881080D01*
X248697080Y-53881080D02*
X248697080Y-55531080D01*
X248697080Y-55531080D02*
G75*
G02*
X248697080Y-57531080I0J-1000000D01*
G01*
X220697080Y-57531080D02*
X220697080Y-59181080D01*
X220697080Y-59181080D02*
X241137080Y-59181080D01*
X241137080Y-59181080D02*
X241137080Y-53881080D01*
X241137080Y-53881080D02*
X220697080Y-53881080D01*
X220697080Y-53881080D02*
X220697080Y-55531080D01*
X220697080Y-55531080D02*
G75*
G02*
X220697080Y-57531080I0J-1000000D01*
G01*
X192697080Y-57531080D02*
X192697080Y-59181080D01*
X192697080Y-59181080D02*
X213137080Y-59181080D01*
X213137080Y-59181080D02*
X213137080Y-53881080D01*
X213137080Y-53881080D02*
X192697080Y-53881080D01*
X192697080Y-53881080D02*
X192697080Y-55531080D01*
X192697080Y-55531080D02*
G75*
G02*
X192697080Y-57531080I0J-1000000D01*
G01*
X164697080Y-53881080D02*
X164697080Y-55531080D01*
X185137080Y-53881080D02*
X164697080Y-53881080D01*
X185137080Y-59181080D02*
X185137080Y-53881080D01*
X164697080Y-59181080D02*
X185137080Y-59181080D01*
X164697080Y-57531080D02*
X164697080Y-59181080D01*
X164697080Y-55531080D02*
G75*
G02*
X164697080Y-57531080I0J-1000000D01*
G01*
X136697080Y-53881080D02*
X136697080Y-55531080D01*
X157137080Y-53881080D02*
X136697080Y-53881080D01*
X157137080Y-59181080D02*
X157137080Y-53881080D01*
X136697080Y-59181080D02*
X157137080Y-59181080D01*
X136697080Y-57531080D02*
X136697080Y-59181080D01*
X136697080Y-55531080D02*
G75*
G02*
X136697080Y-57531080I0J-1000000D01*
G01*
X248697080Y-64381080D02*
X248697080Y-66031080D01*
X269137080Y-64381080D02*
X248697080Y-64381080D01*
X269137080Y-69681080D02*
X269137080Y-64381080D01*
X248697080Y-69681080D02*
X269137080Y-69681080D01*
X248697080Y-68031080D02*
X248697080Y-69681080D01*
X248697080Y-66031080D02*
G75*
G02*
X248697080Y-68031080I0J-1000000D01*
G01*
X220697080Y-64381080D02*
X220697080Y-66031080D01*
X241137080Y-64381080D02*
X220697080Y-64381080D01*
X241137080Y-69681080D02*
X241137080Y-64381080D01*
X220697080Y-69681080D02*
X241137080Y-69681080D01*
X220697080Y-68031080D02*
X220697080Y-69681080D01*
X220697080Y-66031080D02*
G75*
G02*
X220697080Y-68031080I0J-1000000D01*
G01*
X192697080Y-64381080D02*
X192697080Y-66031080D01*
X213137080Y-64381080D02*
X192697080Y-64381080D01*
X213137080Y-69681080D02*
X213137080Y-64381080D01*
X192697080Y-69681080D02*
X213137080Y-69681080D01*
X192697080Y-68031080D02*
X192697080Y-69681080D01*
X192697080Y-66031080D02*
G75*
G02*
X192697080Y-68031080I0J-1000000D01*
G01*
X164697080Y-68031080D02*
X164697080Y-69681080D01*
X164697080Y-69681080D02*
X185137080Y-69681080D01*
X185137080Y-69681080D02*
X185137080Y-64381080D01*
X185137080Y-64381080D02*
X164697080Y-64381080D01*
X164697080Y-64381080D02*
X164697080Y-66031080D01*
X164697080Y-66031080D02*
G75*
G02*
X164697080Y-68031080I0J-1000000D01*
G01*
X134197080Y-68020400D02*
X134197080Y-69670400D01*
X134197080Y-69670400D02*
X154637080Y-69670400D01*
X154637080Y-69670400D02*
X154637080Y-64370400D01*
X154637080Y-64370400D02*
X134197080Y-64370400D01*
X134197080Y-64370400D02*
X134197080Y-66020400D01*
X134197080Y-66020400D02*
G75*
G02*
X134197080Y-68020400I0J-1000000D01*
G01*
X248697080Y-78531080D02*
X248697080Y-80181080D01*
X248697080Y-80181080D02*
X269137080Y-80181080D01*
X269137080Y-80181080D02*
X269137080Y-74881080D01*
X269137080Y-74881080D02*
X248697080Y-74881080D01*
X248697080Y-74881080D02*
X248697080Y-76531080D01*
X248697080Y-76531080D02*
G75*
G02*
X248697080Y-78531080I0J-1000000D01*
G01*
X220697080Y-78531080D02*
X220697080Y-80181080D01*
X220697080Y-80181080D02*
X241137080Y-80181080D01*
X241137080Y-80181080D02*
X241137080Y-74881080D01*
X241137080Y-74881080D02*
X220697080Y-74881080D01*
X220697080Y-74881080D02*
X220697080Y-76531080D01*
X220697080Y-76531080D02*
G75*
G02*
X220697080Y-78531080I0J-1000000D01*
G01*
X192697080Y-78531080D02*
X192697080Y-80181080D01*
X192697080Y-80181080D02*
X213137080Y-80181080D01*
X213137080Y-80181080D02*
X213137080Y-74881080D01*
X213137080Y-74881080D02*
X192697080Y-74881080D01*
X192697080Y-74881080D02*
X192697080Y-76531080D01*
X192697080Y-76531080D02*
G75*
G02*
X192697080Y-78531080I0J-1000000D01*
G01*
X164697080Y-78531080D02*
X164697080Y-80181080D01*
X164697080Y-80181080D02*
X185137080Y-80181080D01*
X185137080Y-80181080D02*
X185137080Y-74881080D01*
X185137080Y-74881080D02*
X164697080Y-74881080D01*
X164697080Y-74881080D02*
X164697080Y-76531080D01*
X164697080Y-76531080D02*
G75*
G02*
X164697080Y-78531080I0J-1000000D01*
G01*
X134197080Y-74881080D02*
X134197080Y-76531080D01*
X154637080Y-74881080D02*
X134197080Y-74881080D01*
X154637080Y-80181080D02*
X154637080Y-74881080D01*
X134197080Y-80181080D02*
X154637080Y-80181080D01*
X134197080Y-78531080D02*
X134197080Y-80181080D01*
X134197080Y-76531080D02*
G75*
G02*
X134197080Y-78531080I0J-1000000D01*
G01*
X248697080Y-85381080D02*
X248697080Y-87031080D01*
X269137080Y-85381080D02*
X248697080Y-85381080D01*
X269137080Y-90681080D02*
X269137080Y-85381080D01*
X248697080Y-90681080D02*
X269137080Y-90681080D01*
X248697080Y-89031080D02*
X248697080Y-90681080D01*
X248697080Y-87031080D02*
G75*
G02*
X248697080Y-89031080I0J-1000000D01*
G01*
X220697080Y-85381080D02*
X220697080Y-87031080D01*
X241137080Y-85381080D02*
X220697080Y-85381080D01*
X241137080Y-90681080D02*
X241137080Y-85381080D01*
X220697080Y-90681080D02*
X241137080Y-90681080D01*
X220697080Y-89031080D02*
X220697080Y-90681080D01*
X220697080Y-87031080D02*
G75*
G02*
X220697080Y-89031080I0J-1000000D01*
G01*
X192697080Y-85381080D02*
X192697080Y-87031080D01*
X213137080Y-85381080D02*
X192697080Y-85381080D01*
X213137080Y-90681080D02*
X213137080Y-85381080D01*
X192697080Y-90681080D02*
X213137080Y-90681080D01*
X192697080Y-89031080D02*
X192697080Y-90681080D01*
X192697080Y-87031080D02*
G75*
G02*
X192697080Y-89031080I0J-1000000D01*
G01*
X164697080Y-85381080D02*
X164697080Y-87031080D01*
X185137080Y-85381080D02*
X164697080Y-85381080D01*
X185137080Y-90681080D02*
X185137080Y-85381080D01*
X164697080Y-90681080D02*
X185137080Y-90681080D01*
X164697080Y-89031080D02*
X164697080Y-90681080D01*
X164697080Y-87031080D02*
G75*
G02*
X164697080Y-89031080I0J-1000000D01*
G01*
X248697080Y-99531080D02*
X248697080Y-101181080D01*
X248697080Y-101181080D02*
X269137080Y-101181080D01*
X269137080Y-101181080D02*
X269137080Y-95881080D01*
X269137080Y-95881080D02*
X248697080Y-95881080D01*
X248697080Y-95881080D02*
X248697080Y-97531080D01*
X248697080Y-97531080D02*
G75*
G02*
X248697080Y-99531080I0J-1000000D01*
G01*
X220697080Y-99531080D02*
X220697080Y-101181080D01*
X220697080Y-101181080D02*
X241137080Y-101181080D01*
X241137080Y-101181080D02*
X241137080Y-95881080D01*
X241137080Y-95881080D02*
X220697080Y-95881080D01*
X220697080Y-95881080D02*
X220697080Y-97531080D01*
X220697080Y-97531080D02*
G75*
G02*
X220697080Y-99531080I0J-1000000D01*
G01*
X192697080Y-99531080D02*
X192697080Y-101181080D01*
X192697080Y-101181080D02*
X213137080Y-101181080D01*
X213137080Y-101181080D02*
X213137080Y-95881080D01*
X213137080Y-95881080D02*
X192697080Y-95881080D01*
X192697080Y-95881080D02*
X192697080Y-97531080D01*
X192697080Y-97531080D02*
G75*
G02*
X192697080Y-99531080I0J-1000000D01*
G01*
X164697080Y-99531080D02*
X164697080Y-101181080D01*
X164697080Y-101181080D02*
X185137080Y-101181080D01*
X185137080Y-101181080D02*
X185137080Y-95881080D01*
X185137080Y-95881080D02*
X164697080Y-95881080D01*
X164697080Y-95881080D02*
X164697080Y-97531080D01*
X164697080Y-97531080D02*
G75*
G02*
X164697080Y-99531080I0J-1000000D01*
G01*
X248697080Y-106381080D02*
X248697080Y-108031080D01*
X269137080Y-106381080D02*
X248697080Y-106381080D01*
X269137080Y-111681080D02*
X269137080Y-106381080D01*
X248697080Y-111681080D02*
X269137080Y-111681080D01*
X248697080Y-110031080D02*
X248697080Y-111681080D01*
X248697080Y-108031080D02*
G75*
G02*
X248697080Y-110031080I0J-1000000D01*
G01*
X220697080Y-106381080D02*
X220697080Y-108031080D01*
X241137080Y-106381080D02*
X220697080Y-106381080D01*
X241137080Y-111681080D02*
X241137080Y-106381080D01*
X220697080Y-111681080D02*
X241137080Y-111681080D01*
X220697080Y-110031080D02*
X220697080Y-111681080D01*
X220697080Y-108031080D02*
G75*
G02*
X220697080Y-110031080I0J-1000000D01*
G01*
X192697080Y-106381080D02*
X192697080Y-108031080D01*
X213137080Y-106381080D02*
X192697080Y-106381080D01*
X213137080Y-111681080D02*
X213137080Y-106381080D01*
X192697080Y-111681080D02*
X213137080Y-111681080D01*
X192697080Y-110031080D02*
X192697080Y-111681080D01*
X192697080Y-108031080D02*
G75*
G02*
X192697080Y-110031080I0J-1000000D01*
G01*
X164697080Y-110031080D02*
X164697080Y-111681080D01*
X164697080Y-111681080D02*
X185137080Y-111681080D01*
X185137080Y-111681080D02*
X185137080Y-106381080D01*
X185137080Y-106381080D02*
X164697080Y-106381080D01*
X164697080Y-106381080D02*
X164697080Y-108031080D01*
X164697080Y-108031080D02*
G75*
G02*
X164697080Y-110031080I0J-1000000D01*
G01*
X47189080Y-53809080D02*
X47189080Y-55459080D01*
X77789080Y-53809080D02*
X47189080Y-53809080D01*
X77789080Y-59109080D02*
X77789080Y-53809080D01*
X47189080Y-59109080D02*
X77789080Y-59109080D01*
X47189080Y-57459080D02*
X47189080Y-59109080D01*
X47189080Y-55459080D02*
G75*
G02*
X47189080Y-57459080I0J-1000000D01*
G01*
X126847080Y-97641080D02*
X122607080Y-97641080D01*
X122607080Y-97641080D02*
X122607080Y-107381080D01*
X122607080Y-107381080D02*
X126847080Y-107381080D01*
X126847080Y-107381080D02*
X126847080Y-97641080D01*
X124727080Y-96131080D02*
X124727080Y-97641080D01*
X124727080Y-108891080D02*
X124727080Y-107381080D01*
X159527080Y-95881080D02*
X159527080Y-96571080D01*
X159527080Y-101301080D02*
X159527080Y-100611080D01*
X158107080Y-96571080D02*
X158107080Y-100611080D01*
X160947080Y-96571080D02*
X158107080Y-96571080D01*
X160947080Y-100611080D02*
X160947080Y-96571080D01*
X158107080Y-100611080D02*
X160947080Y-100611080D01*
X187357080Y-100611080D02*
X190197080Y-100611080D01*
X190197080Y-100611080D02*
X190197080Y-96571080D01*
X190197080Y-96571080D02*
X187357080Y-96571080D01*
X187357080Y-96571080D02*
X187357080Y-100611080D01*
X188777080Y-101301080D02*
X188777080Y-100611080D01*
X188777080Y-95881080D02*
X188777080Y-96571080D01*
X215357080Y-100611080D02*
X218197080Y-100611080D01*
X218197080Y-100611080D02*
X218197080Y-96571080D01*
X218197080Y-96571080D02*
X215357080Y-96571080D01*
X215357080Y-96571080D02*
X215357080Y-100611080D01*
X216777080Y-101301080D02*
X216777080Y-100611080D01*
X216777080Y-95881080D02*
X216777080Y-96571080D01*
X158107080Y-90111080D02*
X160947080Y-90111080D01*
X160947080Y-90111080D02*
X160947080Y-86071080D01*
X160947080Y-86071080D02*
X158107080Y-86071080D01*
X158107080Y-86071080D02*
X158107080Y-90111080D01*
X159527080Y-90801080D02*
X159527080Y-90111080D01*
X159527080Y-85381080D02*
X159527080Y-86071080D01*
X188777080Y-85381080D02*
X188777080Y-86071080D01*
X188777080Y-90801080D02*
X188777080Y-90111080D01*
X187357080Y-86071080D02*
X187357080Y-90111080D01*
X190197080Y-86071080D02*
X187357080Y-86071080D01*
X190197080Y-90111080D02*
X190197080Y-86071080D01*
X187357080Y-90111080D02*
X190197080Y-90111080D01*
X215357080Y-90111080D02*
X218197080Y-90111080D01*
X218197080Y-90111080D02*
X218197080Y-86071080D01*
X218197080Y-86071080D02*
X215357080Y-86071080D01*
X215357080Y-86071080D02*
X215357080Y-90111080D01*
X216777080Y-90801080D02*
X216777080Y-90111080D01*
X216777080Y-85381080D02*
X216777080Y-86071080D01*
X159527080Y-74881080D02*
X159527080Y-75571080D01*
X159527080Y-80301080D02*
X159527080Y-79611080D01*
X158107080Y-75571080D02*
X158107080Y-79611080D01*
X160947080Y-75571080D02*
X158107080Y-75571080D01*
X160947080Y-79611080D02*
X160947080Y-75571080D01*
X158107080Y-79611080D02*
X160947080Y-79611080D01*
X187357080Y-79611080D02*
X190197080Y-79611080D01*
X190197080Y-79611080D02*
X190197080Y-75571080D01*
X190197080Y-75571080D02*
X187357080Y-75571080D01*
X187357080Y-75571080D02*
X187357080Y-79611080D01*
X188777080Y-80301080D02*
X188777080Y-79611080D01*
X188777080Y-74881080D02*
X188777080Y-75571080D01*
X244777080Y-106381080D02*
X244777080Y-107071080D01*
X244777080Y-111801080D02*
X244777080Y-111111080D01*
X243357080Y-107071080D02*
X243357080Y-111111080D01*
X246197080Y-107071080D02*
X243357080Y-107071080D01*
X246197080Y-111111080D02*
X246197080Y-107071080D01*
X243357080Y-111111080D02*
X246197080Y-111111080D01*
X159527080Y-64381080D02*
X159527080Y-65071080D01*
X159527080Y-69801080D02*
X159527080Y-69111080D01*
X158107080Y-65071080D02*
X158107080Y-69111080D01*
X160947080Y-65071080D02*
X158107080Y-65071080D01*
X160947080Y-69111080D02*
X160947080Y-65071080D01*
X158107080Y-69111080D02*
X160947080Y-69111080D01*
X187357080Y-69111080D02*
X190197080Y-69111080D01*
X190197080Y-69111080D02*
X190197080Y-65071080D01*
X190197080Y-65071080D02*
X187357080Y-65071080D01*
X187357080Y-65071080D02*
X187357080Y-69111080D01*
X188777080Y-69801080D02*
X188777080Y-69111080D01*
X188777080Y-64381080D02*
X188777080Y-65071080D01*
X244777080Y-95881080D02*
X244777080Y-96571080D01*
X244777080Y-101301080D02*
X244777080Y-100611080D01*
X243357080Y-96571080D02*
X243357080Y-100611080D01*
X246197080Y-96571080D02*
X243357080Y-96571080D01*
X246197080Y-100611080D02*
X246197080Y-96571080D01*
X243357080Y-100611080D02*
X246197080Y-100611080D01*
X159357080Y-58611080D02*
X162197080Y-58611080D01*
X162197080Y-58611080D02*
X162197080Y-54571080D01*
X162197080Y-54571080D02*
X159357080Y-54571080D01*
X159357080Y-54571080D02*
X159357080Y-58611080D01*
X160777080Y-59301080D02*
X160777080Y-58611080D01*
X160777080Y-53881080D02*
X160777080Y-54571080D01*
X188777080Y-53881080D02*
X188777080Y-54571080D01*
X188777080Y-59301080D02*
X188777080Y-58611080D01*
X187357080Y-54571080D02*
X187357080Y-58611080D01*
X190197080Y-54571080D02*
X187357080Y-54571080D01*
X190197080Y-58611080D02*
X190197080Y-54571080D01*
X187357080Y-58611080D02*
X190197080Y-58611080D01*
X243357080Y-90111080D02*
X246197080Y-90111080D01*
X246197080Y-90111080D02*
X246197080Y-86071080D01*
X246197080Y-86071080D02*
X243357080Y-86071080D01*
X243357080Y-86071080D02*
X243357080Y-90111080D01*
X244777080Y-90801080D02*
X244777080Y-90111080D01*
X244777080Y-85381080D02*
X244777080Y-86071080D01*
X129545080Y-80733080D02*
X129545080Y-81423080D01*
X129545080Y-86153080D02*
X129545080Y-85463080D01*
X128125080Y-81423080D02*
X128125080Y-85463080D01*
X130965080Y-81423080D02*
X128125080Y-81423080D01*
X130965080Y-85463080D02*
X130965080Y-81423080D01*
X128125080Y-85463080D02*
X130965080Y-85463080D01*
X215357080Y-79611080D02*
X218197080Y-79611080D01*
X218197080Y-79611080D02*
X218197080Y-75571080D01*
X218197080Y-75571080D02*
X215357080Y-75571080D01*
X215357080Y-75571080D02*
X215357080Y-79611080D01*
X216777080Y-80301080D02*
X216777080Y-79611080D01*
X216777080Y-74881080D02*
X216777080Y-75571080D01*
X243357080Y-79611080D02*
X246197080Y-79611080D01*
X246197080Y-79611080D02*
X246197080Y-75571080D01*
X246197080Y-75571080D02*
X243357080Y-75571080D01*
X243357080Y-75571080D02*
X243357080Y-79611080D01*
X244777080Y-80301080D02*
X244777080Y-79611080D01*
X244777080Y-74881080D02*
X244777080Y-75571080D01*
X129545080Y-68033080D02*
X129545080Y-68723080D01*
X129545080Y-73453080D02*
X129545080Y-72763080D01*
X128125080Y-68723080D02*
X128125080Y-72763080D01*
X130965080Y-68723080D02*
X128125080Y-68723080D01*
X130965080Y-72763080D02*
X130965080Y-68723080D01*
X128125080Y-72763080D02*
X130965080Y-72763080D01*
X215357080Y-69111080D02*
X218197080Y-69111080D01*
X218197080Y-69111080D02*
X218197080Y-65071080D01*
X218197080Y-65071080D02*
X215357080Y-65071080D01*
X215357080Y-65071080D02*
X215357080Y-69111080D01*
X216777080Y-69801080D02*
X216777080Y-69111080D01*
X216777080Y-64381080D02*
X216777080Y-65071080D01*
X244777080Y-64381080D02*
X244777080Y-65071080D01*
X244777080Y-69801080D02*
X244777080Y-69111080D01*
X243357080Y-65071080D02*
X243357080Y-69111080D01*
X246197080Y-65071080D02*
X243357080Y-65071080D01*
X246197080Y-69111080D02*
X246197080Y-65071080D01*
X243357080Y-69111080D02*
X246197080Y-69111080D01*
X131357080Y-58611080D02*
X134197080Y-58611080D01*
X134197080Y-58611080D02*
X134197080Y-54571080D01*
X134197080Y-54571080D02*
X131357080Y-54571080D01*
X131357080Y-54571080D02*
X131357080Y-58611080D01*
X132777080Y-59301080D02*
X132777080Y-58611080D01*
X132777080Y-53881080D02*
X132777080Y-54571080D01*
X216777080Y-53881080D02*
X216777080Y-54571080D01*
X216777080Y-59301080D02*
X216777080Y-58611080D01*
X215357080Y-54571080D02*
X215357080Y-58611080D01*
X218197080Y-54571080D02*
X215357080Y-54571080D01*
X218197080Y-58611080D02*
X218197080Y-54571080D01*
X215357080Y-58611080D02*
X218197080Y-58611080D01*
X243357080Y-58611080D02*
X246197080Y-58611080D01*
X246197080Y-58611080D02*
X246197080Y-54571080D01*
X246197080Y-54571080D02*
X243357080Y-54571080D01*
X243357080Y-54571080D02*
X243357080Y-58611080D01*
X244777080Y-59301080D02*
X244777080Y-58611080D01*
X244777080Y-53881080D02*
X244777080Y-54571080D01*
X159527080Y-106381080D02*
X159527080Y-107071080D01*
X159527080Y-111801080D02*
X159527080Y-111111080D01*
X158107080Y-107071080D02*
X158107080Y-111111080D01*
X160947080Y-107071080D02*
X158107080Y-107071080D01*
X160947080Y-111111080D02*
X160947080Y-107071080D01*
X158107080Y-111111080D02*
X160947080Y-111111080D01*
X187357080Y-111111080D02*
X190197080Y-111111080D01*
X190197080Y-111111080D02*
X190197080Y-107071080D01*
X190197080Y-107071080D02*
X187357080Y-107071080D01*
X187357080Y-107071080D02*
X187357080Y-111111080D01*
X188777080Y-111801080D02*
X188777080Y-111111080D01*
X188777080Y-106381080D02*
X188777080Y-107071080D01*
X216777080Y-106381080D02*
X216777080Y-107071080D01*
X216777080Y-111801080D02*
X216777080Y-111111080D01*
X215357080Y-107071080D02*
X215357080Y-111111080D01*
X218197080Y-107071080D02*
X215357080Y-107071080D01*
X218197080Y-111111080D02*
X218197080Y-107071080D01*
X215357080Y-111111080D02*
X218197080Y-111111080D01*
X72137080Y-66351080D02*
X72137080Y-64701080D01*
X72137080Y-64701080D02*
X82417080Y-64701080D01*
X82417080Y-64701080D02*
X82417080Y-70001080D01*
X82417080Y-70001080D02*
X72137080Y-70001080D01*
X72137080Y-70001080D02*
X72137080Y-68351080D01*
X72137080Y-68351080D02*
G75*
G03*
X72137080Y-66351080I0J1000000D01*
G01*
D10*
X25333651Y-57149556D02*
X25333651Y-56816222D01*
X25857460Y-56673365D02*
X25857460Y-57149556D01*
X24857460Y-57149556D01*
X24857460Y-56673365D01*
X25286032Y-56101937D02*
X25238413Y-56197175D01*
X25190794Y-56244794D01*
X25095556Y-56292413D01*
X25047937Y-56292413D01*
X24952699Y-56244794D01*
X24905080Y-56197175D01*
X24857460Y-56101937D01*
X24857460Y-55911460D01*
X24905080Y-55816222D01*
X24952699Y-55768603D01*
X25047937Y-55720984D01*
X25095556Y-55720984D01*
X25190794Y-55768603D01*
X25238413Y-55816222D01*
X25286032Y-55911460D01*
X25286032Y-56101937D01*
X25333651Y-56197175D01*
X25381270Y-56244794D01*
X25476508Y-56292413D01*
X25666984Y-56292413D01*
X25762222Y-56244794D01*
X25809841Y-56197175D01*
X25857460Y-56101937D01*
X25857460Y-55911460D01*
X25809841Y-55816222D01*
X25762222Y-55768603D01*
X25666984Y-55720984D01*
X25476508Y-55720984D01*
X25381270Y-55768603D01*
X25333651Y-55816222D01*
X25286032Y-55911460D01*
X56277651Y-99535746D02*
X56277651Y-99202413D01*
X56801460Y-99059556D02*
X56801460Y-99535746D01*
X55801460Y-99535746D01*
X55801460Y-99059556D01*
X55801460Y-98726222D02*
X55801460Y-98107175D01*
X56182413Y-98440508D01*
X56182413Y-98297651D01*
X56230032Y-98202413D01*
X56277651Y-98154794D01*
X56372889Y-98107175D01*
X56610984Y-98107175D01*
X56706222Y-98154794D01*
X56753841Y-98202413D01*
X56801460Y-98297651D01*
X56801460Y-98583365D01*
X56753841Y-98678603D01*
X56706222Y-98726222D01*
X56801460Y-97630984D02*
X56801460Y-97440508D01*
X56753841Y-97345270D01*
X56706222Y-97297651D01*
X56563365Y-97202413D01*
X56372889Y-97154794D01*
X55991937Y-97154794D01*
X55896699Y-97202413D01*
X55849080Y-97250032D01*
X55801460Y-97345270D01*
X55801460Y-97535746D01*
X55849080Y-97630984D01*
X55896699Y-97678603D01*
X55991937Y-97726222D01*
X56230032Y-97726222D01*
X56325270Y-97678603D01*
X56372889Y-97630984D01*
X56420508Y-97535746D01*
X56420508Y-97345270D01*
X56372889Y-97250032D01*
X56325270Y-97202413D01*
X56230032Y-97154794D01*
X51536222Y-79787937D02*
X51583841Y-79835556D01*
X51631460Y-79978413D01*
X51631460Y-80073651D01*
X51583841Y-80216508D01*
X51488603Y-80311746D01*
X51393365Y-80359365D01*
X51202889Y-80406984D01*
X51060032Y-80406984D01*
X50869556Y-80359365D01*
X50774318Y-80311746D01*
X50679080Y-80216508D01*
X50631460Y-80073651D01*
X50631460Y-79978413D01*
X50679080Y-79835556D01*
X50726699Y-79787937D01*
X50726699Y-79406984D02*
X50679080Y-79359365D01*
X50631460Y-79264127D01*
X50631460Y-79026032D01*
X50679080Y-78930794D01*
X50726699Y-78883175D01*
X50821937Y-78835556D01*
X50917175Y-78835556D01*
X51060032Y-78883175D01*
X51631460Y-79454603D01*
X51631460Y-78835556D01*
X51060032Y-78264127D02*
X51012413Y-78359365D01*
X50964794Y-78406984D01*
X50869556Y-78454603D01*
X50821937Y-78454603D01*
X50726699Y-78406984D01*
X50679080Y-78359365D01*
X50631460Y-78264127D01*
X50631460Y-78073651D01*
X50679080Y-77978413D01*
X50726699Y-77930794D01*
X50821937Y-77883175D01*
X50869556Y-77883175D01*
X50964794Y-77930794D01*
X51012413Y-77978413D01*
X51060032Y-78073651D01*
X51060032Y-78264127D01*
X51107651Y-78359365D01*
X51155270Y-78406984D01*
X51250508Y-78454603D01*
X51440984Y-78454603D01*
X51536222Y-78406984D01*
X51583841Y-78359365D01*
X51631460Y-78264127D01*
X51631460Y-78073651D01*
X51583841Y-77978413D01*
X51536222Y-77930794D01*
X51440984Y-77883175D01*
X51250508Y-77883175D01*
X51155270Y-77930794D01*
X51107651Y-77978413D01*
X51060032Y-78073651D01*
X116181603Y-54978460D02*
X115848270Y-54502270D01*
X115610175Y-54978460D02*
X115610175Y-53978460D01*
X115991127Y-53978460D01*
X116086365Y-54026080D01*
X116133984Y-54073699D01*
X116181603Y-54168937D01*
X116181603Y-54311794D01*
X116133984Y-54407032D01*
X116086365Y-54454651D01*
X115991127Y-54502270D01*
X115610175Y-54502270D01*
X116610175Y-54978460D02*
X116610175Y-53978460D01*
X117181603Y-54978460D01*
X117181603Y-53978460D01*
X117562556Y-53978460D02*
X118181603Y-53978460D01*
X117848270Y-54359413D01*
X117991127Y-54359413D01*
X118086365Y-54407032D01*
X118133984Y-54454651D01*
X118181603Y-54549889D01*
X118181603Y-54787984D01*
X118133984Y-54883222D01*
X118086365Y-54930841D01*
X117991127Y-54978460D01*
X117705413Y-54978460D01*
X117610175Y-54930841D01*
X117562556Y-54883222D01*
X41884222Y-55911937D02*
X41931841Y-55959556D01*
X41979460Y-56102413D01*
X41979460Y-56197651D01*
X41931841Y-56340508D01*
X41836603Y-56435746D01*
X41741365Y-56483365D01*
X41550889Y-56530984D01*
X41408032Y-56530984D01*
X41217556Y-56483365D01*
X41122318Y-56435746D01*
X41027080Y-56340508D01*
X40979460Y-56197651D01*
X40979460Y-56102413D01*
X41027080Y-55959556D01*
X41074699Y-55911937D01*
X41074699Y-55530984D02*
X41027080Y-55483365D01*
X40979460Y-55388127D01*
X40979460Y-55150032D01*
X41027080Y-55054794D01*
X41074699Y-55007175D01*
X41169937Y-54959556D01*
X41265175Y-54959556D01*
X41408032Y-55007175D01*
X41979460Y-55578603D01*
X41979460Y-54959556D01*
X41979460Y-54483365D02*
X41979460Y-54292889D01*
X41931841Y-54197651D01*
X41884222Y-54150032D01*
X41741365Y-54054794D01*
X41550889Y-54007175D01*
X41169937Y-54007175D01*
X41074699Y-54054794D01*
X41027080Y-54102413D01*
X40979460Y-54197651D01*
X40979460Y-54388127D01*
X41027080Y-54483365D01*
X41074699Y-54530984D01*
X41169937Y-54578603D01*
X41408032Y-54578603D01*
X41503270Y-54530984D01*
X41550889Y-54483365D01*
X41598508Y-54388127D01*
X41598508Y-54197651D01*
X41550889Y-54102413D01*
X41503270Y-54054794D01*
X41408032Y-54007175D01*
X75964222Y-97773937D02*
X76011841Y-97821556D01*
X76059460Y-97964413D01*
X76059460Y-98059651D01*
X76011841Y-98202508D01*
X75916603Y-98297746D01*
X75821365Y-98345365D01*
X75630889Y-98392984D01*
X75488032Y-98392984D01*
X75297556Y-98345365D01*
X75202318Y-98297746D01*
X75107080Y-98202508D01*
X75059460Y-98059651D01*
X75059460Y-97964413D01*
X75107080Y-97821556D01*
X75154699Y-97773937D01*
X75059460Y-97440603D02*
X75059460Y-96821556D01*
X75440413Y-97154889D01*
X75440413Y-97012032D01*
X75488032Y-96916794D01*
X75535651Y-96869175D01*
X75630889Y-96821556D01*
X75868984Y-96821556D01*
X75964222Y-96869175D01*
X76011841Y-96916794D01*
X76059460Y-97012032D01*
X76059460Y-97297746D01*
X76011841Y-97392984D01*
X75964222Y-97440603D01*
X75059460Y-96202508D02*
X75059460Y-96107270D01*
X75107080Y-96012032D01*
X75154699Y-95964413D01*
X75249937Y-95916794D01*
X75440413Y-95869175D01*
X75678508Y-95869175D01*
X75868984Y-95916794D01*
X75964222Y-95964413D01*
X76011841Y-96012032D01*
X76059460Y-96107270D01*
X76059460Y-96202508D01*
X76011841Y-96297746D01*
X75964222Y-96345365D01*
X75868984Y-96392984D01*
X75678508Y-96440603D01*
X75440413Y-96440603D01*
X75249937Y-96392984D01*
X75154699Y-96345365D01*
X75107080Y-96297746D01*
X75059460Y-96202508D01*
X51536222Y-97821937D02*
X51583841Y-97869556D01*
X51631460Y-98012413D01*
X51631460Y-98107651D01*
X51583841Y-98250508D01*
X51488603Y-98345746D01*
X51393365Y-98393365D01*
X51202889Y-98440984D01*
X51060032Y-98440984D01*
X50869556Y-98393365D01*
X50774318Y-98345746D01*
X50679080Y-98250508D01*
X50631460Y-98107651D01*
X50631460Y-98012413D01*
X50679080Y-97869556D01*
X50726699Y-97821937D01*
X50631460Y-97488603D02*
X50631460Y-96869556D01*
X51012413Y-97202889D01*
X51012413Y-97060032D01*
X51060032Y-96964794D01*
X51107651Y-96917175D01*
X51202889Y-96869556D01*
X51440984Y-96869556D01*
X51536222Y-96917175D01*
X51583841Y-96964794D01*
X51631460Y-97060032D01*
X51631460Y-97345746D01*
X51583841Y-97440984D01*
X51536222Y-97488603D01*
X51631460Y-95917175D02*
X51631460Y-96488603D01*
X51631460Y-96202889D02*
X50631460Y-96202889D01*
X50774318Y-96298127D01*
X50869556Y-96393365D01*
X50917175Y-96488603D01*
X79222222Y-80803937D02*
X79269841Y-80851556D01*
X79317460Y-80994413D01*
X79317460Y-81089651D01*
X79269841Y-81232508D01*
X79174603Y-81327746D01*
X79079365Y-81375365D01*
X78888889Y-81422984D01*
X78746032Y-81422984D01*
X78555556Y-81375365D01*
X78460318Y-81327746D01*
X78365080Y-81232508D01*
X78317460Y-81089651D01*
X78317460Y-80994413D01*
X78365080Y-80851556D01*
X78412699Y-80803937D01*
X78317460Y-80470603D02*
X78317460Y-79851556D01*
X78698413Y-80184889D01*
X78698413Y-80042032D01*
X78746032Y-79946794D01*
X78793651Y-79899175D01*
X78888889Y-79851556D01*
X79126984Y-79851556D01*
X79222222Y-79899175D01*
X79269841Y-79946794D01*
X79317460Y-80042032D01*
X79317460Y-80327746D01*
X79269841Y-80422984D01*
X79222222Y-80470603D01*
X78412699Y-79470603D02*
X78365080Y-79422984D01*
X78317460Y-79327746D01*
X78317460Y-79089651D01*
X78365080Y-78994413D01*
X78412699Y-78946794D01*
X78507937Y-78899175D01*
X78603175Y-78899175D01*
X78746032Y-78946794D01*
X79317460Y-79518222D01*
X79317460Y-78899175D01*
X124104222Y-105413937D02*
X124151841Y-105461556D01*
X124199460Y-105604413D01*
X124199460Y-105699651D01*
X124151841Y-105842508D01*
X124056603Y-105937746D01*
X123961365Y-105985365D01*
X123770889Y-106032984D01*
X123628032Y-106032984D01*
X123437556Y-105985365D01*
X123342318Y-105937746D01*
X123247080Y-105842508D01*
X123199460Y-105699651D01*
X123199460Y-105604413D01*
X123247080Y-105461556D01*
X123294699Y-105413937D01*
X123199460Y-105080603D02*
X123199460Y-104461556D01*
X123580413Y-104794889D01*
X123580413Y-104652032D01*
X123628032Y-104556794D01*
X123675651Y-104509175D01*
X123770889Y-104461556D01*
X124008984Y-104461556D01*
X124104222Y-104509175D01*
X124151841Y-104556794D01*
X124199460Y-104652032D01*
X124199460Y-104937746D01*
X124151841Y-105032984D01*
X124104222Y-105080603D01*
X123199460Y-104128222D02*
X123199460Y-103509175D01*
X123580413Y-103842508D01*
X123580413Y-103699651D01*
X123628032Y-103604413D01*
X123675651Y-103556794D01*
X123770889Y-103509175D01*
X124008984Y-103509175D01*
X124104222Y-103556794D01*
X124151841Y-103604413D01*
X124199460Y-103699651D01*
X124199460Y-103985365D01*
X124151841Y-104080603D01*
X124104222Y-104128222D01*
X111924222Y-110603937D02*
X111971841Y-110651556D01*
X112019460Y-110794413D01*
X112019460Y-110889651D01*
X111971841Y-111032508D01*
X111876603Y-111127746D01*
X111781365Y-111175365D01*
X111590889Y-111222984D01*
X111448032Y-111222984D01*
X111257556Y-111175365D01*
X111162318Y-111127746D01*
X111067080Y-111032508D01*
X111019460Y-110889651D01*
X111019460Y-110794413D01*
X111067080Y-110651556D01*
X111114699Y-110603937D01*
X111019460Y-110270603D02*
X111019460Y-109651556D01*
X111400413Y-109984889D01*
X111400413Y-109842032D01*
X111448032Y-109746794D01*
X111495651Y-109699175D01*
X111590889Y-109651556D01*
X111828984Y-109651556D01*
X111924222Y-109699175D01*
X111971841Y-109746794D01*
X112019460Y-109842032D01*
X112019460Y-110127746D01*
X111971841Y-110222984D01*
X111924222Y-110270603D01*
X111352794Y-108794413D02*
X112019460Y-108794413D01*
X110971841Y-109032508D02*
X111686127Y-109270603D01*
X111686127Y-108651556D01*
X132614222Y-110613937D02*
X132661841Y-110661556D01*
X132709460Y-110804413D01*
X132709460Y-110899651D01*
X132661841Y-111042508D01*
X132566603Y-111137746D01*
X132471365Y-111185365D01*
X132280889Y-111232984D01*
X132138032Y-111232984D01*
X131947556Y-111185365D01*
X131852318Y-111137746D01*
X131757080Y-111042508D01*
X131709460Y-110899651D01*
X131709460Y-110804413D01*
X131757080Y-110661556D01*
X131804699Y-110613937D01*
X131709460Y-110280603D02*
X131709460Y-109661556D01*
X132090413Y-109994889D01*
X132090413Y-109852032D01*
X132138032Y-109756794D01*
X132185651Y-109709175D01*
X132280889Y-109661556D01*
X132518984Y-109661556D01*
X132614222Y-109709175D01*
X132661841Y-109756794D01*
X132709460Y-109852032D01*
X132709460Y-110137746D01*
X132661841Y-110232984D01*
X132614222Y-110280603D01*
X131709460Y-108756794D02*
X131709460Y-109232984D01*
X132185651Y-109280603D01*
X132138032Y-109232984D01*
X132090413Y-109137746D01*
X132090413Y-108899651D01*
X132138032Y-108804413D01*
X132185651Y-108756794D01*
X132280889Y-108709175D01*
X132518984Y-108709175D01*
X132614222Y-108756794D01*
X132661841Y-108804413D01*
X132709460Y-108899651D01*
X132709460Y-109137746D01*
X132661841Y-109232984D01*
X132614222Y-109280603D01*
X81169651Y-57149556D02*
X81169651Y-56816222D01*
X81693460Y-56673365D02*
X81693460Y-57149556D01*
X80693460Y-57149556D01*
X80693460Y-56673365D01*
X80693460Y-55816222D02*
X80693460Y-56006699D01*
X80741080Y-56101937D01*
X80788699Y-56149556D01*
X80931556Y-56244794D01*
X81122032Y-56292413D01*
X81502984Y-56292413D01*
X81598222Y-56244794D01*
X81645841Y-56197175D01*
X81693460Y-56101937D01*
X81693460Y-55911460D01*
X81645841Y-55816222D01*
X81598222Y-55768603D01*
X81502984Y-55720984D01*
X81264889Y-55720984D01*
X81169651Y-55768603D01*
X81122032Y-55816222D01*
X81074413Y-55911460D01*
X81074413Y-56101937D01*
X81122032Y-56197175D01*
X81169651Y-56244794D01*
X81264889Y-56292413D01*
X83709651Y-68293746D02*
X83709651Y-67960413D01*
X84233460Y-67817556D02*
X84233460Y-68293746D01*
X83233460Y-68293746D01*
X83233460Y-67817556D01*
X84233460Y-66865175D02*
X84233460Y-67436603D01*
X84233460Y-67150889D02*
X83233460Y-67150889D01*
X83376318Y-67246127D01*
X83471556Y-67341365D01*
X83519175Y-67436603D01*
X83566794Y-66008032D02*
X84233460Y-66008032D01*
X83185841Y-66246127D02*
X83900127Y-66484222D01*
X83900127Y-65865175D01*
X51197651Y-68293746D02*
X51197651Y-67960413D01*
X51721460Y-67817556D02*
X51721460Y-68293746D01*
X50721460Y-68293746D01*
X50721460Y-67817556D01*
X51721460Y-66865175D02*
X51721460Y-67436603D01*
X51721460Y-67150889D02*
X50721460Y-67150889D01*
X50864318Y-67246127D01*
X50959556Y-67341365D01*
X51007175Y-67436603D01*
X50721460Y-65960413D02*
X50721460Y-66436603D01*
X51197651Y-66484222D01*
X51150032Y-66436603D01*
X51102413Y-66341365D01*
X51102413Y-66103270D01*
X51150032Y-66008032D01*
X51197651Y-65960413D01*
X51292889Y-65912794D01*
X51530984Y-65912794D01*
X51626222Y-65960413D01*
X51673841Y-66008032D01*
X51721460Y-66103270D01*
X51721460Y-66341365D01*
X51673841Y-66436603D01*
X51626222Y-66484222D01*
X31045651Y-68287746D02*
X31045651Y-67954413D01*
X31569460Y-67811556D02*
X31569460Y-68287746D01*
X30569460Y-68287746D01*
X30569460Y-67811556D01*
X31569460Y-66859175D02*
X31569460Y-67430603D01*
X31569460Y-67144889D02*
X30569460Y-67144889D01*
X30712318Y-67240127D01*
X30807556Y-67335365D01*
X30855175Y-67430603D01*
X30569460Y-66002032D02*
X30569460Y-66192508D01*
X30617080Y-66287746D01*
X30664699Y-66335365D01*
X30807556Y-66430603D01*
X30998032Y-66478222D01*
X31378984Y-66478222D01*
X31474222Y-66430603D01*
X31521841Y-66382984D01*
X31569460Y-66287746D01*
X31569460Y-66097270D01*
X31521841Y-66002032D01*
X31474222Y-65954413D01*
X31378984Y-65906794D01*
X31140889Y-65906794D01*
X31045651Y-65954413D01*
X30998032Y-66002032D01*
X30950413Y-66097270D01*
X30950413Y-66287746D01*
X30998032Y-66382984D01*
X31045651Y-66430603D01*
X31140889Y-66478222D01*
X83709651Y-78707746D02*
X83709651Y-78374413D01*
X84233460Y-78231556D02*
X84233460Y-78707746D01*
X83233460Y-78707746D01*
X83233460Y-78231556D01*
X83328699Y-77850603D02*
X83281080Y-77802984D01*
X83233460Y-77707746D01*
X83233460Y-77469651D01*
X83281080Y-77374413D01*
X83328699Y-77326794D01*
X83423937Y-77279175D01*
X83519175Y-77279175D01*
X83662032Y-77326794D01*
X84233460Y-77898222D01*
X84233460Y-77279175D01*
X83328699Y-76898222D02*
X83281080Y-76850603D01*
X83233460Y-76755365D01*
X83233460Y-76517270D01*
X83281080Y-76422032D01*
X83328699Y-76374413D01*
X83423937Y-76326794D01*
X83519175Y-76326794D01*
X83662032Y-76374413D01*
X84233460Y-76945841D01*
X84233460Y-76326794D01*
X56277651Y-78707746D02*
X56277651Y-78374413D01*
X56801460Y-78231556D02*
X56801460Y-78707746D01*
X55801460Y-78707746D01*
X55801460Y-78231556D01*
X55896699Y-77850603D02*
X55849080Y-77802984D01*
X55801460Y-77707746D01*
X55801460Y-77469651D01*
X55849080Y-77374413D01*
X55896699Y-77326794D01*
X55991937Y-77279175D01*
X56087175Y-77279175D01*
X56230032Y-77326794D01*
X56801460Y-77898222D01*
X56801460Y-77279175D01*
X55801460Y-76945841D02*
X55801460Y-76326794D01*
X56182413Y-76660127D01*
X56182413Y-76517270D01*
X56230032Y-76422032D01*
X56277651Y-76374413D01*
X56372889Y-76326794D01*
X56610984Y-76326794D01*
X56706222Y-76374413D01*
X56753841Y-76422032D01*
X56801460Y-76517270D01*
X56801460Y-76802984D01*
X56753841Y-76898222D01*
X56706222Y-76945841D01*
X28465651Y-78697746D02*
X28465651Y-78364413D01*
X28989460Y-78221556D02*
X28989460Y-78697746D01*
X27989460Y-78697746D01*
X27989460Y-78221556D01*
X28084699Y-77840603D02*
X28037080Y-77792984D01*
X27989460Y-77697746D01*
X27989460Y-77459651D01*
X28037080Y-77364413D01*
X28084699Y-77316794D01*
X28179937Y-77269175D01*
X28275175Y-77269175D01*
X28418032Y-77316794D01*
X28989460Y-77888222D01*
X28989460Y-77269175D01*
X28322794Y-76412032D02*
X28989460Y-76412032D01*
X27941841Y-76650127D02*
X28656127Y-76888222D01*
X28656127Y-76269175D01*
X135625651Y-89197746D02*
X135625651Y-88864413D01*
X136149460Y-88721556D02*
X136149460Y-89197746D01*
X135149460Y-89197746D01*
X135149460Y-88721556D01*
X135244699Y-88340603D02*
X135197080Y-88292984D01*
X135149460Y-88197746D01*
X135149460Y-87959651D01*
X135197080Y-87864413D01*
X135244699Y-87816794D01*
X135339937Y-87769175D01*
X135435175Y-87769175D01*
X135578032Y-87816794D01*
X136149460Y-88388222D01*
X136149460Y-87769175D01*
X136149460Y-87292984D02*
X136149460Y-87102508D01*
X136101841Y-87007270D01*
X136054222Y-86959651D01*
X135911365Y-86864413D01*
X135720889Y-86816794D01*
X135339937Y-86816794D01*
X135244699Y-86864413D01*
X135197080Y-86912032D01*
X135149460Y-87007270D01*
X135149460Y-87197746D01*
X135197080Y-87292984D01*
X135244699Y-87340603D01*
X135339937Y-87388222D01*
X135578032Y-87388222D01*
X135673270Y-87340603D01*
X135720889Y-87292984D01*
X135768508Y-87197746D01*
X135768508Y-87007270D01*
X135720889Y-86912032D01*
X135673270Y-86864413D01*
X135578032Y-86816794D01*
X83709651Y-89121746D02*
X83709651Y-88788413D01*
X84233460Y-88645556D02*
X84233460Y-89121746D01*
X83233460Y-89121746D01*
X83233460Y-88645556D01*
X83233460Y-88312222D02*
X83233460Y-87693175D01*
X83614413Y-88026508D01*
X83614413Y-87883651D01*
X83662032Y-87788413D01*
X83709651Y-87740794D01*
X83804889Y-87693175D01*
X84042984Y-87693175D01*
X84138222Y-87740794D01*
X84185841Y-87788413D01*
X84233460Y-87883651D01*
X84233460Y-88169365D01*
X84185841Y-88264603D01*
X84138222Y-88312222D01*
X83233460Y-87074127D02*
X83233460Y-86978889D01*
X83281080Y-86883651D01*
X83328699Y-86836032D01*
X83423937Y-86788413D01*
X83614413Y-86740794D01*
X83852508Y-86740794D01*
X84042984Y-86788413D01*
X84138222Y-86836032D01*
X84185841Y-86883651D01*
X84233460Y-86978889D01*
X84233460Y-87074127D01*
X84185841Y-87169365D01*
X84138222Y-87216984D01*
X84042984Y-87264603D01*
X83852508Y-87312222D01*
X83614413Y-87312222D01*
X83423937Y-87264603D01*
X83328699Y-87216984D01*
X83281080Y-87169365D01*
X83233460Y-87074127D01*
X56277651Y-89121746D02*
X56277651Y-88788413D01*
X56801460Y-88645556D02*
X56801460Y-89121746D01*
X55801460Y-89121746D01*
X55801460Y-88645556D01*
X55801460Y-88312222D02*
X55801460Y-87693175D01*
X56182413Y-88026508D01*
X56182413Y-87883651D01*
X56230032Y-87788413D01*
X56277651Y-87740794D01*
X56372889Y-87693175D01*
X56610984Y-87693175D01*
X56706222Y-87740794D01*
X56753841Y-87788413D01*
X56801460Y-87883651D01*
X56801460Y-88169365D01*
X56753841Y-88264603D01*
X56706222Y-88312222D01*
X56801460Y-86740794D02*
X56801460Y-87312222D01*
X56801460Y-87026508D02*
X55801460Y-87026508D01*
X55944318Y-87121746D01*
X56039556Y-87216984D01*
X56087175Y-87312222D01*
X31025651Y-89107746D02*
X31025651Y-88774413D01*
X31549460Y-88631556D02*
X31549460Y-89107746D01*
X30549460Y-89107746D01*
X30549460Y-88631556D01*
X30549460Y-88298222D02*
X30549460Y-87679175D01*
X30930413Y-88012508D01*
X30930413Y-87869651D01*
X30978032Y-87774413D01*
X31025651Y-87726794D01*
X31120889Y-87679175D01*
X31358984Y-87679175D01*
X31454222Y-87726794D01*
X31501841Y-87774413D01*
X31549460Y-87869651D01*
X31549460Y-88155365D01*
X31501841Y-88250603D01*
X31454222Y-88298222D01*
X30644699Y-87298222D02*
X30597080Y-87250603D01*
X30549460Y-87155365D01*
X30549460Y-86917270D01*
X30597080Y-86822032D01*
X30644699Y-86774413D01*
X30739937Y-86726794D01*
X30835175Y-86726794D01*
X30978032Y-86774413D01*
X31549460Y-87345841D01*
X31549460Y-86726794D01*
X128045651Y-99697746D02*
X128045651Y-99364413D01*
X128569460Y-99221556D02*
X128569460Y-99697746D01*
X127569460Y-99697746D01*
X127569460Y-99221556D01*
X127569460Y-98888222D02*
X127569460Y-98269175D01*
X127950413Y-98602508D01*
X127950413Y-98459651D01*
X127998032Y-98364413D01*
X128045651Y-98316794D01*
X128140889Y-98269175D01*
X128378984Y-98269175D01*
X128474222Y-98316794D01*
X128521841Y-98364413D01*
X128569460Y-98459651D01*
X128569460Y-98745365D01*
X128521841Y-98840603D01*
X128474222Y-98888222D01*
X127569460Y-97935841D02*
X127569460Y-97269175D01*
X128569460Y-97697746D01*
X83709651Y-99535746D02*
X83709651Y-99202413D01*
X84233460Y-99059556D02*
X84233460Y-99535746D01*
X83233460Y-99535746D01*
X83233460Y-99059556D01*
X83233460Y-98726222D02*
X83233460Y-98107175D01*
X83614413Y-98440508D01*
X83614413Y-98297651D01*
X83662032Y-98202413D01*
X83709651Y-98154794D01*
X83804889Y-98107175D01*
X84042984Y-98107175D01*
X84138222Y-98154794D01*
X84185841Y-98202413D01*
X84233460Y-98297651D01*
X84233460Y-98583365D01*
X84185841Y-98678603D01*
X84138222Y-98726222D01*
X83662032Y-97535746D02*
X83614413Y-97630984D01*
X83566794Y-97678603D01*
X83471556Y-97726222D01*
X83423937Y-97726222D01*
X83328699Y-97678603D01*
X83281080Y-97630984D01*
X83233460Y-97535746D01*
X83233460Y-97345270D01*
X83281080Y-97250032D01*
X83328699Y-97202413D01*
X83423937Y-97154794D01*
X83471556Y-97154794D01*
X83566794Y-97202413D01*
X83614413Y-97250032D01*
X83662032Y-97345270D01*
X83662032Y-97535746D01*
X83709651Y-97630984D01*
X83757270Y-97678603D01*
X83852508Y-97726222D01*
X84042984Y-97726222D01*
X84138222Y-97678603D01*
X84185841Y-97630984D01*
X84233460Y-97535746D01*
X84233460Y-97345270D01*
X84185841Y-97250032D01*
X84138222Y-97202413D01*
X84042984Y-97154794D01*
X83852508Y-97154794D01*
X83757270Y-97202413D01*
X83709651Y-97250032D01*
X83662032Y-97345270D01*
X31035651Y-99517746D02*
X31035651Y-99184413D01*
X31559460Y-99041556D02*
X31559460Y-99517746D01*
X30559460Y-99517746D01*
X30559460Y-99041556D01*
X30892794Y-98184413D02*
X31559460Y-98184413D01*
X30511841Y-98422508D02*
X31226127Y-98660603D01*
X31226127Y-98041556D01*
X30559460Y-97470127D02*
X30559460Y-97374889D01*
X30607080Y-97279651D01*
X30654699Y-97232032D01*
X30749937Y-97184413D01*
X30940413Y-97136794D01*
X31178508Y-97136794D01*
X31368984Y-97184413D01*
X31464222Y-97232032D01*
X31511841Y-97279651D01*
X31559460Y-97374889D01*
X31559460Y-97470127D01*
X31511841Y-97565365D01*
X31464222Y-97612984D01*
X31368984Y-97660603D01*
X31178508Y-97708222D01*
X30940413Y-97708222D01*
X30749937Y-97660603D01*
X30654699Y-97612984D01*
X30607080Y-97565365D01*
X30559460Y-97470127D01*
X133125651Y-110197746D02*
X133125651Y-109864413D01*
X133649460Y-109721556D02*
X133649460Y-110197746D01*
X132649460Y-110197746D01*
X132649460Y-109721556D01*
X132982794Y-108864413D02*
X133649460Y-108864413D01*
X132601841Y-109102508D02*
X133316127Y-109340603D01*
X133316127Y-108721556D01*
X132649460Y-107864413D02*
X132649460Y-108340603D01*
X133125651Y-108388222D01*
X133078032Y-108340603D01*
X133030413Y-108245365D01*
X133030413Y-108007270D01*
X133078032Y-107912032D01*
X133125651Y-107864413D01*
X133220889Y-107816794D01*
X133458984Y-107816794D01*
X133554222Y-107864413D01*
X133601841Y-107912032D01*
X133649460Y-108007270D01*
X133649460Y-108245365D01*
X133601841Y-108340603D01*
X133554222Y-108388222D01*
X109719460Y-82267746D02*
X109243270Y-82601080D01*
X109719460Y-82839175D02*
X108719460Y-82839175D01*
X108719460Y-82458222D01*
X108767080Y-82362984D01*
X108814699Y-82315365D01*
X108909937Y-82267746D01*
X109052794Y-82267746D01*
X109148032Y-82315365D01*
X109195651Y-82362984D01*
X109243270Y-82458222D01*
X109243270Y-82839175D01*
X109719460Y-81315365D02*
X109719460Y-81886794D01*
X109719460Y-81601080D02*
X108719460Y-81601080D01*
X108862318Y-81696318D01*
X108957556Y-81791556D01*
X109005175Y-81886794D01*
X112329460Y-82267746D02*
X111853270Y-82601080D01*
X112329460Y-82839175D02*
X111329460Y-82839175D01*
X111329460Y-82458222D01*
X111377080Y-82362984D01*
X111424699Y-82315365D01*
X111519937Y-82267746D01*
X111662794Y-82267746D01*
X111758032Y-82315365D01*
X111805651Y-82362984D01*
X111853270Y-82458222D01*
X111853270Y-82839175D01*
X111424699Y-81886794D02*
X111377080Y-81839175D01*
X111329460Y-81743937D01*
X111329460Y-81505841D01*
X111377080Y-81410603D01*
X111424699Y-81362984D01*
X111519937Y-81315365D01*
X111615175Y-81315365D01*
X111758032Y-81362984D01*
X112329460Y-81934413D01*
X112329460Y-81315365D01*
X119969460Y-82287746D02*
X119493270Y-82621080D01*
X119969460Y-82859175D02*
X118969460Y-82859175D01*
X118969460Y-82478222D01*
X119017080Y-82382984D01*
X119064699Y-82335365D01*
X119159937Y-82287746D01*
X119302794Y-82287746D01*
X119398032Y-82335365D01*
X119445651Y-82382984D01*
X119493270Y-82478222D01*
X119493270Y-82859175D01*
X118969460Y-81954413D02*
X118969460Y-81335365D01*
X119350413Y-81668699D01*
X119350413Y-81525841D01*
X119398032Y-81430603D01*
X119445651Y-81382984D01*
X119540889Y-81335365D01*
X119778984Y-81335365D01*
X119874222Y-81382984D01*
X119921841Y-81430603D01*
X119969460Y-81525841D01*
X119969460Y-81811556D01*
X119921841Y-81906794D01*
X119874222Y-81954413D01*
X125089460Y-82277746D02*
X124613270Y-82611080D01*
X125089460Y-82849175D02*
X124089460Y-82849175D01*
X124089460Y-82468222D01*
X124137080Y-82372984D01*
X124184699Y-82325365D01*
X124279937Y-82277746D01*
X124422794Y-82277746D01*
X124518032Y-82325365D01*
X124565651Y-82372984D01*
X124613270Y-82468222D01*
X124613270Y-82849175D01*
X124422794Y-81420603D02*
X125089460Y-81420603D01*
X124041841Y-81658699D02*
X124756127Y-81896794D01*
X124756127Y-81277746D01*
X117369460Y-82307746D02*
X116893270Y-82641080D01*
X117369460Y-82879175D02*
X116369460Y-82879175D01*
X116369460Y-82498222D01*
X116417080Y-82402984D01*
X116464699Y-82355365D01*
X116559937Y-82307746D01*
X116702794Y-82307746D01*
X116798032Y-82355365D01*
X116845651Y-82402984D01*
X116893270Y-82498222D01*
X116893270Y-82879175D01*
X116369460Y-81402984D02*
X116369460Y-81879175D01*
X116845651Y-81926794D01*
X116798032Y-81879175D01*
X116750413Y-81783937D01*
X116750413Y-81545841D01*
X116798032Y-81450603D01*
X116845651Y-81402984D01*
X116940889Y-81355365D01*
X117178984Y-81355365D01*
X117274222Y-81402984D01*
X117321841Y-81450603D01*
X117369460Y-81545841D01*
X117369460Y-81783937D01*
X117321841Y-81879175D01*
X117274222Y-81926794D01*
X114899460Y-82257746D02*
X114423270Y-82591080D01*
X114899460Y-82829175D02*
X113899460Y-82829175D01*
X113899460Y-82448222D01*
X113947080Y-82352984D01*
X113994699Y-82305365D01*
X114089937Y-82257746D01*
X114232794Y-82257746D01*
X114328032Y-82305365D01*
X114375651Y-82352984D01*
X114423270Y-82448222D01*
X114423270Y-82829175D01*
X113899460Y-81400603D02*
X113899460Y-81591080D01*
X113947080Y-81686318D01*
X113994699Y-81733937D01*
X114137556Y-81829175D01*
X114328032Y-81876794D01*
X114708984Y-81876794D01*
X114804222Y-81829175D01*
X114851841Y-81781556D01*
X114899460Y-81686318D01*
X114899460Y-81495841D01*
X114851841Y-81400603D01*
X114804222Y-81352984D01*
X114708984Y-81305365D01*
X114470889Y-81305365D01*
X114375651Y-81352984D01*
X114328032Y-81400603D01*
X114280413Y-81495841D01*
X114280413Y-81686318D01*
X114328032Y-81781556D01*
X114375651Y-81829175D01*
X114470889Y-81876794D01*
X122519460Y-82267746D02*
X122043270Y-82601080D01*
X122519460Y-82839175D02*
X121519460Y-82839175D01*
X121519460Y-82458222D01*
X121567080Y-82362984D01*
X121614699Y-82315365D01*
X121709937Y-82267746D01*
X121852794Y-82267746D01*
X121948032Y-82315365D01*
X121995651Y-82362984D01*
X122043270Y-82458222D01*
X122043270Y-82839175D01*
X121519460Y-81934413D02*
X121519460Y-81267746D01*
X122519460Y-81696318D01*
X104767460Y-69579746D02*
X104291270Y-69913080D01*
X104767460Y-70151175D02*
X103767460Y-70151175D01*
X103767460Y-69770222D01*
X103815080Y-69674984D01*
X103862699Y-69627365D01*
X103957937Y-69579746D01*
X104100794Y-69579746D01*
X104196032Y-69627365D01*
X104243651Y-69674984D01*
X104291270Y-69770222D01*
X104291270Y-70151175D01*
X104196032Y-69008318D02*
X104148413Y-69103556D01*
X104100794Y-69151175D01*
X104005556Y-69198794D01*
X103957937Y-69198794D01*
X103862699Y-69151175D01*
X103815080Y-69103556D01*
X103767460Y-69008318D01*
X103767460Y-68817841D01*
X103815080Y-68722603D01*
X103862699Y-68674984D01*
X103957937Y-68627365D01*
X104005556Y-68627365D01*
X104100794Y-68674984D01*
X104148413Y-68722603D01*
X104196032Y-68817841D01*
X104196032Y-69008318D01*
X104243651Y-69103556D01*
X104291270Y-69151175D01*
X104386508Y-69198794D01*
X104576984Y-69198794D01*
X104672222Y-69151175D01*
X104719841Y-69103556D01*
X104767460Y-69008318D01*
X104767460Y-68817841D01*
X104719841Y-68722603D01*
X104672222Y-68674984D01*
X104576984Y-68627365D01*
X104386508Y-68627365D01*
X104291270Y-68674984D01*
X104243651Y-68722603D01*
X104196032Y-68817841D01*
X107299460Y-82287746D02*
X106823270Y-82621080D01*
X107299460Y-82859175D02*
X106299460Y-82859175D01*
X106299460Y-82478222D01*
X106347080Y-82382984D01*
X106394699Y-82335365D01*
X106489937Y-82287746D01*
X106632794Y-82287746D01*
X106728032Y-82335365D01*
X106775651Y-82382984D01*
X106823270Y-82478222D01*
X106823270Y-82859175D01*
X107299460Y-81811556D02*
X107299460Y-81621080D01*
X107251841Y-81525841D01*
X107204222Y-81478222D01*
X107061365Y-81382984D01*
X106870889Y-81335365D01*
X106489937Y-81335365D01*
X106394699Y-81382984D01*
X106347080Y-81430603D01*
X106299460Y-81525841D01*
X106299460Y-81716318D01*
X106347080Y-81811556D01*
X106394699Y-81859175D01*
X106489937Y-81906794D01*
X106728032Y-81906794D01*
X106823270Y-81859175D01*
X106870889Y-81811556D01*
X106918508Y-81716318D01*
X106918508Y-81525841D01*
X106870889Y-81430603D01*
X106823270Y-81382984D01*
X106728032Y-81335365D01*
X114927460Y-70055937D02*
X114451270Y-70389270D01*
X114927460Y-70627365D02*
X113927460Y-70627365D01*
X113927460Y-70246413D01*
X113975080Y-70151175D01*
X114022699Y-70103556D01*
X114117937Y-70055937D01*
X114260794Y-70055937D01*
X114356032Y-70103556D01*
X114403651Y-70151175D01*
X114451270Y-70246413D01*
X114451270Y-70627365D01*
X114927460Y-69103556D02*
X114927460Y-69674984D01*
X114927460Y-69389270D02*
X113927460Y-69389270D01*
X114070318Y-69484508D01*
X114165556Y-69579746D01*
X114213175Y-69674984D01*
X113927460Y-68484508D02*
X113927460Y-68389270D01*
X113975080Y-68294032D01*
X114022699Y-68246413D01*
X114117937Y-68198794D01*
X114308413Y-68151175D01*
X114546508Y-68151175D01*
X114736984Y-68198794D01*
X114832222Y-68246413D01*
X114879841Y-68294032D01*
X114927460Y-68389270D01*
X114927460Y-68484508D01*
X114879841Y-68579746D01*
X114832222Y-68627365D01*
X114736984Y-68674984D01*
X114546508Y-68722603D01*
X114308413Y-68722603D01*
X114117937Y-68674984D01*
X114022699Y-68627365D01*
X113975080Y-68579746D01*
X113927460Y-68484508D01*
X125087460Y-70055937D02*
X124611270Y-70389270D01*
X125087460Y-70627365D02*
X124087460Y-70627365D01*
X124087460Y-70246413D01*
X124135080Y-70151175D01*
X124182699Y-70103556D01*
X124277937Y-70055937D01*
X124420794Y-70055937D01*
X124516032Y-70103556D01*
X124563651Y-70151175D01*
X124611270Y-70246413D01*
X124611270Y-70627365D01*
X125087460Y-69103556D02*
X125087460Y-69674984D01*
X125087460Y-69389270D02*
X124087460Y-69389270D01*
X124230318Y-69484508D01*
X124325556Y-69579746D01*
X124373175Y-69674984D01*
X125087460Y-68151175D02*
X125087460Y-68722603D01*
X125087460Y-68436889D02*
X124087460Y-68436889D01*
X124230318Y-68532127D01*
X124325556Y-68627365D01*
X124373175Y-68722603D01*
X120007460Y-70055937D02*
X119531270Y-70389270D01*
X120007460Y-70627365D02*
X119007460Y-70627365D01*
X119007460Y-70246413D01*
X119055080Y-70151175D01*
X119102699Y-70103556D01*
X119197937Y-70055937D01*
X119340794Y-70055937D01*
X119436032Y-70103556D01*
X119483651Y-70151175D01*
X119531270Y-70246413D01*
X119531270Y-70627365D01*
X120007460Y-69103556D02*
X120007460Y-69674984D01*
X120007460Y-69389270D02*
X119007460Y-69389270D01*
X119150318Y-69484508D01*
X119245556Y-69579746D01*
X119293175Y-69674984D01*
X119102699Y-68722603D02*
X119055080Y-68674984D01*
X119007460Y-68579746D01*
X119007460Y-68341651D01*
X119055080Y-68246413D01*
X119102699Y-68198794D01*
X119197937Y-68151175D01*
X119293175Y-68151175D01*
X119436032Y-68198794D01*
X120007460Y-68770222D01*
X120007460Y-68151175D01*
X117467460Y-70055937D02*
X116991270Y-70389270D01*
X117467460Y-70627365D02*
X116467460Y-70627365D01*
X116467460Y-70246413D01*
X116515080Y-70151175D01*
X116562699Y-70103556D01*
X116657937Y-70055937D01*
X116800794Y-70055937D01*
X116896032Y-70103556D01*
X116943651Y-70151175D01*
X116991270Y-70246413D01*
X116991270Y-70627365D01*
X117467460Y-69103556D02*
X117467460Y-69674984D01*
X117467460Y-69389270D02*
X116467460Y-69389270D01*
X116610318Y-69484508D01*
X116705556Y-69579746D01*
X116753175Y-69674984D01*
X116467460Y-68770222D02*
X116467460Y-68151175D01*
X116848413Y-68484508D01*
X116848413Y-68341651D01*
X116896032Y-68246413D01*
X116943651Y-68198794D01*
X117038889Y-68151175D01*
X117276984Y-68151175D01*
X117372222Y-68198794D01*
X117419841Y-68246413D01*
X117467460Y-68341651D01*
X117467460Y-68627365D01*
X117419841Y-68722603D01*
X117372222Y-68770222D01*
X112387460Y-70055937D02*
X111911270Y-70389270D01*
X112387460Y-70627365D02*
X111387460Y-70627365D01*
X111387460Y-70246413D01*
X111435080Y-70151175D01*
X111482699Y-70103556D01*
X111577937Y-70055937D01*
X111720794Y-70055937D01*
X111816032Y-70103556D01*
X111863651Y-70151175D01*
X111911270Y-70246413D01*
X111911270Y-70627365D01*
X112387460Y-69103556D02*
X112387460Y-69674984D01*
X112387460Y-69389270D02*
X111387460Y-69389270D01*
X111530318Y-69484508D01*
X111625556Y-69579746D01*
X111673175Y-69674984D01*
X111720794Y-68246413D02*
X112387460Y-68246413D01*
X111339841Y-68484508D02*
X112054127Y-68722603D01*
X112054127Y-68103556D01*
X122549460Y-70053937D02*
X122073270Y-70387270D01*
X122549460Y-70625365D02*
X121549460Y-70625365D01*
X121549460Y-70244413D01*
X121597080Y-70149175D01*
X121644699Y-70101556D01*
X121739937Y-70053937D01*
X121882794Y-70053937D01*
X121978032Y-70101556D01*
X122025651Y-70149175D01*
X122073270Y-70244413D01*
X122073270Y-70625365D01*
X122549460Y-69101556D02*
X122549460Y-69672984D01*
X122549460Y-69387270D02*
X121549460Y-69387270D01*
X121692318Y-69482508D01*
X121787556Y-69577746D01*
X121835175Y-69672984D01*
X121549460Y-68196794D02*
X121549460Y-68672984D01*
X122025651Y-68720603D01*
X121978032Y-68672984D01*
X121930413Y-68577746D01*
X121930413Y-68339651D01*
X121978032Y-68244413D01*
X122025651Y-68196794D01*
X122120889Y-68149175D01*
X122358984Y-68149175D01*
X122454222Y-68196794D01*
X122501841Y-68244413D01*
X122549460Y-68339651D01*
X122549460Y-68577746D01*
X122501841Y-68672984D01*
X122454222Y-68720603D01*
X109847460Y-70055937D02*
X109371270Y-70389270D01*
X109847460Y-70627365D02*
X108847460Y-70627365D01*
X108847460Y-70246413D01*
X108895080Y-70151175D01*
X108942699Y-70103556D01*
X109037937Y-70055937D01*
X109180794Y-70055937D01*
X109276032Y-70103556D01*
X109323651Y-70151175D01*
X109371270Y-70246413D01*
X109371270Y-70627365D01*
X109847460Y-69103556D02*
X109847460Y-69674984D01*
X109847460Y-69389270D02*
X108847460Y-69389270D01*
X108990318Y-69484508D01*
X109085556Y-69579746D01*
X109133175Y-69674984D01*
X108847460Y-68246413D02*
X108847460Y-68436889D01*
X108895080Y-68532127D01*
X108942699Y-68579746D01*
X109085556Y-68674984D01*
X109276032Y-68722603D01*
X109656984Y-68722603D01*
X109752222Y-68674984D01*
X109799841Y-68627365D01*
X109847460Y-68532127D01*
X109847460Y-68341651D01*
X109799841Y-68246413D01*
X109752222Y-68198794D01*
X109656984Y-68151175D01*
X109418889Y-68151175D01*
X109323651Y-68198794D01*
X109276032Y-68246413D01*
X109228413Y-68341651D01*
X109228413Y-68532127D01*
X109276032Y-68627365D01*
X109323651Y-68674984D01*
X109418889Y-68722603D01*
X107307460Y-70055937D02*
X106831270Y-70389270D01*
X107307460Y-70627365D02*
X106307460Y-70627365D01*
X106307460Y-70246413D01*
X106355080Y-70151175D01*
X106402699Y-70103556D01*
X106497937Y-70055937D01*
X106640794Y-70055937D01*
X106736032Y-70103556D01*
X106783651Y-70151175D01*
X106831270Y-70246413D01*
X106831270Y-70627365D01*
X107307460Y-69103556D02*
X107307460Y-69674984D01*
X107307460Y-69389270D02*
X106307460Y-69389270D01*
X106450318Y-69484508D01*
X106545556Y-69579746D01*
X106593175Y-69674984D01*
X106307460Y-68770222D02*
X106307460Y-68103556D01*
X107307460Y-68532127D01*
X104767460Y-82755937D02*
X104291270Y-83089270D01*
X104767460Y-83327365D02*
X103767460Y-83327365D01*
X103767460Y-82946413D01*
X103815080Y-82851175D01*
X103862699Y-82803556D01*
X103957937Y-82755937D01*
X104100794Y-82755937D01*
X104196032Y-82803556D01*
X104243651Y-82851175D01*
X104291270Y-82946413D01*
X104291270Y-83327365D01*
X104767460Y-81803556D02*
X104767460Y-82374984D01*
X104767460Y-82089270D02*
X103767460Y-82089270D01*
X103910318Y-82184508D01*
X104005556Y-82279746D01*
X104053175Y-82374984D01*
X104196032Y-81232127D02*
X104148413Y-81327365D01*
X104100794Y-81374984D01*
X104005556Y-81422603D01*
X103957937Y-81422603D01*
X103862699Y-81374984D01*
X103815080Y-81327365D01*
X103767460Y-81232127D01*
X103767460Y-81041651D01*
X103815080Y-80946413D01*
X103862699Y-80898794D01*
X103957937Y-80851175D01*
X104005556Y-80851175D01*
X104100794Y-80898794D01*
X104148413Y-80946413D01*
X104196032Y-81041651D01*
X104196032Y-81232127D01*
X104243651Y-81327365D01*
X104291270Y-81374984D01*
X104386508Y-81422603D01*
X104576984Y-81422603D01*
X104672222Y-81374984D01*
X104719841Y-81327365D01*
X104767460Y-81232127D01*
X104767460Y-81041651D01*
X104719841Y-80946413D01*
X104672222Y-80898794D01*
X104576984Y-80851175D01*
X104386508Y-80851175D01*
X104291270Y-80898794D01*
X104243651Y-80946413D01*
X104196032Y-81041651D01*
X79399460Y-97743937D02*
X78923270Y-98077270D01*
X79399460Y-98315365D02*
X78399460Y-98315365D01*
X78399460Y-97934413D01*
X78447080Y-97839175D01*
X78494699Y-97791556D01*
X78589937Y-97743937D01*
X78732794Y-97743937D01*
X78828032Y-97791556D01*
X78875651Y-97839175D01*
X78923270Y-97934413D01*
X78923270Y-98315365D01*
X79399460Y-96791556D02*
X79399460Y-97362984D01*
X79399460Y-97077270D02*
X78399460Y-97077270D01*
X78542318Y-97172508D01*
X78637556Y-97267746D01*
X78685175Y-97362984D01*
X79399460Y-96315365D02*
X79399460Y-96124889D01*
X79351841Y-96029651D01*
X79304222Y-95982032D01*
X79161365Y-95886794D01*
X78970889Y-95839175D01*
X78589937Y-95839175D01*
X78494699Y-95886794D01*
X78447080Y-95934413D01*
X78399460Y-96029651D01*
X78399460Y-96220127D01*
X78447080Y-96315365D01*
X78494699Y-96362984D01*
X78589937Y-96410603D01*
X78828032Y-96410603D01*
X78923270Y-96362984D01*
X78970889Y-96315365D01*
X79018508Y-96220127D01*
X79018508Y-96029651D01*
X78970889Y-95934413D01*
X78923270Y-95886794D01*
X78828032Y-95839175D01*
X118666603Y-88543460D02*
X118333270Y-88067270D01*
X118095175Y-88543460D02*
X118095175Y-87543460D01*
X118476127Y-87543460D01*
X118571365Y-87591080D01*
X118618984Y-87638699D01*
X118666603Y-87733937D01*
X118666603Y-87876794D01*
X118618984Y-87972032D01*
X118571365Y-88019651D01*
X118476127Y-88067270D01*
X118095175Y-88067270D01*
X119095175Y-88543460D02*
X119095175Y-87543460D01*
X119666603Y-88543460D01*
X119666603Y-87543460D01*
X120666603Y-88543460D02*
X120095175Y-88543460D01*
X120380889Y-88543460D02*
X120380889Y-87543460D01*
X120285651Y-87686318D01*
X120190413Y-87781556D01*
X120095175Y-87829175D01*
X116206603Y-58853460D02*
X115873270Y-58377270D01*
X115635175Y-58853460D02*
X115635175Y-57853460D01*
X116016127Y-57853460D01*
X116111365Y-57901080D01*
X116158984Y-57948699D01*
X116206603Y-58043937D01*
X116206603Y-58186794D01*
X116158984Y-58282032D01*
X116111365Y-58329651D01*
X116016127Y-58377270D01*
X115635175Y-58377270D01*
X116635175Y-58853460D02*
X116635175Y-57853460D01*
X117206603Y-58853460D01*
X117206603Y-57853460D01*
X117635175Y-57948699D02*
X117682794Y-57901080D01*
X117778032Y-57853460D01*
X118016127Y-57853460D01*
X118111365Y-57901080D01*
X118158984Y-57948699D01*
X118206603Y-58043937D01*
X118206603Y-58139175D01*
X118158984Y-58282032D01*
X117587556Y-58853460D01*
X118206603Y-58853460D01*
X116154603Y-50893460D02*
X115821270Y-50417270D01*
X115583175Y-50893460D02*
X115583175Y-49893460D01*
X115964127Y-49893460D01*
X116059365Y-49941080D01*
X116106984Y-49988699D01*
X116154603Y-50083937D01*
X116154603Y-50226794D01*
X116106984Y-50322032D01*
X116059365Y-50369651D01*
X115964127Y-50417270D01*
X115583175Y-50417270D01*
X116583175Y-50893460D02*
X116583175Y-49893460D01*
X117154603Y-50893460D01*
X117154603Y-49893460D01*
X118059365Y-50226794D02*
X118059365Y-50893460D01*
X117821270Y-49845841D02*
X117583175Y-50560127D01*
X118202222Y-50560127D01*
X247625651Y-57221556D02*
X247625651Y-56888222D01*
X248149460Y-56745365D02*
X248149460Y-57221556D01*
X247149460Y-57221556D01*
X247149460Y-56745365D01*
X248149460Y-55792984D02*
X248149460Y-56364413D01*
X248149460Y-56078699D02*
X247149460Y-56078699D01*
X247292318Y-56173937D01*
X247387556Y-56269175D01*
X247435175Y-56364413D01*
X219625651Y-57221556D02*
X219625651Y-56888222D01*
X220149460Y-56745365D02*
X220149460Y-57221556D01*
X219149460Y-57221556D01*
X219149460Y-56745365D01*
X219244699Y-56364413D02*
X219197080Y-56316794D01*
X219149460Y-56221556D01*
X219149460Y-55983460D01*
X219197080Y-55888222D01*
X219244699Y-55840603D01*
X219339937Y-55792984D01*
X219435175Y-55792984D01*
X219578032Y-55840603D01*
X220149460Y-56412032D01*
X220149460Y-55792984D01*
X191625651Y-57221556D02*
X191625651Y-56888222D01*
X192149460Y-56745365D02*
X192149460Y-57221556D01*
X191149460Y-57221556D01*
X191149460Y-56745365D01*
X191149460Y-56412032D02*
X191149460Y-55792984D01*
X191530413Y-56126318D01*
X191530413Y-55983460D01*
X191578032Y-55888222D01*
X191625651Y-55840603D01*
X191720889Y-55792984D01*
X191958984Y-55792984D01*
X192054222Y-55840603D01*
X192101841Y-55888222D01*
X192149460Y-55983460D01*
X192149460Y-56269175D01*
X192101841Y-56364413D01*
X192054222Y-56412032D01*
X163625651Y-57221556D02*
X163625651Y-56888222D01*
X164149460Y-56745365D02*
X164149460Y-57221556D01*
X163149460Y-57221556D01*
X163149460Y-56745365D01*
X163482794Y-55888222D02*
X164149460Y-55888222D01*
X163101841Y-56126318D02*
X163816127Y-56364413D01*
X163816127Y-55745365D01*
X135625651Y-57221556D02*
X135625651Y-56888222D01*
X136149460Y-56745365D02*
X136149460Y-57221556D01*
X135149460Y-57221556D01*
X135149460Y-56745365D01*
X135149460Y-55840603D02*
X135149460Y-56316794D01*
X135625651Y-56364413D01*
X135578032Y-56316794D01*
X135530413Y-56221556D01*
X135530413Y-55983460D01*
X135578032Y-55888222D01*
X135625651Y-55840603D01*
X135720889Y-55792984D01*
X135958984Y-55792984D01*
X136054222Y-55840603D01*
X136101841Y-55888222D01*
X136149460Y-55983460D01*
X136149460Y-56221556D01*
X136101841Y-56316794D01*
X136054222Y-56364413D01*
X247625651Y-67721556D02*
X247625651Y-67388222D01*
X248149460Y-67245365D02*
X248149460Y-67721556D01*
X247149460Y-67721556D01*
X247149460Y-67245365D01*
X248149460Y-66769175D02*
X248149460Y-66578699D01*
X248101841Y-66483460D01*
X248054222Y-66435841D01*
X247911365Y-66340603D01*
X247720889Y-66292984D01*
X247339937Y-66292984D01*
X247244699Y-66340603D01*
X247197080Y-66388222D01*
X247149460Y-66483460D01*
X247149460Y-66673937D01*
X247197080Y-66769175D01*
X247244699Y-66816794D01*
X247339937Y-66864413D01*
X247578032Y-66864413D01*
X247673270Y-66816794D01*
X247720889Y-66769175D01*
X247768508Y-66673937D01*
X247768508Y-66483460D01*
X247720889Y-66388222D01*
X247673270Y-66340603D01*
X247578032Y-66292984D01*
X219625651Y-68197746D02*
X219625651Y-67864413D01*
X220149460Y-67721556D02*
X220149460Y-68197746D01*
X219149460Y-68197746D01*
X219149460Y-67721556D01*
X220149460Y-66769175D02*
X220149460Y-67340603D01*
X220149460Y-67054889D02*
X219149460Y-67054889D01*
X219292318Y-67150127D01*
X219387556Y-67245365D01*
X219435175Y-67340603D01*
X219149460Y-66150127D02*
X219149460Y-66054889D01*
X219197080Y-65959651D01*
X219244699Y-65912032D01*
X219339937Y-65864413D01*
X219530413Y-65816794D01*
X219768508Y-65816794D01*
X219958984Y-65864413D01*
X220054222Y-65912032D01*
X220101841Y-65959651D01*
X220149460Y-66054889D01*
X220149460Y-66150127D01*
X220101841Y-66245365D01*
X220054222Y-66292984D01*
X219958984Y-66340603D01*
X219768508Y-66388222D01*
X219530413Y-66388222D01*
X219339937Y-66340603D01*
X219244699Y-66292984D01*
X219197080Y-66245365D01*
X219149460Y-66150127D01*
X191625651Y-68197746D02*
X191625651Y-67864413D01*
X192149460Y-67721556D02*
X192149460Y-68197746D01*
X191149460Y-68197746D01*
X191149460Y-67721556D01*
X192149460Y-66769175D02*
X192149460Y-67340603D01*
X192149460Y-67054889D02*
X191149460Y-67054889D01*
X191292318Y-67150127D01*
X191387556Y-67245365D01*
X191435175Y-67340603D01*
X192149460Y-65816794D02*
X192149460Y-66388222D01*
X192149460Y-66102508D02*
X191149460Y-66102508D01*
X191292318Y-66197746D01*
X191387556Y-66292984D01*
X191435175Y-66388222D01*
X163625651Y-68197746D02*
X163625651Y-67864413D01*
X164149460Y-67721556D02*
X164149460Y-68197746D01*
X163149460Y-68197746D01*
X163149460Y-67721556D01*
X164149460Y-66769175D02*
X164149460Y-67340603D01*
X164149460Y-67054889D02*
X163149460Y-67054889D01*
X163292318Y-67150127D01*
X163387556Y-67245365D01*
X163435175Y-67340603D01*
X163244699Y-66388222D02*
X163197080Y-66340603D01*
X163149460Y-66245365D01*
X163149460Y-66007270D01*
X163197080Y-65912032D01*
X163244699Y-65864413D01*
X163339937Y-65816794D01*
X163435175Y-65816794D01*
X163578032Y-65864413D01*
X164149460Y-66435841D01*
X164149460Y-65816794D01*
X133125651Y-68187066D02*
X133125651Y-67853733D01*
X133649460Y-67710876D02*
X133649460Y-68187066D01*
X132649460Y-68187066D01*
X132649460Y-67710876D01*
X133649460Y-66758495D02*
X133649460Y-67329923D01*
X133649460Y-67044209D02*
X132649460Y-67044209D01*
X132792318Y-67139447D01*
X132887556Y-67234685D01*
X132935175Y-67329923D01*
X132649460Y-66425161D02*
X132649460Y-65806114D01*
X133030413Y-66139447D01*
X133030413Y-65996590D01*
X133078032Y-65901352D01*
X133125651Y-65853733D01*
X133220889Y-65806114D01*
X133458984Y-65806114D01*
X133554222Y-65853733D01*
X133601841Y-65901352D01*
X133649460Y-65996590D01*
X133649460Y-66282304D01*
X133601841Y-66377542D01*
X133554222Y-66425161D01*
X247625651Y-78697746D02*
X247625651Y-78364413D01*
X248149460Y-78221556D02*
X248149460Y-78697746D01*
X247149460Y-78697746D01*
X247149460Y-78221556D01*
X248149460Y-77269175D02*
X248149460Y-77840603D01*
X248149460Y-77554889D02*
X247149460Y-77554889D01*
X247292318Y-77650127D01*
X247387556Y-77745365D01*
X247435175Y-77840603D01*
X247149460Y-76935841D02*
X247149460Y-76269175D01*
X248149460Y-76697746D01*
X219625651Y-78697746D02*
X219625651Y-78364413D01*
X220149460Y-78221556D02*
X220149460Y-78697746D01*
X219149460Y-78697746D01*
X219149460Y-78221556D01*
X220149460Y-77269175D02*
X220149460Y-77840603D01*
X220149460Y-77554889D02*
X219149460Y-77554889D01*
X219292318Y-77650127D01*
X219387556Y-77745365D01*
X219435175Y-77840603D01*
X219578032Y-76697746D02*
X219530413Y-76792984D01*
X219482794Y-76840603D01*
X219387556Y-76888222D01*
X219339937Y-76888222D01*
X219244699Y-76840603D01*
X219197080Y-76792984D01*
X219149460Y-76697746D01*
X219149460Y-76507270D01*
X219197080Y-76412032D01*
X219244699Y-76364413D01*
X219339937Y-76316794D01*
X219387556Y-76316794D01*
X219482794Y-76364413D01*
X219530413Y-76412032D01*
X219578032Y-76507270D01*
X219578032Y-76697746D01*
X219625651Y-76792984D01*
X219673270Y-76840603D01*
X219768508Y-76888222D01*
X219958984Y-76888222D01*
X220054222Y-76840603D01*
X220101841Y-76792984D01*
X220149460Y-76697746D01*
X220149460Y-76507270D01*
X220101841Y-76412032D01*
X220054222Y-76364413D01*
X219958984Y-76316794D01*
X219768508Y-76316794D01*
X219673270Y-76364413D01*
X219625651Y-76412032D01*
X219578032Y-76507270D01*
X191625651Y-78697746D02*
X191625651Y-78364413D01*
X192149460Y-78221556D02*
X192149460Y-78697746D01*
X191149460Y-78697746D01*
X191149460Y-78221556D01*
X192149460Y-77269175D02*
X192149460Y-77840603D01*
X192149460Y-77554889D02*
X191149460Y-77554889D01*
X191292318Y-77650127D01*
X191387556Y-77745365D01*
X191435175Y-77840603D01*
X192149460Y-76792984D02*
X192149460Y-76602508D01*
X192101841Y-76507270D01*
X192054222Y-76459651D01*
X191911365Y-76364413D01*
X191720889Y-76316794D01*
X191339937Y-76316794D01*
X191244699Y-76364413D01*
X191197080Y-76412032D01*
X191149460Y-76507270D01*
X191149460Y-76697746D01*
X191197080Y-76792984D01*
X191244699Y-76840603D01*
X191339937Y-76888222D01*
X191578032Y-76888222D01*
X191673270Y-76840603D01*
X191720889Y-76792984D01*
X191768508Y-76697746D01*
X191768508Y-76507270D01*
X191720889Y-76412032D01*
X191673270Y-76364413D01*
X191578032Y-76316794D01*
X163625651Y-78697746D02*
X163625651Y-78364413D01*
X164149460Y-78221556D02*
X164149460Y-78697746D01*
X163149460Y-78697746D01*
X163149460Y-78221556D01*
X163244699Y-77840603D02*
X163197080Y-77792984D01*
X163149460Y-77697746D01*
X163149460Y-77459651D01*
X163197080Y-77364413D01*
X163244699Y-77316794D01*
X163339937Y-77269175D01*
X163435175Y-77269175D01*
X163578032Y-77316794D01*
X164149460Y-77888222D01*
X164149460Y-77269175D01*
X163149460Y-76650127D02*
X163149460Y-76554889D01*
X163197080Y-76459651D01*
X163244699Y-76412032D01*
X163339937Y-76364413D01*
X163530413Y-76316794D01*
X163768508Y-76316794D01*
X163958984Y-76364413D01*
X164054222Y-76412032D01*
X164101841Y-76459651D01*
X164149460Y-76554889D01*
X164149460Y-76650127D01*
X164101841Y-76745365D01*
X164054222Y-76792984D01*
X163958984Y-76840603D01*
X163768508Y-76888222D01*
X163530413Y-76888222D01*
X163339937Y-76840603D01*
X163244699Y-76792984D01*
X163197080Y-76745365D01*
X163149460Y-76650127D01*
X133125651Y-78697746D02*
X133125651Y-78364413D01*
X133649460Y-78221556D02*
X133649460Y-78697746D01*
X132649460Y-78697746D01*
X132649460Y-78221556D01*
X132744699Y-77840603D02*
X132697080Y-77792984D01*
X132649460Y-77697746D01*
X132649460Y-77459651D01*
X132697080Y-77364413D01*
X132744699Y-77316794D01*
X132839937Y-77269175D01*
X132935175Y-77269175D01*
X133078032Y-77316794D01*
X133649460Y-77888222D01*
X133649460Y-77269175D01*
X133649460Y-76316794D02*
X133649460Y-76888222D01*
X133649460Y-76602508D02*
X132649460Y-76602508D01*
X132792318Y-76697746D01*
X132887556Y-76792984D01*
X132935175Y-76888222D01*
X247625651Y-89197746D02*
X247625651Y-88864413D01*
X248149460Y-88721556D02*
X248149460Y-89197746D01*
X247149460Y-89197746D01*
X247149460Y-88721556D01*
X247244699Y-88340603D02*
X247197080Y-88292984D01*
X247149460Y-88197746D01*
X247149460Y-87959651D01*
X247197080Y-87864413D01*
X247244699Y-87816794D01*
X247339937Y-87769175D01*
X247435175Y-87769175D01*
X247578032Y-87816794D01*
X248149460Y-88388222D01*
X248149460Y-87769175D01*
X247149460Y-86864413D02*
X247149460Y-87340603D01*
X247625651Y-87388222D01*
X247578032Y-87340603D01*
X247530413Y-87245365D01*
X247530413Y-87007270D01*
X247578032Y-86912032D01*
X247625651Y-86864413D01*
X247720889Y-86816794D01*
X247958984Y-86816794D01*
X248054222Y-86864413D01*
X248101841Y-86912032D01*
X248149460Y-87007270D01*
X248149460Y-87245365D01*
X248101841Y-87340603D01*
X248054222Y-87388222D01*
X219625651Y-89197746D02*
X219625651Y-88864413D01*
X220149460Y-88721556D02*
X220149460Y-89197746D01*
X219149460Y-89197746D01*
X219149460Y-88721556D01*
X219244699Y-88340603D02*
X219197080Y-88292984D01*
X219149460Y-88197746D01*
X219149460Y-87959651D01*
X219197080Y-87864413D01*
X219244699Y-87816794D01*
X219339937Y-87769175D01*
X219435175Y-87769175D01*
X219578032Y-87816794D01*
X220149460Y-88388222D01*
X220149460Y-87769175D01*
X219149460Y-86912032D02*
X219149460Y-87102508D01*
X219197080Y-87197746D01*
X219244699Y-87245365D01*
X219387556Y-87340603D01*
X219578032Y-87388222D01*
X219958984Y-87388222D01*
X220054222Y-87340603D01*
X220101841Y-87292984D01*
X220149460Y-87197746D01*
X220149460Y-87007270D01*
X220101841Y-86912032D01*
X220054222Y-86864413D01*
X219958984Y-86816794D01*
X219720889Y-86816794D01*
X219625651Y-86864413D01*
X219578032Y-86912032D01*
X219530413Y-87007270D01*
X219530413Y-87197746D01*
X219578032Y-87292984D01*
X219625651Y-87340603D01*
X219720889Y-87388222D01*
X191625651Y-89197746D02*
X191625651Y-88864413D01*
X192149460Y-88721556D02*
X192149460Y-89197746D01*
X191149460Y-89197746D01*
X191149460Y-88721556D01*
X191244699Y-88340603D02*
X191197080Y-88292984D01*
X191149460Y-88197746D01*
X191149460Y-87959651D01*
X191197080Y-87864413D01*
X191244699Y-87816794D01*
X191339937Y-87769175D01*
X191435175Y-87769175D01*
X191578032Y-87816794D01*
X192149460Y-88388222D01*
X192149460Y-87769175D01*
X191149460Y-87435841D02*
X191149460Y-86769175D01*
X192149460Y-87197746D01*
X163625651Y-89197746D02*
X163625651Y-88864413D01*
X164149460Y-88721556D02*
X164149460Y-89197746D01*
X163149460Y-89197746D01*
X163149460Y-88721556D01*
X163244699Y-88340603D02*
X163197080Y-88292984D01*
X163149460Y-88197746D01*
X163149460Y-87959651D01*
X163197080Y-87864413D01*
X163244699Y-87816794D01*
X163339937Y-87769175D01*
X163435175Y-87769175D01*
X163578032Y-87816794D01*
X164149460Y-88388222D01*
X164149460Y-87769175D01*
X163578032Y-87197746D02*
X163530413Y-87292984D01*
X163482794Y-87340603D01*
X163387556Y-87388222D01*
X163339937Y-87388222D01*
X163244699Y-87340603D01*
X163197080Y-87292984D01*
X163149460Y-87197746D01*
X163149460Y-87007270D01*
X163197080Y-86912032D01*
X163244699Y-86864413D01*
X163339937Y-86816794D01*
X163387556Y-86816794D01*
X163482794Y-86864413D01*
X163530413Y-86912032D01*
X163578032Y-87007270D01*
X163578032Y-87197746D01*
X163625651Y-87292984D01*
X163673270Y-87340603D01*
X163768508Y-87388222D01*
X163958984Y-87388222D01*
X164054222Y-87340603D01*
X164101841Y-87292984D01*
X164149460Y-87197746D01*
X164149460Y-87007270D01*
X164101841Y-86912032D01*
X164054222Y-86864413D01*
X163958984Y-86816794D01*
X163768508Y-86816794D01*
X163673270Y-86864413D01*
X163625651Y-86912032D01*
X163578032Y-87007270D01*
X247625651Y-99697746D02*
X247625651Y-99364413D01*
X248149460Y-99221556D02*
X248149460Y-99697746D01*
X247149460Y-99697746D01*
X247149460Y-99221556D01*
X247149460Y-98888222D02*
X247149460Y-98269175D01*
X247530413Y-98602508D01*
X247530413Y-98459651D01*
X247578032Y-98364413D01*
X247625651Y-98316794D01*
X247720889Y-98269175D01*
X247958984Y-98269175D01*
X248054222Y-98316794D01*
X248101841Y-98364413D01*
X248149460Y-98459651D01*
X248149460Y-98745365D01*
X248101841Y-98840603D01*
X248054222Y-98888222D01*
X247149460Y-97935841D02*
X247149460Y-97316794D01*
X247530413Y-97650127D01*
X247530413Y-97507270D01*
X247578032Y-97412032D01*
X247625651Y-97364413D01*
X247720889Y-97316794D01*
X247958984Y-97316794D01*
X248054222Y-97364413D01*
X248101841Y-97412032D01*
X248149460Y-97507270D01*
X248149460Y-97792984D01*
X248101841Y-97888222D01*
X248054222Y-97935841D01*
X219625651Y-99697746D02*
X219625651Y-99364413D01*
X220149460Y-99221556D02*
X220149460Y-99697746D01*
X219149460Y-99697746D01*
X219149460Y-99221556D01*
X219149460Y-98888222D02*
X219149460Y-98269175D01*
X219530413Y-98602508D01*
X219530413Y-98459651D01*
X219578032Y-98364413D01*
X219625651Y-98316794D01*
X219720889Y-98269175D01*
X219958984Y-98269175D01*
X220054222Y-98316794D01*
X220101841Y-98364413D01*
X220149460Y-98459651D01*
X220149460Y-98745365D01*
X220101841Y-98840603D01*
X220054222Y-98888222D01*
X219482794Y-97412032D02*
X220149460Y-97412032D01*
X219101841Y-97650127D02*
X219816127Y-97888222D01*
X219816127Y-97269175D01*
X191625651Y-99697746D02*
X191625651Y-99364413D01*
X192149460Y-99221556D02*
X192149460Y-99697746D01*
X191149460Y-99697746D01*
X191149460Y-99221556D01*
X191149460Y-98888222D02*
X191149460Y-98269175D01*
X191530413Y-98602508D01*
X191530413Y-98459651D01*
X191578032Y-98364413D01*
X191625651Y-98316794D01*
X191720889Y-98269175D01*
X191958984Y-98269175D01*
X192054222Y-98316794D01*
X192101841Y-98364413D01*
X192149460Y-98459651D01*
X192149460Y-98745365D01*
X192101841Y-98840603D01*
X192054222Y-98888222D01*
X191149460Y-97364413D02*
X191149460Y-97840603D01*
X191625651Y-97888222D01*
X191578032Y-97840603D01*
X191530413Y-97745365D01*
X191530413Y-97507270D01*
X191578032Y-97412032D01*
X191625651Y-97364413D01*
X191720889Y-97316794D01*
X191958984Y-97316794D01*
X192054222Y-97364413D01*
X192101841Y-97412032D01*
X192149460Y-97507270D01*
X192149460Y-97745365D01*
X192101841Y-97840603D01*
X192054222Y-97888222D01*
X163625651Y-99697746D02*
X163625651Y-99364413D01*
X164149460Y-99221556D02*
X164149460Y-99697746D01*
X163149460Y-99697746D01*
X163149460Y-99221556D01*
X163149460Y-98888222D02*
X163149460Y-98269175D01*
X163530413Y-98602508D01*
X163530413Y-98459651D01*
X163578032Y-98364413D01*
X163625651Y-98316794D01*
X163720889Y-98269175D01*
X163958984Y-98269175D01*
X164054222Y-98316794D01*
X164101841Y-98364413D01*
X164149460Y-98459651D01*
X164149460Y-98745365D01*
X164101841Y-98840603D01*
X164054222Y-98888222D01*
X163149460Y-97412032D02*
X163149460Y-97602508D01*
X163197080Y-97697746D01*
X163244699Y-97745365D01*
X163387556Y-97840603D01*
X163578032Y-97888222D01*
X163958984Y-97888222D01*
X164054222Y-97840603D01*
X164101841Y-97792984D01*
X164149460Y-97697746D01*
X164149460Y-97507270D01*
X164101841Y-97412032D01*
X164054222Y-97364413D01*
X163958984Y-97316794D01*
X163720889Y-97316794D01*
X163625651Y-97364413D01*
X163578032Y-97412032D01*
X163530413Y-97507270D01*
X163530413Y-97697746D01*
X163578032Y-97792984D01*
X163625651Y-97840603D01*
X163720889Y-97888222D01*
X247625651Y-110197746D02*
X247625651Y-109864413D01*
X248149460Y-109721556D02*
X248149460Y-110197746D01*
X247149460Y-110197746D01*
X247149460Y-109721556D01*
X247482794Y-108864413D02*
X248149460Y-108864413D01*
X247101841Y-109102508D02*
X247816127Y-109340603D01*
X247816127Y-108721556D01*
X248149460Y-107816794D02*
X248149460Y-108388222D01*
X248149460Y-108102508D02*
X247149460Y-108102508D01*
X247292318Y-108197746D01*
X247387556Y-108292984D01*
X247435175Y-108388222D01*
X219625651Y-110197746D02*
X219625651Y-109864413D01*
X220149460Y-109721556D02*
X220149460Y-110197746D01*
X219149460Y-110197746D01*
X219149460Y-109721556D01*
X219482794Y-108864413D02*
X220149460Y-108864413D01*
X219101841Y-109102508D02*
X219816127Y-109340603D01*
X219816127Y-108721556D01*
X219244699Y-108388222D02*
X219197080Y-108340603D01*
X219149460Y-108245365D01*
X219149460Y-108007270D01*
X219197080Y-107912032D01*
X219244699Y-107864413D01*
X219339937Y-107816794D01*
X219435175Y-107816794D01*
X219578032Y-107864413D01*
X220149460Y-108435841D01*
X220149460Y-107816794D01*
X191625651Y-110197746D02*
X191625651Y-109864413D01*
X192149460Y-109721556D02*
X192149460Y-110197746D01*
X191149460Y-110197746D01*
X191149460Y-109721556D01*
X191482794Y-108864413D02*
X192149460Y-108864413D01*
X191101841Y-109102508D02*
X191816127Y-109340603D01*
X191816127Y-108721556D01*
X191149460Y-108435841D02*
X191149460Y-107816794D01*
X191530413Y-108150127D01*
X191530413Y-108007270D01*
X191578032Y-107912032D01*
X191625651Y-107864413D01*
X191720889Y-107816794D01*
X191958984Y-107816794D01*
X192054222Y-107864413D01*
X192101841Y-107912032D01*
X192149460Y-108007270D01*
X192149460Y-108292984D01*
X192101841Y-108388222D01*
X192054222Y-108435841D01*
X163625651Y-110197746D02*
X163625651Y-109864413D01*
X164149460Y-109721556D02*
X164149460Y-110197746D01*
X163149460Y-110197746D01*
X163149460Y-109721556D01*
X163482794Y-108864413D02*
X164149460Y-108864413D01*
X163101841Y-109102508D02*
X163816127Y-109340603D01*
X163816127Y-108721556D01*
X163482794Y-107912032D02*
X164149460Y-107912032D01*
X163101841Y-108150127D02*
X163816127Y-108388222D01*
X163816127Y-107769175D01*
X46117651Y-57149556D02*
X46117651Y-56816222D01*
X46641460Y-56673365D02*
X46641460Y-57149556D01*
X45641460Y-57149556D01*
X45641460Y-56673365D01*
X45641460Y-56340032D02*
X45641460Y-55673365D01*
X46641460Y-56101937D01*
X127775651Y-103344413D02*
X127775651Y-103677746D01*
X128299460Y-103677746D02*
X127299460Y-103677746D01*
X127299460Y-103201556D01*
X127775651Y-102487270D02*
X127823270Y-102344413D01*
X127870889Y-102296794D01*
X127966127Y-102249175D01*
X128108984Y-102249175D01*
X128204222Y-102296794D01*
X128251841Y-102344413D01*
X128299460Y-102439651D01*
X128299460Y-102820603D01*
X127299460Y-102820603D01*
X127299460Y-102487270D01*
X127347080Y-102392032D01*
X127394699Y-102344413D01*
X127489937Y-102296794D01*
X127585175Y-102296794D01*
X127680413Y-102344413D01*
X127728032Y-102392032D01*
X127775651Y-102487270D01*
X127775651Y-102820603D01*
X128299460Y-101296794D02*
X128299460Y-101868222D01*
X128299460Y-101582508D02*
X127299460Y-101582508D01*
X127442318Y-101677746D01*
X127537556Y-101772984D01*
X127585175Y-101868222D01*
X157464222Y-98757746D02*
X157511841Y-98805365D01*
X157559460Y-98948222D01*
X157559460Y-99043460D01*
X157511841Y-99186318D01*
X157416603Y-99281556D01*
X157321365Y-99329175D01*
X157130889Y-99376794D01*
X156988032Y-99376794D01*
X156797556Y-99329175D01*
X156702318Y-99281556D01*
X156607080Y-99186318D01*
X156559460Y-99043460D01*
X156559460Y-98948222D01*
X156607080Y-98805365D01*
X156654699Y-98757746D01*
X157559460Y-97805365D02*
X157559460Y-98376794D01*
X157559460Y-98091080D02*
X156559460Y-98091080D01*
X156702318Y-98186318D01*
X156797556Y-98281556D01*
X156845175Y-98376794D01*
X186714222Y-98757746D02*
X186761841Y-98805365D01*
X186809460Y-98948222D01*
X186809460Y-99043460D01*
X186761841Y-99186318D01*
X186666603Y-99281556D01*
X186571365Y-99329175D01*
X186380889Y-99376794D01*
X186238032Y-99376794D01*
X186047556Y-99329175D01*
X185952318Y-99281556D01*
X185857080Y-99186318D01*
X185809460Y-99043460D01*
X185809460Y-98948222D01*
X185857080Y-98805365D01*
X185904699Y-98757746D01*
X185904699Y-98376794D02*
X185857080Y-98329175D01*
X185809460Y-98233937D01*
X185809460Y-97995841D01*
X185857080Y-97900603D01*
X185904699Y-97852984D01*
X185999937Y-97805365D01*
X186095175Y-97805365D01*
X186238032Y-97852984D01*
X186809460Y-98424413D01*
X186809460Y-97805365D01*
X214714222Y-98757746D02*
X214761841Y-98805365D01*
X214809460Y-98948222D01*
X214809460Y-99043460D01*
X214761841Y-99186318D01*
X214666603Y-99281556D01*
X214571365Y-99329175D01*
X214380889Y-99376794D01*
X214238032Y-99376794D01*
X214047556Y-99329175D01*
X213952318Y-99281556D01*
X213857080Y-99186318D01*
X213809460Y-99043460D01*
X213809460Y-98948222D01*
X213857080Y-98805365D01*
X213904699Y-98757746D01*
X213809460Y-98424413D02*
X213809460Y-97805365D01*
X214190413Y-98138699D01*
X214190413Y-97995841D01*
X214238032Y-97900603D01*
X214285651Y-97852984D01*
X214380889Y-97805365D01*
X214618984Y-97805365D01*
X214714222Y-97852984D01*
X214761841Y-97900603D01*
X214809460Y-97995841D01*
X214809460Y-98281556D01*
X214761841Y-98376794D01*
X214714222Y-98424413D01*
X157464222Y-88257746D02*
X157511841Y-88305365D01*
X157559460Y-88448222D01*
X157559460Y-88543460D01*
X157511841Y-88686318D01*
X157416603Y-88781556D01*
X157321365Y-88829175D01*
X157130889Y-88876794D01*
X156988032Y-88876794D01*
X156797556Y-88829175D01*
X156702318Y-88781556D01*
X156607080Y-88686318D01*
X156559460Y-88543460D01*
X156559460Y-88448222D01*
X156607080Y-88305365D01*
X156654699Y-88257746D01*
X156892794Y-87400603D02*
X157559460Y-87400603D01*
X156511841Y-87638699D02*
X157226127Y-87876794D01*
X157226127Y-87257746D01*
X186714222Y-88257746D02*
X186761841Y-88305365D01*
X186809460Y-88448222D01*
X186809460Y-88543460D01*
X186761841Y-88686318D01*
X186666603Y-88781556D01*
X186571365Y-88829175D01*
X186380889Y-88876794D01*
X186238032Y-88876794D01*
X186047556Y-88829175D01*
X185952318Y-88781556D01*
X185857080Y-88686318D01*
X185809460Y-88543460D01*
X185809460Y-88448222D01*
X185857080Y-88305365D01*
X185904699Y-88257746D01*
X185809460Y-87352984D02*
X185809460Y-87829175D01*
X186285651Y-87876794D01*
X186238032Y-87829175D01*
X186190413Y-87733937D01*
X186190413Y-87495841D01*
X186238032Y-87400603D01*
X186285651Y-87352984D01*
X186380889Y-87305365D01*
X186618984Y-87305365D01*
X186714222Y-87352984D01*
X186761841Y-87400603D01*
X186809460Y-87495841D01*
X186809460Y-87733937D01*
X186761841Y-87829175D01*
X186714222Y-87876794D01*
X214714222Y-88257746D02*
X214761841Y-88305365D01*
X214809460Y-88448222D01*
X214809460Y-88543460D01*
X214761841Y-88686318D01*
X214666603Y-88781556D01*
X214571365Y-88829175D01*
X214380889Y-88876794D01*
X214238032Y-88876794D01*
X214047556Y-88829175D01*
X213952318Y-88781556D01*
X213857080Y-88686318D01*
X213809460Y-88543460D01*
X213809460Y-88448222D01*
X213857080Y-88305365D01*
X213904699Y-88257746D01*
X213809460Y-87400603D02*
X213809460Y-87591080D01*
X213857080Y-87686318D01*
X213904699Y-87733937D01*
X214047556Y-87829175D01*
X214238032Y-87876794D01*
X214618984Y-87876794D01*
X214714222Y-87829175D01*
X214761841Y-87781556D01*
X214809460Y-87686318D01*
X214809460Y-87495841D01*
X214761841Y-87400603D01*
X214714222Y-87352984D01*
X214618984Y-87305365D01*
X214380889Y-87305365D01*
X214285651Y-87352984D01*
X214238032Y-87400603D01*
X214190413Y-87495841D01*
X214190413Y-87686318D01*
X214238032Y-87781556D01*
X214285651Y-87829175D01*
X214380889Y-87876794D01*
X157464222Y-77757746D02*
X157511841Y-77805365D01*
X157559460Y-77948222D01*
X157559460Y-78043460D01*
X157511841Y-78186318D01*
X157416603Y-78281556D01*
X157321365Y-78329175D01*
X157130889Y-78376794D01*
X156988032Y-78376794D01*
X156797556Y-78329175D01*
X156702318Y-78281556D01*
X156607080Y-78186318D01*
X156559460Y-78043460D01*
X156559460Y-77948222D01*
X156607080Y-77805365D01*
X156654699Y-77757746D01*
X156559460Y-77424413D02*
X156559460Y-76757746D01*
X157559460Y-77186318D01*
X186714222Y-77757746D02*
X186761841Y-77805365D01*
X186809460Y-77948222D01*
X186809460Y-78043460D01*
X186761841Y-78186318D01*
X186666603Y-78281556D01*
X186571365Y-78329175D01*
X186380889Y-78376794D01*
X186238032Y-78376794D01*
X186047556Y-78329175D01*
X185952318Y-78281556D01*
X185857080Y-78186318D01*
X185809460Y-78043460D01*
X185809460Y-77948222D01*
X185857080Y-77805365D01*
X185904699Y-77757746D01*
X186238032Y-77186318D02*
X186190413Y-77281556D01*
X186142794Y-77329175D01*
X186047556Y-77376794D01*
X185999937Y-77376794D01*
X185904699Y-77329175D01*
X185857080Y-77281556D01*
X185809460Y-77186318D01*
X185809460Y-76995841D01*
X185857080Y-76900603D01*
X185904699Y-76852984D01*
X185999937Y-76805365D01*
X186047556Y-76805365D01*
X186142794Y-76852984D01*
X186190413Y-76900603D01*
X186238032Y-76995841D01*
X186238032Y-77186318D01*
X186285651Y-77281556D01*
X186333270Y-77329175D01*
X186428508Y-77376794D01*
X186618984Y-77376794D01*
X186714222Y-77329175D01*
X186761841Y-77281556D01*
X186809460Y-77186318D01*
X186809460Y-76995841D01*
X186761841Y-76900603D01*
X186714222Y-76852984D01*
X186618984Y-76805365D01*
X186428508Y-76805365D01*
X186333270Y-76852984D01*
X186285651Y-76900603D01*
X186238032Y-76995841D01*
X242714222Y-109257746D02*
X242761841Y-109305365D01*
X242809460Y-109448222D01*
X242809460Y-109543460D01*
X242761841Y-109686318D01*
X242666603Y-109781556D01*
X242571365Y-109829175D01*
X242380889Y-109876794D01*
X242238032Y-109876794D01*
X242047556Y-109829175D01*
X241952318Y-109781556D01*
X241857080Y-109686318D01*
X241809460Y-109543460D01*
X241809460Y-109448222D01*
X241857080Y-109305365D01*
X241904699Y-109257746D01*
X242809460Y-108781556D02*
X242809460Y-108591080D01*
X242761841Y-108495841D01*
X242714222Y-108448222D01*
X242571365Y-108352984D01*
X242380889Y-108305365D01*
X241999937Y-108305365D01*
X241904699Y-108352984D01*
X241857080Y-108400603D01*
X241809460Y-108495841D01*
X241809460Y-108686318D01*
X241857080Y-108781556D01*
X241904699Y-108829175D01*
X241999937Y-108876794D01*
X242238032Y-108876794D01*
X242333270Y-108829175D01*
X242380889Y-108781556D01*
X242428508Y-108686318D01*
X242428508Y-108495841D01*
X242380889Y-108400603D01*
X242333270Y-108352984D01*
X242238032Y-108305365D01*
X157464222Y-67733937D02*
X157511841Y-67781556D01*
X157559460Y-67924413D01*
X157559460Y-68019651D01*
X157511841Y-68162508D01*
X157416603Y-68257746D01*
X157321365Y-68305365D01*
X157130889Y-68352984D01*
X156988032Y-68352984D01*
X156797556Y-68305365D01*
X156702318Y-68257746D01*
X156607080Y-68162508D01*
X156559460Y-68019651D01*
X156559460Y-67924413D01*
X156607080Y-67781556D01*
X156654699Y-67733937D01*
X157559460Y-66781556D02*
X157559460Y-67352984D01*
X157559460Y-67067270D02*
X156559460Y-67067270D01*
X156702318Y-67162508D01*
X156797556Y-67257746D01*
X156845175Y-67352984D01*
X156559460Y-66162508D02*
X156559460Y-66067270D01*
X156607080Y-65972032D01*
X156654699Y-65924413D01*
X156749937Y-65876794D01*
X156940413Y-65829175D01*
X157178508Y-65829175D01*
X157368984Y-65876794D01*
X157464222Y-65924413D01*
X157511841Y-65972032D01*
X157559460Y-66067270D01*
X157559460Y-66162508D01*
X157511841Y-66257746D01*
X157464222Y-66305365D01*
X157368984Y-66352984D01*
X157178508Y-66400603D01*
X156940413Y-66400603D01*
X156749937Y-66352984D01*
X156654699Y-66305365D01*
X156607080Y-66257746D01*
X156559460Y-66162508D01*
X186714222Y-67733937D02*
X186761841Y-67781556D01*
X186809460Y-67924413D01*
X186809460Y-68019651D01*
X186761841Y-68162508D01*
X186666603Y-68257746D01*
X186571365Y-68305365D01*
X186380889Y-68352984D01*
X186238032Y-68352984D01*
X186047556Y-68305365D01*
X185952318Y-68257746D01*
X185857080Y-68162508D01*
X185809460Y-68019651D01*
X185809460Y-67924413D01*
X185857080Y-67781556D01*
X185904699Y-67733937D01*
X186809460Y-66781556D02*
X186809460Y-67352984D01*
X186809460Y-67067270D02*
X185809460Y-67067270D01*
X185952318Y-67162508D01*
X186047556Y-67257746D01*
X186095175Y-67352984D01*
X186809460Y-65829175D02*
X186809460Y-66400603D01*
X186809460Y-66114889D02*
X185809460Y-66114889D01*
X185952318Y-66210127D01*
X186047556Y-66305365D01*
X186095175Y-66400603D01*
X242714222Y-99233937D02*
X242761841Y-99281556D01*
X242809460Y-99424413D01*
X242809460Y-99519651D01*
X242761841Y-99662508D01*
X242666603Y-99757746D01*
X242571365Y-99805365D01*
X242380889Y-99852984D01*
X242238032Y-99852984D01*
X242047556Y-99805365D01*
X241952318Y-99757746D01*
X241857080Y-99662508D01*
X241809460Y-99519651D01*
X241809460Y-99424413D01*
X241857080Y-99281556D01*
X241904699Y-99233937D01*
X242809460Y-98281556D02*
X242809460Y-98852984D01*
X242809460Y-98567270D02*
X241809460Y-98567270D01*
X241952318Y-98662508D01*
X242047556Y-98757746D01*
X242095175Y-98852984D01*
X241904699Y-97900603D02*
X241857080Y-97852984D01*
X241809460Y-97757746D01*
X241809460Y-97519651D01*
X241857080Y-97424413D01*
X241904699Y-97376794D01*
X241999937Y-97329175D01*
X242095175Y-97329175D01*
X242238032Y-97376794D01*
X242809460Y-97948222D01*
X242809460Y-97329175D01*
X158714222Y-57233937D02*
X158761841Y-57281556D01*
X158809460Y-57424413D01*
X158809460Y-57519651D01*
X158761841Y-57662508D01*
X158666603Y-57757746D01*
X158571365Y-57805365D01*
X158380889Y-57852984D01*
X158238032Y-57852984D01*
X158047556Y-57805365D01*
X157952318Y-57757746D01*
X157857080Y-57662508D01*
X157809460Y-57519651D01*
X157809460Y-57424413D01*
X157857080Y-57281556D01*
X157904699Y-57233937D01*
X158809460Y-56281556D02*
X158809460Y-56852984D01*
X158809460Y-56567270D02*
X157809460Y-56567270D01*
X157952318Y-56662508D01*
X158047556Y-56757746D01*
X158095175Y-56852984D01*
X157809460Y-55948222D02*
X157809460Y-55329175D01*
X158190413Y-55662508D01*
X158190413Y-55519651D01*
X158238032Y-55424413D01*
X158285651Y-55376794D01*
X158380889Y-55329175D01*
X158618984Y-55329175D01*
X158714222Y-55376794D01*
X158761841Y-55424413D01*
X158809460Y-55519651D01*
X158809460Y-55805365D01*
X158761841Y-55900603D01*
X158714222Y-55948222D01*
X186714222Y-57233937D02*
X186761841Y-57281556D01*
X186809460Y-57424413D01*
X186809460Y-57519651D01*
X186761841Y-57662508D01*
X186666603Y-57757746D01*
X186571365Y-57805365D01*
X186380889Y-57852984D01*
X186238032Y-57852984D01*
X186047556Y-57805365D01*
X185952318Y-57757746D01*
X185857080Y-57662508D01*
X185809460Y-57519651D01*
X185809460Y-57424413D01*
X185857080Y-57281556D01*
X185904699Y-57233937D01*
X186809460Y-56281556D02*
X186809460Y-56852984D01*
X186809460Y-56567270D02*
X185809460Y-56567270D01*
X185952318Y-56662508D01*
X186047556Y-56757746D01*
X186095175Y-56852984D01*
X186142794Y-55424413D02*
X186809460Y-55424413D01*
X185761841Y-55662508D02*
X186476127Y-55900603D01*
X186476127Y-55281556D01*
X242714222Y-88733937D02*
X242761841Y-88781556D01*
X242809460Y-88924413D01*
X242809460Y-89019651D01*
X242761841Y-89162508D01*
X242666603Y-89257746D01*
X242571365Y-89305365D01*
X242380889Y-89352984D01*
X242238032Y-89352984D01*
X242047556Y-89305365D01*
X241952318Y-89257746D01*
X241857080Y-89162508D01*
X241809460Y-89019651D01*
X241809460Y-88924413D01*
X241857080Y-88781556D01*
X241904699Y-88733937D01*
X242809460Y-87781556D02*
X242809460Y-88352984D01*
X242809460Y-88067270D02*
X241809460Y-88067270D01*
X241952318Y-88162508D01*
X242047556Y-88257746D01*
X242095175Y-88352984D01*
X241809460Y-86876794D02*
X241809460Y-87352984D01*
X242285651Y-87400603D01*
X242238032Y-87352984D01*
X242190413Y-87257746D01*
X242190413Y-87019651D01*
X242238032Y-86924413D01*
X242285651Y-86876794D01*
X242380889Y-86829175D01*
X242618984Y-86829175D01*
X242714222Y-86876794D01*
X242761841Y-86924413D01*
X242809460Y-87019651D01*
X242809460Y-87257746D01*
X242761841Y-87352984D01*
X242714222Y-87400603D01*
X127482222Y-84085937D02*
X127529841Y-84133556D01*
X127577460Y-84276413D01*
X127577460Y-84371651D01*
X127529841Y-84514508D01*
X127434603Y-84609746D01*
X127339365Y-84657365D01*
X127148889Y-84704984D01*
X127006032Y-84704984D01*
X126815556Y-84657365D01*
X126720318Y-84609746D01*
X126625080Y-84514508D01*
X126577460Y-84371651D01*
X126577460Y-84276413D01*
X126625080Y-84133556D01*
X126672699Y-84085937D01*
X127577460Y-83133556D02*
X127577460Y-83704984D01*
X127577460Y-83419270D02*
X126577460Y-83419270D01*
X126720318Y-83514508D01*
X126815556Y-83609746D01*
X126863175Y-83704984D01*
X126577460Y-82276413D02*
X126577460Y-82466889D01*
X126625080Y-82562127D01*
X126672699Y-82609746D01*
X126815556Y-82704984D01*
X127006032Y-82752603D01*
X127386984Y-82752603D01*
X127482222Y-82704984D01*
X127529841Y-82657365D01*
X127577460Y-82562127D01*
X127577460Y-82371651D01*
X127529841Y-82276413D01*
X127482222Y-82228794D01*
X127386984Y-82181175D01*
X127148889Y-82181175D01*
X127053651Y-82228794D01*
X127006032Y-82276413D01*
X126958413Y-82371651D01*
X126958413Y-82562127D01*
X127006032Y-82657365D01*
X127053651Y-82704984D01*
X127148889Y-82752603D01*
X214714222Y-78233937D02*
X214761841Y-78281556D01*
X214809460Y-78424413D01*
X214809460Y-78519651D01*
X214761841Y-78662508D01*
X214666603Y-78757746D01*
X214571365Y-78805365D01*
X214380889Y-78852984D01*
X214238032Y-78852984D01*
X214047556Y-78805365D01*
X213952318Y-78757746D01*
X213857080Y-78662508D01*
X213809460Y-78519651D01*
X213809460Y-78424413D01*
X213857080Y-78281556D01*
X213904699Y-78233937D01*
X214809460Y-77281556D02*
X214809460Y-77852984D01*
X214809460Y-77567270D02*
X213809460Y-77567270D01*
X213952318Y-77662508D01*
X214047556Y-77757746D01*
X214095175Y-77852984D01*
X213809460Y-76948222D02*
X213809460Y-76281556D01*
X214809460Y-76710127D01*
X242714222Y-78233937D02*
X242761841Y-78281556D01*
X242809460Y-78424413D01*
X242809460Y-78519651D01*
X242761841Y-78662508D01*
X242666603Y-78757746D01*
X242571365Y-78805365D01*
X242380889Y-78852984D01*
X242238032Y-78852984D01*
X242047556Y-78805365D01*
X241952318Y-78757746D01*
X241857080Y-78662508D01*
X241809460Y-78519651D01*
X241809460Y-78424413D01*
X241857080Y-78281556D01*
X241904699Y-78233937D01*
X242809460Y-77281556D02*
X242809460Y-77852984D01*
X242809460Y-77567270D02*
X241809460Y-77567270D01*
X241952318Y-77662508D01*
X242047556Y-77757746D01*
X242095175Y-77852984D01*
X242238032Y-76710127D02*
X242190413Y-76805365D01*
X242142794Y-76852984D01*
X242047556Y-76900603D01*
X241999937Y-76900603D01*
X241904699Y-76852984D01*
X241857080Y-76805365D01*
X241809460Y-76710127D01*
X241809460Y-76519651D01*
X241857080Y-76424413D01*
X241904699Y-76376794D01*
X241999937Y-76329175D01*
X242047556Y-76329175D01*
X242142794Y-76376794D01*
X242190413Y-76424413D01*
X242238032Y-76519651D01*
X242238032Y-76710127D01*
X242285651Y-76805365D01*
X242333270Y-76852984D01*
X242428508Y-76900603D01*
X242618984Y-76900603D01*
X242714222Y-76852984D01*
X242761841Y-76805365D01*
X242809460Y-76710127D01*
X242809460Y-76519651D01*
X242761841Y-76424413D01*
X242714222Y-76376794D01*
X242618984Y-76329175D01*
X242428508Y-76329175D01*
X242333270Y-76376794D01*
X242285651Y-76424413D01*
X242238032Y-76519651D01*
X127482222Y-71385937D02*
X127529841Y-71433556D01*
X127577460Y-71576413D01*
X127577460Y-71671651D01*
X127529841Y-71814508D01*
X127434603Y-71909746D01*
X127339365Y-71957365D01*
X127148889Y-72004984D01*
X127006032Y-72004984D01*
X126815556Y-71957365D01*
X126720318Y-71909746D01*
X126625080Y-71814508D01*
X126577460Y-71671651D01*
X126577460Y-71576413D01*
X126625080Y-71433556D01*
X126672699Y-71385937D01*
X127577460Y-70433556D02*
X127577460Y-71004984D01*
X127577460Y-70719270D02*
X126577460Y-70719270D01*
X126720318Y-70814508D01*
X126815556Y-70909746D01*
X126863175Y-71004984D01*
X127577460Y-69957365D02*
X127577460Y-69766889D01*
X127529841Y-69671651D01*
X127482222Y-69624032D01*
X127339365Y-69528794D01*
X127148889Y-69481175D01*
X126767937Y-69481175D01*
X126672699Y-69528794D01*
X126625080Y-69576413D01*
X126577460Y-69671651D01*
X126577460Y-69862127D01*
X126625080Y-69957365D01*
X126672699Y-70004984D01*
X126767937Y-70052603D01*
X127006032Y-70052603D01*
X127101270Y-70004984D01*
X127148889Y-69957365D01*
X127196508Y-69862127D01*
X127196508Y-69671651D01*
X127148889Y-69576413D01*
X127101270Y-69528794D01*
X127006032Y-69481175D01*
X214714222Y-67733937D02*
X214761841Y-67781556D01*
X214809460Y-67924413D01*
X214809460Y-68019651D01*
X214761841Y-68162508D01*
X214666603Y-68257746D01*
X214571365Y-68305365D01*
X214380889Y-68352984D01*
X214238032Y-68352984D01*
X214047556Y-68305365D01*
X213952318Y-68257746D01*
X213857080Y-68162508D01*
X213809460Y-68019651D01*
X213809460Y-67924413D01*
X213857080Y-67781556D01*
X213904699Y-67733937D01*
X213904699Y-67352984D02*
X213857080Y-67305365D01*
X213809460Y-67210127D01*
X213809460Y-66972032D01*
X213857080Y-66876794D01*
X213904699Y-66829175D01*
X213999937Y-66781556D01*
X214095175Y-66781556D01*
X214238032Y-66829175D01*
X214809460Y-67400603D01*
X214809460Y-66781556D01*
X213809460Y-66162508D02*
X213809460Y-66067270D01*
X213857080Y-65972032D01*
X213904699Y-65924413D01*
X213999937Y-65876794D01*
X214190413Y-65829175D01*
X214428508Y-65829175D01*
X214618984Y-65876794D01*
X214714222Y-65924413D01*
X214761841Y-65972032D01*
X214809460Y-66067270D01*
X214809460Y-66162508D01*
X214761841Y-66257746D01*
X214714222Y-66305365D01*
X214618984Y-66352984D01*
X214428508Y-66400603D01*
X214190413Y-66400603D01*
X213999937Y-66352984D01*
X213904699Y-66305365D01*
X213857080Y-66257746D01*
X213809460Y-66162508D01*
X242714222Y-67733937D02*
X242761841Y-67781556D01*
X242809460Y-67924413D01*
X242809460Y-68019651D01*
X242761841Y-68162508D01*
X242666603Y-68257746D01*
X242571365Y-68305365D01*
X242380889Y-68352984D01*
X242238032Y-68352984D01*
X242047556Y-68305365D01*
X241952318Y-68257746D01*
X241857080Y-68162508D01*
X241809460Y-68019651D01*
X241809460Y-67924413D01*
X241857080Y-67781556D01*
X241904699Y-67733937D01*
X241904699Y-67352984D02*
X241857080Y-67305365D01*
X241809460Y-67210127D01*
X241809460Y-66972032D01*
X241857080Y-66876794D01*
X241904699Y-66829175D01*
X241999937Y-66781556D01*
X242095175Y-66781556D01*
X242238032Y-66829175D01*
X242809460Y-67400603D01*
X242809460Y-66781556D01*
X242809460Y-65829175D02*
X242809460Y-66400603D01*
X242809460Y-66114889D02*
X241809460Y-66114889D01*
X241952318Y-66210127D01*
X242047556Y-66305365D01*
X242095175Y-66400603D01*
X130714222Y-57233937D02*
X130761841Y-57281556D01*
X130809460Y-57424413D01*
X130809460Y-57519651D01*
X130761841Y-57662508D01*
X130666603Y-57757746D01*
X130571365Y-57805365D01*
X130380889Y-57852984D01*
X130238032Y-57852984D01*
X130047556Y-57805365D01*
X129952318Y-57757746D01*
X129857080Y-57662508D01*
X129809460Y-57519651D01*
X129809460Y-57424413D01*
X129857080Y-57281556D01*
X129904699Y-57233937D01*
X129904699Y-56852984D02*
X129857080Y-56805365D01*
X129809460Y-56710127D01*
X129809460Y-56472032D01*
X129857080Y-56376794D01*
X129904699Y-56329175D01*
X129999937Y-56281556D01*
X130095175Y-56281556D01*
X130238032Y-56329175D01*
X130809460Y-56900603D01*
X130809460Y-56281556D01*
X129904699Y-55900603D02*
X129857080Y-55852984D01*
X129809460Y-55757746D01*
X129809460Y-55519651D01*
X129857080Y-55424413D01*
X129904699Y-55376794D01*
X129999937Y-55329175D01*
X130095175Y-55329175D01*
X130238032Y-55376794D01*
X130809460Y-55948222D01*
X130809460Y-55329175D01*
X214714222Y-57233937D02*
X214761841Y-57281556D01*
X214809460Y-57424413D01*
X214809460Y-57519651D01*
X214761841Y-57662508D01*
X214666603Y-57757746D01*
X214571365Y-57805365D01*
X214380889Y-57852984D01*
X214238032Y-57852984D01*
X214047556Y-57805365D01*
X213952318Y-57757746D01*
X213857080Y-57662508D01*
X213809460Y-57519651D01*
X213809460Y-57424413D01*
X213857080Y-57281556D01*
X213904699Y-57233937D01*
X213904699Y-56852984D02*
X213857080Y-56805365D01*
X213809460Y-56710127D01*
X213809460Y-56472032D01*
X213857080Y-56376794D01*
X213904699Y-56329175D01*
X213999937Y-56281556D01*
X214095175Y-56281556D01*
X214238032Y-56329175D01*
X214809460Y-56900603D01*
X214809460Y-56281556D01*
X213809460Y-55948222D02*
X213809460Y-55329175D01*
X214190413Y-55662508D01*
X214190413Y-55519651D01*
X214238032Y-55424413D01*
X214285651Y-55376794D01*
X214380889Y-55329175D01*
X214618984Y-55329175D01*
X214714222Y-55376794D01*
X214761841Y-55424413D01*
X214809460Y-55519651D01*
X214809460Y-55805365D01*
X214761841Y-55900603D01*
X214714222Y-55948222D01*
X242714222Y-57233937D02*
X242761841Y-57281556D01*
X242809460Y-57424413D01*
X242809460Y-57519651D01*
X242761841Y-57662508D01*
X242666603Y-57757746D01*
X242571365Y-57805365D01*
X242380889Y-57852984D01*
X242238032Y-57852984D01*
X242047556Y-57805365D01*
X241952318Y-57757746D01*
X241857080Y-57662508D01*
X241809460Y-57519651D01*
X241809460Y-57424413D01*
X241857080Y-57281556D01*
X241904699Y-57233937D01*
X241904699Y-56852984D02*
X241857080Y-56805365D01*
X241809460Y-56710127D01*
X241809460Y-56472032D01*
X241857080Y-56376794D01*
X241904699Y-56329175D01*
X241999937Y-56281556D01*
X242095175Y-56281556D01*
X242238032Y-56329175D01*
X242809460Y-56900603D01*
X242809460Y-56281556D01*
X242142794Y-55424413D02*
X242809460Y-55424413D01*
X241761841Y-55662508D02*
X242476127Y-55900603D01*
X242476127Y-55281556D01*
X157464222Y-109733937D02*
X157511841Y-109781556D01*
X157559460Y-109924413D01*
X157559460Y-110019651D01*
X157511841Y-110162508D01*
X157416603Y-110257746D01*
X157321365Y-110305365D01*
X157130889Y-110352984D01*
X156988032Y-110352984D01*
X156797556Y-110305365D01*
X156702318Y-110257746D01*
X156607080Y-110162508D01*
X156559460Y-110019651D01*
X156559460Y-109924413D01*
X156607080Y-109781556D01*
X156654699Y-109733937D01*
X156654699Y-109352984D02*
X156607080Y-109305365D01*
X156559460Y-109210127D01*
X156559460Y-108972032D01*
X156607080Y-108876794D01*
X156654699Y-108829175D01*
X156749937Y-108781556D01*
X156845175Y-108781556D01*
X156988032Y-108829175D01*
X157559460Y-109400603D01*
X157559460Y-108781556D01*
X156559460Y-107876794D02*
X156559460Y-108352984D01*
X157035651Y-108400603D01*
X156988032Y-108352984D01*
X156940413Y-108257746D01*
X156940413Y-108019651D01*
X156988032Y-107924413D01*
X157035651Y-107876794D01*
X157130889Y-107829175D01*
X157368984Y-107829175D01*
X157464222Y-107876794D01*
X157511841Y-107924413D01*
X157559460Y-108019651D01*
X157559460Y-108257746D01*
X157511841Y-108352984D01*
X157464222Y-108400603D01*
X186714222Y-109733937D02*
X186761841Y-109781556D01*
X186809460Y-109924413D01*
X186809460Y-110019651D01*
X186761841Y-110162508D01*
X186666603Y-110257746D01*
X186571365Y-110305365D01*
X186380889Y-110352984D01*
X186238032Y-110352984D01*
X186047556Y-110305365D01*
X185952318Y-110257746D01*
X185857080Y-110162508D01*
X185809460Y-110019651D01*
X185809460Y-109924413D01*
X185857080Y-109781556D01*
X185904699Y-109733937D01*
X185904699Y-109352984D02*
X185857080Y-109305365D01*
X185809460Y-109210127D01*
X185809460Y-108972032D01*
X185857080Y-108876794D01*
X185904699Y-108829175D01*
X185999937Y-108781556D01*
X186095175Y-108781556D01*
X186238032Y-108829175D01*
X186809460Y-109400603D01*
X186809460Y-108781556D01*
X185809460Y-107924413D02*
X185809460Y-108114889D01*
X185857080Y-108210127D01*
X185904699Y-108257746D01*
X186047556Y-108352984D01*
X186238032Y-108400603D01*
X186618984Y-108400603D01*
X186714222Y-108352984D01*
X186761841Y-108305365D01*
X186809460Y-108210127D01*
X186809460Y-108019651D01*
X186761841Y-107924413D01*
X186714222Y-107876794D01*
X186618984Y-107829175D01*
X186380889Y-107829175D01*
X186285651Y-107876794D01*
X186238032Y-107924413D01*
X186190413Y-108019651D01*
X186190413Y-108210127D01*
X186238032Y-108305365D01*
X186285651Y-108352984D01*
X186380889Y-108400603D01*
X214714222Y-109733937D02*
X214761841Y-109781556D01*
X214809460Y-109924413D01*
X214809460Y-110019651D01*
X214761841Y-110162508D01*
X214666603Y-110257746D01*
X214571365Y-110305365D01*
X214380889Y-110352984D01*
X214238032Y-110352984D01*
X214047556Y-110305365D01*
X213952318Y-110257746D01*
X213857080Y-110162508D01*
X213809460Y-110019651D01*
X213809460Y-109924413D01*
X213857080Y-109781556D01*
X213904699Y-109733937D01*
X213904699Y-109352984D02*
X213857080Y-109305365D01*
X213809460Y-109210127D01*
X213809460Y-108972032D01*
X213857080Y-108876794D01*
X213904699Y-108829175D01*
X213999937Y-108781556D01*
X214095175Y-108781556D01*
X214238032Y-108829175D01*
X214809460Y-109400603D01*
X214809460Y-108781556D01*
X213809460Y-108448222D02*
X213809460Y-107781556D01*
X214809460Y-108210127D01*
X70732318Y-66017746D02*
X70684699Y-66160603D01*
X70684699Y-66398699D01*
X70732318Y-66493937D01*
X70779937Y-66541556D01*
X70875175Y-66589175D01*
X70970413Y-66589175D01*
X71065651Y-66541556D01*
X71113270Y-66493937D01*
X71160889Y-66398699D01*
X71208508Y-66208222D01*
X71256127Y-66112984D01*
X71303746Y-66065365D01*
X71398984Y-66017746D01*
X71494222Y-66017746D01*
X71589460Y-66065365D01*
X71637080Y-66112984D01*
X71684699Y-66208222D01*
X71684699Y-66446318D01*
X71637080Y-66589175D01*
X71684699Y-66922508D02*
X70684699Y-67160603D01*
X71398984Y-67351080D01*
X70684699Y-67541556D01*
X71684699Y-67779651D01*
X70684699Y-68684413D02*
X70684699Y-68112984D01*
X70684699Y-68398699D02*
X71684699Y-68398699D01*
X71541841Y-68303460D01*
X71446603Y-68208222D01*
X71398984Y-68112984D01*
%LPC*%
D13*
X24135080Y-52649080D03*
X39375080Y-60269080D03*
X26675080Y-52649080D03*
X36835080Y-60269080D03*
X29215080Y-52649080D03*
X34295080Y-60269080D03*
X31755080Y-52649080D03*
X31755080Y-60269080D03*
X34295080Y-52649080D03*
X29215080Y-60269080D03*
X36835080Y-52649080D03*
X26675080Y-60269080D03*
X39375080Y-52649080D03*
D14*
X24135080Y-60269080D03*
D15*
X26347080Y-114901080D03*
X270347080Y-114901080D03*
X270347080Y-50901080D03*
D16*
X37851080Y-111831080D03*
X37851080Y-109291080D03*
X40391080Y-111831080D03*
X40391080Y-109291080D03*
X42931080Y-111831080D03*
X42931080Y-109291080D03*
X45471080Y-111831080D03*
X45471080Y-109291080D03*
X48011080Y-111831080D03*
X48011080Y-109291080D03*
X50551080Y-111831080D03*
X50551080Y-109291080D03*
X53091080Y-111831080D03*
X53091080Y-109291080D03*
X55631080Y-111831080D03*
X55631080Y-109291080D03*
X58171080Y-111831080D03*
X58171080Y-109291080D03*
X60711080Y-111831080D03*
X60711080Y-109291080D03*
X63251080Y-111831080D03*
X63251080Y-109291080D03*
X65791080Y-111831080D03*
X65791080Y-109291080D03*
X68331080Y-111831080D03*
X68331080Y-109291080D03*
X70871080Y-111831080D03*
X70871080Y-109291080D03*
X73411080Y-111831080D03*
X73411080Y-109291080D03*
X75951080Y-111831080D03*
X75951080Y-109291080D03*
X78491080Y-111831080D03*
X78491080Y-109291080D03*
X81031080Y-111831080D03*
X81031080Y-109291080D03*
X83571080Y-111831080D03*
X83571080Y-109291080D03*
X86111080Y-111831080D03*
X86111080Y-109291080D03*
X88651080Y-111831080D03*
X88651080Y-109291080D03*
X91191080Y-111831080D03*
X91191080Y-109291080D03*
X93731080Y-111831080D03*
X93731080Y-109291080D03*
X96271080Y-111831080D03*
X96271080Y-109291080D03*
X98811080Y-111831080D03*
X98811080Y-109291080D03*
X101351080Y-111831080D03*
X101351080Y-109291080D03*
D13*
X58679080Y-94559080D03*
X73919080Y-102179080D03*
X61219080Y-94559080D03*
X71379080Y-102179080D03*
X63759080Y-94559080D03*
X68839080Y-102179080D03*
X66299080Y-94559080D03*
X66299080Y-102179080D03*
X68839080Y-94559080D03*
X63759080Y-102179080D03*
X71379080Y-94559080D03*
X61219080Y-102179080D03*
X73919080Y-94559080D03*
D14*
X58679080Y-102179080D03*
D17*
X53599080Y-84145080D03*
D13*
X53599080Y-74145080D03*
D14*
X104172080Y-56926080D03*
D13*
X106712080Y-56926080D03*
X109252080Y-56926080D03*
X111792080Y-56926080D03*
X114332080Y-56926080D03*
X116872080Y-56926080D03*
X119412080Y-56926080D03*
X121952080Y-56926080D03*
X124492080Y-56926080D03*
X127032080Y-56926080D03*
X43947080Y-50269080D03*
D17*
X43947080Y-60269080D03*
X78027080Y-102131080D03*
D13*
X78027080Y-92131080D03*
X53599080Y-92179080D03*
D17*
X53599080Y-102179080D03*
X81285080Y-85161080D03*
D13*
X81285080Y-75161080D03*
D17*
X119377080Y-94771080D03*
D13*
X119377080Y-114771080D03*
X113987080Y-104961080D03*
D17*
X113987080Y-114961080D03*
X129837080Y-104971080D03*
D13*
X129837080Y-114971080D03*
D14*
X83571080Y-60269080D03*
D13*
X98811080Y-52649080D03*
X86111080Y-60269080D03*
X96271080Y-52649080D03*
X88651080Y-60269080D03*
X93731080Y-52649080D03*
X91191080Y-60269080D03*
X91191080Y-52649080D03*
X93731080Y-60269080D03*
X88651080Y-52649080D03*
X96271080Y-60269080D03*
X86111080Y-52649080D03*
X98811080Y-60269080D03*
X83571080Y-52649080D03*
D14*
X86111080Y-70937080D03*
D13*
X101351080Y-63317080D03*
X88651080Y-70937080D03*
X98811080Y-63317080D03*
X91191080Y-70937080D03*
X96271080Y-63317080D03*
X93731080Y-70937080D03*
X93731080Y-63317080D03*
X96271080Y-70937080D03*
X91191080Y-63317080D03*
X98811080Y-70937080D03*
X88651080Y-63317080D03*
X101351080Y-70937080D03*
X86111080Y-63317080D03*
X53599080Y-63317080D03*
X68839080Y-70937080D03*
X56139080Y-63317080D03*
X66299080Y-70937080D03*
X58679080Y-63317080D03*
X63759080Y-70937080D03*
X61219080Y-63317080D03*
X61219080Y-70937080D03*
X63759080Y-63317080D03*
X58679080Y-70937080D03*
X66299080Y-63317080D03*
X56139080Y-70937080D03*
X68839080Y-63317080D03*
D14*
X53599080Y-70937080D03*
X33447080Y-70931080D03*
D13*
X48687080Y-63311080D03*
X35987080Y-70931080D03*
X46147080Y-63311080D03*
X38527080Y-70931080D03*
X43607080Y-63311080D03*
X41067080Y-70931080D03*
X41067080Y-63311080D03*
X43607080Y-70931080D03*
X38527080Y-63311080D03*
X46147080Y-70931080D03*
X35987080Y-63311080D03*
X48687080Y-70931080D03*
X33447080Y-63311080D03*
X86111080Y-73731080D03*
X101351080Y-81351080D03*
X88651080Y-73731080D03*
X98811080Y-81351080D03*
X91191080Y-73731080D03*
X96271080Y-81351080D03*
X93731080Y-73731080D03*
X93731080Y-81351080D03*
X96271080Y-73731080D03*
X91191080Y-81351080D03*
X98811080Y-73731080D03*
X88651080Y-81351080D03*
X101351080Y-73731080D03*
D14*
X86111080Y-81351080D03*
D13*
X58679080Y-73731080D03*
X76459080Y-81351080D03*
X61219080Y-73731080D03*
X73919080Y-81351080D03*
X63759080Y-73731080D03*
X71379080Y-81351080D03*
X66299080Y-73731080D03*
X68839080Y-81351080D03*
X68839080Y-73731080D03*
X66299080Y-81351080D03*
X71379080Y-73731080D03*
X63759080Y-81351080D03*
X73919080Y-73731080D03*
X61219080Y-81351080D03*
X76459080Y-73731080D03*
D14*
X58679080Y-81351080D03*
X30867080Y-81341080D03*
D13*
X48647080Y-73721080D03*
X33407080Y-81341080D03*
X46107080Y-73721080D03*
X35947080Y-81341080D03*
X43567080Y-73721080D03*
X38487080Y-81341080D03*
X41027080Y-73721080D03*
X41027080Y-81341080D03*
X38487080Y-73721080D03*
X43567080Y-81341080D03*
X35947080Y-73721080D03*
X46107080Y-81341080D03*
X33407080Y-73721080D03*
X48647080Y-81341080D03*
X30867080Y-73721080D03*
X138027080Y-84221080D03*
X153267080Y-91841080D03*
X140567080Y-84221080D03*
X150727080Y-91841080D03*
X143107080Y-84221080D03*
X148187080Y-91841080D03*
X145647080Y-84221080D03*
X145647080Y-91841080D03*
X148187080Y-84221080D03*
X143107080Y-91841080D03*
X150727080Y-84221080D03*
X140567080Y-91841080D03*
X153267080Y-84221080D03*
D14*
X138027080Y-91841080D03*
X86111080Y-91765080D03*
D13*
X101351080Y-84145080D03*
X88651080Y-91765080D03*
X98811080Y-84145080D03*
X91191080Y-91765080D03*
X96271080Y-84145080D03*
X93731080Y-91765080D03*
X93731080Y-84145080D03*
X96271080Y-91765080D03*
X91191080Y-84145080D03*
X98811080Y-91765080D03*
X88651080Y-84145080D03*
X101351080Y-91765080D03*
X86111080Y-84145080D03*
D14*
X58679080Y-91765080D03*
D13*
X73919080Y-84145080D03*
X61219080Y-91765080D03*
X71379080Y-84145080D03*
X63759080Y-91765080D03*
X68839080Y-84145080D03*
X66299080Y-91765080D03*
X66299080Y-84145080D03*
X68839080Y-91765080D03*
X63759080Y-84145080D03*
X71379080Y-91765080D03*
X61219080Y-84145080D03*
X73919080Y-91765080D03*
X58679080Y-84145080D03*
X33427080Y-84131080D03*
X48667080Y-91751080D03*
X35967080Y-84131080D03*
X46127080Y-91751080D03*
X38507080Y-84131080D03*
X43587080Y-91751080D03*
X41047080Y-84131080D03*
X41047080Y-91751080D03*
X43587080Y-84131080D03*
X38507080Y-91751080D03*
X46127080Y-84131080D03*
X35967080Y-91751080D03*
X48667080Y-84131080D03*
D14*
X33427080Y-91751080D03*
D13*
X130447080Y-94721080D03*
X153307080Y-102341080D03*
X132987080Y-94721080D03*
X150767080Y-102341080D03*
X135527080Y-94721080D03*
X148227080Y-102341080D03*
X138067080Y-94721080D03*
X145687080Y-102341080D03*
X140607080Y-94721080D03*
X143147080Y-102341080D03*
X143147080Y-94721080D03*
X140607080Y-102341080D03*
X145687080Y-94721080D03*
X138067080Y-102341080D03*
X148227080Y-94721080D03*
X135527080Y-102341080D03*
X150767080Y-94721080D03*
X132987080Y-102341080D03*
X153307080Y-94721080D03*
D14*
X130447080Y-102341080D03*
X86111080Y-102179080D03*
D13*
X108971080Y-94559080D03*
X88651080Y-102179080D03*
X106431080Y-94559080D03*
X91191080Y-102179080D03*
X103891080Y-94559080D03*
X93731080Y-102179080D03*
X101351080Y-94559080D03*
X96271080Y-102179080D03*
X98811080Y-94559080D03*
X98811080Y-102179080D03*
X96271080Y-94559080D03*
X101351080Y-102179080D03*
X93731080Y-94559080D03*
X103891080Y-102179080D03*
X91191080Y-94559080D03*
X106431080Y-102179080D03*
X88651080Y-94559080D03*
X108971080Y-102179080D03*
X86111080Y-94559080D03*
D14*
X33437080Y-102161080D03*
D13*
X48677080Y-94541080D03*
X35977080Y-102161080D03*
X46137080Y-94541080D03*
X38517080Y-102161080D03*
X43597080Y-94541080D03*
X41057080Y-102161080D03*
X41057080Y-94541080D03*
X43597080Y-102161080D03*
X38517080Y-94541080D03*
X46137080Y-102161080D03*
X35977080Y-94541080D03*
X48677080Y-102161080D03*
X33437080Y-94541080D03*
D14*
X135527080Y-112841080D03*
D13*
X150767080Y-105221080D03*
X138067080Y-112841080D03*
X148227080Y-105221080D03*
X140607080Y-112841080D03*
X145687080Y-105221080D03*
X143147080Y-112841080D03*
X143147080Y-105221080D03*
X145687080Y-112841080D03*
X140607080Y-105221080D03*
X148227080Y-112841080D03*
X138067080Y-105221080D03*
X150767080Y-112841080D03*
X135527080Y-105221080D03*
X111637080Y-77021080D03*
D17*
X111637080Y-87181080D03*
X114247080Y-87181080D03*
D13*
X114247080Y-77021080D03*
D17*
X121887080Y-87201080D03*
D13*
X121887080Y-77041080D03*
X127007080Y-77031080D03*
D17*
X127007080Y-87191080D03*
X119287080Y-87221080D03*
D13*
X119287080Y-77061080D03*
X116817080Y-77011080D03*
D17*
X116817080Y-87171080D03*
D13*
X124437080Y-77021080D03*
D17*
X124437080Y-87181080D03*
D13*
X106685080Y-64333080D03*
D17*
X106685080Y-74493080D03*
X109217080Y-87201080D03*
D13*
X109217080Y-77041080D03*
D17*
X116845080Y-74493080D03*
D13*
X116845080Y-64333080D03*
X127005080Y-64333080D03*
D17*
X127005080Y-74493080D03*
D13*
X121925080Y-64333080D03*
D17*
X121925080Y-74493080D03*
X119385080Y-74493080D03*
D13*
X119385080Y-64333080D03*
X114305080Y-64333080D03*
D17*
X114305080Y-74493080D03*
X124467080Y-74491080D03*
D13*
X124467080Y-64331080D03*
D17*
X111765080Y-74493080D03*
D13*
X111765080Y-64333080D03*
X109225080Y-64333080D03*
D17*
X109225080Y-74493080D03*
X106685080Y-87193080D03*
D13*
X106685080Y-77033080D03*
D17*
X81317080Y-102181080D03*
D13*
X81317080Y-92021080D03*
X129517080Y-90491080D03*
X126977080Y-90491080D03*
X124437080Y-90491080D03*
X121897080Y-90491080D03*
X119357080Y-90491080D03*
X116817080Y-90491080D03*
X114277080Y-90491080D03*
X111737080Y-90491080D03*
X109197080Y-90491080D03*
D14*
X106657080Y-90491080D03*
X104197080Y-60801080D03*
D13*
X106737080Y-60801080D03*
X109277080Y-60801080D03*
X111817080Y-60801080D03*
X114357080Y-60801080D03*
X116897080Y-60801080D03*
X119437080Y-60801080D03*
X121977080Y-60801080D03*
X124517080Y-60801080D03*
X127057080Y-60801080D03*
X127005080Y-52841080D03*
X124465080Y-52841080D03*
X121925080Y-52841080D03*
X119385080Y-52841080D03*
X116845080Y-52841080D03*
X114305080Y-52841080D03*
X111765080Y-52841080D03*
X109225080Y-52841080D03*
X106685080Y-52841080D03*
D14*
X104145080Y-52841080D03*
X250027080Y-60341080D03*
D13*
X267807080Y-52721080D03*
X252567080Y-60341080D03*
X265267080Y-52721080D03*
X255107080Y-60341080D03*
X262727080Y-52721080D03*
X257647080Y-60341080D03*
X260187080Y-52721080D03*
X260187080Y-60341080D03*
X257647080Y-52721080D03*
X262727080Y-60341080D03*
X255107080Y-52721080D03*
X265267080Y-60341080D03*
X252567080Y-52721080D03*
X267807080Y-60341080D03*
X250027080Y-52721080D03*
D14*
X222027080Y-60341080D03*
D13*
X239807080Y-52721080D03*
X224567080Y-60341080D03*
X237267080Y-52721080D03*
X227107080Y-60341080D03*
X234727080Y-52721080D03*
X229647080Y-60341080D03*
X232187080Y-52721080D03*
X232187080Y-60341080D03*
X229647080Y-52721080D03*
X234727080Y-60341080D03*
X227107080Y-52721080D03*
X237267080Y-60341080D03*
X224567080Y-52721080D03*
X239807080Y-60341080D03*
X222027080Y-52721080D03*
D14*
X194027080Y-60341080D03*
D13*
X211807080Y-52721080D03*
X196567080Y-60341080D03*
X209267080Y-52721080D03*
X199107080Y-60341080D03*
X206727080Y-52721080D03*
X201647080Y-60341080D03*
X204187080Y-52721080D03*
X204187080Y-60341080D03*
X201647080Y-52721080D03*
X206727080Y-60341080D03*
X199107080Y-52721080D03*
X209267080Y-60341080D03*
X196567080Y-52721080D03*
X211807080Y-60341080D03*
X194027080Y-52721080D03*
X166027080Y-52721080D03*
X183807080Y-60341080D03*
X168567080Y-52721080D03*
X181267080Y-60341080D03*
X171107080Y-52721080D03*
X178727080Y-60341080D03*
X173647080Y-52721080D03*
X176187080Y-60341080D03*
X176187080Y-52721080D03*
X173647080Y-60341080D03*
X178727080Y-52721080D03*
X171107080Y-60341080D03*
X181267080Y-52721080D03*
X168567080Y-60341080D03*
X183807080Y-52721080D03*
D14*
X166027080Y-60341080D03*
D13*
X138027080Y-52721080D03*
X155807080Y-60341080D03*
X140567080Y-52721080D03*
X153267080Y-60341080D03*
X143107080Y-52721080D03*
X150727080Y-60341080D03*
X145647080Y-52721080D03*
X148187080Y-60341080D03*
X148187080Y-52721080D03*
X145647080Y-60341080D03*
X150727080Y-52721080D03*
X143107080Y-60341080D03*
X153267080Y-52721080D03*
X140567080Y-60341080D03*
X155807080Y-52721080D03*
D14*
X138027080Y-60341080D03*
D13*
X250027080Y-63221080D03*
X267807080Y-70841080D03*
X252567080Y-63221080D03*
X265267080Y-70841080D03*
X255107080Y-63221080D03*
X262727080Y-70841080D03*
X257647080Y-63221080D03*
X260187080Y-70841080D03*
X260187080Y-63221080D03*
X257647080Y-70841080D03*
X262727080Y-63221080D03*
X255107080Y-70841080D03*
X265267080Y-63221080D03*
X252567080Y-70841080D03*
X267807080Y-63221080D03*
D14*
X250027080Y-70841080D03*
D13*
X222027080Y-63221080D03*
X239807080Y-70841080D03*
X224567080Y-63221080D03*
X237267080Y-70841080D03*
X227107080Y-63221080D03*
X234727080Y-70841080D03*
X229647080Y-63221080D03*
X232187080Y-70841080D03*
X232187080Y-63221080D03*
X229647080Y-70841080D03*
X234727080Y-63221080D03*
X227107080Y-70841080D03*
X237267080Y-63221080D03*
X224567080Y-70841080D03*
X239807080Y-63221080D03*
D14*
X222027080Y-70841080D03*
D13*
X194027080Y-63221080D03*
X211807080Y-70841080D03*
X196567080Y-63221080D03*
X209267080Y-70841080D03*
X199107080Y-63221080D03*
X206727080Y-70841080D03*
X201647080Y-63221080D03*
X204187080Y-70841080D03*
X204187080Y-63221080D03*
X201647080Y-70841080D03*
X206727080Y-63221080D03*
X199107080Y-70841080D03*
X209267080Y-63221080D03*
X196567080Y-70841080D03*
X211807080Y-63221080D03*
D14*
X194027080Y-70841080D03*
X166027080Y-70841080D03*
D13*
X183807080Y-63221080D03*
X168567080Y-70841080D03*
X181267080Y-63221080D03*
X171107080Y-70841080D03*
X178727080Y-63221080D03*
X173647080Y-70841080D03*
X176187080Y-63221080D03*
X176187080Y-70841080D03*
X173647080Y-63221080D03*
X178727080Y-70841080D03*
X171107080Y-63221080D03*
X181267080Y-70841080D03*
X168567080Y-63221080D03*
X183807080Y-70841080D03*
X166027080Y-63221080D03*
D14*
X135527080Y-70830400D03*
D13*
X153307080Y-63210400D03*
X138067080Y-70830400D03*
X150767080Y-63210400D03*
X140607080Y-70830400D03*
X148227080Y-63210400D03*
X143147080Y-70830400D03*
X145687080Y-63210400D03*
X145687080Y-70830400D03*
X143147080Y-63210400D03*
X148227080Y-70830400D03*
X140607080Y-63210400D03*
X150767080Y-70830400D03*
X138067080Y-63210400D03*
X153307080Y-70830400D03*
X135527080Y-63210400D03*
D14*
X250027080Y-81341080D03*
D13*
X267807080Y-73721080D03*
X252567080Y-81341080D03*
X265267080Y-73721080D03*
X255107080Y-81341080D03*
X262727080Y-73721080D03*
X257647080Y-81341080D03*
X260187080Y-73721080D03*
X260187080Y-81341080D03*
X257647080Y-73721080D03*
X262727080Y-81341080D03*
X255107080Y-73721080D03*
X265267080Y-81341080D03*
X252567080Y-73721080D03*
X267807080Y-81341080D03*
X250027080Y-73721080D03*
D14*
X222027080Y-81341080D03*
D13*
X239807080Y-73721080D03*
X224567080Y-81341080D03*
X237267080Y-73721080D03*
X227107080Y-81341080D03*
X234727080Y-73721080D03*
X229647080Y-81341080D03*
X232187080Y-73721080D03*
X232187080Y-81341080D03*
X229647080Y-73721080D03*
X234727080Y-81341080D03*
X227107080Y-73721080D03*
X237267080Y-81341080D03*
X224567080Y-73721080D03*
X239807080Y-81341080D03*
X222027080Y-73721080D03*
D14*
X194027080Y-81341080D03*
D13*
X211807080Y-73721080D03*
X196567080Y-81341080D03*
X209267080Y-73721080D03*
X199107080Y-81341080D03*
X206727080Y-73721080D03*
X201647080Y-81341080D03*
X204187080Y-73721080D03*
X204187080Y-81341080D03*
X201647080Y-73721080D03*
X206727080Y-81341080D03*
X199107080Y-73721080D03*
X209267080Y-81341080D03*
X196567080Y-73721080D03*
X211807080Y-81341080D03*
X194027080Y-73721080D03*
D14*
X166027080Y-81341080D03*
D13*
X183807080Y-73721080D03*
X168567080Y-81341080D03*
X181267080Y-73721080D03*
X171107080Y-81341080D03*
X178727080Y-73721080D03*
X173647080Y-81341080D03*
X176187080Y-73721080D03*
X176187080Y-81341080D03*
X173647080Y-73721080D03*
X178727080Y-81341080D03*
X171107080Y-73721080D03*
X181267080Y-81341080D03*
X168567080Y-73721080D03*
X183807080Y-81341080D03*
X166027080Y-73721080D03*
X135527080Y-73721080D03*
X153307080Y-81341080D03*
X138067080Y-73721080D03*
X150767080Y-81341080D03*
X140607080Y-73721080D03*
X148227080Y-81341080D03*
X143147080Y-73721080D03*
X145687080Y-81341080D03*
X145687080Y-73721080D03*
X143147080Y-81341080D03*
X148227080Y-73721080D03*
X140607080Y-81341080D03*
X150767080Y-73721080D03*
X138067080Y-81341080D03*
X153307080Y-73721080D03*
D14*
X135527080Y-81341080D03*
D13*
X250027080Y-84221080D03*
X267807080Y-91841080D03*
X252567080Y-84221080D03*
X265267080Y-91841080D03*
X255107080Y-84221080D03*
X262727080Y-91841080D03*
X257647080Y-84221080D03*
X260187080Y-91841080D03*
X260187080Y-84221080D03*
X257647080Y-91841080D03*
X262727080Y-84221080D03*
X255107080Y-91841080D03*
X265267080Y-84221080D03*
X252567080Y-91841080D03*
X267807080Y-84221080D03*
D14*
X250027080Y-91841080D03*
D13*
X222027080Y-84221080D03*
X239807080Y-91841080D03*
X224567080Y-84221080D03*
X237267080Y-91841080D03*
X227107080Y-84221080D03*
X234727080Y-91841080D03*
X229647080Y-84221080D03*
X232187080Y-91841080D03*
X232187080Y-84221080D03*
X229647080Y-91841080D03*
X234727080Y-84221080D03*
X227107080Y-91841080D03*
X237267080Y-84221080D03*
X224567080Y-91841080D03*
X239807080Y-84221080D03*
D14*
X222027080Y-91841080D03*
D13*
X194027080Y-84221080D03*
X211807080Y-91841080D03*
X196567080Y-84221080D03*
X209267080Y-91841080D03*
X199107080Y-84221080D03*
X206727080Y-91841080D03*
X201647080Y-84221080D03*
X204187080Y-91841080D03*
X204187080Y-84221080D03*
X201647080Y-91841080D03*
X206727080Y-84221080D03*
X199107080Y-91841080D03*
X209267080Y-84221080D03*
X196567080Y-91841080D03*
X211807080Y-84221080D03*
D14*
X194027080Y-91841080D03*
D13*
X166027080Y-84221080D03*
X183807080Y-91841080D03*
X168567080Y-84221080D03*
X181267080Y-91841080D03*
X171107080Y-84221080D03*
X178727080Y-91841080D03*
X173647080Y-84221080D03*
X176187080Y-91841080D03*
X176187080Y-84221080D03*
X173647080Y-91841080D03*
X178727080Y-84221080D03*
X171107080Y-91841080D03*
X181267080Y-84221080D03*
X168567080Y-91841080D03*
X183807080Y-84221080D03*
D14*
X166027080Y-91841080D03*
X250027080Y-102341080D03*
D13*
X267807080Y-94721080D03*
X252567080Y-102341080D03*
X265267080Y-94721080D03*
X255107080Y-102341080D03*
X262727080Y-94721080D03*
X257647080Y-102341080D03*
X260187080Y-94721080D03*
X260187080Y-102341080D03*
X257647080Y-94721080D03*
X262727080Y-102341080D03*
X255107080Y-94721080D03*
X265267080Y-102341080D03*
X252567080Y-94721080D03*
X267807080Y-102341080D03*
X250027080Y-94721080D03*
D14*
X222027080Y-102341080D03*
D13*
X239807080Y-94721080D03*
X224567080Y-102341080D03*
X237267080Y-94721080D03*
X227107080Y-102341080D03*
X234727080Y-94721080D03*
X229647080Y-102341080D03*
X232187080Y-94721080D03*
X232187080Y-102341080D03*
X229647080Y-94721080D03*
X234727080Y-102341080D03*
X227107080Y-94721080D03*
X237267080Y-102341080D03*
X224567080Y-94721080D03*
X239807080Y-102341080D03*
X222027080Y-94721080D03*
D14*
X194027080Y-102341080D03*
D13*
X211807080Y-94721080D03*
X196567080Y-102341080D03*
X209267080Y-94721080D03*
X199107080Y-102341080D03*
X206727080Y-94721080D03*
X201647080Y-102341080D03*
X204187080Y-94721080D03*
X204187080Y-102341080D03*
X201647080Y-94721080D03*
X206727080Y-102341080D03*
X199107080Y-94721080D03*
X209267080Y-102341080D03*
X196567080Y-94721080D03*
X211807080Y-102341080D03*
X194027080Y-94721080D03*
D14*
X166027080Y-102341080D03*
D13*
X183807080Y-94721080D03*
X168567080Y-102341080D03*
X181267080Y-94721080D03*
X171107080Y-102341080D03*
X178727080Y-94721080D03*
X173647080Y-102341080D03*
X176187080Y-94721080D03*
X176187080Y-102341080D03*
X173647080Y-94721080D03*
X178727080Y-102341080D03*
X171107080Y-94721080D03*
X181267080Y-102341080D03*
X168567080Y-94721080D03*
X183807080Y-102341080D03*
X166027080Y-94721080D03*
X250027080Y-105221080D03*
X267807080Y-112841080D03*
X252567080Y-105221080D03*
X265267080Y-112841080D03*
X255107080Y-105221080D03*
X262727080Y-112841080D03*
X257647080Y-105221080D03*
X260187080Y-112841080D03*
X260187080Y-105221080D03*
X257647080Y-112841080D03*
X262727080Y-105221080D03*
X255107080Y-112841080D03*
X265267080Y-105221080D03*
X252567080Y-112841080D03*
X267807080Y-105221080D03*
D14*
X250027080Y-112841080D03*
D13*
X222027080Y-105221080D03*
X239807080Y-112841080D03*
X224567080Y-105221080D03*
X237267080Y-112841080D03*
X227107080Y-105221080D03*
X234727080Y-112841080D03*
X229647080Y-105221080D03*
X232187080Y-112841080D03*
X232187080Y-105221080D03*
X229647080Y-112841080D03*
X234727080Y-105221080D03*
X227107080Y-112841080D03*
X237267080Y-105221080D03*
X224567080Y-112841080D03*
X239807080Y-105221080D03*
D14*
X222027080Y-112841080D03*
D13*
X194027080Y-105221080D03*
X211807080Y-112841080D03*
X196567080Y-105221080D03*
X209267080Y-112841080D03*
X199107080Y-105221080D03*
X206727080Y-112841080D03*
X201647080Y-105221080D03*
X204187080Y-112841080D03*
X204187080Y-105221080D03*
X201647080Y-112841080D03*
X206727080Y-105221080D03*
X199107080Y-112841080D03*
X209267080Y-105221080D03*
X196567080Y-112841080D03*
X211807080Y-105221080D03*
D14*
X194027080Y-112841080D03*
X166027080Y-112841080D03*
D13*
X183807080Y-105221080D03*
X168567080Y-112841080D03*
X181267080Y-105221080D03*
X171107080Y-112841080D03*
X178727080Y-105221080D03*
X173647080Y-112841080D03*
X176187080Y-105221080D03*
X176187080Y-112841080D03*
X173647080Y-105221080D03*
X178727080Y-112841080D03*
X171107080Y-105221080D03*
X181267080Y-112841080D03*
X168567080Y-105221080D03*
X183807080Y-112841080D03*
X166027080Y-105221080D03*
D14*
X48519080Y-60269080D03*
D13*
X76459080Y-52649080D03*
X51059080Y-60269080D03*
X73919080Y-52649080D03*
X53599080Y-60269080D03*
X71379080Y-52649080D03*
X56139080Y-60269080D03*
X68839080Y-52649080D03*
X58679080Y-60269080D03*
X66299080Y-52649080D03*
X61219080Y-60269080D03*
X63759080Y-52649080D03*
X63759080Y-60269080D03*
X61219080Y-52649080D03*
X66299080Y-60269080D03*
X58679080Y-52649080D03*
X68839080Y-60269080D03*
X56139080Y-52649080D03*
X71379080Y-60269080D03*
X53599080Y-52649080D03*
X73919080Y-60269080D03*
X51059080Y-52649080D03*
X76459080Y-60269080D03*
X48519080Y-52649080D03*
D18*
X124727080Y-94891080D03*
D19*
X124727080Y-110131080D03*
D13*
X159527080Y-94841080D03*
D17*
X159527080Y-102341080D03*
X188777080Y-102341080D03*
D13*
X188777080Y-94841080D03*
D17*
X216777080Y-102341080D03*
D13*
X216777080Y-94841080D03*
D17*
X159527080Y-91841080D03*
D13*
X159527080Y-84341080D03*
X188777080Y-84341080D03*
D17*
X188777080Y-91841080D03*
X216777080Y-91841080D03*
D13*
X216777080Y-84341080D03*
X159527080Y-73841080D03*
D17*
X159527080Y-81341080D03*
X188777080Y-81341080D03*
D13*
X188777080Y-73841080D03*
X244777080Y-105341080D03*
D17*
X244777080Y-112841080D03*
D13*
X159527080Y-63341080D03*
D17*
X159527080Y-70841080D03*
X188777080Y-70841080D03*
D13*
X188777080Y-63341080D03*
X244777080Y-94841080D03*
D17*
X244777080Y-102341080D03*
X160777080Y-60341080D03*
D13*
X160777080Y-52841080D03*
X188777080Y-52841080D03*
D17*
X188777080Y-60341080D03*
X244777080Y-91841080D03*
D13*
X244777080Y-84341080D03*
X129545080Y-79693080D03*
D17*
X129545080Y-87193080D03*
X216777080Y-81341080D03*
D13*
X216777080Y-73841080D03*
D17*
X244777080Y-81341080D03*
D13*
X244777080Y-73841080D03*
X129545080Y-66993080D03*
D17*
X129545080Y-74493080D03*
X216777080Y-70841080D03*
D13*
X216777080Y-63341080D03*
X244777080Y-63341080D03*
D17*
X244777080Y-70841080D03*
X132777080Y-60341080D03*
D13*
X132777080Y-52841080D03*
X216777080Y-52841080D03*
D17*
X216777080Y-60341080D03*
X244777080Y-60341080D03*
D13*
X244777080Y-52841080D03*
X159527080Y-105341080D03*
D17*
X159527080Y-112841080D03*
X188777080Y-112841080D03*
D13*
X188777080Y-105341080D03*
X216777080Y-105341080D03*
D17*
X216777080Y-112841080D03*
D14*
X73467080Y-63541080D03*
D13*
X81087080Y-71161080D03*
X76007080Y-63541080D03*
X78547080Y-71161080D03*
X78547080Y-63541080D03*
X76007080Y-71161080D03*
X81087080Y-63541080D03*
X73467080Y-71161080D03*
M02*
