G04 #@! TF.GenerationSoftware,KiCad,Pcbnew,(5.1.12)-1*
G04 #@! TF.CreationDate,2023-01-17T22:17:09+01:00*
G04 #@! TF.ProjectId,arcobaleno memory extension,6172636f-6261-46c6-956e-6f206d656d6f,rev?*
G04 #@! TF.SameCoordinates,Original*
G04 #@! TF.FileFunction,Copper,L4,Bot*
G04 #@! TF.FilePolarity,Positive*
%FSLAX46Y46*%
G04 Gerber Fmt 4.6, Leading zero omitted, Abs format (unit mm)*
G04 Created by KiCad (PCBNEW (5.1.12)-1) date 2023-01-17 22:17:09*
%MOMM*%
%LPD*%
G01*
G04 APERTURE LIST*
G04 #@! TA.AperFunction,ComponentPad*
%ADD10O,1.600000X1.600000*%
G04 #@! TD*
G04 #@! TA.AperFunction,ComponentPad*
%ADD11R,1.600000X1.600000*%
G04 #@! TD*
G04 #@! TA.AperFunction,ComponentPad*
%ADD12C,1.524000*%
G04 #@! TD*
G04 #@! TA.AperFunction,ComponentPad*
%ADD13C,1.600000*%
G04 #@! TD*
G04 #@! TA.AperFunction,ComponentPad*
%ADD14C,2.000000*%
G04 #@! TD*
G04 #@! TA.AperFunction,ComponentPad*
%ADD15O,2.000000X2.000000*%
G04 #@! TD*
G04 #@! TA.AperFunction,ViaPad*
%ADD16C,0.800000*%
G04 #@! TD*
G04 #@! TA.AperFunction,Conductor*
%ADD17C,0.250000*%
G04 #@! TD*
G04 #@! TA.AperFunction,Conductor*
%ADD18C,1.000000*%
G04 #@! TD*
G04 APERTURE END LIST*
D10*
X24135080Y-52649080D03*
X39375080Y-60269080D03*
X26675080Y-52649080D03*
X36835080Y-60269080D03*
X29215080Y-52649080D03*
X34295080Y-60269080D03*
X31755080Y-52649080D03*
X31755080Y-60269080D03*
X34295080Y-52649080D03*
X29215080Y-60269080D03*
X36835080Y-52649080D03*
X26675080Y-60269080D03*
X39375080Y-52649080D03*
D11*
X24135080Y-60269080D03*
D12*
X37851080Y-111831080D03*
X37851080Y-109291080D03*
X40391080Y-111831080D03*
X40391080Y-109291080D03*
X42931080Y-111831080D03*
X42931080Y-109291080D03*
X45471080Y-111831080D03*
X45471080Y-109291080D03*
X48011080Y-111831080D03*
X48011080Y-109291080D03*
X50551080Y-111831080D03*
X50551080Y-109291080D03*
X53091080Y-111831080D03*
X53091080Y-109291080D03*
X55631080Y-111831080D03*
X55631080Y-109291080D03*
X58171080Y-111831080D03*
X58171080Y-109291080D03*
X60711080Y-111831080D03*
X60711080Y-109291080D03*
X63251080Y-111831080D03*
X63251080Y-109291080D03*
X65791080Y-111831080D03*
X65791080Y-109291080D03*
X68331080Y-111831080D03*
X68331080Y-109291080D03*
X70871080Y-111831080D03*
X70871080Y-109291080D03*
X73411080Y-111831080D03*
X73411080Y-109291080D03*
X75951080Y-111831080D03*
X75951080Y-109291080D03*
X78491080Y-111831080D03*
X78491080Y-109291080D03*
X81031080Y-111831080D03*
X81031080Y-109291080D03*
X83571080Y-111831080D03*
X83571080Y-109291080D03*
X86111080Y-111831080D03*
X86111080Y-109291080D03*
X88651080Y-111831080D03*
X88651080Y-109291080D03*
X91191080Y-111831080D03*
X91191080Y-109291080D03*
X93731080Y-111831080D03*
X93731080Y-109291080D03*
X96271080Y-111831080D03*
X96271080Y-109291080D03*
X98811080Y-111831080D03*
X98811080Y-109291080D03*
X101351080Y-111831080D03*
X101351080Y-109291080D03*
D10*
X58679080Y-94559080D03*
X73919080Y-102179080D03*
X61219080Y-94559080D03*
X71379080Y-102179080D03*
X63759080Y-94559080D03*
X68839080Y-102179080D03*
X66299080Y-94559080D03*
X66299080Y-102179080D03*
X68839080Y-94559080D03*
X63759080Y-102179080D03*
X71379080Y-94559080D03*
X61219080Y-102179080D03*
X73919080Y-94559080D03*
D11*
X58679080Y-102179080D03*
D13*
X53599080Y-84145080D03*
D10*
X53599080Y-74145080D03*
D11*
X104172080Y-56926080D03*
D10*
X106712080Y-56926080D03*
X109252080Y-56926080D03*
X111792080Y-56926080D03*
X114332080Y-56926080D03*
X116872080Y-56926080D03*
X119412080Y-56926080D03*
X121952080Y-56926080D03*
X124492080Y-56926080D03*
X127032080Y-56926080D03*
X43947080Y-50269080D03*
D13*
X43947080Y-60269080D03*
X78027080Y-102131080D03*
D10*
X78027080Y-92131080D03*
X53599080Y-92179080D03*
D13*
X53599080Y-102179080D03*
X81285080Y-85161080D03*
D10*
X81285080Y-75161080D03*
D13*
X119377080Y-94771080D03*
D10*
X119377080Y-114771080D03*
X113987080Y-104961080D03*
D13*
X113987080Y-114961080D03*
X129837080Y-104971080D03*
D10*
X129837080Y-114971080D03*
D11*
X83571080Y-60269080D03*
D10*
X98811080Y-52649080D03*
X86111080Y-60269080D03*
X96271080Y-52649080D03*
X88651080Y-60269080D03*
X93731080Y-52649080D03*
X91191080Y-60269080D03*
X91191080Y-52649080D03*
X93731080Y-60269080D03*
X88651080Y-52649080D03*
X96271080Y-60269080D03*
X86111080Y-52649080D03*
X98811080Y-60269080D03*
X83571080Y-52649080D03*
D11*
X86111080Y-70937080D03*
D10*
X101351080Y-63317080D03*
X88651080Y-70937080D03*
X98811080Y-63317080D03*
X91191080Y-70937080D03*
X96271080Y-63317080D03*
X93731080Y-70937080D03*
X93731080Y-63317080D03*
X96271080Y-70937080D03*
X91191080Y-63317080D03*
X98811080Y-70937080D03*
X88651080Y-63317080D03*
X101351080Y-70937080D03*
X86111080Y-63317080D03*
X53599080Y-63317080D03*
X68839080Y-70937080D03*
X56139080Y-63317080D03*
X66299080Y-70937080D03*
X58679080Y-63317080D03*
X63759080Y-70937080D03*
X61219080Y-63317080D03*
X61219080Y-70937080D03*
X63759080Y-63317080D03*
X58679080Y-70937080D03*
X66299080Y-63317080D03*
X56139080Y-70937080D03*
X68839080Y-63317080D03*
D11*
X53599080Y-70937080D03*
X33447080Y-70931080D03*
D10*
X48687080Y-63311080D03*
X35987080Y-70931080D03*
X46147080Y-63311080D03*
X38527080Y-70931080D03*
X43607080Y-63311080D03*
X41067080Y-70931080D03*
X41067080Y-63311080D03*
X43607080Y-70931080D03*
X38527080Y-63311080D03*
X46147080Y-70931080D03*
X35987080Y-63311080D03*
X48687080Y-70931080D03*
X33447080Y-63311080D03*
X86111080Y-73731080D03*
X101351080Y-81351080D03*
X88651080Y-73731080D03*
X98811080Y-81351080D03*
X91191080Y-73731080D03*
X96271080Y-81351080D03*
X93731080Y-73731080D03*
X93731080Y-81351080D03*
X96271080Y-73731080D03*
X91191080Y-81351080D03*
X98811080Y-73731080D03*
X88651080Y-81351080D03*
X101351080Y-73731080D03*
D11*
X86111080Y-81351080D03*
D10*
X58679080Y-73731080D03*
X76459080Y-81351080D03*
X61219080Y-73731080D03*
X73919080Y-81351080D03*
X63759080Y-73731080D03*
X71379080Y-81351080D03*
X66299080Y-73731080D03*
X68839080Y-81351080D03*
X68839080Y-73731080D03*
X66299080Y-81351080D03*
X71379080Y-73731080D03*
X63759080Y-81351080D03*
X73919080Y-73731080D03*
X61219080Y-81351080D03*
X76459080Y-73731080D03*
D11*
X58679080Y-81351080D03*
X30867080Y-81341080D03*
D10*
X48647080Y-73721080D03*
X33407080Y-81341080D03*
X46107080Y-73721080D03*
X35947080Y-81341080D03*
X43567080Y-73721080D03*
X38487080Y-81341080D03*
X41027080Y-73721080D03*
X41027080Y-81341080D03*
X38487080Y-73721080D03*
X43567080Y-81341080D03*
X35947080Y-73721080D03*
X46107080Y-81341080D03*
X33407080Y-73721080D03*
X48647080Y-81341080D03*
X30867080Y-73721080D03*
X138027080Y-84221080D03*
X153267080Y-91841080D03*
X140567080Y-84221080D03*
X150727080Y-91841080D03*
X143107080Y-84221080D03*
X148187080Y-91841080D03*
X145647080Y-84221080D03*
X145647080Y-91841080D03*
X148187080Y-84221080D03*
X143107080Y-91841080D03*
X150727080Y-84221080D03*
X140567080Y-91841080D03*
X153267080Y-84221080D03*
D11*
X138027080Y-91841080D03*
X86111080Y-91765080D03*
D10*
X101351080Y-84145080D03*
X88651080Y-91765080D03*
X98811080Y-84145080D03*
X91191080Y-91765080D03*
X96271080Y-84145080D03*
X93731080Y-91765080D03*
X93731080Y-84145080D03*
X96271080Y-91765080D03*
X91191080Y-84145080D03*
X98811080Y-91765080D03*
X88651080Y-84145080D03*
X101351080Y-91765080D03*
X86111080Y-84145080D03*
D11*
X58679080Y-91765080D03*
D10*
X73919080Y-84145080D03*
X61219080Y-91765080D03*
X71379080Y-84145080D03*
X63759080Y-91765080D03*
X68839080Y-84145080D03*
X66299080Y-91765080D03*
X66299080Y-84145080D03*
X68839080Y-91765080D03*
X63759080Y-84145080D03*
X71379080Y-91765080D03*
X61219080Y-84145080D03*
X73919080Y-91765080D03*
X58679080Y-84145080D03*
X33427080Y-84131080D03*
X48667080Y-91751080D03*
X35967080Y-84131080D03*
X46127080Y-91751080D03*
X38507080Y-84131080D03*
X43587080Y-91751080D03*
X41047080Y-84131080D03*
X41047080Y-91751080D03*
X43587080Y-84131080D03*
X38507080Y-91751080D03*
X46127080Y-84131080D03*
X35967080Y-91751080D03*
X48667080Y-84131080D03*
D11*
X33427080Y-91751080D03*
D10*
X130447080Y-94721080D03*
X153307080Y-102341080D03*
X132987080Y-94721080D03*
X150767080Y-102341080D03*
X135527080Y-94721080D03*
X148227080Y-102341080D03*
X138067080Y-94721080D03*
X145687080Y-102341080D03*
X140607080Y-94721080D03*
X143147080Y-102341080D03*
X143147080Y-94721080D03*
X140607080Y-102341080D03*
X145687080Y-94721080D03*
X138067080Y-102341080D03*
X148227080Y-94721080D03*
X135527080Y-102341080D03*
X150767080Y-94721080D03*
X132987080Y-102341080D03*
X153307080Y-94721080D03*
D11*
X130447080Y-102341080D03*
X86111080Y-102179080D03*
D10*
X108971080Y-94559080D03*
X88651080Y-102179080D03*
X106431080Y-94559080D03*
X91191080Y-102179080D03*
X103891080Y-94559080D03*
X93731080Y-102179080D03*
X101351080Y-94559080D03*
X96271080Y-102179080D03*
X98811080Y-94559080D03*
X98811080Y-102179080D03*
X96271080Y-94559080D03*
X101351080Y-102179080D03*
X93731080Y-94559080D03*
X103891080Y-102179080D03*
X91191080Y-94559080D03*
X106431080Y-102179080D03*
X88651080Y-94559080D03*
X108971080Y-102179080D03*
X86111080Y-94559080D03*
D11*
X33437080Y-102161080D03*
D10*
X48677080Y-94541080D03*
X35977080Y-102161080D03*
X46137080Y-94541080D03*
X38517080Y-102161080D03*
X43597080Y-94541080D03*
X41057080Y-102161080D03*
X41057080Y-94541080D03*
X43597080Y-102161080D03*
X38517080Y-94541080D03*
X46137080Y-102161080D03*
X35977080Y-94541080D03*
X48677080Y-102161080D03*
X33437080Y-94541080D03*
D11*
X135527080Y-112841080D03*
D10*
X150767080Y-105221080D03*
X138067080Y-112841080D03*
X148227080Y-105221080D03*
X140607080Y-112841080D03*
X145687080Y-105221080D03*
X143147080Y-112841080D03*
X143147080Y-105221080D03*
X145687080Y-112841080D03*
X140607080Y-105221080D03*
X148227080Y-112841080D03*
X138067080Y-105221080D03*
X150767080Y-112841080D03*
X135527080Y-105221080D03*
X111637080Y-77021080D03*
D13*
X111637080Y-87181080D03*
X114247080Y-87181080D03*
D10*
X114247080Y-77021080D03*
D13*
X121887080Y-87201080D03*
D10*
X121887080Y-77041080D03*
X127007080Y-77031080D03*
D13*
X127007080Y-87191080D03*
X119287080Y-87221080D03*
D10*
X119287080Y-77061080D03*
X116817080Y-77011080D03*
D13*
X116817080Y-87171080D03*
D10*
X124437080Y-77021080D03*
D13*
X124437080Y-87181080D03*
D10*
X106685080Y-64333080D03*
D13*
X106685080Y-74493080D03*
X109217080Y-87201080D03*
D10*
X109217080Y-77041080D03*
D13*
X116845080Y-74493080D03*
D10*
X116845080Y-64333080D03*
X127005080Y-64333080D03*
D13*
X127005080Y-74493080D03*
D10*
X121925080Y-64333080D03*
D13*
X121925080Y-74493080D03*
X119385080Y-74493080D03*
D10*
X119385080Y-64333080D03*
X114305080Y-64333080D03*
D13*
X114305080Y-74493080D03*
X124467080Y-74491080D03*
D10*
X124467080Y-64331080D03*
D13*
X111765080Y-74493080D03*
D10*
X111765080Y-64333080D03*
X109225080Y-64333080D03*
D13*
X109225080Y-74493080D03*
X106685080Y-87193080D03*
D10*
X106685080Y-77033080D03*
D13*
X81317080Y-102181080D03*
D10*
X81317080Y-92021080D03*
X129517080Y-90491080D03*
X126977080Y-90491080D03*
X124437080Y-90491080D03*
X121897080Y-90491080D03*
X119357080Y-90491080D03*
X116817080Y-90491080D03*
X114277080Y-90491080D03*
X111737080Y-90491080D03*
X109197080Y-90491080D03*
D11*
X106657080Y-90491080D03*
X104197080Y-60801080D03*
D10*
X106737080Y-60801080D03*
X109277080Y-60801080D03*
X111817080Y-60801080D03*
X114357080Y-60801080D03*
X116897080Y-60801080D03*
X119437080Y-60801080D03*
X121977080Y-60801080D03*
X124517080Y-60801080D03*
X127057080Y-60801080D03*
X127005080Y-52841080D03*
X124465080Y-52841080D03*
X121925080Y-52841080D03*
X119385080Y-52841080D03*
X116845080Y-52841080D03*
X114305080Y-52841080D03*
X111765080Y-52841080D03*
X109225080Y-52841080D03*
X106685080Y-52841080D03*
D11*
X104145080Y-52841080D03*
X250027080Y-60341080D03*
D10*
X267807080Y-52721080D03*
X252567080Y-60341080D03*
X265267080Y-52721080D03*
X255107080Y-60341080D03*
X262727080Y-52721080D03*
X257647080Y-60341080D03*
X260187080Y-52721080D03*
X260187080Y-60341080D03*
X257647080Y-52721080D03*
X262727080Y-60341080D03*
X255107080Y-52721080D03*
X265267080Y-60341080D03*
X252567080Y-52721080D03*
X267807080Y-60341080D03*
X250027080Y-52721080D03*
D11*
X222027080Y-60341080D03*
D10*
X239807080Y-52721080D03*
X224567080Y-60341080D03*
X237267080Y-52721080D03*
X227107080Y-60341080D03*
X234727080Y-52721080D03*
X229647080Y-60341080D03*
X232187080Y-52721080D03*
X232187080Y-60341080D03*
X229647080Y-52721080D03*
X234727080Y-60341080D03*
X227107080Y-52721080D03*
X237267080Y-60341080D03*
X224567080Y-52721080D03*
X239807080Y-60341080D03*
X222027080Y-52721080D03*
D11*
X194027080Y-60341080D03*
D10*
X211807080Y-52721080D03*
X196567080Y-60341080D03*
X209267080Y-52721080D03*
X199107080Y-60341080D03*
X206727080Y-52721080D03*
X201647080Y-60341080D03*
X204187080Y-52721080D03*
X204187080Y-60341080D03*
X201647080Y-52721080D03*
X206727080Y-60341080D03*
X199107080Y-52721080D03*
X209267080Y-60341080D03*
X196567080Y-52721080D03*
X211807080Y-60341080D03*
X194027080Y-52721080D03*
X166027080Y-52721080D03*
X183807080Y-60341080D03*
X168567080Y-52721080D03*
X181267080Y-60341080D03*
X171107080Y-52721080D03*
X178727080Y-60341080D03*
X173647080Y-52721080D03*
X176187080Y-60341080D03*
X176187080Y-52721080D03*
X173647080Y-60341080D03*
X178727080Y-52721080D03*
X171107080Y-60341080D03*
X181267080Y-52721080D03*
X168567080Y-60341080D03*
X183807080Y-52721080D03*
D11*
X166027080Y-60341080D03*
D10*
X138027080Y-52721080D03*
X155807080Y-60341080D03*
X140567080Y-52721080D03*
X153267080Y-60341080D03*
X143107080Y-52721080D03*
X150727080Y-60341080D03*
X145647080Y-52721080D03*
X148187080Y-60341080D03*
X148187080Y-52721080D03*
X145647080Y-60341080D03*
X150727080Y-52721080D03*
X143107080Y-60341080D03*
X153267080Y-52721080D03*
X140567080Y-60341080D03*
X155807080Y-52721080D03*
D11*
X138027080Y-60341080D03*
D10*
X250027080Y-63221080D03*
X267807080Y-70841080D03*
X252567080Y-63221080D03*
X265267080Y-70841080D03*
X255107080Y-63221080D03*
X262727080Y-70841080D03*
X257647080Y-63221080D03*
X260187080Y-70841080D03*
X260187080Y-63221080D03*
X257647080Y-70841080D03*
X262727080Y-63221080D03*
X255107080Y-70841080D03*
X265267080Y-63221080D03*
X252567080Y-70841080D03*
X267807080Y-63221080D03*
D11*
X250027080Y-70841080D03*
D10*
X222027080Y-63221080D03*
X239807080Y-70841080D03*
X224567080Y-63221080D03*
X237267080Y-70841080D03*
X227107080Y-63221080D03*
X234727080Y-70841080D03*
X229647080Y-63221080D03*
X232187080Y-70841080D03*
X232187080Y-63221080D03*
X229647080Y-70841080D03*
X234727080Y-63221080D03*
X227107080Y-70841080D03*
X237267080Y-63221080D03*
X224567080Y-70841080D03*
X239807080Y-63221080D03*
D11*
X222027080Y-70841080D03*
D10*
X194027080Y-63221080D03*
X211807080Y-70841080D03*
X196567080Y-63221080D03*
X209267080Y-70841080D03*
X199107080Y-63221080D03*
X206727080Y-70841080D03*
X201647080Y-63221080D03*
X204187080Y-70841080D03*
X204187080Y-63221080D03*
X201647080Y-70841080D03*
X206727080Y-63221080D03*
X199107080Y-70841080D03*
X209267080Y-63221080D03*
X196567080Y-70841080D03*
X211807080Y-63221080D03*
D11*
X194027080Y-70841080D03*
X166027080Y-70841080D03*
D10*
X183807080Y-63221080D03*
X168567080Y-70841080D03*
X181267080Y-63221080D03*
X171107080Y-70841080D03*
X178727080Y-63221080D03*
X173647080Y-70841080D03*
X176187080Y-63221080D03*
X176187080Y-70841080D03*
X173647080Y-63221080D03*
X178727080Y-70841080D03*
X171107080Y-63221080D03*
X181267080Y-70841080D03*
X168567080Y-63221080D03*
X183807080Y-70841080D03*
X166027080Y-63221080D03*
D11*
X135527080Y-70830400D03*
D10*
X153307080Y-63210400D03*
X138067080Y-70830400D03*
X150767080Y-63210400D03*
X140607080Y-70830400D03*
X148227080Y-63210400D03*
X143147080Y-70830400D03*
X145687080Y-63210400D03*
X145687080Y-70830400D03*
X143147080Y-63210400D03*
X148227080Y-70830400D03*
X140607080Y-63210400D03*
X150767080Y-70830400D03*
X138067080Y-63210400D03*
X153307080Y-70830400D03*
X135527080Y-63210400D03*
D11*
X250027080Y-81341080D03*
D10*
X267807080Y-73721080D03*
X252567080Y-81341080D03*
X265267080Y-73721080D03*
X255107080Y-81341080D03*
X262727080Y-73721080D03*
X257647080Y-81341080D03*
X260187080Y-73721080D03*
X260187080Y-81341080D03*
X257647080Y-73721080D03*
X262727080Y-81341080D03*
X255107080Y-73721080D03*
X265267080Y-81341080D03*
X252567080Y-73721080D03*
X267807080Y-81341080D03*
X250027080Y-73721080D03*
D11*
X222027080Y-81341080D03*
D10*
X239807080Y-73721080D03*
X224567080Y-81341080D03*
X237267080Y-73721080D03*
X227107080Y-81341080D03*
X234727080Y-73721080D03*
X229647080Y-81341080D03*
X232187080Y-73721080D03*
X232187080Y-81341080D03*
X229647080Y-73721080D03*
X234727080Y-81341080D03*
X227107080Y-73721080D03*
X237267080Y-81341080D03*
X224567080Y-73721080D03*
X239807080Y-81341080D03*
X222027080Y-73721080D03*
D11*
X194027080Y-81341080D03*
D10*
X211807080Y-73721080D03*
X196567080Y-81341080D03*
X209267080Y-73721080D03*
X199107080Y-81341080D03*
X206727080Y-73721080D03*
X201647080Y-81341080D03*
X204187080Y-73721080D03*
X204187080Y-81341080D03*
X201647080Y-73721080D03*
X206727080Y-81341080D03*
X199107080Y-73721080D03*
X209267080Y-81341080D03*
X196567080Y-73721080D03*
X211807080Y-81341080D03*
X194027080Y-73721080D03*
D11*
X166027080Y-81341080D03*
D10*
X183807080Y-73721080D03*
X168567080Y-81341080D03*
X181267080Y-73721080D03*
X171107080Y-81341080D03*
X178727080Y-73721080D03*
X173647080Y-81341080D03*
X176187080Y-73721080D03*
X176187080Y-81341080D03*
X173647080Y-73721080D03*
X178727080Y-81341080D03*
X171107080Y-73721080D03*
X181267080Y-81341080D03*
X168567080Y-73721080D03*
X183807080Y-81341080D03*
X166027080Y-73721080D03*
X135527080Y-73721080D03*
X153307080Y-81341080D03*
X138067080Y-73721080D03*
X150767080Y-81341080D03*
X140607080Y-73721080D03*
X148227080Y-81341080D03*
X143147080Y-73721080D03*
X145687080Y-81341080D03*
X145687080Y-73721080D03*
X143147080Y-81341080D03*
X148227080Y-73721080D03*
X140607080Y-81341080D03*
X150767080Y-73721080D03*
X138067080Y-81341080D03*
X153307080Y-73721080D03*
D11*
X135527080Y-81341080D03*
D10*
X250027080Y-84221080D03*
X267807080Y-91841080D03*
X252567080Y-84221080D03*
X265267080Y-91841080D03*
X255107080Y-84221080D03*
X262727080Y-91841080D03*
X257647080Y-84221080D03*
X260187080Y-91841080D03*
X260187080Y-84221080D03*
X257647080Y-91841080D03*
X262727080Y-84221080D03*
X255107080Y-91841080D03*
X265267080Y-84221080D03*
X252567080Y-91841080D03*
X267807080Y-84221080D03*
D11*
X250027080Y-91841080D03*
D10*
X222027080Y-84221080D03*
X239807080Y-91841080D03*
X224567080Y-84221080D03*
X237267080Y-91841080D03*
X227107080Y-84221080D03*
X234727080Y-91841080D03*
X229647080Y-84221080D03*
X232187080Y-91841080D03*
X232187080Y-84221080D03*
X229647080Y-91841080D03*
X234727080Y-84221080D03*
X227107080Y-91841080D03*
X237267080Y-84221080D03*
X224567080Y-91841080D03*
X239807080Y-84221080D03*
D11*
X222027080Y-91841080D03*
D10*
X194027080Y-84221080D03*
X211807080Y-91841080D03*
X196567080Y-84221080D03*
X209267080Y-91841080D03*
X199107080Y-84221080D03*
X206727080Y-91841080D03*
X201647080Y-84221080D03*
X204187080Y-91841080D03*
X204187080Y-84221080D03*
X201647080Y-91841080D03*
X206727080Y-84221080D03*
X199107080Y-91841080D03*
X209267080Y-84221080D03*
X196567080Y-91841080D03*
X211807080Y-84221080D03*
D11*
X194027080Y-91841080D03*
D10*
X166027080Y-84221080D03*
X183807080Y-91841080D03*
X168567080Y-84221080D03*
X181267080Y-91841080D03*
X171107080Y-84221080D03*
X178727080Y-91841080D03*
X173647080Y-84221080D03*
X176187080Y-91841080D03*
X176187080Y-84221080D03*
X173647080Y-91841080D03*
X178727080Y-84221080D03*
X171107080Y-91841080D03*
X181267080Y-84221080D03*
X168567080Y-91841080D03*
X183807080Y-84221080D03*
D11*
X166027080Y-91841080D03*
X250027080Y-102341080D03*
D10*
X267807080Y-94721080D03*
X252567080Y-102341080D03*
X265267080Y-94721080D03*
X255107080Y-102341080D03*
X262727080Y-94721080D03*
X257647080Y-102341080D03*
X260187080Y-94721080D03*
X260187080Y-102341080D03*
X257647080Y-94721080D03*
X262727080Y-102341080D03*
X255107080Y-94721080D03*
X265267080Y-102341080D03*
X252567080Y-94721080D03*
X267807080Y-102341080D03*
X250027080Y-94721080D03*
D11*
X222027080Y-102341080D03*
D10*
X239807080Y-94721080D03*
X224567080Y-102341080D03*
X237267080Y-94721080D03*
X227107080Y-102341080D03*
X234727080Y-94721080D03*
X229647080Y-102341080D03*
X232187080Y-94721080D03*
X232187080Y-102341080D03*
X229647080Y-94721080D03*
X234727080Y-102341080D03*
X227107080Y-94721080D03*
X237267080Y-102341080D03*
X224567080Y-94721080D03*
X239807080Y-102341080D03*
X222027080Y-94721080D03*
D11*
X194027080Y-102341080D03*
D10*
X211807080Y-94721080D03*
X196567080Y-102341080D03*
X209267080Y-94721080D03*
X199107080Y-102341080D03*
X206727080Y-94721080D03*
X201647080Y-102341080D03*
X204187080Y-94721080D03*
X204187080Y-102341080D03*
X201647080Y-94721080D03*
X206727080Y-102341080D03*
X199107080Y-94721080D03*
X209267080Y-102341080D03*
X196567080Y-94721080D03*
X211807080Y-102341080D03*
X194027080Y-94721080D03*
D11*
X166027080Y-102341080D03*
D10*
X183807080Y-94721080D03*
X168567080Y-102341080D03*
X181267080Y-94721080D03*
X171107080Y-102341080D03*
X178727080Y-94721080D03*
X173647080Y-102341080D03*
X176187080Y-94721080D03*
X176187080Y-102341080D03*
X173647080Y-94721080D03*
X178727080Y-102341080D03*
X171107080Y-94721080D03*
X181267080Y-102341080D03*
X168567080Y-94721080D03*
X183807080Y-102341080D03*
X166027080Y-94721080D03*
X250027080Y-105221080D03*
X267807080Y-112841080D03*
X252567080Y-105221080D03*
X265267080Y-112841080D03*
X255107080Y-105221080D03*
X262727080Y-112841080D03*
X257647080Y-105221080D03*
X260187080Y-112841080D03*
X260187080Y-105221080D03*
X257647080Y-112841080D03*
X262727080Y-105221080D03*
X255107080Y-112841080D03*
X265267080Y-105221080D03*
X252567080Y-112841080D03*
X267807080Y-105221080D03*
D11*
X250027080Y-112841080D03*
D10*
X222027080Y-105221080D03*
X239807080Y-112841080D03*
X224567080Y-105221080D03*
X237267080Y-112841080D03*
X227107080Y-105221080D03*
X234727080Y-112841080D03*
X229647080Y-105221080D03*
X232187080Y-112841080D03*
X232187080Y-105221080D03*
X229647080Y-112841080D03*
X234727080Y-105221080D03*
X227107080Y-112841080D03*
X237267080Y-105221080D03*
X224567080Y-112841080D03*
X239807080Y-105221080D03*
D11*
X222027080Y-112841080D03*
D10*
X194027080Y-105221080D03*
X211807080Y-112841080D03*
X196567080Y-105221080D03*
X209267080Y-112841080D03*
X199107080Y-105221080D03*
X206727080Y-112841080D03*
X201647080Y-105221080D03*
X204187080Y-112841080D03*
X204187080Y-105221080D03*
X201647080Y-112841080D03*
X206727080Y-105221080D03*
X199107080Y-112841080D03*
X209267080Y-105221080D03*
X196567080Y-112841080D03*
X211807080Y-105221080D03*
D11*
X194027080Y-112841080D03*
X166027080Y-112841080D03*
D10*
X183807080Y-105221080D03*
X168567080Y-112841080D03*
X181267080Y-105221080D03*
X171107080Y-112841080D03*
X178727080Y-105221080D03*
X173647080Y-112841080D03*
X176187080Y-105221080D03*
X176187080Y-112841080D03*
X173647080Y-105221080D03*
X178727080Y-112841080D03*
X171107080Y-105221080D03*
X181267080Y-112841080D03*
X168567080Y-105221080D03*
X183807080Y-112841080D03*
X166027080Y-105221080D03*
D11*
X48519080Y-60269080D03*
D10*
X76459080Y-52649080D03*
X51059080Y-60269080D03*
X73919080Y-52649080D03*
X53599080Y-60269080D03*
X71379080Y-52649080D03*
X56139080Y-60269080D03*
X68839080Y-52649080D03*
X58679080Y-60269080D03*
X66299080Y-52649080D03*
X61219080Y-60269080D03*
X63759080Y-52649080D03*
X63759080Y-60269080D03*
X61219080Y-52649080D03*
X66299080Y-60269080D03*
X58679080Y-52649080D03*
X68839080Y-60269080D03*
X56139080Y-52649080D03*
X71379080Y-60269080D03*
X53599080Y-52649080D03*
X73919080Y-60269080D03*
X51059080Y-52649080D03*
X76459080Y-60269080D03*
X48519080Y-52649080D03*
D14*
X124727080Y-94891080D03*
D15*
X124727080Y-110131080D03*
D10*
X159527080Y-94841080D03*
D13*
X159527080Y-102341080D03*
X188777080Y-102341080D03*
D10*
X188777080Y-94841080D03*
D13*
X216777080Y-102341080D03*
D10*
X216777080Y-94841080D03*
D13*
X159527080Y-91841080D03*
D10*
X159527080Y-84341080D03*
X188777080Y-84341080D03*
D13*
X188777080Y-91841080D03*
X216777080Y-91841080D03*
D10*
X216777080Y-84341080D03*
X159527080Y-73841080D03*
D13*
X159527080Y-81341080D03*
X188777080Y-81341080D03*
D10*
X188777080Y-73841080D03*
X244777080Y-105341080D03*
D13*
X244777080Y-112841080D03*
D10*
X159527080Y-63341080D03*
D13*
X159527080Y-70841080D03*
X188777080Y-70841080D03*
D10*
X188777080Y-63341080D03*
X244777080Y-94841080D03*
D13*
X244777080Y-102341080D03*
X160777080Y-60341080D03*
D10*
X160777080Y-52841080D03*
X188777080Y-52841080D03*
D13*
X188777080Y-60341080D03*
X244777080Y-91841080D03*
D10*
X244777080Y-84341080D03*
X129545080Y-79693080D03*
D13*
X129545080Y-87193080D03*
X216777080Y-81341080D03*
D10*
X216777080Y-73841080D03*
D13*
X244777080Y-81341080D03*
D10*
X244777080Y-73841080D03*
X129545080Y-66993080D03*
D13*
X129545080Y-74493080D03*
X216777080Y-70841080D03*
D10*
X216777080Y-63341080D03*
X244777080Y-63341080D03*
D13*
X244777080Y-70841080D03*
X132777080Y-60341080D03*
D10*
X132777080Y-52841080D03*
X216777080Y-52841080D03*
D13*
X216777080Y-60341080D03*
X244777080Y-60341080D03*
D10*
X244777080Y-52841080D03*
X159527080Y-105341080D03*
D13*
X159527080Y-112841080D03*
X188777080Y-112841080D03*
D10*
X188777080Y-105341080D03*
X216777080Y-105341080D03*
D13*
X216777080Y-112841080D03*
D11*
X73467080Y-63541080D03*
D10*
X81087080Y-71161080D03*
X76007080Y-63541080D03*
X78547080Y-71161080D03*
X78547080Y-63541080D03*
X76007080Y-71161080D03*
X81087080Y-63541080D03*
X73467080Y-71161080D03*
D16*
X267807080Y-109321080D03*
X269847080Y-109301080D03*
X37817080Y-106281080D03*
X39937080Y-106281080D03*
X111107080Y-105011080D03*
X253817080Y-56621080D03*
X225767080Y-56531080D03*
X216747080Y-56501080D03*
X214247080Y-52801080D03*
X155722070Y-91826080D03*
X155722070Y-100626080D03*
X130657080Y-97901080D03*
X116827080Y-67801080D03*
X148277080Y-77251080D03*
X119287080Y-81911080D03*
X209247080Y-57801080D03*
X153222080Y-57651080D03*
X111767080Y-70231080D03*
X149497080Y-66901080D03*
X114317080Y-70241080D03*
X127177080Y-94741080D03*
X107687080Y-98081080D03*
X150772080Y-110101080D03*
X194022080Y-77526080D03*
X221954580Y-78868580D03*
X196597080Y-76276080D03*
X221997080Y-76326080D03*
X114287080Y-82581080D03*
X171122080Y-55351080D03*
X214297080Y-84376080D03*
X214272080Y-56501080D03*
X157407080Y-88001082D03*
X121907080Y-97951080D03*
X168597080Y-55351080D03*
X121897080Y-72381080D03*
X127057080Y-83391080D03*
X116817080Y-83461080D03*
X166047080Y-56501080D03*
X82237080Y-79761080D03*
X32217080Y-78731080D03*
X56352070Y-106981080D03*
X74237080Y-57726090D03*
X76737080Y-79231078D03*
X79967080Y-60351080D03*
X83147078Y-65641080D03*
X93697080Y-56666090D03*
X66417080Y-55861080D03*
X96267080Y-65661080D03*
X80917080Y-59191080D03*
X51117080Y-58021080D03*
X185622080Y-111276080D03*
X115407080Y-50231080D03*
X110577080Y-49511080D03*
X53317080Y-49771080D03*
X83307080Y-49851080D03*
X135647080Y-49701080D03*
X185522078Y-49701078D03*
X156077080Y-114011080D03*
X116817082Y-49191080D03*
X56127080Y-49046070D03*
X77237080Y-65571080D03*
X60057080Y-55361080D03*
X63947080Y-56211080D03*
X51927080Y-92821080D03*
X49757080Y-54301080D03*
X52637080Y-80451080D03*
X27509553Y-79986090D03*
X23947080Y-56101080D03*
X41257080Y-52671080D03*
X89857078Y-59081080D03*
X46127080Y-88721080D03*
X51067080Y-70811080D03*
X34267080Y-48511080D03*
X106697080Y-47731080D03*
X102737080Y-69211080D03*
X101177080Y-50416070D03*
X224567080Y-67741080D03*
X138067080Y-65446080D03*
X148227080Y-96251078D03*
X168547080Y-67176080D03*
X162797080Y-70851080D03*
X214322080Y-94276080D03*
X121327080Y-100351080D03*
X196747080Y-68401080D03*
X211747080Y-68401080D03*
X41187080Y-48271080D03*
X41217080Y-51191080D03*
X29947080Y-98281080D03*
X30387080Y-68391080D03*
X53517080Y-67591080D03*
X132147080Y-71431080D03*
X71027080Y-70981080D03*
X58677080Y-65491080D03*
X97547080Y-77741080D03*
X132717080Y-76921080D03*
X39787080Y-66651080D03*
X61257080Y-65011080D03*
X61219080Y-67849080D03*
X119237080Y-71831080D03*
X92617080Y-67861080D03*
X56699317Y-76446090D03*
X65023790Y-76446090D03*
X57347080Y-51336090D03*
X42837080Y-58811080D03*
X41197080Y-57031080D03*
X64747080Y-65771080D03*
X62367080Y-75696080D03*
X86117080Y-96371080D03*
X31127080Y-95331080D03*
X31647080Y-66401080D03*
X33437080Y-99221080D03*
X38027080Y-76921080D03*
X43587080Y-67661080D03*
X32937080Y-106061080D03*
X28337080Y-64591080D03*
X51367080Y-102281080D03*
X63247080Y-114041080D03*
X135627080Y-82971080D03*
X145687081Y-96221091D03*
X144322080Y-88826080D03*
X196572080Y-78876080D03*
X219147080Y-78801080D03*
X162872080Y-86776080D03*
X168647080Y-78826078D03*
X162822080Y-78876080D03*
X136797080Y-87961080D03*
X219147080Y-108801080D03*
X115507080Y-101041080D03*
X162897080Y-106891080D03*
X107937080Y-82751078D03*
X162747080Y-94401080D03*
X145672080Y-76676080D03*
X111657080Y-67961080D03*
X94947080Y-67941080D03*
X102787080Y-88211080D03*
X48617080Y-90071080D03*
X88367080Y-87701080D03*
X42347078Y-77601080D03*
X100257080Y-58261080D03*
X83257080Y-95071080D03*
X85237078Y-76371082D03*
X53647080Y-88401080D03*
X70717080Y-87631080D03*
X123087080Y-96121080D03*
X76077073Y-83921073D03*
X76077080Y-91741080D03*
X50717080Y-73211080D03*
X49247080Y-106581080D03*
X81787080Y-106211080D03*
X80562090Y-80181080D03*
X71517080Y-104631080D03*
X45397080Y-105881080D03*
X54787080Y-79721080D03*
X112857080Y-95671080D03*
X97467080Y-98161080D03*
X76107080Y-97901080D03*
X67587080Y-98641080D03*
X114037080Y-94521080D03*
X91117080Y-98651080D03*
X105217078Y-97351080D03*
X69677080Y-98666101D03*
X92587080Y-78671080D03*
X92517080Y-58351080D03*
X41067080Y-76791080D03*
X33770869Y-108279938D03*
X27367080Y-65331080D03*
X65077080Y-97941082D03*
X26377080Y-69681080D03*
X31807080Y-107421080D03*
X116627080Y-104991080D03*
X38557080Y-104361080D03*
X119447080Y-97751080D03*
X96267080Y-99111080D03*
X48497080Y-99136090D03*
X32687080Y-104401080D03*
X27427080Y-81261080D03*
X30707080Y-103761080D03*
X26687080Y-77781080D03*
X31020270Y-105444246D03*
X25987080Y-76781080D03*
X127957080Y-102381080D03*
X45977080Y-99136090D03*
X112907080Y-84741080D03*
X133417080Y-84701080D03*
X112697080Y-102001080D03*
X132987069Y-96841080D03*
X152527080Y-98271082D03*
X153272080Y-89376080D03*
X38342619Y-87096090D03*
X80477080Y-95981080D03*
X98797080Y-86181080D03*
X75877078Y-102171080D03*
X38747080Y-88191080D03*
X77997080Y-87771080D03*
X81057080Y-66301080D03*
X35447080Y-103631078D03*
X132187080Y-113341080D03*
X133247080Y-112561080D03*
X141847080Y-111471080D03*
X144072080Y-110601080D03*
X146947082Y-109746101D03*
X149477080Y-109296090D03*
X152047080Y-109026080D03*
X154687080Y-107766090D03*
X124057080Y-115441080D03*
X68867080Y-106936080D03*
X35957080Y-97686080D03*
X46587080Y-107311080D03*
X186622080Y-109751080D03*
X145697080Y-110976080D03*
X65147080Y-55831080D03*
X53267080Y-55401080D03*
X122637080Y-104871080D03*
X122667080Y-99221080D03*
X96087080Y-88301080D03*
X66277080Y-89211080D03*
X42507080Y-88106090D03*
X30997080Y-93301080D03*
X32977080Y-65441080D03*
D17*
X267807080Y-112841080D02*
X267807080Y-109321080D01*
D18*
X68331080Y-111831080D02*
X70871080Y-111831080D01*
X70871080Y-111831080D02*
X70871080Y-109291080D01*
X70871080Y-111831080D02*
X70871080Y-113355080D01*
X70871080Y-113355080D02*
X71897080Y-114381080D01*
X106667080Y-114381080D02*
X109267080Y-111781080D01*
X109267080Y-111781080D02*
X121727080Y-111781080D01*
X121727080Y-111781080D02*
X122367080Y-112421080D01*
X122367080Y-112421080D02*
X125857080Y-112421080D01*
X125857080Y-112421080D02*
X127047080Y-111231080D01*
X127047080Y-111231080D02*
X127047080Y-105091080D01*
X81031080Y-114355080D02*
X81057080Y-114381080D01*
X81031080Y-111831080D02*
X81031080Y-114355080D01*
X81057080Y-114381080D02*
X106667080Y-114381080D01*
X71897080Y-114381080D02*
X81057080Y-114381080D01*
X127167080Y-104971080D02*
X127047080Y-105091080D01*
X129837080Y-104971080D02*
X127167080Y-104971080D01*
X113987080Y-104961080D02*
X113987080Y-106611080D01*
X113987080Y-106611080D02*
X115607080Y-108231080D01*
X122507080Y-108231080D02*
X124407080Y-110131080D01*
X115607080Y-108231080D02*
X122507080Y-108231080D01*
X127047080Y-104451080D02*
X124727080Y-102131080D01*
X124727080Y-102131080D02*
X124727080Y-94891080D01*
X127047080Y-105091080D02*
X127047080Y-104451080D01*
D17*
X269827080Y-109321080D02*
X269847080Y-109301080D01*
X267807080Y-109321080D02*
X269827080Y-109321080D01*
D18*
X40391080Y-111831080D02*
X37851080Y-111831080D01*
X37851080Y-111831080D02*
X37851080Y-109291080D01*
X37851080Y-106315080D02*
X37817080Y-106281080D01*
X37851080Y-109291080D02*
X37851080Y-106315080D01*
X37817080Y-106281080D02*
X39937080Y-106281080D01*
X101351080Y-109291080D02*
X101351080Y-111831080D01*
D17*
X251442079Y-104096079D02*
X251442079Y-98486079D01*
X252567080Y-105221080D02*
X251442079Y-104096079D01*
X252567080Y-97361078D02*
X252567080Y-94721080D01*
X251442079Y-98486079D02*
X252567080Y-97361078D01*
X251442079Y-93596079D02*
X251442079Y-88066081D01*
X252567080Y-94721080D02*
X251442079Y-93596079D01*
X252567080Y-86941080D02*
X252567080Y-84221080D01*
X251442079Y-88066081D02*
X252567080Y-86941080D01*
X251442079Y-83096079D02*
X251442079Y-77726081D01*
X252567080Y-84221080D02*
X251442079Y-83096079D01*
X252567080Y-76601080D02*
X252567080Y-73721080D01*
X251442079Y-77726081D02*
X252567080Y-76601080D01*
X251442079Y-72596079D02*
X251442079Y-66836081D01*
X252567080Y-73721080D02*
X251442079Y-72596079D01*
X252567080Y-65711080D02*
X252567080Y-63221080D01*
X251442079Y-66836081D02*
X252567080Y-65711080D01*
X251442079Y-62096079D02*
X251442079Y-56356079D01*
X252567080Y-63221080D02*
X251442079Y-62096079D01*
X252567080Y-55231078D02*
X252567080Y-52721080D01*
X251442079Y-56356079D02*
X252567080Y-55231078D01*
X223442079Y-104096079D02*
X223442079Y-98496079D01*
X224567080Y-105221080D02*
X223442079Y-104096079D01*
X223442079Y-98496079D02*
X224497078Y-97441080D01*
X224497078Y-94791082D02*
X224567080Y-94721080D01*
X224497078Y-97441080D02*
X224497078Y-94791082D01*
X223442079Y-93596079D02*
X223442079Y-88146079D01*
X224567080Y-94721080D02*
X223442079Y-93596079D01*
X224567080Y-87021078D02*
X224567080Y-84221080D01*
X223442079Y-88146079D02*
X224567080Y-87021078D01*
X111067080Y-104971080D02*
X111107080Y-105011080D01*
X111067080Y-93641080D02*
X111067080Y-104971080D01*
X110437080Y-93011080D02*
X111067080Y-93641080D01*
X110437080Y-88421080D02*
X110437080Y-93011080D01*
X109217080Y-87201080D02*
X110437080Y-88421080D01*
X252567080Y-57851080D02*
X252567080Y-60341080D01*
X253817080Y-56621080D02*
X252567080Y-57851080D01*
X255117080Y-55171080D02*
X255107080Y-52721080D01*
X253817080Y-56621080D02*
X255117080Y-55171080D01*
X224567080Y-60341080D02*
X224567080Y-57731080D01*
X227107080Y-55191080D02*
X227107080Y-52721080D01*
X224567080Y-57731080D02*
X225767080Y-56531080D01*
X225767080Y-56531080D02*
X227107080Y-55191080D01*
X216747080Y-56501080D02*
X216747080Y-55301080D01*
X216747080Y-55301080D02*
X216447080Y-55001080D01*
X216447080Y-55001080D02*
X215247080Y-55001080D01*
X215247080Y-55001080D02*
X214247080Y-54001080D01*
X214247080Y-54001080D02*
X214247080Y-52801080D01*
X140567080Y-60341080D02*
X143032080Y-57876080D01*
X143032080Y-52796080D02*
X143107080Y-52721080D01*
X143032080Y-57876080D02*
X143032080Y-52796080D01*
X157177080Y-61401080D02*
X155722070Y-62856090D01*
X155722070Y-62856090D02*
X155722070Y-91826080D01*
X144952080Y-50876080D02*
X156347080Y-50876080D01*
X155722070Y-92533186D02*
X155722070Y-100626080D01*
X143107080Y-52721080D02*
X144952080Y-50876080D01*
X155722070Y-91826080D02*
X155722070Y-92533186D01*
X157177080Y-51706080D02*
X157177080Y-61401080D01*
X156347080Y-50876080D02*
X157177080Y-51706080D01*
X129517080Y-90491080D02*
X131697080Y-92671080D01*
X131697080Y-96861080D02*
X130657080Y-97901080D01*
X131697080Y-92671080D02*
X131697080Y-96861080D01*
X257647080Y-105221080D02*
X257647080Y-104181080D01*
X257647080Y-104181080D02*
X256377080Y-102911080D01*
X256377080Y-102911080D02*
X256377080Y-98521080D01*
X257647080Y-97251080D02*
X257647080Y-94721080D01*
X256377080Y-98521080D02*
X257647080Y-97251080D01*
X257647080Y-94721080D02*
X257647080Y-93671080D01*
X257647080Y-93671080D02*
X256397080Y-92421080D01*
X256397080Y-92421080D02*
X256397080Y-88151080D01*
X257647080Y-86901080D02*
X257647080Y-84221080D01*
X256397080Y-88151080D02*
X257647080Y-86901080D01*
X257647080Y-84221080D02*
X257647080Y-83211080D01*
X257647080Y-83211080D02*
X256387080Y-81951080D01*
X256387080Y-81951080D02*
X256387080Y-77861080D01*
X257647080Y-76601080D02*
X257647080Y-73721080D01*
X256387080Y-77861080D02*
X257647080Y-76601080D01*
X257647080Y-73721080D02*
X257647080Y-72744670D01*
X257647080Y-72744670D02*
X256367080Y-71464670D01*
X256367080Y-71464670D02*
X256367080Y-66921080D01*
X257647080Y-65641080D02*
X257647080Y-63221080D01*
X256367080Y-66921080D02*
X257647080Y-65641080D01*
X257647080Y-63221080D02*
X257647080Y-62244670D01*
X257647080Y-62244670D02*
X256387080Y-60984670D01*
X256387080Y-60984670D02*
X256387080Y-56401080D01*
X257647080Y-55141080D02*
X257647080Y-52721080D01*
X256387080Y-56401080D02*
X257647080Y-55141080D01*
X229647080Y-105221080D02*
X229647080Y-104244670D01*
X229647080Y-104244670D02*
X228397080Y-102994670D01*
X228397080Y-102994670D02*
X228397080Y-99041080D01*
X229647080Y-97791080D02*
X229647080Y-94721080D01*
X228397080Y-99041080D02*
X229647080Y-97791080D01*
X229647080Y-94721080D02*
X229647080Y-93744670D01*
X229647080Y-93744670D02*
X228407080Y-92504670D01*
X228407080Y-92504670D02*
X228407080Y-88351080D01*
X229647080Y-87111080D02*
X229647080Y-84221080D01*
X228407080Y-88351080D02*
X229647080Y-87111080D01*
X229647080Y-84221080D02*
X229647080Y-83281080D01*
X229647080Y-83281080D02*
X228367080Y-82001080D01*
X228367080Y-81461080D02*
X228357080Y-81451080D01*
X228367080Y-82001080D02*
X228367080Y-81461080D01*
X228357080Y-81451080D02*
X228357080Y-77671080D01*
X229647080Y-76381080D02*
X229647080Y-73721080D01*
X228357080Y-77671080D02*
X229647080Y-76381080D01*
X229647080Y-73721080D02*
X229647080Y-72744670D01*
X229647080Y-72744670D02*
X228397080Y-71494670D01*
X228397080Y-71494670D02*
X228397080Y-66891080D01*
X229647080Y-65641080D02*
X229647080Y-63221080D01*
X228397080Y-66891080D02*
X229647080Y-65641080D01*
X229647080Y-63221080D02*
X229647080Y-62244670D01*
X229647080Y-62244670D02*
X228377080Y-60974670D01*
X228377080Y-60974670D02*
X228377080Y-56281080D01*
X229647080Y-55011080D02*
X229647080Y-52721080D01*
X228377080Y-56281080D02*
X229647080Y-55011080D01*
X201647080Y-105221080D02*
X201647080Y-104244670D01*
X201647080Y-104244670D02*
X200387080Y-102984670D01*
X200387080Y-102984670D02*
X200387080Y-99191080D01*
X201647080Y-97931080D02*
X201647080Y-94721080D01*
X200387080Y-99191080D02*
X201647080Y-97931080D01*
X201647080Y-94721080D02*
X201647080Y-93744670D01*
X201647080Y-93744670D02*
X200372080Y-92469670D01*
X200372080Y-92469670D02*
X200372080Y-88426080D01*
X201647080Y-87151080D02*
X201647080Y-84221080D01*
X200372080Y-88426080D02*
X201647080Y-87151080D01*
X201647080Y-84221080D02*
X201647080Y-83244670D01*
X201647080Y-83244670D02*
X200372080Y-81969670D01*
X200372080Y-81969670D02*
X200372080Y-77776080D01*
X201647080Y-76501080D02*
X201647080Y-73721080D01*
X200372080Y-77776080D02*
X201647080Y-76501080D01*
X201647080Y-73721080D02*
X201647080Y-72744670D01*
X201647080Y-72744670D02*
X200397080Y-71494670D01*
X200397080Y-71494670D02*
X200397080Y-66951080D01*
X201647080Y-65701080D02*
X201647080Y-63221080D01*
X200397080Y-66951080D02*
X201647080Y-65701080D01*
X201647080Y-63221080D02*
X201647080Y-62244670D01*
X201647080Y-62244670D02*
X200322080Y-60919670D01*
X200322080Y-60919670D02*
X200322080Y-56451080D01*
X201647080Y-55126080D02*
X201647080Y-52721080D01*
X200322080Y-56451080D02*
X201647080Y-55126080D01*
X173647080Y-105221080D02*
X173647080Y-104244670D01*
X173647080Y-104244670D02*
X172347080Y-102944670D01*
X172347080Y-102944670D02*
X172347080Y-99051080D01*
X173647080Y-97751080D02*
X173647080Y-94721080D01*
X172347080Y-99051080D02*
X173647080Y-97751080D01*
X173647080Y-94721080D02*
X173647080Y-93744670D01*
X173647080Y-93744670D02*
X172347080Y-92444670D01*
X172347080Y-92444670D02*
X172347080Y-88501080D01*
X173647080Y-87201080D02*
X173647080Y-84221080D01*
X172347080Y-88501080D02*
X173647080Y-87201080D01*
X173647080Y-84221080D02*
X173647080Y-83244670D01*
X173647080Y-83244670D02*
X172372080Y-81969670D01*
X172372080Y-81969670D02*
X172372080Y-77901080D01*
X173647080Y-76626080D02*
X173647080Y-73721080D01*
X172372080Y-77901080D02*
X173647080Y-76626080D01*
X173647080Y-73721080D02*
X173647080Y-72744670D01*
X173647080Y-72744670D02*
X172322080Y-71419670D01*
X172322080Y-71419670D02*
X172322080Y-67251080D01*
X173647080Y-65926080D02*
X173647080Y-63221080D01*
X172322080Y-67251080D02*
X173647080Y-65926080D01*
X173647080Y-63221080D02*
X173647080Y-62244670D01*
X173647080Y-62244670D02*
X172347080Y-60944670D01*
X172347080Y-60944670D02*
X172347080Y-56526080D01*
X173647080Y-55226080D02*
X173647080Y-52721080D01*
X172347080Y-56526080D02*
X173647080Y-55226080D01*
X143147080Y-63210400D02*
X144347080Y-62010400D01*
X144347080Y-62010400D02*
X144347080Y-56501080D01*
X145647080Y-55201080D02*
X145647080Y-52721080D01*
X144347080Y-56501080D02*
X145647080Y-55201080D01*
X143147080Y-73721080D02*
X141872080Y-72446080D01*
X141872080Y-72446080D02*
X141872080Y-67201080D01*
X143147080Y-65926080D02*
X143147080Y-63210400D01*
X141872080Y-67201080D02*
X143147080Y-65926080D01*
X260187080Y-105221080D02*
X260187080Y-104161080D01*
X260187080Y-104161080D02*
X258927080Y-102901080D01*
X258927080Y-102901080D02*
X258927080Y-98461080D01*
X260187080Y-97201080D02*
X260187080Y-94721080D01*
X258927080Y-98461080D02*
X260187080Y-97201080D01*
X260187080Y-94721080D02*
X258897080Y-93431080D01*
X258897080Y-93431080D02*
X258897080Y-88151080D01*
X260187080Y-86861080D02*
X260187080Y-84221080D01*
X258897080Y-88151080D02*
X260187080Y-86861080D01*
X260187080Y-84221080D02*
X260187080Y-83231080D01*
X260187080Y-83231080D02*
X258927080Y-81971080D01*
X258927080Y-81971080D02*
X258927080Y-77811080D01*
X260187080Y-76551080D02*
X260187080Y-73721080D01*
X258927080Y-77811080D02*
X260187080Y-76551080D01*
X260187080Y-73721080D02*
X260187080Y-72744670D01*
X260187080Y-72744670D02*
X258937080Y-71494670D01*
X258937080Y-71494670D02*
X258937080Y-66931080D01*
X260187080Y-65681080D02*
X260187080Y-63221080D01*
X258937080Y-66931080D02*
X260187080Y-65681080D01*
X260187080Y-63221080D02*
X260187080Y-62244670D01*
X260187080Y-62244670D02*
X258917080Y-60974670D01*
X258917080Y-60974670D02*
X258917080Y-56381080D01*
X260187080Y-55111080D02*
X260187080Y-52721080D01*
X258917080Y-56381080D02*
X260187080Y-55111080D01*
X232187080Y-105221080D02*
X232187080Y-104244670D01*
X232187080Y-104244670D02*
X230937080Y-102994670D01*
X230937080Y-102994670D02*
X230937080Y-99061080D01*
X232187080Y-97811080D02*
X232187080Y-94721080D01*
X230937080Y-99061080D02*
X232187080Y-97811080D01*
X232187080Y-94721080D02*
X232187080Y-93744670D01*
X232187080Y-93744670D02*
X230897080Y-92454670D01*
X230897080Y-92454670D02*
X230897080Y-88341080D01*
X232187080Y-87051080D02*
X232187080Y-84221080D01*
X230897080Y-88341080D02*
X232187080Y-87051080D01*
X232187080Y-84221080D02*
X232167080Y-84201080D01*
X232167080Y-84201080D02*
X232167080Y-83291080D01*
X232167080Y-83291080D02*
X230907080Y-82031080D01*
X230907080Y-82031080D02*
X230907080Y-77691080D01*
X232187080Y-76411080D02*
X232187080Y-73721080D01*
X230907080Y-77691080D02*
X232187080Y-76411080D01*
X232187080Y-73721080D02*
X232187080Y-72744670D01*
X232187080Y-72744670D02*
X230907080Y-71464670D01*
X230907080Y-71464670D02*
X230907080Y-66951080D01*
X232187080Y-65671080D02*
X232187080Y-63221080D01*
X230907080Y-66951080D02*
X232187080Y-65671080D01*
X232187080Y-63221080D02*
X232187080Y-62244670D01*
X232187080Y-62244670D02*
X230917080Y-60974670D01*
X230917080Y-60974670D02*
X230917080Y-56311080D01*
X232187080Y-55041080D02*
X232187080Y-52721080D01*
X230917080Y-56311080D02*
X232187080Y-55041080D01*
X204187080Y-105221080D02*
X204187080Y-104244670D01*
X204187080Y-104244670D02*
X202937080Y-102994670D01*
X202937080Y-102994670D02*
X202937080Y-99021080D01*
X204187080Y-97771080D02*
X204187080Y-94721080D01*
X202937080Y-99021080D02*
X204187080Y-97771080D01*
X204187080Y-94721080D02*
X204187080Y-93744670D01*
X204187080Y-93744670D02*
X202917080Y-92474670D01*
X202917080Y-92474670D02*
X202917080Y-88341080D01*
X204187080Y-87071080D02*
X204187080Y-84221080D01*
X202917080Y-88341080D02*
X204187080Y-87071080D01*
X204187080Y-84221080D02*
X204187080Y-83244670D01*
X204187080Y-83244670D02*
X202872080Y-81929670D01*
X202872080Y-81929670D02*
X202872080Y-77851080D01*
X204187080Y-76536080D02*
X204187080Y-73721080D01*
X202872080Y-77851080D02*
X204187080Y-76536080D01*
X204187080Y-73721080D02*
X204187080Y-72744670D01*
X204187080Y-72744670D02*
X202897080Y-71454670D01*
X202897080Y-71454670D02*
X202897080Y-66951080D01*
X204187080Y-65661080D02*
X204187080Y-63221080D01*
X202897080Y-66951080D02*
X204187080Y-65661080D01*
X204187080Y-63221080D02*
X204187080Y-62244670D01*
X204187080Y-62244670D02*
X202897080Y-60954670D01*
X202897080Y-60954670D02*
X202897080Y-56401080D01*
X204187080Y-55111080D02*
X204187080Y-52721080D01*
X202897080Y-56401080D02*
X204187080Y-55111080D01*
X176187080Y-105221080D02*
X176187080Y-104244670D01*
X176187080Y-104244670D02*
X174897080Y-102954670D01*
X174897080Y-102954670D02*
X174897080Y-99026080D01*
X176187080Y-97736080D02*
X176187080Y-94721080D01*
X174897080Y-99026080D02*
X176187080Y-97736080D01*
X176187080Y-94721080D02*
X176187080Y-93744670D01*
X176187080Y-93744670D02*
X174897080Y-92454670D01*
X174897080Y-92454670D02*
X174897080Y-88476080D01*
X176187080Y-87186080D02*
X176187080Y-84221080D01*
X174897080Y-88476080D02*
X176187080Y-87186080D01*
X176187080Y-84221080D02*
X176187080Y-83244670D01*
X176187080Y-83244670D02*
X174897080Y-81954670D01*
X174897080Y-81954670D02*
X174897080Y-77876080D01*
X176187080Y-76586080D02*
X176187080Y-73721080D01*
X174897080Y-77876080D02*
X176187080Y-76586080D01*
X176187080Y-73721080D02*
X176187080Y-72744670D01*
X176187080Y-72744670D02*
X174897080Y-71454670D01*
X174897080Y-71454670D02*
X174897080Y-67151080D01*
X176187080Y-65861080D02*
X176187080Y-63221080D01*
X174897080Y-67151080D02*
X176187080Y-65861080D01*
X176187080Y-63221080D02*
X176187080Y-62244670D01*
X176187080Y-62244670D02*
X174897080Y-60954670D01*
X174897080Y-60954670D02*
X174897080Y-56501080D01*
X176187080Y-55211080D02*
X176187080Y-52721080D01*
X174897080Y-56501080D02*
X176187080Y-55211080D01*
X145687080Y-63210400D02*
X146872080Y-62025400D01*
X146872080Y-62025400D02*
X146872080Y-56526080D01*
X148187080Y-55211080D02*
X148187080Y-52721080D01*
X146872080Y-56526080D02*
X148187080Y-55211080D01*
X145687080Y-73721080D02*
X144372080Y-72406080D01*
X144372080Y-72406080D02*
X144372080Y-67301080D01*
X145687080Y-65986080D02*
X145687080Y-63210400D01*
X144372080Y-67301080D02*
X145687080Y-65986080D01*
X116845080Y-74493080D02*
X116845080Y-67819080D01*
X116845080Y-67819080D02*
X116827080Y-67801080D01*
X262727080Y-94721080D02*
X261467080Y-93461080D01*
X261467080Y-93461080D02*
X261467080Y-88141080D01*
X262727080Y-86881080D02*
X262727080Y-84221080D01*
X261467080Y-88141080D02*
X262727080Y-86881080D01*
X262707080Y-97501080D02*
X262727080Y-94721080D01*
X261467080Y-98691080D02*
X262707080Y-97501080D01*
X261467080Y-102891080D02*
X261467080Y-98691080D01*
X262727080Y-104151080D02*
X261467080Y-102891080D01*
X262727080Y-105221080D02*
X262727080Y-104151080D01*
X262727080Y-84221080D02*
X262727080Y-83201080D01*
X262727080Y-83201080D02*
X261477080Y-81951080D01*
X261477080Y-81951080D02*
X261477080Y-77731080D01*
X262727080Y-76481080D02*
X262727080Y-73721080D01*
X261477080Y-77731080D02*
X262727080Y-76481080D01*
X262727080Y-73721080D02*
X262727080Y-72701080D01*
X262727080Y-72701080D02*
X261447080Y-71421080D01*
X261447080Y-71421080D02*
X261447080Y-66931080D01*
X262727080Y-65651080D02*
X262727080Y-63221080D01*
X261447080Y-66931080D02*
X262727080Y-65651080D01*
X262727080Y-63221080D02*
X262727080Y-62244670D01*
X262727080Y-62244670D02*
X261477080Y-60994670D01*
X261477080Y-60994670D02*
X261477080Y-56311080D01*
X262727080Y-55061080D02*
X262727080Y-52721080D01*
X261477080Y-56311080D02*
X262727080Y-55061080D01*
X234727080Y-105221080D02*
X234727080Y-104244670D01*
X234727080Y-104244670D02*
X233477080Y-102994670D01*
X233477080Y-102994670D02*
X233477080Y-99001080D01*
X234727080Y-97751080D02*
X234727080Y-94721080D01*
X233477080Y-99001080D02*
X234727080Y-97751080D01*
X234727080Y-94721080D02*
X234727080Y-93744670D01*
X234727080Y-93744670D02*
X233467080Y-92484670D01*
X233467080Y-92484670D02*
X233467080Y-88131080D01*
X234727080Y-86871080D02*
X234727080Y-84221080D01*
X233467080Y-88131080D02*
X234727080Y-86871080D01*
X234727080Y-84221080D02*
X234727080Y-83244670D01*
X234727080Y-83244670D02*
X233417080Y-81934670D01*
X233417080Y-81934670D02*
X233417080Y-77711080D01*
X234727080Y-76401080D02*
X234727080Y-73721080D01*
X233417080Y-77711080D02*
X234727080Y-76401080D01*
X234727080Y-73721080D02*
X234727080Y-72744670D01*
X234727080Y-72744670D02*
X233447080Y-71464670D01*
X233447080Y-71464670D02*
X233447080Y-66901080D01*
X234727080Y-65621080D02*
X234727080Y-63221080D01*
X233447080Y-66901080D02*
X234727080Y-65621080D01*
X234727080Y-63221080D02*
X234727080Y-62244670D01*
X234727080Y-62244670D02*
X233457080Y-60974670D01*
X233457080Y-60974670D02*
X233457080Y-56301080D01*
X234727080Y-55031080D02*
X234727080Y-52721080D01*
X233457080Y-56301080D02*
X234727080Y-55031080D01*
X206727080Y-105221080D02*
X206727080Y-104244670D01*
X206727080Y-104244670D02*
X205447080Y-102964670D01*
X205447080Y-102964670D02*
X205447080Y-99011080D01*
X206727080Y-97731080D02*
X206727080Y-94721080D01*
X205447080Y-99011080D02*
X206727080Y-97731080D01*
X206727080Y-94721080D02*
X206727080Y-93744670D01*
X206727080Y-93744670D02*
X205477080Y-92494670D01*
X205477080Y-92494670D02*
X205477080Y-88361080D01*
X206727080Y-87111080D02*
X206727080Y-84221080D01*
X205477080Y-88361080D02*
X206727080Y-87111080D01*
X206727080Y-84221080D02*
X206727080Y-83244670D01*
X206727080Y-83244670D02*
X205447080Y-81964670D01*
X205447080Y-81964670D02*
X205447080Y-77801080D01*
X206727080Y-76521080D02*
X206727080Y-73721080D01*
X205447080Y-77801080D02*
X206727080Y-76521080D01*
X206727080Y-73721080D02*
X206727080Y-72744670D01*
X206727080Y-72744670D02*
X205422080Y-71439670D01*
X205422080Y-71439670D02*
X205422080Y-66951080D01*
X206727080Y-65646080D02*
X206727080Y-63221080D01*
X205422080Y-66951080D02*
X206727080Y-65646080D01*
X206727080Y-63221080D02*
X206727080Y-62244670D01*
X206727080Y-62244670D02*
X205422080Y-60939670D01*
X205422080Y-60939670D02*
X205422080Y-56401080D01*
X206727080Y-55096080D02*
X206727080Y-52721080D01*
X205422080Y-56401080D02*
X206727080Y-55096080D01*
X178727080Y-105221080D02*
X178727080Y-104244670D01*
X178727080Y-104244670D02*
X177447080Y-102964670D01*
X177447080Y-102964670D02*
X177447080Y-99001080D01*
X178727080Y-97721080D02*
X178727080Y-94721080D01*
X177447080Y-99001080D02*
X178727080Y-97721080D01*
X178727080Y-94721080D02*
X178727080Y-93744670D01*
X178727080Y-93744670D02*
X177422080Y-92439670D01*
X177422080Y-92439670D02*
X177422080Y-88476080D01*
X178727080Y-87171080D02*
X178727080Y-84221080D01*
X177422080Y-88476080D02*
X178727080Y-87171080D01*
X178727080Y-84221080D02*
X178727080Y-83244670D01*
X178727080Y-83244670D02*
X177447080Y-81964670D01*
X177447080Y-81964670D02*
X177447080Y-77801080D01*
X178727080Y-76521080D02*
X178727080Y-73721080D01*
X177447080Y-77801080D02*
X178727080Y-76521080D01*
X178727080Y-73721080D02*
X178727080Y-72731080D01*
X178727080Y-72731080D02*
X177422080Y-71426080D01*
X177422080Y-71426080D02*
X177422080Y-67176080D01*
X178727080Y-65871080D02*
X178727080Y-63221080D01*
X177422080Y-67176080D02*
X178727080Y-65871080D01*
X178727080Y-63221080D02*
X178727080Y-62244670D01*
X178727080Y-62244670D02*
X177422080Y-60939670D01*
X177422080Y-60939670D02*
X177422080Y-56501080D01*
X178727080Y-55196080D02*
X178727080Y-52721080D01*
X177422080Y-56501080D02*
X178727080Y-55196080D01*
X148227080Y-63210400D02*
X149447080Y-61990400D01*
X149447080Y-61990400D02*
X149447080Y-56476080D01*
X150727080Y-55196080D02*
X150727080Y-52721080D01*
X149447080Y-56476080D02*
X150727080Y-55196080D01*
X148227080Y-73721080D02*
X146947080Y-72441080D01*
X146947080Y-72441080D02*
X146947080Y-67376080D01*
X148227080Y-66096080D02*
X148227080Y-63210400D01*
X146947080Y-67376080D02*
X148227080Y-66096080D01*
X148227080Y-77201080D02*
X148277080Y-77251080D01*
X148227080Y-73721080D02*
X148227080Y-77201080D01*
X118087080Y-80711080D02*
X119287080Y-81911080D01*
X119385080Y-74493080D02*
X119385080Y-74643080D01*
X119385080Y-74643080D02*
X118087080Y-75941080D01*
X118087080Y-75941080D02*
X118087080Y-80711080D01*
X265267080Y-94721080D02*
X265267080Y-93731080D01*
X265267080Y-93731080D02*
X264067080Y-92531080D01*
X264067080Y-92531080D02*
X264067080Y-88081080D01*
X265267080Y-86881080D02*
X265267080Y-84221080D01*
X264067080Y-88081080D02*
X265267080Y-86881080D01*
X265277080Y-97541080D02*
X265267080Y-94721080D01*
X264017080Y-98851080D02*
X265277080Y-97541080D01*
X263997080Y-102841080D02*
X264017080Y-98851080D01*
X265267080Y-104111080D02*
X263997080Y-102841080D01*
X265267080Y-105221080D02*
X265267080Y-104111080D01*
X265267080Y-84221080D02*
X265267080Y-83161080D01*
X265267080Y-83161080D02*
X264017080Y-81911080D01*
X264017080Y-81911080D02*
X264017080Y-77691080D01*
X265267080Y-76441080D02*
X265267080Y-73721080D01*
X264017080Y-77691080D02*
X265267080Y-76441080D01*
X265267080Y-73721080D02*
X265267080Y-72744670D01*
X265267080Y-72744670D02*
X264007080Y-71484670D01*
X264007080Y-71484670D02*
X264007080Y-66881080D01*
X265267080Y-65621080D02*
X265267080Y-63221080D01*
X264007080Y-66881080D02*
X265267080Y-65621080D01*
X265267080Y-63221080D02*
X265267080Y-62244670D01*
X265267080Y-62244670D02*
X263977080Y-60954670D01*
X263977080Y-60954670D02*
X263977080Y-56291080D01*
X265267080Y-55001080D02*
X265267080Y-52721080D01*
X263977080Y-56291080D02*
X265267080Y-55001080D01*
X237267080Y-105221080D02*
X237267080Y-104244670D01*
X237267080Y-104244670D02*
X236007080Y-102984670D01*
X236007080Y-102984670D02*
X236007080Y-98961080D01*
X237267080Y-97701080D02*
X237267080Y-94721080D01*
X236007080Y-98961080D02*
X237267080Y-97701080D01*
X237267080Y-94721080D02*
X237267080Y-93744670D01*
X237267080Y-93744670D02*
X235997080Y-92474670D01*
X235997080Y-92474670D02*
X235997080Y-88361080D01*
X237267080Y-87091080D02*
X237267080Y-84221080D01*
X235997080Y-88361080D02*
X237267080Y-87091080D01*
X237267080Y-84221080D02*
X237267080Y-83244670D01*
X237267080Y-83244670D02*
X236007080Y-81984670D01*
X236007080Y-81984670D02*
X236007080Y-77611080D01*
X237267080Y-76351080D02*
X237267080Y-73721080D01*
X236007080Y-77611080D02*
X237267080Y-76351080D01*
X237267080Y-73721080D02*
X237267080Y-72744670D01*
X237267080Y-72744670D02*
X236007080Y-71484670D01*
X236007080Y-71484670D02*
X236007080Y-66851080D01*
X237267080Y-65591080D02*
X237267080Y-63221080D01*
X236007080Y-66851080D02*
X237267080Y-65591080D01*
X237267080Y-63221080D02*
X237267080Y-62244670D01*
X237267080Y-62244670D02*
X235997080Y-60974670D01*
X235997080Y-60974670D02*
X235997080Y-56321080D01*
X237267080Y-55051080D02*
X237267080Y-52721080D01*
X235997080Y-56321080D02*
X237267080Y-55051080D01*
X209267080Y-105221080D02*
X209267080Y-104244670D01*
X209267080Y-104244670D02*
X208027080Y-103004670D01*
X208027080Y-103004670D02*
X208027080Y-98961080D01*
X209267080Y-97721080D02*
X209267080Y-94721080D01*
X208027080Y-98961080D02*
X209267080Y-97721080D01*
X209267080Y-94721080D02*
X209267080Y-93744670D01*
X209267080Y-93744670D02*
X207997080Y-92474670D01*
X207997080Y-92474670D02*
X207997080Y-88421080D01*
X209267080Y-87151080D02*
X209267080Y-84221080D01*
X207997080Y-88421080D02*
X209267080Y-87151080D01*
X209267080Y-84221080D02*
X209267080Y-83244670D01*
X209267080Y-83244670D02*
X207997080Y-81974670D01*
X207997080Y-81974670D02*
X207997080Y-77826080D01*
X209267080Y-76556080D02*
X209267080Y-73721080D01*
X207997080Y-77826080D02*
X209267080Y-76556080D01*
X209267080Y-73721080D02*
X209267080Y-72744670D01*
X209267080Y-72744670D02*
X207972080Y-71449670D01*
X207972080Y-71449670D02*
X207972080Y-66951080D01*
X209267080Y-65656080D02*
X209267080Y-63221080D01*
X207972080Y-66951080D02*
X209267080Y-65656080D01*
X209267080Y-63221080D02*
X209267080Y-62244670D01*
X209267080Y-62244670D02*
X207997080Y-60974670D01*
X207997080Y-60974670D02*
X207997080Y-56376080D01*
X209267080Y-55106080D02*
X209267080Y-52721080D01*
X207997080Y-56376080D02*
X209267080Y-55106080D01*
X181267080Y-105221080D02*
X181267080Y-104244670D01*
X181267080Y-104244670D02*
X179947080Y-102924670D01*
X179947080Y-102924670D02*
X179947080Y-98976080D01*
X181267080Y-97656080D02*
X181267080Y-94721080D01*
X179947080Y-98976080D02*
X181267080Y-97656080D01*
X181267080Y-94721080D02*
X181267080Y-93744670D01*
X181267080Y-93744670D02*
X179972080Y-92449670D01*
X179972080Y-92449670D02*
X179972080Y-88451080D01*
X181267080Y-87156080D02*
X181267080Y-84221080D01*
X179972080Y-88451080D02*
X181267080Y-87156080D01*
X181267080Y-84221080D02*
X181267080Y-83244670D01*
X181267080Y-83244670D02*
X179972080Y-81949670D01*
X179972080Y-81949670D02*
X179972080Y-77751080D01*
X181267080Y-76456080D02*
X181267080Y-73721080D01*
X179972080Y-77751080D02*
X181267080Y-76456080D01*
X181267080Y-73721080D02*
X181267080Y-72744670D01*
X181267080Y-72744670D02*
X179947080Y-71424670D01*
X179947080Y-71424670D02*
X179947080Y-67126080D01*
X181267080Y-65806080D02*
X181267080Y-63221080D01*
X179947080Y-67126080D02*
X181267080Y-65806080D01*
X181267080Y-63221080D02*
X181267080Y-62244670D01*
X181267080Y-62244670D02*
X179972080Y-60949670D01*
X179972080Y-60949670D02*
X179972080Y-56501080D01*
X181267080Y-55206080D02*
X181267080Y-52721080D01*
X179972080Y-56501080D02*
X181267080Y-55206080D01*
X150767080Y-63210400D02*
X151997080Y-61980400D01*
X151997080Y-61980400D02*
X151997080Y-56501080D01*
X153267080Y-55231080D02*
X153267080Y-52721080D01*
X151997080Y-56501080D02*
X153267080Y-55231080D01*
X150767080Y-73721080D02*
X149472080Y-72426080D01*
X149472080Y-72426080D02*
X149472080Y-69576080D01*
X150767080Y-68281080D02*
X150767080Y-63210400D01*
X149472080Y-69576080D02*
X150767080Y-68281080D01*
X267807080Y-84221080D02*
X267807080Y-83111080D01*
X267807080Y-83111080D02*
X266557080Y-81861080D01*
X266557080Y-81861080D02*
X266557080Y-77691080D01*
X267807080Y-76441080D02*
X267807080Y-73721080D01*
X266557080Y-77691080D02*
X267807080Y-76441080D01*
X267807080Y-105221080D02*
X267807080Y-104161080D01*
X267807080Y-104161080D02*
X266557080Y-102911080D01*
X266557080Y-102911080D02*
X266557080Y-98851080D01*
X267807080Y-97601080D02*
X267807080Y-94721080D01*
X266557080Y-98851080D02*
X267807080Y-97601080D01*
X267807080Y-94721080D02*
X267807080Y-93671080D01*
X266682079Y-92546079D02*
X266682079Y-88316081D01*
X267807080Y-93671080D02*
X266682079Y-92546079D01*
X267807080Y-87191080D02*
X267807080Y-84221080D01*
X266682079Y-88316081D02*
X267807080Y-87191080D01*
X267807080Y-73721080D02*
X267807080Y-72744670D01*
X266392081Y-71329671D02*
X266392081Y-67036081D01*
X267807080Y-72744670D02*
X266392081Y-71329671D01*
X267807080Y-65621082D02*
X267807080Y-63221080D01*
X266392081Y-67036081D02*
X267807080Y-65621082D01*
X267807080Y-63221080D02*
X267807080Y-62244670D01*
X267807080Y-62244670D02*
X266537080Y-60974670D01*
X266537080Y-60974670D02*
X266537080Y-56221080D01*
X267807080Y-54951080D02*
X267807080Y-52721080D01*
X266537080Y-56221080D02*
X267807080Y-54951080D01*
X239807080Y-105221080D02*
X239807080Y-104244670D01*
X239807080Y-104244670D02*
X238537080Y-102974670D01*
X238537080Y-102974670D02*
X238537080Y-98971080D01*
X239807080Y-97701080D02*
X239807080Y-94721080D01*
X238537080Y-98971080D02*
X239807080Y-97701080D01*
X239807080Y-94721080D02*
X239807080Y-93744670D01*
X239807080Y-93744670D02*
X238547080Y-92484670D01*
X238547080Y-92484670D02*
X238547080Y-88531080D01*
X239807080Y-87271080D02*
X239807080Y-84221080D01*
X238547080Y-88531080D02*
X239807080Y-87271080D01*
X239807080Y-84221080D02*
X239807080Y-83244670D01*
X239807080Y-83244670D02*
X238537080Y-81974670D01*
X238537080Y-81974670D02*
X238537080Y-77671080D01*
X239807080Y-76401080D02*
X239807080Y-73721080D01*
X238537080Y-77671080D02*
X239807080Y-76401080D01*
X239807080Y-73721080D02*
X239807080Y-72744670D01*
X239807080Y-72744670D02*
X238517080Y-71454670D01*
X238517080Y-71454670D02*
X238517080Y-66921080D01*
X239807080Y-65631080D02*
X239807080Y-63221080D01*
X238517080Y-66921080D02*
X239807080Y-65631080D01*
X239807080Y-63221080D02*
X239807080Y-62244670D01*
X239807080Y-62244670D02*
X238517080Y-60954670D01*
X238517080Y-60954670D02*
X238517080Y-56331080D01*
X239807080Y-55041080D02*
X239807080Y-52721080D01*
X238517080Y-56331080D02*
X239807080Y-55041080D01*
X211807080Y-105221080D02*
X211807080Y-104244670D01*
X211807080Y-104244670D02*
X210537080Y-102974670D01*
X210537080Y-102974670D02*
X210537080Y-99061080D01*
X211807080Y-97791080D02*
X211807080Y-94721080D01*
X210537080Y-99061080D02*
X211807080Y-97791080D01*
X211807080Y-94721080D02*
X211807080Y-93744670D01*
X211807080Y-93744670D02*
X210547080Y-92484670D01*
X210547080Y-92484670D02*
X210547080Y-88411080D01*
X211807080Y-87151080D02*
X211807080Y-84221080D01*
X210547080Y-88411080D02*
X211807080Y-87151080D01*
X211807080Y-76466080D02*
X211807080Y-73721080D01*
X210497080Y-77776080D02*
X211807080Y-76466080D01*
X210497080Y-81934670D02*
X210497080Y-77776080D01*
X211807080Y-83244670D02*
X210497080Y-81934670D01*
X211807080Y-84221080D02*
X211807080Y-83244670D01*
X183807080Y-105221080D02*
X183807080Y-104244670D01*
X183807080Y-104244670D02*
X182522080Y-102959670D01*
X182522080Y-102959670D02*
X182522080Y-98976080D01*
X183807080Y-97691080D02*
X183807080Y-94721080D01*
X182522080Y-98976080D02*
X183807080Y-97691080D01*
X183807080Y-94721080D02*
X183807080Y-93744670D01*
X183807080Y-93744670D02*
X182522080Y-92459670D01*
X182522080Y-92459670D02*
X182522080Y-88476080D01*
X183807080Y-87191080D02*
X183807080Y-84221080D01*
X182522080Y-88476080D02*
X183807080Y-87191080D01*
X183807080Y-84221080D02*
X183807080Y-83244670D01*
X183807080Y-83244670D02*
X182497080Y-81934670D01*
X182497080Y-81934670D02*
X182497080Y-77826080D01*
X183807080Y-76516080D02*
X183807080Y-73721080D01*
X182497080Y-77826080D02*
X183807080Y-76516080D01*
X183807080Y-73721080D02*
X183807080Y-72744670D01*
X183807080Y-72744670D02*
X182497080Y-71434670D01*
X182497080Y-71434670D02*
X182497080Y-67151080D01*
X183807080Y-65841080D02*
X183807080Y-63221080D01*
X182497080Y-67151080D02*
X183807080Y-65841080D01*
X183807080Y-63221080D02*
X183807080Y-62244670D01*
X183807080Y-62244670D02*
X182522080Y-60959670D01*
X182522080Y-60959670D02*
X182522080Y-56476080D01*
X183807080Y-55191080D02*
X183807080Y-52721080D01*
X182522080Y-56476080D02*
X183807080Y-55191080D01*
X155597080Y-52931080D02*
X155807080Y-52721080D01*
X153307080Y-63210400D02*
X154547080Y-61970400D01*
X154547080Y-61970400D02*
X154547080Y-56551080D01*
X155807080Y-55291080D02*
X155807080Y-52721080D01*
X154547080Y-56551080D02*
X155807080Y-55291080D01*
X153307080Y-63210400D02*
X153307080Y-68186080D01*
X153307080Y-68186080D02*
X154797080Y-69676080D01*
X154797080Y-72231080D02*
X153307080Y-73721080D01*
X154797080Y-69676080D02*
X154797080Y-72231080D01*
X211807080Y-65641080D02*
X211807080Y-63221080D01*
X210522080Y-71304710D02*
X210522080Y-66926080D01*
X210522080Y-66926080D02*
X211807080Y-65641080D01*
X211807080Y-72589710D02*
X210522080Y-71304710D01*
X211807080Y-73721080D02*
X211807080Y-72589710D01*
X213422080Y-61606080D02*
X211807080Y-63221080D01*
X213422080Y-57726080D02*
X213422080Y-61606080D01*
X211807080Y-56111080D02*
X213422080Y-57726080D01*
X211807080Y-52721080D02*
X211807080Y-56111080D01*
X265267080Y-102773080D02*
X265267080Y-102341080D01*
X265267080Y-112841080D02*
X265267080Y-109341080D01*
X265267080Y-109341080D02*
X266547080Y-108061080D01*
X266547080Y-103621080D02*
X265267080Y-102341080D01*
X266547080Y-108061080D02*
X266547080Y-103621080D01*
X265267080Y-91841080D02*
X265267080Y-88211080D01*
X265267080Y-88211080D02*
X266527080Y-86951080D01*
X266527080Y-82601080D02*
X265267080Y-81341080D01*
X266527080Y-86951080D02*
X266527080Y-82601080D01*
X265267080Y-102341080D02*
X265267080Y-98871080D01*
X265267080Y-98871080D02*
X266517080Y-97621080D01*
X266517080Y-93091080D02*
X265267080Y-91841080D01*
X266517080Y-97621080D02*
X266517080Y-93091080D01*
X265267080Y-81341080D02*
X265267080Y-77731080D01*
X265267080Y-77731080D02*
X266527080Y-76471080D01*
X266527080Y-72101080D02*
X265267080Y-70841080D01*
X266527080Y-76471080D02*
X266527080Y-72101080D01*
X265267080Y-70841080D02*
X265267080Y-66891080D01*
X265267080Y-66891080D02*
X266527080Y-65631080D01*
X266527080Y-61601080D02*
X265267080Y-60341080D01*
X266527080Y-65631080D02*
X266527080Y-61601080D01*
X237267080Y-112841080D02*
X237267080Y-109351080D01*
X237267080Y-109351080D02*
X238507080Y-108111080D01*
X238507080Y-103581080D02*
X237267080Y-102341080D01*
X238507080Y-108111080D02*
X238507080Y-103581080D01*
X237267080Y-102341080D02*
X237267080Y-98951080D01*
X237267080Y-98951080D02*
X238487080Y-97731080D01*
X238487080Y-93061080D02*
X237267080Y-91841080D01*
X238487080Y-97731080D02*
X238487080Y-93061080D01*
X237267080Y-91841080D02*
X237267080Y-88311080D01*
X237267080Y-88311080D02*
X238547080Y-87031080D01*
X238547080Y-82621080D02*
X237267080Y-81341080D01*
X238547080Y-87031080D02*
X238547080Y-82621080D01*
X237267080Y-81341080D02*
X237267080Y-77671080D01*
X237267080Y-77671080D02*
X238527080Y-76411080D01*
X238527080Y-72101080D02*
X237267080Y-70841080D01*
X238527080Y-76411080D02*
X238527080Y-72101080D01*
X237267080Y-70841080D02*
X237267080Y-66921080D01*
X237267080Y-66921080D02*
X238557080Y-65631080D01*
X238557080Y-61631080D02*
X237267080Y-60341080D01*
X238557080Y-65631080D02*
X238557080Y-61631080D01*
X209267080Y-112841080D02*
X209267080Y-109491080D01*
X209267080Y-109491080D02*
X210537080Y-108221080D01*
X210537080Y-103611080D02*
X209267080Y-102341080D01*
X210537080Y-108221080D02*
X210537080Y-103611080D01*
X209267080Y-102341080D02*
X209267080Y-99021080D01*
X209267080Y-99021080D02*
X210537080Y-97751080D01*
X210537080Y-93111080D02*
X209267080Y-91841080D01*
X210537080Y-97751080D02*
X210537080Y-93111080D01*
X209267080Y-91841080D02*
X209267080Y-88411080D01*
X209937080Y-87741080D02*
X209937080Y-87721080D01*
X209267080Y-88411080D02*
X209937080Y-87741080D01*
X209937080Y-87721080D02*
X210517080Y-87141080D01*
X210517080Y-82591080D02*
X209267080Y-81341080D01*
X210517080Y-87141080D02*
X210517080Y-82591080D01*
X209267080Y-60341080D02*
X210547080Y-59061080D01*
X210547080Y-59061080D02*
X210507080Y-59061080D01*
X210507080Y-59061080D02*
X209247080Y-57801080D01*
X209267080Y-81341080D02*
X209267080Y-77756080D01*
X209267080Y-77756080D02*
X210522080Y-76501080D01*
X210522080Y-72096080D02*
X209267080Y-70841080D01*
X210522080Y-76501080D02*
X210522080Y-72096080D01*
X181267080Y-112841080D02*
X181267080Y-109431080D01*
X181267080Y-109431080D02*
X182497080Y-108201080D01*
X182497080Y-103571080D02*
X181267080Y-102341080D01*
X182497080Y-108201080D02*
X182497080Y-103571080D01*
X181267080Y-102341080D02*
X181267080Y-98906080D01*
X181267080Y-98906080D02*
X182497080Y-97676080D01*
X182497080Y-93071080D02*
X181267080Y-91841080D01*
X182497080Y-97676080D02*
X182497080Y-93071080D01*
X181267080Y-91841080D02*
X181267080Y-88431080D01*
X181267080Y-88431080D02*
X182522080Y-87176080D01*
X182522080Y-82596080D02*
X181267080Y-81341080D01*
X182522080Y-87176080D02*
X182522080Y-82596080D01*
X181267080Y-81341080D02*
X181267080Y-77781080D01*
X181267080Y-77781080D02*
X182522080Y-76526080D01*
X182522080Y-72096080D02*
X181267080Y-70841080D01*
X182522080Y-76526080D02*
X182522080Y-72096080D01*
X181267080Y-70841080D02*
X181267080Y-67056080D01*
X181267080Y-67056080D02*
X182497080Y-65826080D01*
X182497080Y-61571080D02*
X181267080Y-60341080D01*
X182497080Y-65826080D02*
X182497080Y-61571080D01*
X153997080Y-58626080D02*
X153222080Y-57651080D01*
X153997080Y-58951080D02*
X153997080Y-58626080D01*
X153267080Y-60341080D02*
X153997080Y-58951080D01*
X153267080Y-61346810D02*
X153267080Y-60341080D01*
X151997080Y-69600400D02*
X151997080Y-62616810D01*
X151997080Y-62616810D02*
X153267080Y-61346810D01*
X150767080Y-70830400D02*
X151997080Y-69600400D01*
X150767080Y-70830400D02*
X151997080Y-72060400D01*
X151997080Y-72060400D02*
X151997080Y-76501080D01*
X150767080Y-77731080D02*
X150767080Y-81341080D01*
X151997080Y-76501080D02*
X150767080Y-77731080D01*
X209267080Y-70841080D02*
X209267080Y-66931080D01*
X209267080Y-66931080D02*
X210497080Y-65701080D01*
X210497080Y-65701080D02*
X210497080Y-61571080D01*
X210497080Y-61571080D02*
X209267080Y-60341080D01*
X111765080Y-70233080D02*
X111767080Y-70231080D01*
X111765080Y-74493080D02*
X111765080Y-70233080D01*
X262727080Y-112841080D02*
X262727080Y-109261080D01*
X262727080Y-109261080D02*
X263967080Y-108021080D01*
X263967080Y-103581080D02*
X262727080Y-102341080D01*
X263967080Y-108021080D02*
X263967080Y-103581080D01*
X262727080Y-91841080D02*
X262727080Y-88141080D01*
X262727080Y-88141080D02*
X263987080Y-86881080D01*
X263987080Y-82601080D02*
X262727080Y-81341080D01*
X263987080Y-86881080D02*
X263987080Y-82601080D01*
X262727080Y-102341080D02*
X262727080Y-98831080D01*
X262727080Y-98831080D02*
X263987080Y-97571080D01*
X262740670Y-91841080D02*
X262727080Y-91841080D01*
X263987080Y-93087490D02*
X262740670Y-91841080D01*
X263987080Y-97571080D02*
X263987080Y-93087490D01*
X262727080Y-81341080D02*
X262727080Y-77731080D01*
X262727080Y-77731080D02*
X263957080Y-76501080D01*
X263957080Y-72071080D02*
X262727080Y-70841080D01*
X263957080Y-76501080D02*
X263957080Y-72071080D01*
X262727080Y-70841080D02*
X262727080Y-66931080D01*
X262727080Y-66931080D02*
X263977080Y-65681080D01*
X263977080Y-61591080D02*
X262727080Y-60341080D01*
X263977080Y-65681080D02*
X263977080Y-61591080D01*
X234727080Y-112841080D02*
X234727080Y-109291080D01*
X234727080Y-109291080D02*
X235987080Y-108031080D01*
X235987080Y-103601080D02*
X234727080Y-102341080D01*
X235987080Y-108031080D02*
X235987080Y-103601080D01*
X234727080Y-102341080D02*
X234727080Y-99001080D01*
X234727080Y-99001080D02*
X236007080Y-97721080D01*
X236007080Y-93121080D02*
X234727080Y-91841080D01*
X236007080Y-97721080D02*
X236007080Y-93121080D01*
X234727080Y-91841080D02*
X234727080Y-88251080D01*
X234727080Y-88251080D02*
X235947080Y-87031080D01*
X235947080Y-82561080D02*
X234727080Y-81341080D01*
X235947080Y-87031080D02*
X235947080Y-82561080D01*
X234727080Y-81341080D02*
X234727080Y-77671080D01*
X234727080Y-77671080D02*
X235997080Y-76401080D01*
X235997080Y-72111080D02*
X234727080Y-70841080D01*
X235997080Y-76401080D02*
X235997080Y-72111080D01*
X234727080Y-70841080D02*
X234727080Y-66911080D01*
X234727080Y-66911080D02*
X236027080Y-65611080D01*
X236027080Y-61641080D02*
X234727080Y-60341080D01*
X236027080Y-65611080D02*
X236027080Y-61641080D01*
X206727080Y-112841080D02*
X206727080Y-109481080D01*
X206727080Y-109481080D02*
X207967080Y-108241080D01*
X207967080Y-103581080D02*
X206727080Y-102341080D01*
X207967080Y-108241080D02*
X207967080Y-103581080D01*
X206727080Y-102341080D02*
X206727080Y-98971080D01*
X206727080Y-98971080D02*
X207977080Y-97721080D01*
X207977080Y-93091080D02*
X206727080Y-91841080D01*
X207977080Y-97721080D02*
X207977080Y-93091080D01*
X206727080Y-91841080D02*
X206727080Y-88341080D01*
X206727080Y-88341080D02*
X207997080Y-87071080D01*
X207997080Y-82611080D02*
X206727080Y-81341080D01*
X207997080Y-87071080D02*
X207997080Y-82611080D01*
X206727080Y-81341080D02*
X206727080Y-77821080D01*
X206727080Y-77821080D02*
X207972080Y-76576080D01*
X207972080Y-72086080D02*
X206727080Y-70841080D01*
X207972080Y-76576080D02*
X207972080Y-72086080D01*
X206727080Y-70841080D02*
X206727080Y-66921080D01*
X206727080Y-66921080D02*
X207997080Y-65651080D01*
X207997080Y-61611080D02*
X206727080Y-60341080D01*
X207997080Y-65651080D02*
X207997080Y-61611080D01*
X178727080Y-112841080D02*
X178727080Y-109471080D01*
X178727080Y-109471080D02*
X179972080Y-108226080D01*
X179972080Y-103586080D02*
X178727080Y-102341080D01*
X179972080Y-108226080D02*
X179972080Y-103586080D01*
X178727080Y-102341080D02*
X178727080Y-98971080D01*
X178727080Y-98971080D02*
X179972080Y-97726080D01*
X179972080Y-93086080D02*
X178727080Y-91841080D01*
X179972080Y-97726080D02*
X179972080Y-93086080D01*
X178727080Y-91841080D02*
X178727080Y-88446080D01*
X178727080Y-88446080D02*
X179972080Y-87201080D01*
X179972080Y-82586080D02*
X178727080Y-81341080D01*
X179972080Y-87201080D02*
X179972080Y-82586080D01*
X178727080Y-81341080D02*
X178727080Y-77771080D01*
X178727080Y-77771080D02*
X179972080Y-76526080D01*
X179972080Y-72086080D02*
X178727080Y-70841080D01*
X179972080Y-76526080D02*
X179972080Y-72086080D01*
X178727080Y-70841080D02*
X178727080Y-67121080D01*
X178727080Y-67121080D02*
X179972080Y-65876080D01*
X179972080Y-61586080D02*
X178727080Y-60341080D01*
X179972080Y-65876080D02*
X179972080Y-61586080D01*
X148227080Y-70830400D02*
X148227080Y-68196080D01*
X149497080Y-66926080D02*
X149497080Y-66901080D01*
X148227080Y-68196080D02*
X149497080Y-66926080D01*
X150727080Y-61346810D02*
X150727080Y-60341080D01*
X149497080Y-62576810D02*
X150727080Y-61346810D01*
X149497080Y-66901080D02*
X149497080Y-62576810D01*
X148227080Y-71817490D02*
X148227080Y-70830400D01*
X149472080Y-73062490D02*
X148227080Y-71817490D01*
X149472080Y-78751080D02*
X149472080Y-73062490D01*
X148227080Y-79996080D02*
X149472080Y-78751080D01*
X148227080Y-81341080D02*
X148227080Y-79996080D01*
X114305080Y-70253080D02*
X114317080Y-70241080D01*
X114305080Y-74493080D02*
X114305080Y-70253080D01*
X260187080Y-112841080D02*
X260187080Y-109221080D01*
X260187080Y-109221080D02*
X261417080Y-107991080D01*
X261417080Y-103571080D02*
X260187080Y-102341080D01*
X261417080Y-107991080D02*
X261417080Y-103571080D01*
X260227080Y-91881080D02*
X260187080Y-91841080D01*
X260187080Y-91841080D02*
X260187080Y-88151080D01*
X260187080Y-88151080D02*
X261467080Y-86871080D01*
X261467080Y-82621080D02*
X260187080Y-81341080D01*
X261467080Y-86871080D02*
X261467080Y-82621080D01*
X260187080Y-102341080D02*
X260187080Y-98561080D01*
X260187080Y-98561080D02*
X261437080Y-97311080D01*
X260187080Y-92817490D02*
X260187080Y-91841080D01*
X261437080Y-94067490D02*
X260187080Y-92817490D01*
X261437080Y-97311080D02*
X261437080Y-94067490D01*
X260187080Y-81341080D02*
X260187080Y-77761080D01*
X260187080Y-77761080D02*
X261407080Y-76541080D01*
X261407080Y-72061080D02*
X260187080Y-70841080D01*
X261407080Y-76541080D02*
X261407080Y-72061080D01*
X260187080Y-70841080D02*
X260187080Y-66941080D01*
X260187080Y-66941080D02*
X261467080Y-65661080D01*
X261467080Y-61621080D02*
X260187080Y-60341080D01*
X261467080Y-65661080D02*
X261467080Y-61621080D01*
X232187080Y-112841080D02*
X232187080Y-109381080D01*
X232187080Y-109381080D02*
X233457080Y-108111080D01*
X233457080Y-103611080D02*
X232187080Y-102341080D01*
X233457080Y-108111080D02*
X233457080Y-103611080D01*
X232187080Y-102341080D02*
X232187080Y-99011080D01*
X232187080Y-99011080D02*
X233447080Y-97751080D01*
X233447080Y-93101080D02*
X232187080Y-91841080D01*
X233447080Y-97751080D02*
X233447080Y-93101080D01*
X232187080Y-91841080D02*
X232187080Y-88301080D01*
X232187080Y-88301080D02*
X233447080Y-87041080D01*
X233447080Y-82601080D02*
X232187080Y-81341080D01*
X233447080Y-87041080D02*
X233447080Y-82601080D01*
X232187080Y-81341080D02*
X232187080Y-77671080D01*
X232187080Y-77671080D02*
X233417080Y-76441080D01*
X233417080Y-72071080D02*
X232187080Y-70841080D01*
X233417080Y-76441080D02*
X233417080Y-72071080D01*
X232187080Y-70841080D02*
X232187080Y-66971080D01*
X232187080Y-66971080D02*
X233447080Y-65711080D01*
X233447080Y-61601080D02*
X232187080Y-60341080D01*
X233447080Y-65711080D02*
X233447080Y-61601080D01*
X204187080Y-112841080D02*
X204187080Y-109501080D01*
X204187080Y-109501080D02*
X205417080Y-108271080D01*
X205417080Y-103571080D02*
X204187080Y-102341080D01*
X205417080Y-108271080D02*
X205417080Y-103571080D01*
X204187080Y-102341080D02*
X204187080Y-99031080D01*
X204187080Y-99031080D02*
X205467080Y-97751080D01*
X205467080Y-93121080D02*
X204187080Y-91841080D01*
X205467080Y-97751080D02*
X205467080Y-93121080D01*
X204187080Y-91841080D02*
X204187080Y-88331080D01*
X204187080Y-88331080D02*
X205457080Y-87061080D01*
X205457080Y-82611080D02*
X204187080Y-81341080D01*
X205457080Y-87061080D02*
X205457080Y-82611080D01*
X204187080Y-81341080D02*
X204187080Y-77786080D01*
X204187080Y-77786080D02*
X205447080Y-76526080D01*
X205447080Y-72101080D02*
X204187080Y-70841080D01*
X205447080Y-76526080D02*
X205447080Y-72101080D01*
X204187080Y-70841080D02*
X204187080Y-66911080D01*
X204187080Y-66911080D02*
X205447080Y-65651080D01*
X205447080Y-61601080D02*
X204187080Y-60341080D01*
X205447080Y-65651080D02*
X205447080Y-61601080D01*
X176187080Y-112841080D02*
X176187080Y-109486080D01*
X176187080Y-109486080D02*
X177397080Y-108276080D01*
X177397080Y-103551080D02*
X176187080Y-102341080D01*
X177397080Y-108276080D02*
X177397080Y-103551080D01*
X176187080Y-102341080D02*
X176187080Y-98961080D01*
X176187080Y-98961080D02*
X177447080Y-97701080D01*
X177447080Y-93101080D02*
X176187080Y-91841080D01*
X177447080Y-97701080D02*
X177447080Y-93101080D01*
X176187080Y-91841080D02*
X176187080Y-88411080D01*
X176187080Y-88411080D02*
X177447080Y-87151080D01*
X177447080Y-82601080D02*
X176187080Y-81341080D01*
X177447080Y-87151080D02*
X177447080Y-82601080D01*
X176187080Y-81341080D02*
X176187080Y-77811080D01*
X176187080Y-77811080D02*
X177422080Y-76576080D01*
X177422080Y-72076080D02*
X176187080Y-70841080D01*
X177422080Y-76576080D02*
X177422080Y-72076080D01*
X176187080Y-70841080D02*
X176187080Y-67161080D01*
X176187080Y-67161080D02*
X177447080Y-65901080D01*
X177447080Y-61601080D02*
X176187080Y-60341080D01*
X177447080Y-65901080D02*
X177447080Y-61601080D01*
X145687080Y-70830400D02*
X145687080Y-67266080D01*
X148187080Y-61346810D02*
X148187080Y-60341080D01*
X146922080Y-62611810D02*
X148187080Y-61346810D01*
X146922080Y-66031080D02*
X146922080Y-62611810D01*
X145687080Y-67266080D02*
X146922080Y-66031080D01*
X145687080Y-71817490D02*
X145687080Y-70830400D01*
X146947080Y-73077490D02*
X145687080Y-71817490D01*
X146947080Y-78751080D02*
X146947080Y-73077490D01*
X145687080Y-80011080D02*
X146947080Y-78751080D01*
X145687080Y-81341080D02*
X145687080Y-80011080D01*
X257647080Y-112841080D02*
X257647080Y-109091080D01*
X257647080Y-109091080D02*
X258887080Y-107851080D01*
X258887080Y-103581080D02*
X257647080Y-102341080D01*
X258887080Y-107851080D02*
X258887080Y-103581080D01*
X257647080Y-102341080D02*
X257647080Y-98621080D01*
X259017080Y-97251080D02*
X259017080Y-94221080D01*
X257647080Y-98621080D02*
X259017080Y-97251080D01*
X257647080Y-92851080D02*
X257647080Y-91841080D01*
X259017080Y-94221080D02*
X257647080Y-92851080D01*
X257647080Y-91841080D02*
X257647080Y-88181080D01*
X257647080Y-88181080D02*
X258927080Y-86901080D01*
X258927080Y-82621080D02*
X257647080Y-81341080D01*
X258927080Y-86901080D02*
X258927080Y-82621080D01*
X257647080Y-81341080D02*
X257647080Y-77901080D01*
X257647080Y-77901080D02*
X258917080Y-76631080D01*
X258917080Y-72111080D02*
X257647080Y-70841080D01*
X258917080Y-76631080D02*
X258917080Y-72111080D01*
X257647080Y-70841080D02*
X257647080Y-66871080D01*
X257647080Y-66871080D02*
X258917080Y-65601080D01*
X258917080Y-61611080D02*
X257647080Y-60341080D01*
X258917080Y-65601080D02*
X258917080Y-61611080D01*
X229647080Y-112841080D02*
X229647080Y-109401080D01*
X229647080Y-109401080D02*
X230927080Y-108121080D01*
X230927080Y-103621080D02*
X229647080Y-102341080D01*
X230927080Y-108121080D02*
X230927080Y-103621080D01*
X229647080Y-102341080D02*
X229647080Y-99161080D01*
X229647080Y-99161080D02*
X230907080Y-97901080D01*
X230907080Y-93101080D02*
X229647080Y-91841080D01*
X230907080Y-97901080D02*
X230907080Y-93101080D01*
X125747080Y-93311080D02*
X127177080Y-94741080D01*
X124487080Y-87171080D02*
X125747080Y-88431080D01*
X125747080Y-88431080D02*
X125747080Y-93311080D01*
X255107080Y-112841080D02*
X255107080Y-109141080D01*
X255107080Y-109141080D02*
X256397080Y-107851080D01*
X256397080Y-103631080D02*
X255107080Y-102341080D01*
X256397080Y-107851080D02*
X256397080Y-103631080D01*
X255107080Y-102341080D02*
X255107080Y-98481080D01*
X255107080Y-98481080D02*
X256347080Y-97241080D01*
X256347080Y-93081080D02*
X255107080Y-91841080D01*
X256347080Y-97241080D02*
X256347080Y-93081080D01*
X255107080Y-91841080D02*
X255107080Y-88171080D01*
X255107080Y-88171080D02*
X256357080Y-86921080D01*
X256357080Y-82591080D02*
X255107080Y-81341080D01*
X256357080Y-86921080D02*
X256357080Y-82591080D01*
X255107080Y-81341080D02*
X255107080Y-77821080D01*
X255107080Y-77821080D02*
X256367080Y-76561080D01*
X256367080Y-72101080D02*
X255107080Y-70841080D01*
X256367080Y-76561080D02*
X256367080Y-72101080D01*
X255107080Y-70841080D02*
X255107080Y-66941080D01*
X255107080Y-66941080D02*
X256377080Y-65671080D01*
X256377080Y-61611080D02*
X255107080Y-60341080D01*
X256377080Y-65671080D02*
X256377080Y-61611080D01*
X227107080Y-112841080D02*
X227107080Y-109471080D01*
X227107080Y-109471080D02*
X228377080Y-108201080D01*
X228377080Y-103611080D02*
X227107080Y-102341080D01*
X228377080Y-108201080D02*
X228377080Y-103611080D01*
X227107080Y-102341080D02*
X227107080Y-98901080D01*
X227107080Y-98901080D02*
X228357080Y-97651080D01*
X228357080Y-93091080D02*
X227107080Y-91841080D01*
X228357080Y-97651080D02*
X228357080Y-93091080D01*
X107782081Y-97986079D02*
X107687080Y-98081080D01*
X107697080Y-98071080D02*
X107687080Y-98081080D01*
X107697080Y-93401080D02*
X107697080Y-98071080D01*
X107037080Y-92741080D02*
X107697080Y-93401080D01*
X105437080Y-92741080D02*
X107037080Y-92741080D01*
X104427080Y-79521080D02*
X104427080Y-91731080D01*
X104427080Y-91731080D02*
X105437080Y-92741080D01*
X105187080Y-78761080D02*
X104427080Y-79521080D01*
X105187080Y-75991080D02*
X105187080Y-78761080D01*
X106685080Y-74493080D02*
X105187080Y-75991080D01*
X250027080Y-112841080D02*
X250027080Y-110251080D01*
X250027080Y-110251080D02*
X248467080Y-108691080D01*
X248467080Y-103901080D02*
X250027080Y-102341080D01*
X248467080Y-108691080D02*
X248467080Y-103901080D01*
X250027080Y-102341080D02*
X250027080Y-98361080D01*
X250027080Y-98361080D02*
X248467080Y-96801080D01*
X248467080Y-93401080D02*
X250027080Y-91841080D01*
X248467080Y-96801080D02*
X248467080Y-93401080D01*
X250027080Y-91841080D02*
X250027080Y-88131080D01*
X250027080Y-88131080D02*
X248437080Y-86541080D01*
X248437080Y-82931080D02*
X250027080Y-81341080D01*
X248437080Y-86541080D02*
X248437080Y-82931080D01*
X250027080Y-81341080D02*
X250027080Y-77791080D01*
X250027080Y-77791080D02*
X248457080Y-76221080D01*
X248457080Y-72411080D02*
X250027080Y-70841080D01*
X248457080Y-76221080D02*
X248457080Y-72411080D01*
X250027080Y-70841080D02*
X250027080Y-66941080D01*
X250027080Y-66941080D02*
X248517080Y-65431080D01*
X248517080Y-61851080D02*
X250027080Y-60341080D01*
X248517080Y-65431080D02*
X248517080Y-61851080D01*
X222027080Y-112841080D02*
X222027080Y-110221080D01*
X222027080Y-110221080D02*
X220407080Y-108601080D01*
X220407080Y-103961080D02*
X222027080Y-102341080D01*
X220407080Y-108601080D02*
X220407080Y-103961080D01*
X222027080Y-102341080D02*
X222027080Y-98391080D01*
X222027080Y-98391080D02*
X220447080Y-96811080D01*
X220447080Y-93421080D02*
X222027080Y-91841080D01*
X220447080Y-96811080D02*
X220447080Y-93421080D01*
X150767080Y-105221080D02*
X150767080Y-110096080D01*
X150767080Y-110096080D02*
X150772080Y-110101080D01*
X250027080Y-112841080D02*
X250027080Y-112081080D01*
X222027080Y-81341080D02*
X222027080Y-78941080D01*
X222027080Y-78941080D02*
X221954580Y-78868580D01*
X220397080Y-72471080D02*
X222027080Y-70841080D01*
X220397080Y-77311080D02*
X220397080Y-72471080D01*
X222027080Y-70841080D02*
X222027080Y-70811080D01*
X222027080Y-70811080D02*
X220407080Y-69191080D01*
X220407080Y-61961080D02*
X222027080Y-60341080D01*
X220407080Y-69191080D02*
X220407080Y-61961080D01*
X194027080Y-112841080D02*
X194027080Y-109811080D01*
X194027080Y-109811080D02*
X192387080Y-108171080D01*
X192387080Y-103981080D02*
X194027080Y-102341080D01*
X192387080Y-108171080D02*
X192387080Y-103981080D01*
X194027080Y-102341080D02*
X194027080Y-99401080D01*
X194027080Y-99401080D02*
X192357080Y-97731080D01*
X192357080Y-93511080D02*
X194027080Y-91841080D01*
X192357080Y-97731080D02*
X192357080Y-93511080D01*
X194027080Y-91841080D02*
X194027080Y-91831080D01*
X194027080Y-91841080D02*
X194027080Y-88381080D01*
X194027080Y-88381080D02*
X192472080Y-86826080D01*
X192472080Y-82896080D02*
X194027080Y-81341080D01*
X192472080Y-86826080D02*
X192472080Y-82896080D01*
X194027080Y-77531080D02*
X194022080Y-77526080D01*
X194027080Y-81341080D02*
X194027080Y-77531080D01*
X194022080Y-77526080D02*
X192472080Y-75976080D01*
X192472080Y-72396080D02*
X194027080Y-70841080D01*
X192472080Y-75976080D02*
X192472080Y-72396080D01*
X194027080Y-70841080D02*
X194027080Y-67081080D01*
X194027080Y-67081080D02*
X192472080Y-65526080D01*
X192472080Y-61896080D02*
X194027080Y-60341080D01*
X192472080Y-65526080D02*
X192472080Y-61896080D01*
X221929580Y-78843580D02*
X220397080Y-77311080D01*
X221954580Y-78868580D02*
X221929580Y-78843580D01*
X227107080Y-81341080D02*
X227107080Y-77641080D01*
X227107080Y-77641080D02*
X228357080Y-76391080D01*
X228357080Y-72091080D02*
X227107080Y-70841080D01*
X228357080Y-76391080D02*
X228357080Y-72091080D01*
X227107080Y-70841080D02*
X227107080Y-66941080D01*
X227107080Y-66941080D02*
X228367080Y-65681080D01*
X228367080Y-61601080D02*
X227107080Y-60341080D01*
X228367080Y-65681080D02*
X228367080Y-61601080D01*
X199107080Y-112841080D02*
X199107080Y-109561080D01*
X199107080Y-109561080D02*
X200347080Y-108321080D01*
X200347080Y-103581080D02*
X199107080Y-102341080D01*
X200347080Y-108321080D02*
X200347080Y-103581080D01*
X199107080Y-102341080D02*
X199107080Y-99171080D01*
X199107080Y-99171080D02*
X200377080Y-97901080D01*
X200377080Y-93111080D02*
X199107080Y-91841080D01*
X200377080Y-97901080D02*
X200377080Y-93111080D01*
X199107080Y-91841080D02*
X199107080Y-88441080D01*
X199107080Y-88441080D02*
X200397080Y-87151080D01*
X200397080Y-82631080D02*
X199107080Y-81341080D01*
X200397080Y-87151080D02*
X200397080Y-82631080D01*
X199107080Y-81341080D02*
X199107080Y-77791080D01*
X199107080Y-77791080D02*
X200347080Y-76551080D01*
X200347080Y-72081080D02*
X199107080Y-70841080D01*
X200347080Y-76551080D02*
X200347080Y-72081080D01*
X199107080Y-70841080D02*
X199107080Y-67016080D01*
X199107080Y-67016080D02*
X200347080Y-65776080D01*
X200347080Y-61581080D02*
X199107080Y-60341080D01*
X200347080Y-65776080D02*
X200347080Y-61581080D01*
X229647080Y-81341080D02*
X229647080Y-77691080D01*
X229647080Y-77691080D02*
X230897080Y-76441080D01*
X230897080Y-72091080D02*
X229647080Y-70841080D01*
X230897080Y-76441080D02*
X230897080Y-72091080D01*
X229647080Y-70841080D02*
X229647080Y-66961080D01*
X229647080Y-66961080D02*
X230917080Y-65691080D01*
X230917080Y-61611080D02*
X229647080Y-60341080D01*
X230917080Y-65691080D02*
X230917080Y-61611080D01*
X201647080Y-112841080D02*
X201647080Y-109551080D01*
X201647080Y-109551080D02*
X202927080Y-108271080D01*
X202927080Y-103621080D02*
X201647080Y-102341080D01*
X202927080Y-108271080D02*
X202927080Y-103621080D01*
X201647080Y-102341080D02*
X201647080Y-99141080D01*
X201647080Y-99141080D02*
X202887080Y-97901080D01*
X202887080Y-93081080D02*
X201647080Y-91841080D01*
X202887080Y-97901080D02*
X202887080Y-93081080D01*
X201647080Y-91841080D02*
X201647080Y-88411080D01*
X201647080Y-88411080D02*
X202907080Y-87151080D01*
X202907080Y-82601080D02*
X201647080Y-81341080D01*
X202907080Y-87151080D02*
X202907080Y-82601080D01*
X201647080Y-81341080D02*
X201647080Y-77801080D01*
X201647080Y-77801080D02*
X202897080Y-76551080D01*
X202897080Y-72091080D02*
X201647080Y-70841080D01*
X202897080Y-76551080D02*
X202897080Y-72091080D01*
X201647080Y-70841080D02*
X201647080Y-66901080D01*
X201647080Y-66901080D02*
X202897080Y-65651080D01*
X202897080Y-61591080D02*
X201647080Y-60341080D01*
X202897080Y-65651080D02*
X202897080Y-61591080D01*
X223442079Y-72596079D02*
X223442079Y-66946079D01*
X224567080Y-73721080D02*
X223442079Y-72596079D01*
X224567080Y-65821078D02*
X224567080Y-63221080D01*
X223442079Y-66946079D02*
X224567080Y-65821078D01*
X224567080Y-52971080D02*
X224567080Y-52721080D01*
X223442079Y-53846081D02*
X224567080Y-52721080D01*
X223442079Y-62096079D02*
X223442079Y-53846081D01*
X224567080Y-63221080D02*
X223442079Y-62096079D01*
X195442079Y-104096079D02*
X195442079Y-99096081D01*
X196567080Y-105221080D02*
X195442079Y-104096079D01*
X196567080Y-97971080D02*
X196567080Y-94721080D01*
X195442079Y-99096081D02*
X196567080Y-97971080D01*
X196567080Y-94721080D02*
X195347080Y-93501080D01*
X195347080Y-93501080D02*
X195347080Y-88351080D01*
X196567080Y-87131080D02*
X196567080Y-84221080D01*
X195347080Y-88351080D02*
X196567080Y-87131080D01*
X196567080Y-73721080D02*
X197822080Y-74976080D01*
X197822080Y-74976080D02*
X197822080Y-75051080D01*
X197822080Y-75051080D02*
X196597080Y-76276080D01*
X196567080Y-84221080D02*
X195297080Y-82951080D01*
X195297080Y-77576080D02*
X196597080Y-76276080D01*
X195297080Y-82951080D02*
X195297080Y-77576080D01*
X196567080Y-73721080D02*
X195322080Y-72476080D01*
X195322080Y-72476080D02*
X195322080Y-67076080D01*
X196567080Y-65831080D02*
X196567080Y-63221080D01*
X195322080Y-67076080D02*
X196567080Y-65831080D01*
X196567080Y-63221080D02*
X195347080Y-62001080D01*
X195347080Y-62001080D02*
X195347080Y-56426080D01*
X196567080Y-55206080D02*
X196567080Y-52721080D01*
X195347080Y-56426080D02*
X196567080Y-55206080D01*
X223572080Y-76326080D02*
X221997080Y-76326080D01*
X224567080Y-75331080D02*
X223572080Y-76326080D01*
X224567080Y-73721080D02*
X224567080Y-75331080D01*
X114247080Y-82621080D02*
X114287080Y-82581080D01*
X114247080Y-87181080D02*
X114247080Y-82621080D01*
X252567080Y-91841080D02*
X252567080Y-89421080D01*
X255107080Y-86881080D02*
X255107080Y-84221080D01*
X252567080Y-89421080D02*
X255107080Y-86881080D01*
X196567080Y-60341080D02*
X196567080Y-57681080D01*
X199107080Y-55141080D02*
X199107080Y-52721080D01*
X196567080Y-57681080D02*
X199107080Y-55141080D01*
X168567080Y-57906080D02*
X171122080Y-55351080D01*
X168567080Y-60341080D02*
X168567080Y-57906080D01*
X171922080Y-54151080D02*
X171122080Y-55351080D01*
X171897080Y-53951080D02*
X171922080Y-54151080D01*
X171107080Y-52721080D02*
X171897080Y-53951080D01*
X140567080Y-84221080D02*
X141887080Y-82901080D01*
X141887080Y-82901080D02*
X143747080Y-82901080D01*
X143747080Y-82901080D02*
X144397080Y-83551080D01*
X144397080Y-83551080D02*
X144397080Y-87251080D01*
X144397080Y-87251080D02*
X143347080Y-88301080D01*
X143347080Y-88301080D02*
X143347080Y-89326080D01*
X143227080Y-100081080D02*
X143227080Y-102341080D01*
X144372080Y-92626080D02*
X143797080Y-93201080D01*
X143347080Y-89326080D02*
X144372080Y-90351080D01*
X144372080Y-90351080D02*
X144372080Y-92626080D01*
X143797080Y-93201080D02*
X142547080Y-93201080D01*
X142547080Y-93201080D02*
X141897080Y-93851080D01*
X141897080Y-98751080D02*
X143227080Y-100081080D01*
X141897080Y-93851080D02*
X141897080Y-98751080D01*
X214297080Y-56526080D02*
X214272080Y-56501080D01*
X214297080Y-84376080D02*
X214297080Y-56526080D01*
X164417080Y-50841080D02*
X163257080Y-52001080D01*
X171107080Y-52721080D02*
X169227080Y-50841080D01*
X169227080Y-50841080D02*
X164417080Y-50841080D01*
X163257080Y-52001080D02*
X163257080Y-63781080D01*
X163257080Y-63781080D02*
X157407080Y-69631080D01*
X157407080Y-69631080D02*
X157407080Y-88001082D01*
X121897080Y-97941080D02*
X121907080Y-97951080D01*
X121897080Y-90491080D02*
X121897080Y-97941080D01*
X168567080Y-105221080D02*
X167297080Y-103951080D01*
X167297080Y-103951080D02*
X167297080Y-98951080D01*
X168567080Y-97681080D02*
X168567080Y-94721080D01*
X167297080Y-98951080D02*
X168567080Y-97681080D01*
X168567080Y-94721080D02*
X167297080Y-93451080D01*
X167297080Y-93451080D02*
X167297080Y-88551080D01*
X168567080Y-87281080D02*
X168567080Y-84221080D01*
X167297080Y-88551080D02*
X168567080Y-87281080D01*
X168567080Y-84221080D02*
X167247080Y-82901080D01*
X167247080Y-82901080D02*
X167247080Y-77951080D01*
X168567080Y-76631080D02*
X168567080Y-73721080D01*
X167247080Y-77951080D02*
X168567080Y-76631080D01*
X168567080Y-73721080D02*
X167247080Y-72401080D01*
X167247080Y-72401080D02*
X167247080Y-66151080D01*
X168567080Y-64831080D02*
X168567080Y-63221080D01*
X167247080Y-66151080D02*
X168567080Y-64831080D01*
X168567080Y-63221080D02*
X167272080Y-61926080D01*
X167272080Y-56676080D02*
X168597080Y-55351080D01*
X167272080Y-61926080D02*
X167272080Y-56676080D01*
X169672080Y-54101080D02*
X168597080Y-55351080D01*
X168567080Y-52721080D02*
X169672080Y-54101080D01*
X138067080Y-63210400D02*
X139297080Y-61980400D01*
X139297080Y-53991080D02*
X140567080Y-52721080D01*
X139297080Y-61980400D02*
X139297080Y-53991080D01*
X138067080Y-73721080D02*
X136822080Y-72476080D01*
X136822080Y-64455400D02*
X138067080Y-63210400D01*
X136822080Y-72476080D02*
X136822080Y-64455400D01*
X120617080Y-73661080D02*
X121897080Y-72381080D01*
X120617080Y-82331080D02*
X120617080Y-73661080D01*
X119287080Y-83661080D02*
X120617080Y-82331080D01*
X119287080Y-87221080D02*
X119287080Y-83661080D01*
X173647080Y-112841080D02*
X173647080Y-109626080D01*
X173647080Y-109626080D02*
X174897080Y-108376080D01*
X174897080Y-103591080D02*
X173647080Y-102341080D01*
X174897080Y-108376080D02*
X174897080Y-103591080D01*
X173647080Y-102341080D02*
X173647080Y-99001080D01*
X173647080Y-99001080D02*
X174897080Y-97751080D01*
X174897080Y-93091080D02*
X173647080Y-91841080D01*
X174897080Y-97751080D02*
X174897080Y-93091080D01*
X173647080Y-91841080D02*
X173647080Y-88426080D01*
X173647080Y-88426080D02*
X174897080Y-87176080D01*
X174897080Y-82591080D02*
X173647080Y-81341080D01*
X174897080Y-87176080D02*
X174897080Y-82591080D01*
X173647080Y-81341080D02*
X173647080Y-77826080D01*
X173647080Y-77826080D02*
X174897080Y-76576080D01*
X174897080Y-72091080D02*
X173647080Y-70841080D01*
X174897080Y-76576080D02*
X174897080Y-72091080D01*
X173647080Y-70841080D02*
X173647080Y-67151080D01*
X173647080Y-67151080D02*
X174897080Y-65901080D01*
X174897080Y-61591080D02*
X173647080Y-60341080D01*
X174897080Y-65901080D02*
X174897080Y-61591080D01*
X145647080Y-61346810D02*
X145647080Y-60341080D01*
X144397080Y-62596810D02*
X145647080Y-61346810D01*
X144397080Y-65976080D02*
X144397080Y-62596810D01*
X143147080Y-67226080D02*
X144397080Y-65976080D01*
X143147080Y-70830400D02*
X143147080Y-67226080D01*
X143147080Y-71817490D02*
X143147080Y-70830400D01*
X144472080Y-73142490D02*
X143147080Y-71817490D01*
X144472080Y-76401080D02*
X144472080Y-73142490D01*
X143197080Y-77676080D02*
X144472080Y-76401080D01*
X143197080Y-81291080D02*
X143197080Y-77676080D01*
X143147080Y-81341080D02*
X143197080Y-81291080D01*
X127007080Y-87191080D02*
X127007080Y-83441080D01*
X127007080Y-83441080D02*
X127057080Y-83391080D01*
X116847080Y-87176080D02*
X116822080Y-87201080D01*
X171107080Y-112841080D02*
X171107080Y-109491080D01*
X171107080Y-109491080D02*
X172347080Y-108251080D01*
X172347080Y-103581080D02*
X171107080Y-102341080D01*
X172347080Y-108251080D02*
X172347080Y-103581080D01*
X171107080Y-102341080D02*
X171107080Y-98966080D01*
X171107080Y-98966080D02*
X172347080Y-97726080D01*
X172347080Y-93081080D02*
X171107080Y-91841080D01*
X172347080Y-97726080D02*
X172347080Y-93081080D01*
X171107080Y-91841080D02*
X171107080Y-88541080D01*
X171107080Y-88541080D02*
X172347080Y-87301080D01*
X172347080Y-82581080D02*
X171107080Y-81341080D01*
X172347080Y-87301080D02*
X172347080Y-82581080D01*
X171107080Y-81341080D02*
X171107080Y-77866080D01*
X171107080Y-77866080D02*
X172347080Y-76626080D01*
X172347080Y-72081080D02*
X171107080Y-70841080D01*
X172347080Y-76626080D02*
X172347080Y-72081080D01*
X171107080Y-70841080D02*
X171107080Y-67216080D01*
X171107080Y-67216080D02*
X172347080Y-65976080D01*
X172347080Y-61581080D02*
X171107080Y-60341080D01*
X172347080Y-65976080D02*
X172347080Y-61581080D01*
X140607080Y-70830400D02*
X140607080Y-67211080D01*
X140607080Y-67211080D02*
X141847080Y-65971080D01*
X141847080Y-65971080D02*
X141847080Y-62676080D01*
X143107080Y-61416080D02*
X143107080Y-60341080D01*
X141847080Y-62676080D02*
X143107080Y-61416080D01*
X140607080Y-71817490D02*
X140607080Y-70830400D01*
X141872080Y-73082490D02*
X140607080Y-71817490D01*
X141872080Y-80076080D02*
X141872080Y-73082490D01*
X140607080Y-81341080D02*
X141872080Y-80076080D01*
X116817080Y-87171080D02*
X116817080Y-83461080D01*
X166027080Y-112841080D02*
X166027080Y-109446080D01*
X166027080Y-109446080D02*
X164372080Y-107791080D01*
X164372080Y-103996080D02*
X166027080Y-102341080D01*
X164372080Y-107791080D02*
X164372080Y-103996080D01*
X166027080Y-102341080D02*
X166027080Y-98881080D01*
X166027080Y-98881080D02*
X164372080Y-97226080D01*
X164372080Y-93496080D02*
X166027080Y-91841080D01*
X164372080Y-97226080D02*
X164372080Y-93496080D01*
X166027080Y-91841080D02*
X166027080Y-88581080D01*
X166027080Y-88581080D02*
X164397080Y-86951080D01*
X164397080Y-82971080D02*
X166027080Y-81341080D01*
X164397080Y-86951080D02*
X164397080Y-82971080D01*
X166027080Y-81341080D02*
X166027080Y-77906080D01*
X166027080Y-77906080D02*
X164422080Y-76301080D01*
X164422080Y-72446080D02*
X166027080Y-70841080D01*
X164422080Y-76301080D02*
X164422080Y-72446080D01*
X166027080Y-70841080D02*
X166027080Y-67181080D01*
X166027080Y-67181080D02*
X164447080Y-65601080D01*
X164447080Y-61921080D02*
X166027080Y-60341080D01*
X164447080Y-65601080D02*
X164447080Y-61921080D01*
X166027080Y-56521080D02*
X166047080Y-56501080D01*
X166027080Y-60341080D02*
X166027080Y-56521080D01*
X138027080Y-60341080D02*
X135357080Y-60341080D01*
X135357080Y-60341080D02*
X133947080Y-61751080D01*
X133947080Y-61751080D02*
X133947080Y-65451080D01*
X135527080Y-67031080D02*
X135527080Y-70830400D01*
X133947080Y-65451080D02*
X135527080Y-67031080D01*
X135527080Y-81341080D02*
X135527080Y-76256080D01*
X135527080Y-76256080D02*
X134097080Y-74826080D01*
X134097080Y-72260400D02*
X135527080Y-70830400D01*
X134097080Y-74826080D02*
X134097080Y-72260400D01*
X86111080Y-60269080D02*
X86111080Y-61407080D01*
X86111080Y-61407080D02*
X84747080Y-62771080D01*
X84747080Y-62771080D02*
X84747080Y-63891080D01*
X84747080Y-63891080D02*
X85617080Y-64761080D01*
X85617080Y-64761080D02*
X85617080Y-68871080D01*
X85617080Y-68871080D02*
X84797080Y-69691080D01*
X84797080Y-69691080D02*
X84797080Y-75301080D01*
X82237080Y-77861080D02*
X82237080Y-79761080D01*
X84797080Y-75301080D02*
X82237080Y-77861080D01*
X30867080Y-80081080D02*
X32217080Y-78731080D01*
X30867080Y-81341080D02*
X30867080Y-80081080D01*
X56447080Y-106886070D02*
X56352070Y-106981080D01*
X56447080Y-83583080D02*
X56447080Y-106886070D01*
X58679080Y-81351080D02*
X56447080Y-83583080D01*
X85517080Y-113261080D02*
X94841080Y-113261080D01*
X84337080Y-107661080D02*
X84777080Y-108101080D01*
X84777080Y-108101080D02*
X84777080Y-112521080D01*
X84337080Y-80651080D02*
X84337080Y-107661080D01*
X94841080Y-113261080D02*
X96271080Y-111831080D01*
X87417080Y-77571080D02*
X84337080Y-80651080D01*
X84777080Y-112521080D02*
X85517080Y-113261080D01*
X87417080Y-61503080D02*
X87417080Y-77571080D01*
X88651080Y-60269080D02*
X87417080Y-61503080D01*
X68839080Y-60269080D02*
X71382070Y-57726090D01*
X71382070Y-57726090D02*
X74237080Y-57726090D01*
X76427080Y-65308078D02*
X77247080Y-64488078D01*
X77247080Y-63071080D02*
X79967080Y-60351080D01*
X76427080Y-68881080D02*
X76427080Y-65308078D01*
X77327080Y-69781080D02*
X76427080Y-68881080D01*
X77327080Y-72461080D02*
X77327080Y-69781080D01*
X77787080Y-72921080D02*
X77327080Y-72461080D01*
X77247080Y-64488078D02*
X77247080Y-63071080D01*
X77787080Y-78181078D02*
X77787080Y-72921080D01*
X76737080Y-79231078D02*
X77787080Y-78181078D01*
X93731080Y-60269080D02*
X93731080Y-56700090D01*
X93731080Y-56700090D02*
X93697080Y-56666090D01*
X79277080Y-74794670D02*
X79277080Y-87348078D01*
X80097080Y-91941080D02*
X77427080Y-94611080D01*
X83147078Y-65641080D02*
X83147078Y-70924672D01*
X76667080Y-107497450D02*
X75951080Y-108213450D01*
X77427080Y-100001080D02*
X76667080Y-100761080D01*
X76667080Y-100761080D02*
X76667080Y-107497450D01*
X77427080Y-94611080D02*
X77427080Y-100001080D01*
X75951080Y-108213450D02*
X75951080Y-109291080D01*
X80097080Y-88168078D02*
X80097080Y-91941080D01*
X83147078Y-70924672D02*
X79277080Y-74794670D01*
X79277080Y-87348078D02*
X80097080Y-88168078D01*
X66299080Y-60269080D02*
X66299080Y-55979080D01*
X66299080Y-55979080D02*
X66417080Y-55861080D01*
X96271080Y-60269080D02*
X94997080Y-61543080D01*
X94997080Y-61543080D02*
X94997080Y-64391080D01*
X94997080Y-64391080D02*
X96267080Y-65661080D01*
X94537080Y-55601080D02*
X96271080Y-57335080D01*
X83957080Y-55601080D02*
X94537080Y-55601080D01*
X81927080Y-57631080D02*
X83957080Y-55601080D01*
X81927080Y-62511080D02*
X81927080Y-57631080D01*
X84647080Y-65231080D02*
X81927080Y-62511080D01*
X84647080Y-68521080D02*
X84647080Y-65231080D01*
X79837080Y-74871080D02*
X83807080Y-70901080D01*
X96271080Y-57335080D02*
X96271080Y-60269080D01*
X83807080Y-69361080D02*
X84647080Y-68521080D01*
X79837080Y-86961080D02*
X79837080Y-74871080D01*
X81317080Y-88441080D02*
X79837080Y-86961080D01*
X83807080Y-70901080D02*
X83807080Y-69361080D01*
X81317080Y-92021080D02*
X81317080Y-88441080D01*
X79837080Y-71951080D02*
X79837080Y-68341080D01*
X76917080Y-85071080D02*
X78347080Y-83641080D01*
X76917080Y-91576078D02*
X76917080Y-85071080D01*
X76902079Y-92671081D02*
X76902079Y-91591079D01*
X78347080Y-73441080D02*
X79837080Y-71951080D01*
X78337080Y-65981080D02*
X79878489Y-64439671D01*
X76917080Y-99311080D02*
X76917080Y-92686082D01*
X75067080Y-102696082D02*
X75067080Y-101161080D01*
X80917080Y-60901080D02*
X80917080Y-59191080D01*
X76902079Y-91591079D02*
X76917080Y-91576078D01*
X73411080Y-109291080D02*
X73411080Y-104352082D01*
X73411080Y-104352082D02*
X75067080Y-102696082D01*
X76917080Y-92686082D02*
X76902079Y-92671081D01*
X79837080Y-68341080D02*
X78337080Y-66841080D01*
X75067080Y-101161080D02*
X76917080Y-99311080D01*
X78347080Y-83641080D02*
X78347080Y-73441080D01*
X78337080Y-66841080D02*
X78337080Y-65981080D01*
X79878489Y-64439671D02*
X79878489Y-61939671D01*
X79878489Y-61939671D02*
X80917080Y-60901080D01*
X51059080Y-58079080D02*
X51117080Y-58021080D01*
X51059080Y-60269080D02*
X51059080Y-58079080D01*
X110522080Y-55656080D02*
X111792080Y-56926080D01*
X110522080Y-50676080D02*
X110522080Y-51126080D01*
X110522080Y-51126080D02*
X110522080Y-55656080D01*
X110522080Y-51126080D02*
X110522080Y-49566080D01*
X110522080Y-49566080D02*
X110577080Y-49511080D01*
X52317080Y-50771080D02*
X53317080Y-49771080D01*
X52317080Y-53178076D02*
X52317080Y-50771080D01*
X56139080Y-57000076D02*
X52317080Y-53178076D01*
X56139080Y-60269080D02*
X56139080Y-57000076D01*
X75147080Y-58011080D02*
X83307080Y-49851080D01*
X75147080Y-62101080D02*
X75147080Y-58011080D01*
X74797080Y-62451080D02*
X75147080Y-62101080D01*
X74797080Y-69721080D02*
X74797080Y-62451080D01*
X76047080Y-70971080D02*
X74797080Y-69721080D01*
X115407080Y-50231080D02*
X118092080Y-50231080D01*
X118092080Y-50231080D02*
X118622080Y-49701080D01*
X118622080Y-49701080D02*
X135647080Y-49701080D01*
X185622080Y-49801080D02*
X185522078Y-49701078D01*
X185622080Y-111276080D02*
X185622080Y-49801080D01*
X58679080Y-57233080D02*
X54827080Y-53381080D01*
X58679080Y-60269080D02*
X58679080Y-57233080D01*
X54827080Y-53381080D02*
X54827080Y-50346070D01*
X54827080Y-50346070D02*
X56127080Y-49046070D01*
X78587080Y-70971080D02*
X78587080Y-69381080D01*
X78587080Y-69381080D02*
X77237080Y-68031080D01*
X77237080Y-68031080D02*
X77237080Y-65571080D01*
X156222080Y-48801080D02*
X117207082Y-48801080D01*
X157677080Y-50256080D02*
X156222080Y-48801080D01*
X157677080Y-67361080D02*
X157677080Y-50256080D01*
X117207082Y-48801080D02*
X116817082Y-49191080D01*
X156547080Y-68491080D02*
X157677080Y-67361080D01*
X156547080Y-113541080D02*
X156547080Y-68491080D01*
X156077080Y-114011080D02*
X156547080Y-113541080D01*
X61219080Y-60269080D02*
X61219080Y-56523080D01*
X61219080Y-56523080D02*
X60057080Y-55361080D01*
X99997080Y-110645080D02*
X98811080Y-111831080D01*
X101077080Y-107201080D02*
X99997080Y-108281080D01*
X109127080Y-107201080D02*
X101077080Y-107201080D01*
X110267080Y-93791080D02*
X110267080Y-106061080D01*
X106712080Y-56926080D02*
X108207080Y-58421080D01*
X99997080Y-108281080D02*
X99997080Y-110645080D01*
X109517080Y-71191080D02*
X107947080Y-72761080D01*
X108207080Y-58421080D02*
X109977080Y-58421080D01*
X109977080Y-58421080D02*
X110497080Y-58941080D01*
X110497080Y-65971080D02*
X109517080Y-66951080D01*
X110497080Y-58941080D02*
X110497080Y-65971080D01*
X109517080Y-66951080D02*
X109517080Y-71191080D01*
X105747080Y-92121080D02*
X108597080Y-92121080D01*
X107947080Y-72761080D02*
X107947080Y-78096080D01*
X107947080Y-78096080D02*
X105017080Y-81026080D01*
X105017080Y-81026080D02*
X105017080Y-91391080D01*
X110267080Y-106061080D02*
X109127080Y-107201080D01*
X105017080Y-91391080D02*
X105747080Y-92121080D01*
X108597080Y-92121080D02*
X110267080Y-93791080D01*
X63759080Y-56399080D02*
X63947080Y-56211080D01*
X63759080Y-60269080D02*
X63759080Y-56399080D01*
X49757080Y-54301080D02*
X49757080Y-54301080D01*
X51762080Y-92656080D02*
X51927080Y-92821080D01*
X51762080Y-77242491D02*
X51762080Y-92656080D01*
X52287091Y-76717480D02*
X51762080Y-77242491D01*
X52287091Y-63441091D02*
X52287091Y-76717480D01*
X49757080Y-60911080D02*
X52287091Y-63441091D01*
X49757080Y-54301080D02*
X49757080Y-60911080D01*
X53599080Y-53418768D02*
X53599080Y-52649080D01*
X57357080Y-57176768D02*
X53599080Y-53418768D01*
X57357080Y-64035078D02*
X57357080Y-57176768D01*
X55014079Y-66378079D02*
X57357080Y-64035078D01*
X55014079Y-76528396D02*
X55014079Y-66378079D01*
X52637080Y-78905395D02*
X55014079Y-76528396D01*
X52637080Y-80451080D02*
X52637080Y-78905395D01*
X62427080Y-54931080D02*
X62887080Y-54471080D01*
X63327080Y-61811080D02*
X62427080Y-60911080D01*
X63759080Y-91765080D02*
X63759080Y-87389080D01*
X63217080Y-82811080D02*
X64202670Y-82811080D01*
X67017080Y-54471080D02*
X68839080Y-52649080D01*
X67517080Y-67071080D02*
X65057080Y-64611080D01*
X65057080Y-62591080D02*
X64277080Y-61811080D01*
X62457080Y-86087080D02*
X62457080Y-83571080D01*
X64202670Y-82811080D02*
X65017080Y-81996670D01*
X64277080Y-61811080D02*
X63327080Y-61811080D01*
X62457080Y-83571080D02*
X63217080Y-82811080D01*
X62427080Y-60911080D02*
X62427080Y-54931080D01*
X65017080Y-81996670D02*
X65017080Y-79821080D01*
X65017080Y-79821080D02*
X67517080Y-77321080D01*
X62887080Y-54471080D02*
X67017080Y-54471080D01*
X67517080Y-77321080D02*
X67517080Y-67071080D01*
X63759080Y-87389080D02*
X62457080Y-86087080D01*
X65057080Y-64611080D02*
X65057080Y-62591080D01*
X70097080Y-68801080D02*
X66299080Y-65003080D01*
X66299080Y-65003080D02*
X66299080Y-63317080D01*
X70097080Y-82887080D02*
X70097080Y-68801080D01*
X68839080Y-84145080D02*
X70097080Y-82887080D01*
X27509553Y-79986090D02*
X27509553Y-71298607D01*
X27509553Y-71298607D02*
X29477080Y-69331080D01*
X29477080Y-69331080D02*
X29477080Y-63281080D01*
X29477080Y-63281080D02*
X29077080Y-62881080D01*
X25417080Y-61631080D02*
X25417080Y-57571080D01*
X29077080Y-62881080D02*
X26667080Y-62881080D01*
X25417080Y-57571080D02*
X23947080Y-56101080D01*
X26667080Y-62881080D02*
X25417080Y-61631080D01*
X41257080Y-53601080D02*
X41257080Y-52671080D01*
X36835080Y-58023080D02*
X41257080Y-53601080D01*
X36835080Y-60269080D02*
X36835080Y-58023080D01*
X85287080Y-59081080D02*
X89857078Y-59081080D01*
X84827080Y-59541080D02*
X85287080Y-59081080D01*
X84827080Y-62054670D02*
X84827080Y-59541080D01*
X84297071Y-62584679D02*
X84827080Y-62054670D01*
X84297071Y-64131071D02*
X84297071Y-62584679D01*
X85097080Y-64931080D02*
X84297071Y-64131071D01*
X85097080Y-68711080D02*
X85097080Y-64931080D01*
X81817080Y-98921080D02*
X81817080Y-95231080D01*
X82377080Y-110637080D02*
X82377080Y-107891080D01*
X83867080Y-106401080D02*
X83867080Y-100971080D01*
X84297071Y-69511089D02*
X85097080Y-68711080D01*
X82377080Y-107891080D02*
X83867080Y-106401080D01*
X81817080Y-95231080D02*
X83367080Y-93681080D01*
X83867080Y-100971080D02*
X81817080Y-98921080D01*
X83367080Y-93681080D02*
X83367080Y-81964082D01*
X83367080Y-81964082D02*
X81512079Y-80109081D01*
X84297071Y-74541089D02*
X84297071Y-69511089D01*
X81512079Y-80109081D02*
X81512079Y-77326081D01*
X83571080Y-111831080D02*
X82377080Y-110637080D01*
X81512079Y-77326081D02*
X84297071Y-74541089D01*
X30547080Y-56101080D02*
X31607080Y-57161080D01*
X28147080Y-56101080D02*
X30547080Y-56101080D01*
X26675080Y-54629080D02*
X28147080Y-56101080D01*
X31607080Y-57161080D02*
X31607080Y-57261080D01*
X26675080Y-52649080D02*
X26675080Y-54629080D01*
X34295080Y-58759080D02*
X34295080Y-60269080D01*
X32737080Y-57201080D02*
X34295080Y-58759080D01*
X31667080Y-57201080D02*
X32737080Y-57201080D01*
X31607080Y-57261080D02*
X31667080Y-57201080D01*
X40757080Y-65501080D02*
X41067080Y-65811080D01*
X35247080Y-65501080D02*
X40757080Y-65501080D01*
X34307080Y-64561080D02*
X35247080Y-65501080D01*
X30457080Y-62351080D02*
X32667080Y-64561080D01*
X30457080Y-58401080D02*
X30457080Y-62351080D01*
X32667080Y-64561080D02*
X34307080Y-64561080D01*
X31597080Y-57261080D02*
X30457080Y-58401080D01*
X41067080Y-65811080D02*
X41067080Y-70931080D01*
X31607080Y-57261080D02*
X31597080Y-57261080D01*
X111765080Y-54359080D02*
X111765080Y-52841080D01*
X112727080Y-55321080D02*
X111765080Y-54359080D01*
X114997082Y-55321080D02*
X112727080Y-55321080D01*
X115557080Y-55881078D02*
X114997082Y-55321080D01*
X115557080Y-75241080D02*
X115557080Y-55881078D01*
X114247080Y-76551080D02*
X115557080Y-75241080D01*
X114247080Y-77021080D02*
X114247080Y-76551080D01*
X46127080Y-84131080D02*
X46127080Y-88721080D01*
X44817080Y-82151080D02*
X46127080Y-83461080D01*
X44817080Y-78461080D02*
X44817080Y-82151080D01*
X42347080Y-75991080D02*
X44817080Y-78461080D01*
X46127080Y-83461080D02*
X46127080Y-84131080D01*
X42347080Y-68501080D02*
X42347080Y-75991080D01*
X48957080Y-68701080D02*
X51067080Y-70811080D01*
X42597078Y-68701080D02*
X48957080Y-68701080D01*
X41017080Y-64711080D02*
X42347080Y-66041080D01*
X42347080Y-66041080D02*
X42347080Y-68451082D01*
X35507080Y-64711080D02*
X41017080Y-64711080D01*
X34677080Y-63881080D02*
X35507080Y-64711080D01*
X34677080Y-62501080D02*
X34677080Y-63881080D01*
X42347080Y-68451082D02*
X42597078Y-68701080D01*
X33927080Y-61751080D02*
X34677080Y-62501080D01*
X33237080Y-61751080D02*
X33927080Y-61751080D01*
X31755080Y-60269080D02*
X33237080Y-61751080D01*
X88651080Y-68345080D02*
X88651080Y-63317080D01*
X87397080Y-108471080D02*
X84797080Y-105871080D01*
X89917080Y-77821080D02*
X89917080Y-69611080D01*
X92501080Y-110601080D02*
X88177080Y-110601080D01*
X93731080Y-111831080D02*
X92501080Y-110601080D01*
X88177080Y-110601080D02*
X87397080Y-109821080D01*
X87397080Y-109821080D02*
X87397080Y-108471080D01*
X85367080Y-82851080D02*
X86796082Y-82851080D01*
X84797080Y-83421080D02*
X85367080Y-82851080D01*
X84797080Y-105871080D02*
X84797080Y-83421080D01*
X86796082Y-82851080D02*
X87417080Y-82230082D01*
X87417080Y-80321080D02*
X89917080Y-77821080D01*
X87417080Y-82230082D02*
X87417080Y-80321080D01*
X89917080Y-69611080D02*
X88651080Y-68345080D01*
X36835080Y-57053080D02*
X36835080Y-52649080D01*
X35710079Y-58178081D02*
X36835080Y-57053080D01*
X35710079Y-63034079D02*
X35710079Y-58178081D01*
X35987080Y-63311080D02*
X35710079Y-63034079D01*
X106685080Y-64333080D02*
X106685080Y-62953080D01*
X106685080Y-62953080D02*
X108027080Y-61611080D01*
X108027080Y-61611080D02*
X108027080Y-59661080D01*
X108027080Y-59661080D02*
X107307080Y-58941080D01*
X107307080Y-58941080D02*
X106307080Y-58941080D01*
X106307080Y-58941080D02*
X105467080Y-58101080D01*
X105467080Y-58101080D02*
X105467080Y-55831080D01*
X106147080Y-55151080D02*
X106685080Y-54613080D01*
X106685080Y-54613080D02*
X106685080Y-52841080D01*
X105467080Y-55831080D02*
X106147080Y-55151080D01*
X106685080Y-52841080D02*
X106685080Y-47743080D01*
X106685080Y-47743080D02*
X106697080Y-47731080D01*
X29215080Y-58529080D02*
X29215080Y-60269080D01*
X34267080Y-48511080D02*
X35547080Y-49791080D01*
X35547080Y-49791080D02*
X35547080Y-53391080D01*
X27397080Y-51351080D02*
X26018080Y-51351080D01*
X35547080Y-53391080D02*
X34837080Y-54101080D01*
X34837080Y-54101080D02*
X28712080Y-54101080D01*
X27917080Y-53306080D02*
X27917080Y-51871080D01*
X28712080Y-54101080D02*
X27917080Y-53306080D01*
X27917080Y-51871080D02*
X27397080Y-51351080D01*
X26018080Y-51351080D02*
X25377080Y-51992080D01*
X25377080Y-51992080D02*
X25377080Y-56431080D01*
X25377080Y-56431080D02*
X26157080Y-57211080D01*
X26157080Y-57211080D02*
X27897080Y-57211080D01*
X27897080Y-57211080D02*
X29215080Y-58529080D01*
X101177080Y-61101080D02*
X101177080Y-50416070D01*
X102737080Y-69211080D02*
X102737080Y-62661080D01*
X102737080Y-62661080D02*
X101177080Y-61101080D01*
X252567080Y-70841080D02*
X252567080Y-68161080D01*
X255107080Y-65621080D02*
X255107080Y-63221080D01*
X252567080Y-68161080D02*
X255107080Y-65621080D01*
X227107080Y-63221080D02*
X227107080Y-65201080D01*
X224567080Y-67741080D02*
X224567080Y-67741080D01*
X227107080Y-65201080D02*
X224567080Y-67741080D01*
X224567080Y-67741080D02*
X224567080Y-70841080D01*
X138067080Y-70830400D02*
X138067080Y-65446080D01*
X140302760Y-63210400D02*
X140607080Y-63210400D01*
X138067080Y-65446080D02*
X140302760Y-63210400D01*
X148227080Y-101209710D02*
X148227080Y-96251078D01*
X148227080Y-102341080D02*
X148227080Y-101209710D01*
X140567080Y-86896080D02*
X140567080Y-91841080D01*
X139347080Y-85676080D02*
X140567080Y-86896080D01*
X139347080Y-83401080D02*
X139347080Y-85676080D01*
X138622080Y-82676080D02*
X139347080Y-83401080D01*
X136797080Y-82406080D02*
X137067080Y-82676080D01*
X137067080Y-82676080D02*
X138622080Y-82676080D01*
X139347080Y-75864670D02*
X136797080Y-78414670D01*
X136797080Y-78414670D02*
X136797080Y-82406080D01*
X139347080Y-72110400D02*
X139347080Y-75864670D01*
X138067080Y-70830400D02*
X139347080Y-72110400D01*
X252567080Y-102341080D02*
X252567080Y-99421080D01*
X255107080Y-96881080D02*
X255107080Y-94721080D01*
X252567080Y-99421080D02*
X255107080Y-96881080D01*
X168567080Y-67196080D02*
X168547080Y-67176080D01*
X168567080Y-70841080D02*
X168567080Y-67196080D01*
X171107080Y-64616080D02*
X168547080Y-67176080D01*
X171107080Y-63221080D02*
X171107080Y-64616080D01*
X139322080Y-94051080D02*
X139322080Y-98701080D01*
X140147080Y-93226080D02*
X139322080Y-94051080D01*
X141222080Y-93226080D02*
X140147080Y-93226080D01*
X141822080Y-92626080D02*
X141222080Y-93226080D01*
X141822080Y-86821080D02*
X141822080Y-92626080D01*
X140687080Y-100066080D02*
X140687080Y-102341080D01*
X139322080Y-98701080D02*
X140687080Y-100066080D01*
X143107080Y-85536080D02*
X141822080Y-86821080D01*
X143107080Y-84221080D02*
X143107080Y-85536080D01*
X117577080Y-99351080D02*
X118577080Y-100351080D01*
X117577080Y-93402450D02*
X117577080Y-99351080D01*
X118577080Y-100351080D02*
X121327080Y-100351080D01*
X119357080Y-91622450D02*
X117577080Y-93402450D01*
X119357080Y-90491080D02*
X119357080Y-91622450D01*
X161967091Y-108757480D02*
X161967091Y-71681069D01*
X161397080Y-113626080D02*
X161397080Y-109327491D01*
X138862080Y-115991080D02*
X159032080Y-115991080D01*
X161397080Y-109327491D02*
X161967091Y-108757480D01*
X136822080Y-113951080D02*
X138862080Y-115991080D01*
X161967091Y-71681069D02*
X162797080Y-70851080D01*
X136822080Y-110501080D02*
X136822080Y-113951080D01*
X159032080Y-115991080D02*
X161397080Y-113626080D01*
X139347080Y-107976080D02*
X136822080Y-110501080D01*
X139347080Y-104732450D02*
X139347080Y-107976080D01*
X140607080Y-103472450D02*
X139347080Y-104732450D01*
X140607080Y-102341080D02*
X140607080Y-103472450D01*
X199107080Y-66041080D02*
X196747080Y-68401080D01*
X199107080Y-63221080D02*
X199107080Y-66041080D01*
X196567080Y-70841080D02*
X196567080Y-68581080D01*
X196567080Y-68581080D02*
X196747080Y-68401080D01*
X213472080Y-70126080D02*
X211747080Y-68401080D01*
X213472080Y-93426080D02*
X213472080Y-70126080D01*
X214322080Y-94276080D02*
X213472080Y-93426080D01*
X53507080Y-70845080D02*
X53599080Y-70937080D01*
X43597080Y-99621080D02*
X43597080Y-94541080D01*
X41057080Y-102161080D02*
X43597080Y-99621080D01*
X53517080Y-65939080D02*
X53517080Y-67591080D01*
X53599080Y-67673080D02*
X53517080Y-67591080D01*
X53599080Y-70937080D02*
X53599080Y-67673080D01*
X56139080Y-63317080D02*
X53517080Y-65939080D01*
X30387080Y-69371080D02*
X30387080Y-68391080D01*
X28377080Y-71381080D02*
X30387080Y-69371080D01*
X28377080Y-96711080D02*
X28377080Y-71381080D01*
X29947080Y-98281080D02*
X28377080Y-96711080D01*
X104997080Y-59061080D02*
X103127080Y-59061080D01*
X102157080Y-58091080D02*
X102157080Y-50363068D01*
X106737080Y-60801080D02*
X104997080Y-59061080D01*
X100065092Y-48271080D02*
X41187080Y-48271080D01*
X102157080Y-50363068D02*
X100065092Y-48271080D01*
X103127080Y-59061080D02*
X102157080Y-58091080D01*
X54523080Y-61701080D02*
X56139080Y-63317080D01*
X54347080Y-61681080D02*
X54367080Y-61701080D01*
X52547080Y-61681080D02*
X54347080Y-61681080D01*
X52307080Y-54501080D02*
X52307080Y-61441080D01*
X52137080Y-54331080D02*
X52307080Y-54501080D01*
X50847080Y-54331080D02*
X52137080Y-54331080D01*
X49737080Y-53221080D02*
X50847080Y-54331080D01*
X54367080Y-61701080D02*
X54523080Y-61701080D01*
X49737080Y-51991080D02*
X49737080Y-53221080D01*
X49207080Y-51461080D02*
X49737080Y-51991080D01*
X52307080Y-61441080D02*
X52547080Y-61681080D01*
X41487080Y-51461080D02*
X49207080Y-51461080D01*
X41217080Y-51191080D02*
X41487080Y-51461080D01*
X130857080Y-51881080D02*
X130857080Y-64911080D01*
X129377080Y-50401080D02*
X130857080Y-51881080D01*
X132147080Y-66201080D02*
X132147080Y-71431080D01*
X118037080Y-51871080D02*
X119507080Y-50401080D01*
X118037080Y-53581080D02*
X118037080Y-51871080D01*
X119507080Y-50401080D02*
X129377080Y-50401080D01*
X118667080Y-54211080D02*
X118037080Y-53581080D01*
X120555080Y-54211080D02*
X118667080Y-54211080D01*
X130857080Y-64911080D02*
X132147080Y-66201080D01*
X121925080Y-52841080D02*
X120555080Y-54211080D01*
X58679080Y-65489080D02*
X58677080Y-65491080D01*
X58679080Y-63317080D02*
X58679080Y-65489080D01*
X56139080Y-70937080D02*
X56139080Y-68029080D01*
X56139080Y-68029080D02*
X58677080Y-65491080D01*
X67047080Y-110575080D02*
X65791080Y-111831080D01*
X67507080Y-108061080D02*
X67047080Y-108521080D01*
X71167080Y-108061080D02*
X67507080Y-108061080D01*
X72617080Y-106611080D02*
X71167080Y-108061080D01*
X72617080Y-100181080D02*
X72617080Y-106611080D01*
X75067080Y-97731080D02*
X72617080Y-100181080D01*
X75067080Y-93801080D02*
X75067080Y-97731080D01*
X74417080Y-93151080D02*
X75067080Y-93801080D01*
X73277080Y-93151080D02*
X74417080Y-93151080D01*
X71027080Y-70981080D02*
X72447080Y-72401080D01*
X75237080Y-73321080D02*
X75237080Y-75664670D01*
X67047080Y-108521080D02*
X67047080Y-110575080D01*
X72447080Y-72401080D02*
X74317080Y-72401080D01*
X73977070Y-76924680D02*
X73977070Y-79361070D01*
X74317080Y-72401080D02*
X75237080Y-73321080D01*
X75237080Y-75664670D02*
X73977070Y-76924680D01*
X73977070Y-79361070D02*
X75207080Y-80591080D01*
X75207080Y-82181080D02*
X74577080Y-82811080D01*
X75207080Y-80591080D02*
X75207080Y-82181080D01*
X74577080Y-82811080D02*
X73397080Y-82811080D01*
X73397080Y-82811080D02*
X72637080Y-83571080D01*
X72637080Y-83571080D02*
X72637080Y-92511080D01*
X72637080Y-92511080D02*
X73277080Y-93151080D01*
X97547080Y-72201080D02*
X98811080Y-70937080D01*
X97547080Y-77741080D02*
X97547080Y-77741080D01*
X97547080Y-77741080D02*
X97547080Y-72201080D01*
X121225080Y-51001080D02*
X119385080Y-52841080D01*
X128587080Y-51001080D02*
X121225080Y-51001080D01*
X130147080Y-52561080D02*
X128587080Y-51001080D01*
X130147080Y-65651080D02*
X130147080Y-52561080D01*
X131017080Y-66521080D02*
X130147080Y-65651080D01*
X131017080Y-72631080D02*
X131017080Y-66521080D01*
X132717080Y-74331080D02*
X131017080Y-72631080D01*
X132717080Y-76921080D02*
X132717080Y-74331080D01*
X61297080Y-70859080D02*
X61219080Y-70937080D01*
X61219080Y-70937080D02*
X61219080Y-67849080D01*
X61219080Y-65049080D02*
X61257080Y-65011080D01*
X63759080Y-63317080D02*
X62065080Y-65011080D01*
X62065080Y-65011080D02*
X61257080Y-65011080D01*
X61219080Y-67849080D02*
X61219080Y-65049080D01*
X39747080Y-86731080D02*
X39747080Y-66691080D01*
X42317080Y-89301080D02*
X39747080Y-86731080D01*
X42317080Y-98551080D02*
X42317080Y-89301080D01*
X39777080Y-101091080D02*
X42317080Y-98551080D01*
X41537080Y-105701080D02*
X39777080Y-103941080D01*
X39777080Y-103941080D02*
X39777080Y-101091080D01*
X41537080Y-106801080D02*
X41537080Y-105701080D01*
X40391080Y-107947080D02*
X41537080Y-106801080D01*
X39747080Y-66691080D02*
X39787080Y-66651080D01*
X40391080Y-109291080D02*
X40391080Y-107947080D01*
X124947080Y-58691080D02*
X125757080Y-57881080D01*
X121617080Y-58691080D02*
X124947080Y-58691080D01*
X125757080Y-57881080D02*
X125757080Y-54089080D01*
X120657080Y-59651080D02*
X121617080Y-58691080D01*
X120657080Y-67141080D02*
X120657080Y-59651080D01*
X125757080Y-54089080D02*
X127005080Y-52841080D01*
X119237080Y-68561080D02*
X120657080Y-67141080D01*
X119237080Y-71831080D02*
X119237080Y-68561080D01*
X93731080Y-66747080D02*
X92617080Y-67861080D01*
X93731080Y-63317080D02*
X93731080Y-66747080D01*
X109225080Y-49573080D02*
X109225080Y-52841080D01*
X110197080Y-48601080D02*
X109225080Y-49573080D01*
X112957080Y-49561080D02*
X111997080Y-48601080D01*
X112957080Y-53791080D02*
X112957080Y-49561080D01*
X113827080Y-54661080D02*
X112957080Y-53791080D01*
X122027080Y-54661080D02*
X113827080Y-54661080D01*
X124437080Y-77021080D02*
X125717080Y-75741080D01*
X128047080Y-59301080D02*
X128887080Y-58461080D01*
X125717080Y-75741080D02*
X125717080Y-68751080D01*
X123187080Y-53501080D02*
X122027080Y-54661080D01*
X125717080Y-68751080D02*
X123207080Y-66241080D01*
X123207080Y-66241080D02*
X123207080Y-60061080D01*
X123207080Y-60061080D02*
X123967080Y-59301080D01*
X128187080Y-51541080D02*
X123717080Y-51541080D01*
X123967080Y-59301080D02*
X128047080Y-59301080D01*
X128887080Y-58461080D02*
X128887080Y-52241080D01*
X111997080Y-48601080D02*
X110197080Y-48601080D01*
X128887080Y-52241080D02*
X128187080Y-51541080D01*
X123717080Y-51541080D02*
X123187080Y-52071080D01*
X123187080Y-52071080D02*
X123187080Y-53501080D01*
X58679080Y-70937080D02*
X56699317Y-72916843D01*
X56699317Y-72916843D02*
X56699317Y-76446090D01*
X66299080Y-70937080D02*
X65023790Y-72212370D01*
X65023790Y-72212370D02*
X65023790Y-76446090D01*
X57347080Y-54746765D02*
X57347080Y-51336090D01*
X59887080Y-57286765D02*
X57347080Y-54746765D01*
X59887080Y-69729080D02*
X59887080Y-57286765D01*
X58679080Y-70937080D02*
X59887080Y-69729080D01*
X41197080Y-57171080D02*
X41197080Y-57031080D01*
X42837080Y-58811080D02*
X41197080Y-57171080D01*
X62367080Y-68151080D02*
X62367080Y-75696080D01*
X64747080Y-65771080D02*
X62367080Y-68151080D01*
X87397080Y-95091080D02*
X86117080Y-96371080D01*
X89067080Y-89101080D02*
X88087080Y-89101080D01*
X89887080Y-88281080D02*
X89067080Y-89101080D01*
X89887080Y-79851080D02*
X89887080Y-88281080D01*
X88087080Y-89101080D02*
X87397080Y-89791080D01*
X91191080Y-78547080D02*
X89887080Y-79851080D01*
X87397080Y-89791080D02*
X87397080Y-95091080D01*
X91191080Y-73731080D02*
X91191080Y-78547080D01*
X31647080Y-69161080D02*
X31647080Y-66401080D01*
X28917080Y-71891080D02*
X31647080Y-69161080D01*
X28917080Y-93121080D02*
X28917080Y-71891080D01*
X31127080Y-95331080D02*
X28917080Y-93121080D01*
X33437080Y-99221080D02*
X33437080Y-99221080D01*
X34647080Y-98011080D02*
X33437080Y-99221080D01*
X34647080Y-72271080D02*
X34647080Y-98011080D01*
X35987080Y-70931080D02*
X34647080Y-72271080D01*
X37197080Y-76091080D02*
X38027080Y-76921080D01*
X37197080Y-72261080D02*
X37197080Y-76091080D01*
X38527080Y-70931080D02*
X37197080Y-72261080D01*
X43607080Y-67641080D02*
X43587080Y-67661080D01*
X43607080Y-63311080D02*
X43607080Y-67641080D01*
X25597080Y-69361080D02*
X28337080Y-66621080D01*
X32937080Y-106061080D02*
X32937080Y-107364082D01*
X28337080Y-66621080D02*
X28337080Y-64591080D01*
X32937080Y-107364082D02*
X32155081Y-108146081D01*
X32155081Y-108146081D02*
X31459079Y-108146081D01*
X31459079Y-108146081D02*
X24387080Y-101074082D01*
X24387080Y-101074082D02*
X24387080Y-75941080D01*
X24387080Y-75941080D02*
X25597080Y-74731080D01*
X25597080Y-74731080D02*
X25597080Y-69361080D01*
X51157080Y-77091080D02*
X51157080Y-102071080D01*
X51747080Y-76501080D02*
X51157080Y-77091080D01*
X51747080Y-73188078D02*
X51747080Y-76501080D01*
X50870082Y-72311080D02*
X51747080Y-73188078D01*
X44987080Y-72311080D02*
X50870082Y-72311080D01*
X51157080Y-102071080D02*
X51367080Y-102281080D01*
X43607080Y-70931080D02*
X44987080Y-72311080D01*
X58337080Y-114041080D02*
X63247080Y-114041080D01*
X56847080Y-112551080D02*
X58337080Y-114041080D01*
X56847080Y-108821080D02*
X56847080Y-112551080D01*
X58679080Y-106989080D02*
X56847080Y-108821080D01*
X58679080Y-102179080D02*
X58679080Y-106989080D01*
X252567080Y-81341080D02*
X252567080Y-79021080D01*
X255107080Y-76481080D02*
X255107080Y-73721080D01*
X252567080Y-79021080D02*
X255107080Y-76481080D01*
X224567080Y-81341080D02*
X224567080Y-78961080D01*
X227107080Y-76421080D02*
X227107080Y-73721080D01*
X224567080Y-78961080D02*
X227107080Y-76421080D01*
X140607080Y-76666080D02*
X140607080Y-73721080D01*
X138067080Y-79206080D02*
X140607080Y-76666080D01*
X138067080Y-81341080D02*
X138067080Y-79206080D01*
X135627080Y-84081080D02*
X135627080Y-82971080D01*
X138027080Y-86481080D02*
X135627080Y-84081080D01*
X138027080Y-91841080D02*
X138027080Y-86481080D01*
X145687080Y-102341080D02*
X145687081Y-101209709D01*
X145687081Y-101209709D02*
X145687081Y-96221091D01*
X252567080Y-112841080D02*
X252567080Y-110151080D01*
X255107080Y-107611080D02*
X255107080Y-105221080D01*
X252567080Y-110151080D02*
X255107080Y-107611080D01*
X196567080Y-81341080D02*
X197822080Y-80086080D01*
X197822080Y-80086080D02*
X197807080Y-80086080D01*
X196597080Y-78876080D02*
X196572080Y-78876080D01*
X197807080Y-80086080D02*
X196597080Y-78876080D01*
X199107080Y-76341080D02*
X196572080Y-78876080D01*
X199107080Y-73721080D02*
X199107080Y-76341080D01*
X145647080Y-84221080D02*
X145647080Y-87501080D01*
X145647080Y-87501080D02*
X144322080Y-88826080D01*
X171107080Y-76366078D02*
X168647080Y-78826078D01*
X171107080Y-73721080D02*
X171107080Y-76366078D01*
X168567080Y-81341080D02*
X168567080Y-78906078D01*
X168567080Y-78906078D02*
X168647080Y-78826078D01*
X162872080Y-78926080D02*
X162822080Y-78876080D01*
X162872080Y-86776080D02*
X162872080Y-78926080D01*
X138067080Y-102341080D02*
X138067080Y-100121080D01*
X138067080Y-100121080D02*
X136797080Y-98851080D01*
X136797080Y-98851080D02*
X136797080Y-87961080D01*
X219147080Y-108801080D02*
X219147080Y-78801080D01*
X115507080Y-92771080D02*
X115507080Y-101041080D01*
X116817080Y-91461080D02*
X115507080Y-92771080D01*
X116817080Y-90491080D02*
X116817080Y-91461080D01*
X224567080Y-112841080D02*
X224567080Y-110191080D01*
X227107080Y-107651080D02*
X227107080Y-105221080D01*
X224567080Y-110191080D02*
X227107080Y-107651080D01*
X196567080Y-112841080D02*
X196567080Y-110741080D01*
X199107080Y-108201080D02*
X199107080Y-105221080D01*
X196567080Y-110741080D02*
X199107080Y-108201080D01*
X168567080Y-112841080D02*
X168567080Y-110631080D01*
X171107080Y-108091080D02*
X171107080Y-105221080D01*
X168567080Y-110631080D02*
X171107080Y-108091080D01*
X109197080Y-90031080D02*
X109197080Y-90491080D01*
X107937080Y-88771080D02*
X109197080Y-90031080D01*
X107937080Y-82751078D02*
X107937080Y-88771080D01*
X35967080Y-89571080D02*
X35967080Y-84131080D01*
X37247080Y-90851080D02*
X35967080Y-89571080D01*
X37247080Y-97531080D02*
X37247080Y-90851080D01*
X36577080Y-101561080D02*
X36577080Y-98201080D01*
X36577080Y-98201080D02*
X37247080Y-97531080D01*
X35977080Y-102161080D02*
X36577080Y-101561080D01*
X162887080Y-106831080D02*
X162747080Y-106691080D01*
X162747080Y-106691080D02*
X162747080Y-94401080D01*
X150727080Y-90581080D02*
X150727080Y-91841080D01*
X146922080Y-86776080D02*
X150727080Y-90581080D01*
X146922080Y-83501080D02*
X146922080Y-86776080D01*
X146222080Y-82801080D02*
X146922080Y-83501080D01*
X144397080Y-82151080D02*
X145047080Y-82801080D01*
X145047080Y-82801080D02*
X146222080Y-82801080D01*
X144397080Y-77951080D02*
X144397080Y-82151080D01*
X145672080Y-76676080D02*
X144397080Y-77951080D01*
X93731080Y-81351080D02*
X93731080Y-73731080D01*
X113180079Y-58078081D02*
X113180079Y-66438081D01*
X113180079Y-66438081D02*
X111657080Y-67961080D01*
X114332080Y-56926080D02*
X113180079Y-58078081D01*
X93731080Y-73731080D02*
X94947080Y-72515080D01*
X94947080Y-72515080D02*
X94947080Y-67941080D01*
X96271080Y-73731080D02*
X96271080Y-78205080D01*
X96271080Y-78205080D02*
X96757080Y-78691080D01*
X96757080Y-78691080D02*
X99167080Y-78691080D01*
X99167080Y-78691080D02*
X100087080Y-77771080D01*
X100087080Y-77771080D02*
X100087080Y-75781080D01*
X100087080Y-75781080D02*
X100787080Y-75081080D01*
X100787080Y-75081080D02*
X102097080Y-75081080D01*
X102787080Y-75771080D02*
X102787080Y-88211080D01*
X102097080Y-75081080D02*
X102787080Y-75771080D01*
X48667080Y-90021080D02*
X48617080Y-90071080D01*
X48667080Y-84131080D02*
X48667080Y-90021080D01*
X87377080Y-86711080D02*
X88367080Y-87701080D01*
X87377080Y-83281080D02*
X87377080Y-86711080D01*
X88651080Y-82007080D02*
X87377080Y-83281080D01*
X88651080Y-81351080D02*
X88651080Y-82007080D01*
X43587080Y-85991080D02*
X42347078Y-84751078D01*
X43587080Y-91751080D02*
X43587080Y-85991080D01*
X42347078Y-84751078D02*
X42347078Y-77601080D01*
X100137080Y-58381080D02*
X100257080Y-58261080D01*
X100137080Y-72517080D02*
X100137080Y-58381080D01*
X101351080Y-73731080D02*
X100137080Y-72517080D01*
X38517080Y-102161080D02*
X38517080Y-100971080D01*
X41057080Y-98431080D02*
X41057080Y-94541080D01*
X38517080Y-100971080D02*
X41057080Y-98431080D01*
X83817080Y-77791080D02*
X85237078Y-76371082D01*
X83817080Y-94511080D02*
X83817080Y-77791080D01*
X83257080Y-95071080D02*
X83817080Y-94511080D01*
X60577080Y-77191080D02*
X61219080Y-76549080D01*
X61219080Y-76549080D02*
X61219080Y-73731080D01*
X55067080Y-77191080D02*
X60577080Y-77191080D01*
X53427080Y-78831080D02*
X55067080Y-77191080D01*
X53427080Y-81541080D02*
X53427080Y-78831080D01*
X52227080Y-85931080D02*
X52227080Y-82741080D01*
X53647080Y-87351080D02*
X52227080Y-85931080D01*
X52227080Y-82741080D02*
X53427080Y-81541080D01*
X53647080Y-88401080D02*
X53647080Y-87351080D01*
X71379080Y-91765080D02*
X71379080Y-88293080D01*
X71379080Y-88293080D02*
X70717080Y-87631080D01*
X124517080Y-64281080D02*
X124467080Y-64331080D01*
X124517080Y-60801080D02*
X124517080Y-64281080D01*
X123117080Y-84621080D02*
X123117080Y-96091080D01*
X125957080Y-81781080D02*
X123117080Y-84621080D01*
X125957080Y-80941080D02*
X125957080Y-81781080D01*
X123117080Y-96091080D02*
X123087080Y-96121080D01*
X128420079Y-69944079D02*
X128420079Y-78478081D01*
X124467080Y-65991080D02*
X128420079Y-69944079D01*
X128420079Y-78478081D02*
X125957080Y-80941080D01*
X124467080Y-64331080D02*
X124467080Y-65991080D01*
X76077073Y-83921073D02*
X76077073Y-91741073D01*
X76077073Y-91741073D02*
X76077080Y-91741080D01*
X51247080Y-73741080D02*
X50717080Y-73211080D01*
X51247080Y-76271080D02*
X51247080Y-73741080D01*
X50607080Y-76911080D02*
X51247080Y-76271080D01*
X48011080Y-105017080D02*
X50607080Y-102421080D01*
X50607080Y-102421080D02*
X50607080Y-76911080D01*
X48011080Y-109291080D02*
X48011080Y-105017080D01*
X49247080Y-110527080D02*
X49247080Y-106581080D01*
X50551080Y-111831080D02*
X49247080Y-110527080D01*
X82707080Y-82326070D02*
X80562090Y-80181080D01*
X82707080Y-92931080D02*
X82707080Y-82326070D01*
X82247080Y-93391080D02*
X82707080Y-92931080D01*
X79197080Y-103621080D02*
X79197080Y-94971080D01*
X81787080Y-106211080D02*
X79197080Y-103621080D01*
X80777080Y-93391080D02*
X82247080Y-93391080D01*
X79197080Y-94971080D02*
X80777080Y-93391080D01*
X72697080Y-82451080D02*
X72697080Y-74953080D01*
X72327080Y-82821080D02*
X72697080Y-82451080D01*
X70897080Y-82821080D02*
X72327080Y-82821080D01*
X71517080Y-104631080D02*
X70254079Y-103368079D01*
X70254079Y-103368079D02*
X70254079Y-100964081D01*
X70254079Y-100964081D02*
X72627080Y-98591080D01*
X72627080Y-93701080D02*
X72037080Y-93111080D01*
X68787080Y-89941080D02*
X68787080Y-86491080D01*
X70097080Y-85181080D02*
X70097080Y-83621080D01*
X72037080Y-93111080D02*
X70717080Y-93111080D01*
X70717080Y-93111080D02*
X70077080Y-92471080D01*
X72697080Y-74953080D02*
X73919080Y-73731080D01*
X70077080Y-91231080D02*
X68787080Y-89941080D01*
X70077080Y-92471080D02*
X70077080Y-91231080D01*
X72627080Y-98591080D02*
X72627080Y-93701080D01*
X68787080Y-86491080D02*
X70097080Y-85181080D01*
X70097080Y-83621080D02*
X70897080Y-82821080D01*
X45471080Y-109291080D02*
X45471080Y-105955080D01*
X45471080Y-105955080D02*
X45397080Y-105881080D01*
X54787080Y-98381080D02*
X54787080Y-79721080D01*
X52474079Y-100694081D02*
X54787080Y-98381080D01*
X52474079Y-107368081D02*
X52474079Y-100694081D01*
X50551080Y-109291080D02*
X52474079Y-107368081D01*
X111817080Y-64281080D02*
X111765080Y-64333080D01*
X111817080Y-60801080D02*
X111817080Y-64281080D01*
X111765080Y-64333080D02*
X111765080Y-66463080D01*
X111765080Y-66463080D02*
X110407080Y-67821080D01*
X110407080Y-67821080D02*
X110407080Y-87721080D01*
X110407080Y-87721080D02*
X111447080Y-88761080D01*
X111447080Y-88761080D02*
X112057080Y-88761080D01*
X112057080Y-88761080D02*
X112997080Y-89701080D01*
X112997080Y-89701080D02*
X112997080Y-95531080D01*
X112997080Y-95531080D02*
X112857080Y-95671080D01*
X96271080Y-96965080D02*
X97467080Y-98161080D01*
X96271080Y-94559080D02*
X96271080Y-96965080D01*
X75307080Y-83221080D02*
X75307080Y-92341080D01*
X75847080Y-82681080D02*
X75307080Y-83221080D01*
X77787080Y-81941080D02*
X77047080Y-82681080D01*
X76107080Y-93141080D02*
X76107080Y-97901080D01*
X75307080Y-92341080D02*
X76107080Y-93141080D01*
X77787080Y-80531080D02*
X77787080Y-81941080D01*
X77307080Y-80051080D02*
X77787080Y-80531080D01*
X77047080Y-82681080D02*
X75847080Y-82681080D01*
X75127080Y-79281080D02*
X75897080Y-80051080D01*
X75897080Y-80051080D02*
X77307080Y-80051080D01*
X75127080Y-76621080D02*
X75127080Y-79281080D01*
X76459080Y-75289080D02*
X75127080Y-76621080D01*
X76459080Y-73731080D02*
X76459080Y-75289080D01*
X114357080Y-64281080D02*
X114305080Y-64333080D01*
X114357080Y-60801080D02*
X114357080Y-64281080D01*
X65037080Y-96091080D02*
X67587080Y-98641080D01*
X65037080Y-82613080D02*
X65037080Y-96091080D01*
X66299080Y-81351080D02*
X65037080Y-82613080D01*
X114305080Y-64333080D02*
X114305080Y-68779080D01*
X115557080Y-91361080D02*
X114037080Y-92881080D01*
X114305080Y-68779080D02*
X113037080Y-70047080D01*
X113037080Y-78531080D02*
X115557080Y-81051080D01*
X113037080Y-70047080D02*
X113037080Y-78531080D01*
X114037080Y-92881080D02*
X114037080Y-94521080D01*
X115557080Y-81051080D02*
X115557080Y-91361080D01*
X63757080Y-73733080D02*
X63759080Y-73731080D01*
X63227070Y-77801090D02*
X63757080Y-77271080D01*
X55512081Y-102836079D02*
X55512081Y-80129669D01*
X57840660Y-77801090D02*
X63227070Y-77801090D01*
X53547080Y-104801080D02*
X55512081Y-102836079D01*
X53547080Y-107001080D02*
X53547080Y-104801080D01*
X51747080Y-108801080D02*
X53547080Y-107001080D01*
X51747080Y-112301080D02*
X51747080Y-108801080D01*
X63757080Y-77271080D02*
X63757080Y-73733080D01*
X52547080Y-113101080D02*
X51747080Y-112301080D01*
X55512081Y-80129669D02*
X57840660Y-77801090D01*
X54361080Y-113101080D02*
X52547080Y-113101080D01*
X55631080Y-111831080D02*
X54361080Y-113101080D01*
X62549080Y-80141080D02*
X63759080Y-81351080D01*
X60587080Y-80141080D02*
X62549080Y-80141080D01*
X57077080Y-83801080D02*
X58037080Y-82841080D01*
X59997080Y-80731080D02*
X60587080Y-80141080D01*
X58037080Y-82841080D02*
X59374082Y-82841080D01*
X59374082Y-82841080D02*
X59997080Y-82218082D01*
X55631080Y-109291080D02*
X57077080Y-107845080D01*
X57077080Y-107845080D02*
X57077080Y-83801080D01*
X59997080Y-82218082D02*
X59997080Y-80731080D01*
X54178081Y-110744079D02*
X53091080Y-111831080D01*
X54178081Y-105040079D02*
X54178081Y-110744079D01*
X55977070Y-103241090D02*
X54178081Y-105040079D01*
X57997080Y-78281080D02*
X55977070Y-80301090D01*
X55977070Y-80301090D02*
X55977070Y-103241090D01*
X64967080Y-78281080D02*
X57997080Y-78281080D01*
X66299080Y-76949080D02*
X64967080Y-78281080D01*
X66299080Y-73731080D02*
X66299080Y-76949080D01*
X61219080Y-82119080D02*
X61219080Y-81351080D01*
X59947080Y-83391080D02*
X61219080Y-82119080D01*
X59947080Y-107515080D02*
X59947080Y-83391080D01*
X58171080Y-109291080D02*
X59947080Y-107515080D01*
X109277080Y-64281080D02*
X109225080Y-64333080D01*
X109277080Y-60801080D02*
X109277080Y-64281080D01*
X91117080Y-94633080D02*
X91191080Y-94559080D01*
X91117080Y-98651080D02*
X91117080Y-94633080D01*
X105217078Y-93551078D02*
X105217078Y-97351080D01*
X103867080Y-92201080D02*
X105217078Y-93551078D01*
X103867080Y-69691080D02*
X103867080Y-92201080D01*
X109225080Y-64333080D02*
X103867080Y-69691080D01*
X68839080Y-78749080D02*
X67587080Y-80001080D01*
X68839080Y-73731080D02*
X68839080Y-78749080D01*
X67587080Y-80001080D02*
X67587080Y-96576101D01*
X67587080Y-96576101D02*
X69677080Y-98666101D01*
X119437080Y-64281080D02*
X119385080Y-64333080D01*
X119437080Y-60801080D02*
X119437080Y-64281080D01*
X89957080Y-91071080D02*
X92587080Y-88441080D01*
X89957080Y-100945080D02*
X89957080Y-91071080D01*
X92587080Y-88441080D02*
X92587080Y-78671080D01*
X91191080Y-102179080D02*
X89957080Y-100945080D01*
X41027080Y-76751080D02*
X41067080Y-76791080D01*
X41027080Y-73721080D02*
X41027080Y-76751080D01*
X92447080Y-58421080D02*
X92517080Y-58351080D01*
X92447080Y-64161080D02*
X92447080Y-58421080D01*
X90347080Y-66261080D02*
X92447080Y-64161080D01*
X90347080Y-68428078D02*
X90347080Y-66261080D01*
X92587080Y-70668078D02*
X90347080Y-68428078D01*
X92587080Y-78671080D02*
X92587080Y-70668078D01*
X27367080Y-66301080D02*
X27367080Y-65331080D01*
X24907080Y-74091080D02*
X24907080Y-68761080D01*
X24907080Y-68761080D02*
X27367080Y-66301080D01*
X23657080Y-101361080D02*
X23657080Y-75341080D01*
X30975937Y-108679937D02*
X23657080Y-101361080D01*
X33370870Y-108679937D02*
X30975937Y-108679937D01*
X23657080Y-75341080D02*
X24907080Y-74091080D01*
X33770869Y-108279938D02*
X33370870Y-108679937D01*
X63251080Y-109291080D02*
X65077080Y-107465080D01*
X65077080Y-107465080D02*
X65077080Y-97941082D01*
X29127080Y-102201080D02*
X29127080Y-104741080D01*
X29127080Y-104741080D02*
X31807080Y-107421080D01*
X25697080Y-98771080D02*
X29127080Y-102201080D01*
X25697080Y-83751080D02*
X25697080Y-98771080D01*
X25217080Y-83271080D02*
X25697080Y-83751080D01*
X25217080Y-76291080D02*
X25217080Y-83271080D01*
X26377080Y-75131080D02*
X25217080Y-76291080D01*
X26377080Y-69681080D02*
X26377080Y-75131080D01*
X116897080Y-64281080D02*
X116845080Y-64333080D01*
X116897080Y-60801080D02*
X116897080Y-64281080D01*
X117645079Y-65133079D02*
X116845080Y-64333080D01*
X118157080Y-65645080D02*
X117645079Y-65133079D01*
X117537080Y-75761080D02*
X118157080Y-75141080D01*
X116047080Y-75761080D02*
X117537080Y-75761080D01*
X115547080Y-76261080D02*
X116047080Y-75761080D01*
X118157080Y-75141080D02*
X118157080Y-65645080D01*
X115547080Y-79391080D02*
X115547080Y-76261080D01*
X118097080Y-81941080D02*
X115547080Y-79391080D01*
X118097080Y-91431080D02*
X118097080Y-81941080D01*
X116627080Y-92901080D02*
X118097080Y-91431080D01*
X116627080Y-104991080D02*
X116627080Y-92901080D01*
X37247080Y-82581080D02*
X38487080Y-81341080D01*
X37247080Y-88741078D02*
X37247080Y-82581080D01*
X39747080Y-91241078D02*
X37247080Y-88741078D01*
X39747080Y-96001080D02*
X39747080Y-91241078D01*
X37282081Y-98466079D02*
X39747080Y-96001080D01*
X37282081Y-103086081D02*
X37282081Y-98466079D01*
X38557080Y-104361080D02*
X37282081Y-103086081D01*
X121977080Y-64281080D02*
X121925080Y-64333080D01*
X121977080Y-60801080D02*
X121977080Y-64281080D01*
X120627080Y-96571080D02*
X119447080Y-97751080D01*
X120627080Y-85441080D02*
X120627080Y-96571080D01*
X123187080Y-82881080D02*
X120627080Y-85441080D01*
X123187080Y-69751080D02*
X123187080Y-82881080D01*
X121925080Y-68489080D02*
X123187080Y-69751080D01*
X121925080Y-64333080D02*
X121925080Y-68489080D01*
X96271080Y-99115080D02*
X96267080Y-99111080D01*
X96271080Y-102179080D02*
X96271080Y-99115080D01*
X50047080Y-97586090D02*
X48497080Y-99136090D01*
X50047080Y-83561080D02*
X50047080Y-97586090D01*
X49207080Y-82721080D02*
X50047080Y-83561080D01*
X48123490Y-82721080D02*
X49207080Y-82721080D01*
X47337080Y-81934670D02*
X48123490Y-82721080D01*
X47337080Y-75031080D02*
X47337080Y-81934670D01*
X48647080Y-73721080D02*
X47337080Y-75031080D01*
X32687080Y-104401080D02*
X32687080Y-104401080D01*
X27767080Y-81601080D02*
X27427080Y-81261080D01*
X27767080Y-97461080D02*
X27767080Y-81601080D01*
X31477080Y-101171080D02*
X27767080Y-97461080D01*
X31477080Y-103191080D02*
X31477080Y-101171080D01*
X32687080Y-104401080D02*
X31477080Y-103191080D01*
X26687080Y-82461080D02*
X26687080Y-77781080D01*
X27097080Y-82871080D02*
X26687080Y-82461080D01*
X27097080Y-97941080D02*
X27097080Y-82871080D01*
X30707080Y-101551080D02*
X27097080Y-97941080D01*
X30707080Y-103761080D02*
X30707080Y-101551080D01*
X43693080Y-82087080D02*
X43693080Y-81351080D01*
X44857080Y-105231080D02*
X44857080Y-83251080D01*
X44857080Y-83251080D02*
X43693080Y-82087080D01*
X44187080Y-105901080D02*
X44857080Y-105231080D01*
X44187080Y-110547080D02*
X44187080Y-105901080D01*
X45471080Y-111831080D02*
X44187080Y-110547080D01*
X25917080Y-82861080D02*
X25917080Y-76851080D01*
X26407080Y-83351080D02*
X25917080Y-82861080D01*
X26407080Y-98401080D02*
X26407080Y-83351080D01*
X29847080Y-101841080D02*
X26407080Y-98401080D01*
X29847080Y-104271056D02*
X29847080Y-101841080D01*
X25917080Y-76851080D02*
X25987080Y-76781080D01*
X31020270Y-105444246D02*
X29847080Y-104271056D01*
X127057080Y-64281080D02*
X127005080Y-64333080D01*
X127057080Y-60801080D02*
X127057080Y-64281080D01*
X128257080Y-102081080D02*
X127957080Y-102381080D01*
X128257080Y-83131080D02*
X128257080Y-102081080D01*
X131017080Y-74011080D02*
X131017080Y-80371080D01*
X129463080Y-72457080D02*
X131017080Y-74011080D01*
X129463080Y-69441080D02*
X129463080Y-72457080D01*
X131017080Y-80371080D02*
X128257080Y-83131080D01*
X127005080Y-66983080D02*
X129463080Y-69441080D01*
X127005080Y-64333080D02*
X127005080Y-66983080D01*
X45977080Y-97311080D02*
X45977080Y-99136090D01*
X47347080Y-95941080D02*
X45977080Y-97311080D01*
X47347080Y-82581080D02*
X47347080Y-95941080D01*
X46107080Y-81341080D02*
X47347080Y-82581080D01*
X224567080Y-91841080D02*
X224567080Y-89621080D01*
X227107080Y-87081080D02*
X227107080Y-84221080D01*
X224567080Y-89621080D02*
X227107080Y-87081080D01*
X196567080Y-91841080D02*
X196567080Y-89681080D01*
X199107080Y-87141080D02*
X199107080Y-84221080D01*
X196567080Y-89681080D02*
X199107080Y-87141080D01*
X168567080Y-91841080D02*
X168567080Y-89831080D01*
X171107080Y-87291080D02*
X171107080Y-84221080D01*
X168567080Y-89831080D02*
X171107080Y-87291080D01*
X112907080Y-88351080D02*
X112907080Y-84741080D01*
X114277080Y-89721080D02*
X112907080Y-88351080D01*
X114277080Y-90491080D02*
X114277080Y-89721080D01*
X134197080Y-85481080D02*
X133417080Y-84701080D01*
X135527080Y-102341080D02*
X134197080Y-101011080D01*
X134197080Y-101011080D02*
X134197080Y-85481080D01*
X224567080Y-102341080D02*
X224567080Y-99801080D01*
X227107080Y-97261080D02*
X227107080Y-94721080D01*
X224567080Y-99801080D02*
X227107080Y-97261080D01*
X196567080Y-102341080D02*
X196567080Y-100341080D01*
X199107080Y-97801080D02*
X199107080Y-94721080D01*
X196567080Y-100341080D02*
X199107080Y-97801080D01*
X168567080Y-102341080D02*
X168567080Y-100206080D01*
X171107080Y-97666080D02*
X171107080Y-94721080D01*
X168567080Y-100206080D02*
X171107080Y-97666080D01*
X111737080Y-90491080D02*
X111737080Y-101041080D01*
X111737080Y-101041080D02*
X112697080Y-102001080D01*
X132987080Y-102341080D02*
X132987080Y-96841091D01*
X132987080Y-96841091D02*
X132987069Y-96841080D01*
X152547080Y-98251082D02*
X152527080Y-98271082D01*
X152547080Y-96411080D02*
X152547080Y-98251082D01*
X151977080Y-95841080D02*
X152547080Y-96411080D01*
X151977080Y-85471080D02*
X151977080Y-95841080D01*
X150727080Y-84221080D02*
X151977080Y-85471080D01*
X153267080Y-89371080D02*
X153272080Y-89376080D01*
X153267080Y-84221080D02*
X153267080Y-89371080D01*
X38507080Y-84131080D02*
X38507080Y-86931629D01*
X38507080Y-86931629D02*
X38342619Y-87096090D01*
X79937080Y-103288078D02*
X79937080Y-96521080D01*
X82512081Y-105863079D02*
X79937080Y-103288078D01*
X82512081Y-106866079D02*
X82512081Y-105863079D01*
X80074081Y-108204079D02*
X81174081Y-108204079D01*
X81174081Y-108204079D02*
X82512081Y-106866079D01*
X79747080Y-108531080D02*
X80074081Y-108204079D01*
X79747080Y-110575080D02*
X79747080Y-108531080D01*
X79937080Y-96521080D02*
X80477080Y-95981080D01*
X78491080Y-111831080D02*
X79747080Y-110575080D01*
X101351080Y-88555080D02*
X101351080Y-84145080D01*
X103091081Y-90295081D02*
X101351080Y-88555080D01*
X103091081Y-93759081D02*
X103091081Y-90295081D01*
X103891080Y-94559080D02*
X103091081Y-93759081D01*
X88647080Y-91761080D02*
X88651080Y-91765080D01*
X89007080Y-89881080D02*
X88647080Y-90241080D01*
X89987080Y-89881080D02*
X89007080Y-89881080D01*
X88647080Y-90241080D02*
X88647080Y-91761080D01*
X91191080Y-88677080D02*
X89987080Y-89881080D01*
X91191080Y-84145080D02*
X91191080Y-88677080D01*
X100047080Y-85381080D02*
X98811080Y-84145080D01*
X100047080Y-99281080D02*
X100047080Y-85381080D01*
X100887080Y-100121080D02*
X100047080Y-99281080D01*
X101833080Y-100121080D02*
X100887080Y-100121080D01*
X103891080Y-102179080D02*
X101833080Y-100121080D01*
X92457080Y-93031080D02*
X91191080Y-91765080D01*
X92457080Y-102811080D02*
X92457080Y-93031080D01*
X91737080Y-103531080D02*
X92457080Y-102811080D01*
X90003080Y-103531080D02*
X91737080Y-103531080D01*
X88651080Y-102179080D02*
X90003080Y-103531080D01*
X96271080Y-86495080D02*
X96271080Y-84145080D01*
X97497080Y-92113710D02*
X97497080Y-87721080D01*
X97497080Y-87721080D02*
X96271080Y-86495080D01*
X98811080Y-93427710D02*
X97497080Y-92113710D01*
X98811080Y-94559080D02*
X98811080Y-93427710D01*
X95007080Y-93041080D02*
X93731080Y-91765080D01*
X95007080Y-96001080D02*
X95007080Y-93041080D01*
X93731080Y-97277080D02*
X95007080Y-96001080D01*
X93731080Y-102179080D02*
X93731080Y-97277080D01*
X93731080Y-89877080D02*
X93731080Y-84145080D01*
X92487080Y-91121080D02*
X93731080Y-89877080D01*
X92487080Y-92381080D02*
X92487080Y-91121080D01*
X93731080Y-93625080D02*
X92487080Y-92381080D01*
X93731080Y-94559080D02*
X93731080Y-93625080D01*
X98811080Y-102179080D02*
X98811080Y-97185080D01*
X98811080Y-97185080D02*
X97557080Y-95931080D01*
X97557080Y-93051080D02*
X96271080Y-91765080D01*
X97557080Y-95931080D02*
X97557080Y-93051080D01*
X98811080Y-86195080D02*
X98797080Y-86181080D01*
X98811080Y-91765080D02*
X98811080Y-86195080D01*
X86111080Y-102179080D02*
X86111080Y-99887080D01*
X88651080Y-97347080D02*
X88651080Y-94559080D01*
X86111080Y-99887080D02*
X88651080Y-97347080D01*
X75877080Y-106961080D02*
X75877080Y-102171082D01*
X75877080Y-102171082D02*
X75877078Y-102171080D01*
X74727080Y-108111080D02*
X75877080Y-106961080D01*
X74727080Y-109821080D02*
X74727080Y-108111080D01*
X75467080Y-110561080D02*
X74727080Y-109821080D01*
X75951080Y-111831080D02*
X75467080Y-111347080D01*
X75447080Y-111327080D02*
X75447080Y-110615080D01*
X75951080Y-111831080D02*
X75447080Y-111327080D01*
X81127080Y-70971080D02*
X81127080Y-72221080D01*
X81127080Y-72221080D02*
X78807080Y-74541080D01*
X78807080Y-74541080D02*
X78807080Y-86961080D01*
X78807080Y-86961080D02*
X77997080Y-87771080D01*
X81127080Y-70971080D02*
X81127080Y-66371080D01*
X81127080Y-66371080D02*
X81057080Y-66301080D01*
X38747080Y-88301080D02*
X38747080Y-88191080D01*
X41047080Y-90601080D02*
X38747080Y-88301080D01*
X41047080Y-91751080D02*
X41047080Y-90601080D01*
X32810082Y-103631078D02*
X35447080Y-103631078D01*
X32102082Y-102923078D02*
X32810082Y-103631078D01*
X32102082Y-93916078D02*
X32102082Y-102923078D01*
X33427080Y-92591080D02*
X32102082Y-93916078D01*
X33427080Y-91751080D02*
X33427080Y-92591080D01*
X135527080Y-98881080D02*
X135527080Y-94721080D01*
X136107080Y-103841080D02*
X136747080Y-103201080D01*
X134432080Y-103841080D02*
X136107080Y-103841080D01*
X136747080Y-100101080D02*
X135527080Y-98881080D01*
X132172080Y-106101080D02*
X134432080Y-103841080D01*
X136747080Y-103201080D02*
X136747080Y-100101080D01*
X132187080Y-113341080D02*
X132172080Y-106101080D01*
X138067080Y-98746080D02*
X138067080Y-94721080D01*
X139347080Y-100026080D02*
X138067080Y-98746080D01*
X138802080Y-103871080D02*
X139347080Y-103326080D01*
X137452080Y-103871080D02*
X138802080Y-103871080D01*
X136797080Y-104526080D02*
X137452080Y-103871080D01*
X136797080Y-106126080D02*
X136797080Y-104526080D01*
X133247080Y-109676080D02*
X136797080Y-106126080D01*
X139347080Y-103326080D02*
X139347080Y-100026080D01*
X133247080Y-112561080D02*
X133247080Y-109676080D01*
X141847080Y-111471080D02*
X141847080Y-99951080D01*
X141847080Y-99951080D02*
X140607080Y-98711080D01*
X140607080Y-98711080D02*
X140607080Y-94721080D01*
X144072080Y-110601080D02*
X144072080Y-106751080D01*
X144072080Y-106751080D02*
X144397080Y-106426080D01*
X144397080Y-106426080D02*
X144397080Y-99951080D01*
X144397080Y-99951080D02*
X143147080Y-98701080D01*
X143147080Y-98701080D02*
X143147080Y-94721080D01*
X146947082Y-95981082D02*
X146947082Y-109746101D01*
X145687080Y-94721080D02*
X146947082Y-95981082D01*
X149477080Y-95971080D02*
X149477080Y-109296090D01*
X148227080Y-94721080D02*
X149477080Y-95971080D01*
X152047080Y-100626080D02*
X152047080Y-109026080D01*
X150767080Y-99346080D02*
X152047080Y-100626080D01*
X150767080Y-94721080D02*
X150767080Y-99346080D01*
X154687080Y-96101080D02*
X154687080Y-107766090D01*
X153307080Y-94721080D02*
X154687080Y-96101080D01*
X130447080Y-102341080D02*
X130447080Y-102326080D01*
X130962081Y-102856081D02*
X130962081Y-110846079D01*
X130447080Y-102341080D02*
X130962081Y-102856081D01*
X126367080Y-115441080D02*
X124057080Y-115441080D01*
X130962081Y-110846079D02*
X126367080Y-115441080D01*
X68867080Y-102207080D02*
X68839080Y-102179080D01*
X68867080Y-106936080D02*
X68867080Y-102207080D01*
X35957080Y-99641080D02*
X35957080Y-97686080D01*
X33437080Y-102161080D02*
X35957080Y-99641080D01*
X35977080Y-97666080D02*
X35957080Y-97686080D01*
X35977080Y-94541080D02*
X35977080Y-97666080D01*
X65791080Y-106201082D02*
X65791080Y-109291080D01*
X67597080Y-104395082D02*
X65791080Y-106201082D01*
X67597080Y-100811080D02*
X67597080Y-104395082D01*
X70481080Y-99911080D02*
X68497080Y-99911080D01*
X68497080Y-99911080D02*
X67597080Y-100811080D01*
X71379080Y-99013080D02*
X70481080Y-99911080D01*
X71379080Y-94559080D02*
X71379080Y-99013080D01*
X47552079Y-96839671D02*
X47552079Y-106346081D01*
X48677080Y-95714670D02*
X47552079Y-96839671D01*
X47552079Y-106346081D02*
X46587080Y-107311080D01*
X48677080Y-94541080D02*
X48677080Y-95714670D01*
X43693080Y-105865080D02*
X43693080Y-102179080D01*
X41647080Y-107911080D02*
X43693080Y-105865080D01*
X41647080Y-110547080D02*
X41647080Y-107911080D01*
X42931080Y-111831080D02*
X41647080Y-110547080D01*
X145687080Y-105221080D02*
X145687080Y-110966080D01*
X145687080Y-110966080D02*
X145697080Y-110976080D01*
X53599080Y-60269080D02*
X53599080Y-55733080D01*
X53599080Y-55733080D02*
X53267080Y-55401080D01*
X65047080Y-55931080D02*
X65147080Y-55831080D01*
X65047080Y-60931080D02*
X65047080Y-55931080D01*
X65757080Y-61641080D02*
X65047080Y-60931080D01*
X69167080Y-61641080D02*
X65757080Y-61641080D01*
X73507080Y-65981080D02*
X69167080Y-61641080D01*
X73507080Y-70971080D02*
X73507080Y-65981080D01*
X186572080Y-49076080D02*
X186572080Y-109701080D01*
X186197080Y-48701080D02*
X186572080Y-49076080D01*
X183722080Y-49701080D02*
X184722080Y-48701080D01*
X186572080Y-109701080D02*
X186622080Y-109751080D01*
X159047080Y-49701080D02*
X183722080Y-49701080D01*
X157007080Y-47661080D02*
X159047080Y-49701080D01*
X107947080Y-49726080D02*
X110012080Y-47661080D01*
X110012080Y-47661080D02*
X157007080Y-47661080D01*
X107947080Y-55552081D02*
X107947080Y-49726080D01*
X107948081Y-55552081D02*
X107947080Y-55552081D01*
X184722080Y-48701080D02*
X186197080Y-48701080D01*
X109252080Y-56856080D02*
X107948081Y-55552081D01*
X109252080Y-56926080D02*
X109252080Y-56856080D01*
X148227080Y-110301080D02*
X145687080Y-112841080D01*
X148227080Y-105221080D02*
X148227080Y-110301080D01*
X139827080Y-114601080D02*
X138067080Y-112841080D01*
X143927080Y-114601080D02*
X139827080Y-114601080D01*
X145687080Y-112841080D02*
X143927080Y-114601080D01*
X122637080Y-104871080D02*
X122637080Y-99251080D01*
X122637080Y-99251080D02*
X122667080Y-99221080D01*
X98811080Y-63317080D02*
X98811080Y-66757080D01*
X96271080Y-69297080D02*
X96271080Y-70937080D01*
X98811080Y-66757080D02*
X96271080Y-69297080D01*
X95027080Y-87241080D02*
X96087080Y-88301080D01*
X95027080Y-73121080D02*
X95027080Y-87241080D01*
X96271080Y-71877080D02*
X95027080Y-73121080D01*
X96271080Y-70937080D02*
X96271080Y-71877080D01*
X66299080Y-91765080D02*
X66299080Y-90673080D01*
X66299080Y-90673080D02*
X65787080Y-90161080D01*
X65787080Y-89701080D02*
X66277080Y-89211080D01*
X65787080Y-90161080D02*
X65787080Y-89701080D01*
X42507080Y-86761080D02*
X42507080Y-88106090D01*
X41047080Y-85301080D02*
X42507080Y-86761080D01*
X41047080Y-84131080D02*
X41047080Y-85301080D01*
X32907080Y-66721080D02*
X32907080Y-66721080D01*
X29437080Y-72391080D02*
X32977080Y-68851080D01*
X29437080Y-91741080D02*
X29437080Y-72391080D01*
X32977080Y-68851080D02*
X32977080Y-65441080D01*
X30997080Y-93301080D02*
X29437080Y-91741080D01*
M02*
