%FSLAX45Y45*%
G04 Gerber Fmt 4.5, Leading zero omitted, Abs format (unit mm)*
G04 Created by KiCad (PCBNEW (5.1.12)-1) date 2023-01-17 22:17:05*
%MOMM*%
%LPD*%
G01*
G04 APERTURE LIST*
%TA.AperFunction,Profile*%
%ADD10C,0.050000*%
%TD*%
%ADD11C,0.200000*%
%ADD12C,0.300000*%
G04 APERTURE END LIST*
D10*
X27534708Y-11990108D02*
X2134708Y-11990108D01*
X27534708Y-4590108D02*
X27534708Y-11990108D01*
X2134708Y-4590108D02*
X27534708Y-4590108D01*
X2134708Y-11990108D02*
X2134708Y-4590108D01*
D11*
X2449708Y-11305108D02*
X2819708Y-11675108D01*
X2819708Y-11305108D02*
X2449708Y-11675108D01*
X26849708Y-4905108D02*
X27219708Y-5275108D01*
X27219708Y-4905108D02*
X26849708Y-5275108D01*
X26849708Y-11305108D02*
X27219708Y-11675108D01*
X27219708Y-11305108D02*
X26849708Y-11675108D01*
D12*
X2418636Y-12458322D02*
X2418636Y-12158322D01*
X2490065Y-12158322D01*
X2532922Y-12172608D01*
X2561494Y-12201179D01*
X2575779Y-12229751D01*
X2590065Y-12286894D01*
X2590065Y-12329751D01*
X2575779Y-12386894D01*
X2561494Y-12415465D01*
X2532922Y-12444037D01*
X2490065Y-12458322D01*
X2418636Y-12458322D01*
X2718636Y-12458322D02*
X2718636Y-12258322D01*
X2718636Y-12315465D02*
X2732922Y-12286894D01*
X2747208Y-12272608D01*
X2775779Y-12258322D01*
X2804351Y-12258322D01*
X2904351Y-12458322D02*
X2904351Y-12258322D01*
X2904351Y-12158322D02*
X2890065Y-12172608D01*
X2904351Y-12186894D01*
X2918636Y-12172608D01*
X2904351Y-12158322D01*
X2904351Y-12186894D01*
X3090065Y-12458322D02*
X3061494Y-12444037D01*
X3047208Y-12415465D01*
X3047208Y-12158322D01*
X3247208Y-12458322D02*
X3218636Y-12444037D01*
X3204351Y-12415465D01*
X3204351Y-12158322D01*
X3590065Y-12458322D02*
X3590065Y-12158322D01*
X3690065Y-12372608D01*
X3790065Y-12158322D01*
X3790065Y-12458322D01*
X4061494Y-12458322D02*
X4061494Y-12301179D01*
X4047208Y-12272608D01*
X4018636Y-12258322D01*
X3961494Y-12258322D01*
X3932922Y-12272608D01*
X4061494Y-12444037D02*
X4032922Y-12458322D01*
X3961494Y-12458322D01*
X3932922Y-12444037D01*
X3918636Y-12415465D01*
X3918636Y-12386894D01*
X3932922Y-12358322D01*
X3961494Y-12344037D01*
X4032922Y-12344037D01*
X4061494Y-12329751D01*
X4204351Y-12258322D02*
X4204351Y-12558322D01*
X4204351Y-12272608D02*
X4232922Y-12258322D01*
X4290065Y-12258322D01*
X4318636Y-12272608D01*
X4332922Y-12286894D01*
X4347208Y-12315465D01*
X4347208Y-12401179D01*
X4332922Y-12429751D01*
X4318636Y-12444037D01*
X4290065Y-12458322D01*
X4232922Y-12458322D01*
X4204351Y-12444037D01*
X4475779Y-12429751D02*
X4490065Y-12444037D01*
X4475779Y-12458322D01*
X4461494Y-12444037D01*
X4475779Y-12429751D01*
X4475779Y-12458322D01*
X4475779Y-12272608D02*
X4490065Y-12286894D01*
X4475779Y-12301179D01*
X4461494Y-12286894D01*
X4475779Y-12272608D01*
X4475779Y-12301179D01*
X1762208Y-12767608D02*
X2132208Y-13137608D01*
X2132208Y-12767608D02*
X1762208Y-13137608D01*
X2390065Y-12788322D02*
X2575779Y-12788322D01*
X2475779Y-12902608D01*
X2518636Y-12902608D01*
X2547208Y-12916894D01*
X2561494Y-12931179D01*
X2575779Y-12959751D01*
X2575779Y-13031179D01*
X2561494Y-13059751D01*
X2547208Y-13074037D01*
X2518636Y-13088322D01*
X2432922Y-13088322D01*
X2404351Y-13074037D01*
X2390065Y-13059751D01*
X2704351Y-13059751D02*
X2718636Y-13074037D01*
X2704351Y-13088322D01*
X2690065Y-13074037D01*
X2704351Y-13059751D01*
X2704351Y-13088322D01*
X2818636Y-12788322D02*
X3018636Y-12788322D01*
X2890065Y-13088322D01*
X3190065Y-12788322D02*
X3218636Y-12788322D01*
X3247208Y-12802608D01*
X3261494Y-12816894D01*
X3275779Y-12845465D01*
X3290065Y-12902608D01*
X3290065Y-12974037D01*
X3275779Y-13031179D01*
X3261494Y-13059751D01*
X3247208Y-13074037D01*
X3218636Y-13088322D01*
X3190065Y-13088322D01*
X3161494Y-13074037D01*
X3147208Y-13059751D01*
X3132922Y-13031179D01*
X3118636Y-12974037D01*
X3118636Y-12902608D01*
X3132922Y-12845465D01*
X3147208Y-12816894D01*
X3161494Y-12802608D01*
X3190065Y-12788322D01*
X3475779Y-12788322D02*
X3504351Y-12788322D01*
X3532922Y-12802608D01*
X3547208Y-12816894D01*
X3561494Y-12845465D01*
X3575779Y-12902608D01*
X3575779Y-12974037D01*
X3561494Y-13031179D01*
X3547208Y-13059751D01*
X3532922Y-13074037D01*
X3504351Y-13088322D01*
X3475779Y-13088322D01*
X3447208Y-13074037D01*
X3432922Y-13059751D01*
X3418636Y-13031179D01*
X3404351Y-12974037D01*
X3404351Y-12902608D01*
X3418636Y-12845465D01*
X3432922Y-12816894D01*
X3447208Y-12802608D01*
X3475779Y-12788322D01*
X3704351Y-13088322D02*
X3704351Y-12888322D01*
X3704351Y-12916894D02*
X3718636Y-12902608D01*
X3747208Y-12888322D01*
X3790065Y-12888322D01*
X3818636Y-12902608D01*
X3832922Y-12931179D01*
X3832922Y-13088322D01*
X3832922Y-12931179D02*
X3847208Y-12902608D01*
X3875779Y-12888322D01*
X3918636Y-12888322D01*
X3947208Y-12902608D01*
X3961494Y-12931179D01*
X3961494Y-13088322D01*
X4104351Y-13088322D02*
X4104351Y-12888322D01*
X4104351Y-12916894D02*
X4118636Y-12902608D01*
X4147208Y-12888322D01*
X4190065Y-12888322D01*
X4218636Y-12902608D01*
X4232922Y-12931179D01*
X4232922Y-13088322D01*
X4232922Y-12931179D02*
X4247208Y-12902608D01*
X4275779Y-12888322D01*
X4318636Y-12888322D01*
X4347208Y-12902608D01*
X4361494Y-12931179D01*
X4361494Y-13088322D01*
X4947208Y-12774037D02*
X4690065Y-13159751D01*
X5332922Y-12788322D02*
X5361494Y-12788322D01*
X5390065Y-12802608D01*
X5404351Y-12816894D01*
X5418636Y-12845465D01*
X5432922Y-12902608D01*
X5432922Y-12974037D01*
X5418636Y-13031179D01*
X5404351Y-13059751D01*
X5390065Y-13074037D01*
X5361494Y-13088322D01*
X5332922Y-13088322D01*
X5304351Y-13074037D01*
X5290065Y-13059751D01*
X5275779Y-13031179D01*
X5261494Y-12974037D01*
X5261494Y-12902608D01*
X5275779Y-12845465D01*
X5290065Y-12816894D01*
X5304351Y-12802608D01*
X5332922Y-12788322D01*
X5561494Y-13059751D02*
X5575779Y-13074037D01*
X5561494Y-13088322D01*
X5547208Y-13074037D01*
X5561494Y-13059751D01*
X5561494Y-13088322D01*
X5861494Y-13088322D02*
X5690065Y-13088322D01*
X5775779Y-13088322D02*
X5775779Y-12788322D01*
X5747208Y-12831179D01*
X5718636Y-12859751D01*
X5690065Y-12874037D01*
X6118636Y-12888322D02*
X6118636Y-13088322D01*
X6047208Y-12774037D02*
X5975779Y-12988322D01*
X6161494Y-12988322D01*
X6418636Y-12788322D02*
X6275779Y-12788322D01*
X6261494Y-12931179D01*
X6275779Y-12916894D01*
X6304351Y-12902608D01*
X6375779Y-12902608D01*
X6404351Y-12916894D01*
X6418636Y-12931179D01*
X6432922Y-12959751D01*
X6432922Y-13031179D01*
X6418636Y-13059751D01*
X6404351Y-13074037D01*
X6375779Y-13088322D01*
X6304351Y-13088322D01*
X6275779Y-13074037D01*
X6261494Y-13059751D01*
X6532922Y-12788322D02*
X6732922Y-12788322D01*
X6604351Y-13088322D01*
X6832922Y-12788322D02*
X6832922Y-12845465D01*
X6947208Y-12788322D02*
X6947208Y-12845465D01*
X7390065Y-13202608D02*
X7375779Y-13188322D01*
X7347208Y-13145465D01*
X7332922Y-13116894D01*
X7318636Y-13074037D01*
X7304351Y-13002608D01*
X7304351Y-12945465D01*
X7318636Y-12874037D01*
X7332922Y-12831179D01*
X7347208Y-12802608D01*
X7375779Y-12759751D01*
X7390065Y-12745465D01*
X7475779Y-12788322D02*
X7661494Y-12788322D01*
X7561494Y-12902608D01*
X7604351Y-12902608D01*
X7632922Y-12916894D01*
X7647208Y-12931179D01*
X7661494Y-12959751D01*
X7661494Y-13031179D01*
X7647208Y-13059751D01*
X7632922Y-13074037D01*
X7604351Y-13088322D01*
X7518636Y-13088322D01*
X7490065Y-13074037D01*
X7475779Y-13059751D01*
X8018636Y-13088322D02*
X8018636Y-12788322D01*
X8147208Y-13088322D02*
X8147208Y-12931179D01*
X8132922Y-12902608D01*
X8104351Y-12888322D01*
X8061494Y-12888322D01*
X8032922Y-12902608D01*
X8018636Y-12916894D01*
X8332922Y-13088322D02*
X8304351Y-13074037D01*
X8290065Y-13059751D01*
X8275779Y-13031179D01*
X8275779Y-12945465D01*
X8290065Y-12916894D01*
X8304351Y-12902608D01*
X8332922Y-12888322D01*
X8375779Y-12888322D01*
X8404351Y-12902608D01*
X8418636Y-12916894D01*
X8432922Y-12945465D01*
X8432922Y-13031179D01*
X8418636Y-13059751D01*
X8404351Y-13074037D01*
X8375779Y-13088322D01*
X8332922Y-13088322D01*
X8604351Y-13088322D02*
X8575779Y-13074037D01*
X8561494Y-13045465D01*
X8561494Y-12788322D01*
X8832922Y-13074037D02*
X8804351Y-13088322D01*
X8747208Y-13088322D01*
X8718636Y-13074037D01*
X8704351Y-13045465D01*
X8704351Y-12931179D01*
X8718636Y-12902608D01*
X8747208Y-12888322D01*
X8804351Y-12888322D01*
X8832922Y-12902608D01*
X8847208Y-12931179D01*
X8847208Y-12959751D01*
X8704351Y-12988322D01*
X8961494Y-13074037D02*
X8990065Y-13088322D01*
X9047208Y-13088322D01*
X9075779Y-13074037D01*
X9090065Y-13045465D01*
X9090065Y-13031179D01*
X9075779Y-13002608D01*
X9047208Y-12988322D01*
X9004351Y-12988322D01*
X8975779Y-12974037D01*
X8961494Y-12945465D01*
X8961494Y-12931179D01*
X8975779Y-12902608D01*
X9004351Y-12888322D01*
X9047208Y-12888322D01*
X9075779Y-12902608D01*
X9190065Y-13202608D02*
X9204351Y-13188322D01*
X9232922Y-13145465D01*
X9247208Y-13116894D01*
X9261494Y-13074037D01*
X9275779Y-13002608D01*
X9275779Y-12945465D01*
X9261494Y-12874037D01*
X9247208Y-12831179D01*
X9232922Y-12802608D01*
X9204351Y-12759751D01*
X9190065Y-12745465D01*
X9732922Y-13202608D02*
X9718636Y-13188322D01*
X9690065Y-13145465D01*
X9675779Y-13116894D01*
X9661494Y-13074037D01*
X9647208Y-13002608D01*
X9647208Y-12945465D01*
X9661494Y-12874037D01*
X9675779Y-12831179D01*
X9690065Y-12802608D01*
X9718636Y-12759751D01*
X9732922Y-12745465D01*
X9847208Y-12888322D02*
X9847208Y-13088322D01*
X9847208Y-12916894D02*
X9861494Y-12902608D01*
X9890065Y-12888322D01*
X9932922Y-12888322D01*
X9961494Y-12902608D01*
X9975779Y-12931179D01*
X9975779Y-13088322D01*
X10161494Y-13088322D02*
X10132922Y-13074037D01*
X10118636Y-13059751D01*
X10104351Y-13031179D01*
X10104351Y-12945465D01*
X10118636Y-12916894D01*
X10132922Y-12902608D01*
X10161494Y-12888322D01*
X10204351Y-12888322D01*
X10232922Y-12902608D01*
X10247208Y-12916894D01*
X10261494Y-12945465D01*
X10261494Y-13031179D01*
X10247208Y-13059751D01*
X10232922Y-13074037D01*
X10204351Y-13088322D01*
X10161494Y-13088322D01*
X10347208Y-12888322D02*
X10461494Y-12888322D01*
X10390065Y-12788322D02*
X10390065Y-13045465D01*
X10404351Y-13074037D01*
X10432922Y-13088322D01*
X10461494Y-13088322D01*
X10790065Y-12888322D02*
X10790065Y-13188322D01*
X10790065Y-12902608D02*
X10818636Y-12888322D01*
X10875779Y-12888322D01*
X10904351Y-12902608D01*
X10918636Y-12916894D01*
X10932922Y-12945465D01*
X10932922Y-13031179D01*
X10918636Y-13059751D01*
X10904351Y-13074037D01*
X10875779Y-13088322D01*
X10818636Y-13088322D01*
X10790065Y-13074037D01*
X11104351Y-13088322D02*
X11075779Y-13074037D01*
X11061494Y-13045465D01*
X11061494Y-12788322D01*
X11347208Y-13088322D02*
X11347208Y-12931179D01*
X11332922Y-12902608D01*
X11304351Y-12888322D01*
X11247208Y-12888322D01*
X11218636Y-12902608D01*
X11347208Y-13074037D02*
X11318636Y-13088322D01*
X11247208Y-13088322D01*
X11218636Y-13074037D01*
X11204351Y-13045465D01*
X11204351Y-13016894D01*
X11218636Y-12988322D01*
X11247208Y-12974037D01*
X11318636Y-12974037D01*
X11347208Y-12959751D01*
X11447208Y-12888322D02*
X11561494Y-12888322D01*
X11490065Y-12788322D02*
X11490065Y-13045465D01*
X11504351Y-13074037D01*
X11532922Y-13088322D01*
X11561494Y-13088322D01*
X11775779Y-13074037D02*
X11747208Y-13088322D01*
X11690065Y-13088322D01*
X11661494Y-13074037D01*
X11647208Y-13045465D01*
X11647208Y-12931179D01*
X11661494Y-12902608D01*
X11690065Y-12888322D01*
X11747208Y-12888322D01*
X11775779Y-12902608D01*
X11790065Y-12931179D01*
X11790065Y-12959751D01*
X11647208Y-12988322D01*
X12047208Y-13088322D02*
X12047208Y-12788322D01*
X12047208Y-13074037D02*
X12018636Y-13088322D01*
X11961494Y-13088322D01*
X11932922Y-13074037D01*
X11918636Y-13059751D01*
X11904351Y-13031179D01*
X11904351Y-12945465D01*
X11918636Y-12916894D01*
X11932922Y-12902608D01*
X11961494Y-12888322D01*
X12018636Y-12888322D01*
X12047208Y-12902608D01*
X12161494Y-13202608D02*
X12175779Y-13188322D01*
X12204351Y-13145465D01*
X12218636Y-13116894D01*
X12232922Y-13074037D01*
X12247208Y-13002608D01*
X12247208Y-12945465D01*
X12232922Y-12874037D01*
X12218636Y-12831179D01*
X12204351Y-12802608D01*
X12175779Y-12759751D01*
X12161494Y-12745465D01*
M02*
