G04 #@! TF.GenerationSoftware,KiCad,Pcbnew,(5.1.12)-1*
G04 #@! TF.CreationDate,2023-01-17T22:17:09+01:00*
G04 #@! TF.ProjectId,arcobaleno memory extension,6172636f-6261-46c6-956e-6f206d656d6f,rev?*
G04 #@! TF.SameCoordinates,Original*
G04 #@! TF.FileFunction,Copper,L1,Top*
G04 #@! TF.FilePolarity,Positive*
%FSLAX46Y46*%
G04 Gerber Fmt 4.6, Leading zero omitted, Abs format (unit mm)*
G04 Created by KiCad (PCBNEW (5.1.12)-1) date 2023-01-17 22:17:09*
%MOMM*%
%LPD*%
G01*
G04 APERTURE LIST*
G04 #@! TA.AperFunction,ComponentPad*
%ADD10O,1.600000X1.600000*%
G04 #@! TD*
G04 #@! TA.AperFunction,ComponentPad*
%ADD11R,1.600000X1.600000*%
G04 #@! TD*
G04 #@! TA.AperFunction,ComponentPad*
%ADD12C,1.524000*%
G04 #@! TD*
G04 #@! TA.AperFunction,ComponentPad*
%ADD13C,1.600000*%
G04 #@! TD*
G04 #@! TA.AperFunction,ComponentPad*
%ADD14C,2.000000*%
G04 #@! TD*
G04 #@! TA.AperFunction,ComponentPad*
%ADD15O,2.000000X2.000000*%
G04 #@! TD*
G04 #@! TA.AperFunction,ViaPad*
%ADD16C,0.800000*%
G04 #@! TD*
G04 #@! TA.AperFunction,Conductor*
%ADD17C,0.250000*%
G04 #@! TD*
G04 #@! TA.AperFunction,Conductor*
%ADD18C,1.000000*%
G04 #@! TD*
G04 APERTURE END LIST*
D10*
X24135080Y-52649080D03*
X39375080Y-60269080D03*
X26675080Y-52649080D03*
X36835080Y-60269080D03*
X29215080Y-52649080D03*
X34295080Y-60269080D03*
X31755080Y-52649080D03*
X31755080Y-60269080D03*
X34295080Y-52649080D03*
X29215080Y-60269080D03*
X36835080Y-52649080D03*
X26675080Y-60269080D03*
X39375080Y-52649080D03*
D11*
X24135080Y-60269080D03*
D12*
X37851080Y-111831080D03*
X37851080Y-109291080D03*
X40391080Y-111831080D03*
X40391080Y-109291080D03*
X42931080Y-111831080D03*
X42931080Y-109291080D03*
X45471080Y-111831080D03*
X45471080Y-109291080D03*
X48011080Y-111831080D03*
X48011080Y-109291080D03*
X50551080Y-111831080D03*
X50551080Y-109291080D03*
X53091080Y-111831080D03*
X53091080Y-109291080D03*
X55631080Y-111831080D03*
X55631080Y-109291080D03*
X58171080Y-111831080D03*
X58171080Y-109291080D03*
X60711080Y-111831080D03*
X60711080Y-109291080D03*
X63251080Y-111831080D03*
X63251080Y-109291080D03*
X65791080Y-111831080D03*
X65791080Y-109291080D03*
X68331080Y-111831080D03*
X68331080Y-109291080D03*
X70871080Y-111831080D03*
X70871080Y-109291080D03*
X73411080Y-111831080D03*
X73411080Y-109291080D03*
X75951080Y-111831080D03*
X75951080Y-109291080D03*
X78491080Y-111831080D03*
X78491080Y-109291080D03*
X81031080Y-111831080D03*
X81031080Y-109291080D03*
X83571080Y-111831080D03*
X83571080Y-109291080D03*
X86111080Y-111831080D03*
X86111080Y-109291080D03*
X88651080Y-111831080D03*
X88651080Y-109291080D03*
X91191080Y-111831080D03*
X91191080Y-109291080D03*
X93731080Y-111831080D03*
X93731080Y-109291080D03*
X96271080Y-111831080D03*
X96271080Y-109291080D03*
X98811080Y-111831080D03*
X98811080Y-109291080D03*
X101351080Y-111831080D03*
X101351080Y-109291080D03*
D10*
X58679080Y-94559080D03*
X73919080Y-102179080D03*
X61219080Y-94559080D03*
X71379080Y-102179080D03*
X63759080Y-94559080D03*
X68839080Y-102179080D03*
X66299080Y-94559080D03*
X66299080Y-102179080D03*
X68839080Y-94559080D03*
X63759080Y-102179080D03*
X71379080Y-94559080D03*
X61219080Y-102179080D03*
X73919080Y-94559080D03*
D11*
X58679080Y-102179080D03*
D13*
X53599080Y-84145080D03*
D10*
X53599080Y-74145080D03*
D11*
X104172080Y-56926080D03*
D10*
X106712080Y-56926080D03*
X109252080Y-56926080D03*
X111792080Y-56926080D03*
X114332080Y-56926080D03*
X116872080Y-56926080D03*
X119412080Y-56926080D03*
X121952080Y-56926080D03*
X124492080Y-56926080D03*
X127032080Y-56926080D03*
X43947080Y-50269080D03*
D13*
X43947080Y-60269080D03*
X78027080Y-102131080D03*
D10*
X78027080Y-92131080D03*
X53599080Y-92179080D03*
D13*
X53599080Y-102179080D03*
X81285080Y-85161080D03*
D10*
X81285080Y-75161080D03*
D13*
X119377080Y-94771080D03*
D10*
X119377080Y-114771080D03*
X113987080Y-104961080D03*
D13*
X113987080Y-114961080D03*
X129837080Y-104971080D03*
D10*
X129837080Y-114971080D03*
D11*
X83571080Y-60269080D03*
D10*
X98811080Y-52649080D03*
X86111080Y-60269080D03*
X96271080Y-52649080D03*
X88651080Y-60269080D03*
X93731080Y-52649080D03*
X91191080Y-60269080D03*
X91191080Y-52649080D03*
X93731080Y-60269080D03*
X88651080Y-52649080D03*
X96271080Y-60269080D03*
X86111080Y-52649080D03*
X98811080Y-60269080D03*
X83571080Y-52649080D03*
D11*
X86111080Y-70937080D03*
D10*
X101351080Y-63317080D03*
X88651080Y-70937080D03*
X98811080Y-63317080D03*
X91191080Y-70937080D03*
X96271080Y-63317080D03*
X93731080Y-70937080D03*
X93731080Y-63317080D03*
X96271080Y-70937080D03*
X91191080Y-63317080D03*
X98811080Y-70937080D03*
X88651080Y-63317080D03*
X101351080Y-70937080D03*
X86111080Y-63317080D03*
X53599080Y-63317080D03*
X68839080Y-70937080D03*
X56139080Y-63317080D03*
X66299080Y-70937080D03*
X58679080Y-63317080D03*
X63759080Y-70937080D03*
X61219080Y-63317080D03*
X61219080Y-70937080D03*
X63759080Y-63317080D03*
X58679080Y-70937080D03*
X66299080Y-63317080D03*
X56139080Y-70937080D03*
X68839080Y-63317080D03*
D11*
X53599080Y-70937080D03*
X33447080Y-70931080D03*
D10*
X48687080Y-63311080D03*
X35987080Y-70931080D03*
X46147080Y-63311080D03*
X38527080Y-70931080D03*
X43607080Y-63311080D03*
X41067080Y-70931080D03*
X41067080Y-63311080D03*
X43607080Y-70931080D03*
X38527080Y-63311080D03*
X46147080Y-70931080D03*
X35987080Y-63311080D03*
X48687080Y-70931080D03*
X33447080Y-63311080D03*
X86111080Y-73731080D03*
X101351080Y-81351080D03*
X88651080Y-73731080D03*
X98811080Y-81351080D03*
X91191080Y-73731080D03*
X96271080Y-81351080D03*
X93731080Y-73731080D03*
X93731080Y-81351080D03*
X96271080Y-73731080D03*
X91191080Y-81351080D03*
X98811080Y-73731080D03*
X88651080Y-81351080D03*
X101351080Y-73731080D03*
D11*
X86111080Y-81351080D03*
D10*
X58679080Y-73731080D03*
X76459080Y-81351080D03*
X61219080Y-73731080D03*
X73919080Y-81351080D03*
X63759080Y-73731080D03*
X71379080Y-81351080D03*
X66299080Y-73731080D03*
X68839080Y-81351080D03*
X68839080Y-73731080D03*
X66299080Y-81351080D03*
X71379080Y-73731080D03*
X63759080Y-81351080D03*
X73919080Y-73731080D03*
X61219080Y-81351080D03*
X76459080Y-73731080D03*
D11*
X58679080Y-81351080D03*
X30867080Y-81341080D03*
D10*
X48647080Y-73721080D03*
X33407080Y-81341080D03*
X46107080Y-73721080D03*
X35947080Y-81341080D03*
X43567080Y-73721080D03*
X38487080Y-81341080D03*
X41027080Y-73721080D03*
X41027080Y-81341080D03*
X38487080Y-73721080D03*
X43567080Y-81341080D03*
X35947080Y-73721080D03*
X46107080Y-81341080D03*
X33407080Y-73721080D03*
X48647080Y-81341080D03*
X30867080Y-73721080D03*
X138027080Y-84221080D03*
X153267080Y-91841080D03*
X140567080Y-84221080D03*
X150727080Y-91841080D03*
X143107080Y-84221080D03*
X148187080Y-91841080D03*
X145647080Y-84221080D03*
X145647080Y-91841080D03*
X148187080Y-84221080D03*
X143107080Y-91841080D03*
X150727080Y-84221080D03*
X140567080Y-91841080D03*
X153267080Y-84221080D03*
D11*
X138027080Y-91841080D03*
X86111080Y-91765080D03*
D10*
X101351080Y-84145080D03*
X88651080Y-91765080D03*
X98811080Y-84145080D03*
X91191080Y-91765080D03*
X96271080Y-84145080D03*
X93731080Y-91765080D03*
X93731080Y-84145080D03*
X96271080Y-91765080D03*
X91191080Y-84145080D03*
X98811080Y-91765080D03*
X88651080Y-84145080D03*
X101351080Y-91765080D03*
X86111080Y-84145080D03*
D11*
X58679080Y-91765080D03*
D10*
X73919080Y-84145080D03*
X61219080Y-91765080D03*
X71379080Y-84145080D03*
X63759080Y-91765080D03*
X68839080Y-84145080D03*
X66299080Y-91765080D03*
X66299080Y-84145080D03*
X68839080Y-91765080D03*
X63759080Y-84145080D03*
X71379080Y-91765080D03*
X61219080Y-84145080D03*
X73919080Y-91765080D03*
X58679080Y-84145080D03*
X33427080Y-84131080D03*
X48667080Y-91751080D03*
X35967080Y-84131080D03*
X46127080Y-91751080D03*
X38507080Y-84131080D03*
X43587080Y-91751080D03*
X41047080Y-84131080D03*
X41047080Y-91751080D03*
X43587080Y-84131080D03*
X38507080Y-91751080D03*
X46127080Y-84131080D03*
X35967080Y-91751080D03*
X48667080Y-84131080D03*
D11*
X33427080Y-91751080D03*
D10*
X130447080Y-94721080D03*
X153307080Y-102341080D03*
X132987080Y-94721080D03*
X150767080Y-102341080D03*
X135527080Y-94721080D03*
X148227080Y-102341080D03*
X138067080Y-94721080D03*
X145687080Y-102341080D03*
X140607080Y-94721080D03*
X143147080Y-102341080D03*
X143147080Y-94721080D03*
X140607080Y-102341080D03*
X145687080Y-94721080D03*
X138067080Y-102341080D03*
X148227080Y-94721080D03*
X135527080Y-102341080D03*
X150767080Y-94721080D03*
X132987080Y-102341080D03*
X153307080Y-94721080D03*
D11*
X130447080Y-102341080D03*
X86111080Y-102179080D03*
D10*
X108971080Y-94559080D03*
X88651080Y-102179080D03*
X106431080Y-94559080D03*
X91191080Y-102179080D03*
X103891080Y-94559080D03*
X93731080Y-102179080D03*
X101351080Y-94559080D03*
X96271080Y-102179080D03*
X98811080Y-94559080D03*
X98811080Y-102179080D03*
X96271080Y-94559080D03*
X101351080Y-102179080D03*
X93731080Y-94559080D03*
X103891080Y-102179080D03*
X91191080Y-94559080D03*
X106431080Y-102179080D03*
X88651080Y-94559080D03*
X108971080Y-102179080D03*
X86111080Y-94559080D03*
D11*
X33437080Y-102161080D03*
D10*
X48677080Y-94541080D03*
X35977080Y-102161080D03*
X46137080Y-94541080D03*
X38517080Y-102161080D03*
X43597080Y-94541080D03*
X41057080Y-102161080D03*
X41057080Y-94541080D03*
X43597080Y-102161080D03*
X38517080Y-94541080D03*
X46137080Y-102161080D03*
X35977080Y-94541080D03*
X48677080Y-102161080D03*
X33437080Y-94541080D03*
D11*
X135527080Y-112841080D03*
D10*
X150767080Y-105221080D03*
X138067080Y-112841080D03*
X148227080Y-105221080D03*
X140607080Y-112841080D03*
X145687080Y-105221080D03*
X143147080Y-112841080D03*
X143147080Y-105221080D03*
X145687080Y-112841080D03*
X140607080Y-105221080D03*
X148227080Y-112841080D03*
X138067080Y-105221080D03*
X150767080Y-112841080D03*
X135527080Y-105221080D03*
X111637080Y-77021080D03*
D13*
X111637080Y-87181080D03*
X114247080Y-87181080D03*
D10*
X114247080Y-77021080D03*
D13*
X121887080Y-87201080D03*
D10*
X121887080Y-77041080D03*
X127007080Y-77031080D03*
D13*
X127007080Y-87191080D03*
X119287080Y-87221080D03*
D10*
X119287080Y-77061080D03*
X116817080Y-77011080D03*
D13*
X116817080Y-87171080D03*
D10*
X124437080Y-77021080D03*
D13*
X124437080Y-87181080D03*
D10*
X106685080Y-64333080D03*
D13*
X106685080Y-74493080D03*
X109217080Y-87201080D03*
D10*
X109217080Y-77041080D03*
D13*
X116845080Y-74493080D03*
D10*
X116845080Y-64333080D03*
X127005080Y-64333080D03*
D13*
X127005080Y-74493080D03*
D10*
X121925080Y-64333080D03*
D13*
X121925080Y-74493080D03*
X119385080Y-74493080D03*
D10*
X119385080Y-64333080D03*
X114305080Y-64333080D03*
D13*
X114305080Y-74493080D03*
X124467080Y-74491080D03*
D10*
X124467080Y-64331080D03*
D13*
X111765080Y-74493080D03*
D10*
X111765080Y-64333080D03*
X109225080Y-64333080D03*
D13*
X109225080Y-74493080D03*
X106685080Y-87193080D03*
D10*
X106685080Y-77033080D03*
D13*
X81317080Y-102181080D03*
D10*
X81317080Y-92021080D03*
X129517080Y-90491080D03*
X126977080Y-90491080D03*
X124437080Y-90491080D03*
X121897080Y-90491080D03*
X119357080Y-90491080D03*
X116817080Y-90491080D03*
X114277080Y-90491080D03*
X111737080Y-90491080D03*
X109197080Y-90491080D03*
D11*
X106657080Y-90491080D03*
X104197080Y-60801080D03*
D10*
X106737080Y-60801080D03*
X109277080Y-60801080D03*
X111817080Y-60801080D03*
X114357080Y-60801080D03*
X116897080Y-60801080D03*
X119437080Y-60801080D03*
X121977080Y-60801080D03*
X124517080Y-60801080D03*
X127057080Y-60801080D03*
X127005080Y-52841080D03*
X124465080Y-52841080D03*
X121925080Y-52841080D03*
X119385080Y-52841080D03*
X116845080Y-52841080D03*
X114305080Y-52841080D03*
X111765080Y-52841080D03*
X109225080Y-52841080D03*
X106685080Y-52841080D03*
D11*
X104145080Y-52841080D03*
X250027080Y-60341080D03*
D10*
X267807080Y-52721080D03*
X252567080Y-60341080D03*
X265267080Y-52721080D03*
X255107080Y-60341080D03*
X262727080Y-52721080D03*
X257647080Y-60341080D03*
X260187080Y-52721080D03*
X260187080Y-60341080D03*
X257647080Y-52721080D03*
X262727080Y-60341080D03*
X255107080Y-52721080D03*
X265267080Y-60341080D03*
X252567080Y-52721080D03*
X267807080Y-60341080D03*
X250027080Y-52721080D03*
D11*
X222027080Y-60341080D03*
D10*
X239807080Y-52721080D03*
X224567080Y-60341080D03*
X237267080Y-52721080D03*
X227107080Y-60341080D03*
X234727080Y-52721080D03*
X229647080Y-60341080D03*
X232187080Y-52721080D03*
X232187080Y-60341080D03*
X229647080Y-52721080D03*
X234727080Y-60341080D03*
X227107080Y-52721080D03*
X237267080Y-60341080D03*
X224567080Y-52721080D03*
X239807080Y-60341080D03*
X222027080Y-52721080D03*
D11*
X194027080Y-60341080D03*
D10*
X211807080Y-52721080D03*
X196567080Y-60341080D03*
X209267080Y-52721080D03*
X199107080Y-60341080D03*
X206727080Y-52721080D03*
X201647080Y-60341080D03*
X204187080Y-52721080D03*
X204187080Y-60341080D03*
X201647080Y-52721080D03*
X206727080Y-60341080D03*
X199107080Y-52721080D03*
X209267080Y-60341080D03*
X196567080Y-52721080D03*
X211807080Y-60341080D03*
X194027080Y-52721080D03*
X166027080Y-52721080D03*
X183807080Y-60341080D03*
X168567080Y-52721080D03*
X181267080Y-60341080D03*
X171107080Y-52721080D03*
X178727080Y-60341080D03*
X173647080Y-52721080D03*
X176187080Y-60341080D03*
X176187080Y-52721080D03*
X173647080Y-60341080D03*
X178727080Y-52721080D03*
X171107080Y-60341080D03*
X181267080Y-52721080D03*
X168567080Y-60341080D03*
X183807080Y-52721080D03*
D11*
X166027080Y-60341080D03*
D10*
X138027080Y-52721080D03*
X155807080Y-60341080D03*
X140567080Y-52721080D03*
X153267080Y-60341080D03*
X143107080Y-52721080D03*
X150727080Y-60341080D03*
X145647080Y-52721080D03*
X148187080Y-60341080D03*
X148187080Y-52721080D03*
X145647080Y-60341080D03*
X150727080Y-52721080D03*
X143107080Y-60341080D03*
X153267080Y-52721080D03*
X140567080Y-60341080D03*
X155807080Y-52721080D03*
D11*
X138027080Y-60341080D03*
D10*
X250027080Y-63221080D03*
X267807080Y-70841080D03*
X252567080Y-63221080D03*
X265267080Y-70841080D03*
X255107080Y-63221080D03*
X262727080Y-70841080D03*
X257647080Y-63221080D03*
X260187080Y-70841080D03*
X260187080Y-63221080D03*
X257647080Y-70841080D03*
X262727080Y-63221080D03*
X255107080Y-70841080D03*
X265267080Y-63221080D03*
X252567080Y-70841080D03*
X267807080Y-63221080D03*
D11*
X250027080Y-70841080D03*
D10*
X222027080Y-63221080D03*
X239807080Y-70841080D03*
X224567080Y-63221080D03*
X237267080Y-70841080D03*
X227107080Y-63221080D03*
X234727080Y-70841080D03*
X229647080Y-63221080D03*
X232187080Y-70841080D03*
X232187080Y-63221080D03*
X229647080Y-70841080D03*
X234727080Y-63221080D03*
X227107080Y-70841080D03*
X237267080Y-63221080D03*
X224567080Y-70841080D03*
X239807080Y-63221080D03*
D11*
X222027080Y-70841080D03*
D10*
X194027080Y-63221080D03*
X211807080Y-70841080D03*
X196567080Y-63221080D03*
X209267080Y-70841080D03*
X199107080Y-63221080D03*
X206727080Y-70841080D03*
X201647080Y-63221080D03*
X204187080Y-70841080D03*
X204187080Y-63221080D03*
X201647080Y-70841080D03*
X206727080Y-63221080D03*
X199107080Y-70841080D03*
X209267080Y-63221080D03*
X196567080Y-70841080D03*
X211807080Y-63221080D03*
D11*
X194027080Y-70841080D03*
X166027080Y-70841080D03*
D10*
X183807080Y-63221080D03*
X168567080Y-70841080D03*
X181267080Y-63221080D03*
X171107080Y-70841080D03*
X178727080Y-63221080D03*
X173647080Y-70841080D03*
X176187080Y-63221080D03*
X176187080Y-70841080D03*
X173647080Y-63221080D03*
X178727080Y-70841080D03*
X171107080Y-63221080D03*
X181267080Y-70841080D03*
X168567080Y-63221080D03*
X183807080Y-70841080D03*
X166027080Y-63221080D03*
D11*
X135527080Y-70830400D03*
D10*
X153307080Y-63210400D03*
X138067080Y-70830400D03*
X150767080Y-63210400D03*
X140607080Y-70830400D03*
X148227080Y-63210400D03*
X143147080Y-70830400D03*
X145687080Y-63210400D03*
X145687080Y-70830400D03*
X143147080Y-63210400D03*
X148227080Y-70830400D03*
X140607080Y-63210400D03*
X150767080Y-70830400D03*
X138067080Y-63210400D03*
X153307080Y-70830400D03*
X135527080Y-63210400D03*
D11*
X250027080Y-81341080D03*
D10*
X267807080Y-73721080D03*
X252567080Y-81341080D03*
X265267080Y-73721080D03*
X255107080Y-81341080D03*
X262727080Y-73721080D03*
X257647080Y-81341080D03*
X260187080Y-73721080D03*
X260187080Y-81341080D03*
X257647080Y-73721080D03*
X262727080Y-81341080D03*
X255107080Y-73721080D03*
X265267080Y-81341080D03*
X252567080Y-73721080D03*
X267807080Y-81341080D03*
X250027080Y-73721080D03*
D11*
X222027080Y-81341080D03*
D10*
X239807080Y-73721080D03*
X224567080Y-81341080D03*
X237267080Y-73721080D03*
X227107080Y-81341080D03*
X234727080Y-73721080D03*
X229647080Y-81341080D03*
X232187080Y-73721080D03*
X232187080Y-81341080D03*
X229647080Y-73721080D03*
X234727080Y-81341080D03*
X227107080Y-73721080D03*
X237267080Y-81341080D03*
X224567080Y-73721080D03*
X239807080Y-81341080D03*
X222027080Y-73721080D03*
D11*
X194027080Y-81341080D03*
D10*
X211807080Y-73721080D03*
X196567080Y-81341080D03*
X209267080Y-73721080D03*
X199107080Y-81341080D03*
X206727080Y-73721080D03*
X201647080Y-81341080D03*
X204187080Y-73721080D03*
X204187080Y-81341080D03*
X201647080Y-73721080D03*
X206727080Y-81341080D03*
X199107080Y-73721080D03*
X209267080Y-81341080D03*
X196567080Y-73721080D03*
X211807080Y-81341080D03*
X194027080Y-73721080D03*
D11*
X166027080Y-81341080D03*
D10*
X183807080Y-73721080D03*
X168567080Y-81341080D03*
X181267080Y-73721080D03*
X171107080Y-81341080D03*
X178727080Y-73721080D03*
X173647080Y-81341080D03*
X176187080Y-73721080D03*
X176187080Y-81341080D03*
X173647080Y-73721080D03*
X178727080Y-81341080D03*
X171107080Y-73721080D03*
X181267080Y-81341080D03*
X168567080Y-73721080D03*
X183807080Y-81341080D03*
X166027080Y-73721080D03*
X135527080Y-73721080D03*
X153307080Y-81341080D03*
X138067080Y-73721080D03*
X150767080Y-81341080D03*
X140607080Y-73721080D03*
X148227080Y-81341080D03*
X143147080Y-73721080D03*
X145687080Y-81341080D03*
X145687080Y-73721080D03*
X143147080Y-81341080D03*
X148227080Y-73721080D03*
X140607080Y-81341080D03*
X150767080Y-73721080D03*
X138067080Y-81341080D03*
X153307080Y-73721080D03*
D11*
X135527080Y-81341080D03*
D10*
X250027080Y-84221080D03*
X267807080Y-91841080D03*
X252567080Y-84221080D03*
X265267080Y-91841080D03*
X255107080Y-84221080D03*
X262727080Y-91841080D03*
X257647080Y-84221080D03*
X260187080Y-91841080D03*
X260187080Y-84221080D03*
X257647080Y-91841080D03*
X262727080Y-84221080D03*
X255107080Y-91841080D03*
X265267080Y-84221080D03*
X252567080Y-91841080D03*
X267807080Y-84221080D03*
D11*
X250027080Y-91841080D03*
D10*
X222027080Y-84221080D03*
X239807080Y-91841080D03*
X224567080Y-84221080D03*
X237267080Y-91841080D03*
X227107080Y-84221080D03*
X234727080Y-91841080D03*
X229647080Y-84221080D03*
X232187080Y-91841080D03*
X232187080Y-84221080D03*
X229647080Y-91841080D03*
X234727080Y-84221080D03*
X227107080Y-91841080D03*
X237267080Y-84221080D03*
X224567080Y-91841080D03*
X239807080Y-84221080D03*
D11*
X222027080Y-91841080D03*
D10*
X194027080Y-84221080D03*
X211807080Y-91841080D03*
X196567080Y-84221080D03*
X209267080Y-91841080D03*
X199107080Y-84221080D03*
X206727080Y-91841080D03*
X201647080Y-84221080D03*
X204187080Y-91841080D03*
X204187080Y-84221080D03*
X201647080Y-91841080D03*
X206727080Y-84221080D03*
X199107080Y-91841080D03*
X209267080Y-84221080D03*
X196567080Y-91841080D03*
X211807080Y-84221080D03*
D11*
X194027080Y-91841080D03*
D10*
X166027080Y-84221080D03*
X183807080Y-91841080D03*
X168567080Y-84221080D03*
X181267080Y-91841080D03*
X171107080Y-84221080D03*
X178727080Y-91841080D03*
X173647080Y-84221080D03*
X176187080Y-91841080D03*
X176187080Y-84221080D03*
X173647080Y-91841080D03*
X178727080Y-84221080D03*
X171107080Y-91841080D03*
X181267080Y-84221080D03*
X168567080Y-91841080D03*
X183807080Y-84221080D03*
D11*
X166027080Y-91841080D03*
X250027080Y-102341080D03*
D10*
X267807080Y-94721080D03*
X252567080Y-102341080D03*
X265267080Y-94721080D03*
X255107080Y-102341080D03*
X262727080Y-94721080D03*
X257647080Y-102341080D03*
X260187080Y-94721080D03*
X260187080Y-102341080D03*
X257647080Y-94721080D03*
X262727080Y-102341080D03*
X255107080Y-94721080D03*
X265267080Y-102341080D03*
X252567080Y-94721080D03*
X267807080Y-102341080D03*
X250027080Y-94721080D03*
D11*
X222027080Y-102341080D03*
D10*
X239807080Y-94721080D03*
X224567080Y-102341080D03*
X237267080Y-94721080D03*
X227107080Y-102341080D03*
X234727080Y-94721080D03*
X229647080Y-102341080D03*
X232187080Y-94721080D03*
X232187080Y-102341080D03*
X229647080Y-94721080D03*
X234727080Y-102341080D03*
X227107080Y-94721080D03*
X237267080Y-102341080D03*
X224567080Y-94721080D03*
X239807080Y-102341080D03*
X222027080Y-94721080D03*
D11*
X194027080Y-102341080D03*
D10*
X211807080Y-94721080D03*
X196567080Y-102341080D03*
X209267080Y-94721080D03*
X199107080Y-102341080D03*
X206727080Y-94721080D03*
X201647080Y-102341080D03*
X204187080Y-94721080D03*
X204187080Y-102341080D03*
X201647080Y-94721080D03*
X206727080Y-102341080D03*
X199107080Y-94721080D03*
X209267080Y-102341080D03*
X196567080Y-94721080D03*
X211807080Y-102341080D03*
X194027080Y-94721080D03*
D11*
X166027080Y-102341080D03*
D10*
X183807080Y-94721080D03*
X168567080Y-102341080D03*
X181267080Y-94721080D03*
X171107080Y-102341080D03*
X178727080Y-94721080D03*
X173647080Y-102341080D03*
X176187080Y-94721080D03*
X176187080Y-102341080D03*
X173647080Y-94721080D03*
X178727080Y-102341080D03*
X171107080Y-94721080D03*
X181267080Y-102341080D03*
X168567080Y-94721080D03*
X183807080Y-102341080D03*
X166027080Y-94721080D03*
X250027080Y-105221080D03*
X267807080Y-112841080D03*
X252567080Y-105221080D03*
X265267080Y-112841080D03*
X255107080Y-105221080D03*
X262727080Y-112841080D03*
X257647080Y-105221080D03*
X260187080Y-112841080D03*
X260187080Y-105221080D03*
X257647080Y-112841080D03*
X262727080Y-105221080D03*
X255107080Y-112841080D03*
X265267080Y-105221080D03*
X252567080Y-112841080D03*
X267807080Y-105221080D03*
D11*
X250027080Y-112841080D03*
D10*
X222027080Y-105221080D03*
X239807080Y-112841080D03*
X224567080Y-105221080D03*
X237267080Y-112841080D03*
X227107080Y-105221080D03*
X234727080Y-112841080D03*
X229647080Y-105221080D03*
X232187080Y-112841080D03*
X232187080Y-105221080D03*
X229647080Y-112841080D03*
X234727080Y-105221080D03*
X227107080Y-112841080D03*
X237267080Y-105221080D03*
X224567080Y-112841080D03*
X239807080Y-105221080D03*
D11*
X222027080Y-112841080D03*
D10*
X194027080Y-105221080D03*
X211807080Y-112841080D03*
X196567080Y-105221080D03*
X209267080Y-112841080D03*
X199107080Y-105221080D03*
X206727080Y-112841080D03*
X201647080Y-105221080D03*
X204187080Y-112841080D03*
X204187080Y-105221080D03*
X201647080Y-112841080D03*
X206727080Y-105221080D03*
X199107080Y-112841080D03*
X209267080Y-105221080D03*
X196567080Y-112841080D03*
X211807080Y-105221080D03*
D11*
X194027080Y-112841080D03*
X166027080Y-112841080D03*
D10*
X183807080Y-105221080D03*
X168567080Y-112841080D03*
X181267080Y-105221080D03*
X171107080Y-112841080D03*
X178727080Y-105221080D03*
X173647080Y-112841080D03*
X176187080Y-105221080D03*
X176187080Y-112841080D03*
X173647080Y-105221080D03*
X178727080Y-112841080D03*
X171107080Y-105221080D03*
X181267080Y-112841080D03*
X168567080Y-105221080D03*
X183807080Y-112841080D03*
X166027080Y-105221080D03*
D11*
X48519080Y-60269080D03*
D10*
X76459080Y-52649080D03*
X51059080Y-60269080D03*
X73919080Y-52649080D03*
X53599080Y-60269080D03*
X71379080Y-52649080D03*
X56139080Y-60269080D03*
X68839080Y-52649080D03*
X58679080Y-60269080D03*
X66299080Y-52649080D03*
X61219080Y-60269080D03*
X63759080Y-52649080D03*
X63759080Y-60269080D03*
X61219080Y-52649080D03*
X66299080Y-60269080D03*
X58679080Y-52649080D03*
X68839080Y-60269080D03*
X56139080Y-52649080D03*
X71379080Y-60269080D03*
X53599080Y-52649080D03*
X73919080Y-60269080D03*
X51059080Y-52649080D03*
X76459080Y-60269080D03*
X48519080Y-52649080D03*
D14*
X124727080Y-94891080D03*
D15*
X124727080Y-110131080D03*
D10*
X159527080Y-94841080D03*
D13*
X159527080Y-102341080D03*
X188777080Y-102341080D03*
D10*
X188777080Y-94841080D03*
D13*
X216777080Y-102341080D03*
D10*
X216777080Y-94841080D03*
D13*
X159527080Y-91841080D03*
D10*
X159527080Y-84341080D03*
X188777080Y-84341080D03*
D13*
X188777080Y-91841080D03*
X216777080Y-91841080D03*
D10*
X216777080Y-84341080D03*
X159527080Y-73841080D03*
D13*
X159527080Y-81341080D03*
X188777080Y-81341080D03*
D10*
X188777080Y-73841080D03*
X244777080Y-105341080D03*
D13*
X244777080Y-112841080D03*
D10*
X159527080Y-63341080D03*
D13*
X159527080Y-70841080D03*
X188777080Y-70841080D03*
D10*
X188777080Y-63341080D03*
X244777080Y-94841080D03*
D13*
X244777080Y-102341080D03*
X160777080Y-60341080D03*
D10*
X160777080Y-52841080D03*
X188777080Y-52841080D03*
D13*
X188777080Y-60341080D03*
X244777080Y-91841080D03*
D10*
X244777080Y-84341080D03*
X129545080Y-79693080D03*
D13*
X129545080Y-87193080D03*
X216777080Y-81341080D03*
D10*
X216777080Y-73841080D03*
D13*
X244777080Y-81341080D03*
D10*
X244777080Y-73841080D03*
X129545080Y-66993080D03*
D13*
X129545080Y-74493080D03*
X216777080Y-70841080D03*
D10*
X216777080Y-63341080D03*
X244777080Y-63341080D03*
D13*
X244777080Y-70841080D03*
X132777080Y-60341080D03*
D10*
X132777080Y-52841080D03*
X216777080Y-52841080D03*
D13*
X216777080Y-60341080D03*
X244777080Y-60341080D03*
D10*
X244777080Y-52841080D03*
X159527080Y-105341080D03*
D13*
X159527080Y-112841080D03*
X188777080Y-112841080D03*
D10*
X188777080Y-105341080D03*
X216777080Y-105341080D03*
D13*
X216777080Y-112841080D03*
D11*
X73467080Y-63541080D03*
D10*
X81087080Y-71161080D03*
X76007080Y-63541080D03*
X78547080Y-71161080D03*
X78547080Y-63541080D03*
X76007080Y-71161080D03*
X81087080Y-63541080D03*
X73467080Y-71161080D03*
D16*
X267807080Y-109321080D03*
X269847080Y-109301080D03*
X37817080Y-106281080D03*
X39937080Y-106281080D03*
X111107080Y-105011080D03*
X253817080Y-56621080D03*
X225767080Y-56531080D03*
X216747080Y-56501080D03*
X214247080Y-52801080D03*
X155722070Y-91826080D03*
X155722070Y-100626080D03*
X130657080Y-97901080D03*
X116827080Y-67801080D03*
X148277080Y-77251080D03*
X119287080Y-81911080D03*
X209247080Y-57801080D03*
X153222080Y-57651080D03*
X111767080Y-70231080D03*
X149497080Y-66901080D03*
X114317080Y-70241080D03*
X127177080Y-94741080D03*
X107687080Y-98081080D03*
X150772080Y-110101080D03*
X194022080Y-77526080D03*
X221954580Y-78868580D03*
X196597080Y-76276080D03*
X221997080Y-76326080D03*
X114287080Y-82581080D03*
X171122080Y-55351080D03*
X214297080Y-84376080D03*
X214272080Y-56501080D03*
X157407080Y-88001082D03*
X121907080Y-97951080D03*
X168597080Y-55351080D03*
X121897080Y-72381080D03*
X127057080Y-83391080D03*
X116817080Y-83461080D03*
X166047080Y-56501080D03*
X82237080Y-79761080D03*
X32217080Y-78731080D03*
X56352070Y-106981080D03*
X74237080Y-57726090D03*
X76737080Y-79231078D03*
X79967080Y-60351080D03*
X83147078Y-65641080D03*
X93697080Y-56666090D03*
X66417080Y-55861080D03*
X96267080Y-65661080D03*
X80917080Y-59191080D03*
X51117080Y-58021080D03*
X185622080Y-111276080D03*
X115407080Y-50231080D03*
X110577080Y-49511080D03*
X53317080Y-49771080D03*
X83307080Y-49851080D03*
X135647080Y-49701080D03*
X185522078Y-49701078D03*
X156077080Y-114011080D03*
X116817082Y-49191080D03*
X56127080Y-49046070D03*
X77237080Y-65571080D03*
X60057080Y-55361080D03*
X63947080Y-56211080D03*
X51927080Y-92821080D03*
X49757080Y-54301080D03*
X52637080Y-80451080D03*
X27509553Y-79986090D03*
X23947080Y-56101080D03*
X41257080Y-52671080D03*
X89857078Y-59081080D03*
X46127080Y-88721080D03*
X51067080Y-70811080D03*
X34267080Y-48511080D03*
X106697080Y-47731080D03*
X102737080Y-69211080D03*
X101177080Y-50416070D03*
X224567080Y-67741080D03*
X138067080Y-65446080D03*
X148227080Y-96251078D03*
X168547080Y-67176080D03*
X162797080Y-70851080D03*
X214322080Y-94276080D03*
X121327080Y-100351080D03*
X196747080Y-68401080D03*
X211747080Y-68401080D03*
X41187080Y-48271080D03*
X41217080Y-51191080D03*
X29947080Y-98281080D03*
X30387080Y-68391080D03*
X53517080Y-67591080D03*
X132147080Y-71431080D03*
X71027080Y-70981080D03*
X58677080Y-65491080D03*
X97547080Y-77741080D03*
X132717080Y-76921080D03*
X39787080Y-66651080D03*
X61257080Y-65011080D03*
X61219080Y-67849080D03*
X119237080Y-71831080D03*
X92617080Y-67861080D03*
X56699317Y-76446090D03*
X65023790Y-76446090D03*
X57347080Y-51336090D03*
X42837080Y-58811080D03*
X41197080Y-57031080D03*
X64747080Y-65771080D03*
X62367080Y-75696080D03*
X86117080Y-96371080D03*
X31127080Y-95331080D03*
X31647080Y-66401080D03*
X33437080Y-99221080D03*
X38027080Y-76921080D03*
X43587080Y-67661080D03*
X32937080Y-106061080D03*
X28337080Y-64591080D03*
X51367080Y-102281080D03*
X63247080Y-114041080D03*
X135627080Y-82971080D03*
X145687081Y-96221091D03*
X144322080Y-88826080D03*
X196572080Y-78876080D03*
X219147080Y-78801080D03*
X162872080Y-86776080D03*
X168647080Y-78826078D03*
X162822080Y-78876080D03*
X136797080Y-87961080D03*
X219147080Y-108801080D03*
X115507080Y-101041080D03*
X162897080Y-106891080D03*
X107937080Y-82751078D03*
X162747080Y-94401080D03*
X145672080Y-76676080D03*
X111657080Y-67961080D03*
X94947080Y-67941080D03*
X102787080Y-88211080D03*
X48617080Y-90071080D03*
X88367080Y-87701080D03*
X42347078Y-77601080D03*
X100257080Y-58261080D03*
X83257080Y-95071080D03*
X85237078Y-76371082D03*
X53647080Y-88401080D03*
X70717080Y-87631080D03*
X123087080Y-96121080D03*
X76077073Y-83921073D03*
X76077080Y-91741080D03*
X50717080Y-73211080D03*
X49247080Y-106581080D03*
X81787080Y-106211080D03*
X80562090Y-80181080D03*
X71517080Y-104631080D03*
X45397080Y-105881080D03*
X54787080Y-79721080D03*
X112857080Y-95671080D03*
X97467080Y-98161080D03*
X76107080Y-97901080D03*
X67587080Y-98641080D03*
X114037080Y-94521080D03*
X91117080Y-98651080D03*
X105217078Y-97351080D03*
X69677080Y-98666101D03*
X92587080Y-78671080D03*
X92517080Y-58351080D03*
X41067080Y-76791080D03*
X33770869Y-108279938D03*
X27367080Y-65331080D03*
X65077080Y-97941082D03*
X26377080Y-69681080D03*
X31807080Y-107421080D03*
X116627080Y-104991080D03*
X38557080Y-104361080D03*
X119447080Y-97751080D03*
X96267080Y-99111080D03*
X48497080Y-99136090D03*
X32687080Y-104401080D03*
X27427080Y-81261080D03*
X30707080Y-103761080D03*
X26687080Y-77781080D03*
X31020270Y-105444246D03*
X25987080Y-76781080D03*
X127957080Y-102381080D03*
X45977080Y-99136090D03*
X112907080Y-84741080D03*
X133417080Y-84701080D03*
X112697080Y-102001080D03*
X132987069Y-96841080D03*
X152527080Y-98271082D03*
X153272080Y-89376080D03*
X38342619Y-87096090D03*
X80477080Y-95981080D03*
X98797080Y-86181080D03*
X75877078Y-102171080D03*
X38747080Y-88191080D03*
X77997080Y-87771080D03*
X81057080Y-66301080D03*
X35447080Y-103631078D03*
X132187080Y-113341080D03*
X133247080Y-112561080D03*
X141847080Y-111471080D03*
X144072080Y-110601080D03*
X146947082Y-109746101D03*
X149477080Y-109296090D03*
X152047080Y-109026080D03*
X154687080Y-107766090D03*
X124057080Y-115441080D03*
X68867080Y-106936080D03*
X35957080Y-97686080D03*
X46587080Y-107311080D03*
X186622080Y-109751080D03*
X145697080Y-110976080D03*
X65147080Y-55831080D03*
X53267080Y-55401080D03*
X122637080Y-104871080D03*
X122667080Y-99221080D03*
X96087080Y-88301080D03*
X66277080Y-89211080D03*
X42507080Y-88106090D03*
X30997080Y-93301080D03*
X32977080Y-65441080D03*
D17*
X187147080Y-115501080D02*
X187147080Y-118501080D01*
X188447080Y-117501080D02*
X187147080Y-115501080D01*
X189747080Y-115501080D02*
X188447080Y-117501080D01*
X189747080Y-118501080D02*
X189747080Y-115501080D01*
X190747080Y-115501080D02*
X193147080Y-115501080D01*
X190747080Y-118501080D02*
X190747080Y-115501080D01*
X190747080Y-117101080D02*
X192547080Y-117101080D01*
X190747080Y-118501080D02*
X193147080Y-118501080D01*
X194147080Y-115501080D02*
X194147080Y-118501080D01*
X196747080Y-115501080D02*
X195447080Y-117501080D01*
X195447080Y-117501080D02*
X194147080Y-115501080D01*
X196747080Y-118501080D02*
X196747080Y-115501080D01*
X198547080Y-115501080D02*
X199747080Y-115501080D01*
X200547080Y-116301080D02*
X200547080Y-117701080D01*
X197747080Y-116301080D02*
X198547080Y-115501080D01*
X199747080Y-115501080D02*
X200547080Y-116301080D01*
X197747080Y-117501080D02*
X197747080Y-116301080D01*
X199747080Y-118501080D02*
X198547080Y-118501080D01*
X200547080Y-117701080D02*
X199747080Y-118501080D01*
X197747080Y-117501080D02*
X197747080Y-117701080D01*
X197747080Y-117701080D02*
X198547080Y-118501080D01*
X201547080Y-115501080D02*
X201547080Y-118501080D01*
X201547080Y-115501080D02*
X203547080Y-115501080D01*
X203547080Y-115501080D02*
X204147080Y-116101080D01*
X204147080Y-116101080D02*
X203547080Y-116701080D01*
X203547080Y-116701080D02*
X203347080Y-116901080D01*
X203747080Y-117701080D02*
X204147080Y-118501080D01*
X203347080Y-116901080D02*
X203747080Y-117701080D01*
X203347080Y-116901080D02*
X201747080Y-116901080D01*
X205147080Y-115501080D02*
X206347080Y-116701080D01*
X206347080Y-116701080D02*
X206347080Y-118501080D01*
X206347080Y-116701080D02*
X207547080Y-115501080D01*
X211747080Y-117101080D02*
X213547080Y-117101080D01*
X211747080Y-118501080D02*
X214147080Y-118501080D01*
X211747080Y-118501080D02*
X211747080Y-115501080D01*
X211747080Y-115501080D02*
X214147080Y-115501080D01*
X215147080Y-115501080D02*
X218147080Y-118501080D01*
X218147080Y-115501080D02*
X215147080Y-118501080D01*
X220347080Y-115501080D02*
X220347080Y-118501080D01*
X219147080Y-115501080D02*
X220347080Y-115501080D01*
X220347080Y-115501080D02*
X221547080Y-115501080D01*
X222547080Y-118501080D02*
X222547080Y-115501080D01*
X222547080Y-117101080D02*
X224347080Y-117101080D01*
X222547080Y-118501080D02*
X224947080Y-118501080D01*
X222547080Y-115501080D02*
X224947080Y-115501080D01*
X226347080Y-115501080D02*
X226347080Y-116101080D01*
X226347080Y-118501080D02*
X226347080Y-115501080D01*
X226347080Y-115501080D02*
X228747080Y-118501080D01*
X228747080Y-118501080D02*
X228747080Y-115501080D01*
X230547080Y-115501080D02*
X229947080Y-116301080D01*
X231847080Y-115501080D02*
X230547080Y-115501080D01*
X232447080Y-116301080D02*
X231847080Y-115501080D01*
X230547080Y-117101080D02*
X229947080Y-116301080D01*
X231847080Y-117101080D02*
X230547080Y-117101080D01*
X230547080Y-118501080D02*
X229947080Y-117701080D01*
X231847080Y-118501080D02*
X230547080Y-118501080D01*
X232547080Y-117801080D02*
X231847080Y-118501080D01*
X232547080Y-117801080D02*
X231947080Y-117101080D01*
X234847080Y-118401080D02*
X234947080Y-118501080D01*
X234847080Y-115501080D02*
X234847080Y-118401080D01*
X234947080Y-118501080D02*
X235647080Y-118501080D01*
X234047080Y-118501080D02*
X234947080Y-118501080D01*
X234047080Y-115501080D02*
X234847080Y-115501080D01*
X234847080Y-115501080D02*
X235647080Y-115501080D01*
X241347080Y-115501080D02*
X243747080Y-118501080D01*
X241347080Y-118501080D02*
X241347080Y-115501080D01*
X243747080Y-118501080D02*
X243747080Y-115501080D01*
X237647080Y-118501080D02*
X236847080Y-117701080D01*
X239647080Y-117701080D02*
X238847080Y-118501080D01*
X239647080Y-116301080D02*
X239647080Y-117701080D01*
X238847080Y-115501080D02*
X239647080Y-116301080D01*
X238847080Y-118501080D02*
X237647080Y-118501080D01*
X236847080Y-116301080D02*
X237647080Y-115501080D01*
X237647080Y-115501080D02*
X238847080Y-115501080D01*
X236847080Y-117701080D02*
X236847080Y-116301080D01*
X165047080Y-116901080D02*
X163447080Y-116901080D01*
X165847080Y-116101080D02*
X165047080Y-116901080D01*
X165247080Y-115501080D02*
X165847080Y-116101080D01*
X163247080Y-115501080D02*
X165247080Y-115501080D01*
X163247080Y-118501080D02*
X163247080Y-115501080D01*
X168747080Y-118501080D02*
X167547080Y-118501080D01*
X166747080Y-117701080D02*
X167547080Y-118501080D01*
X169547080Y-117701080D02*
X168747080Y-118501080D01*
X167547080Y-115501080D02*
X168747080Y-115501080D01*
X166747080Y-116301080D02*
X167547080Y-115501080D01*
X168747080Y-115501080D02*
X169547080Y-116301080D01*
X166747080Y-117701080D02*
X166747080Y-116301080D01*
X171547080Y-118501080D02*
X172247080Y-118501080D01*
X170647080Y-118501080D02*
X171547080Y-118501080D01*
X171447080Y-115501080D02*
X171447080Y-118401080D01*
X171447080Y-115501080D02*
X170747080Y-116201080D01*
X173847080Y-115501080D02*
X175047080Y-115501080D01*
X173047080Y-116301080D02*
X173847080Y-115501080D01*
X173047080Y-117701080D02*
X173047080Y-116301080D01*
X173847080Y-118501080D02*
X173047080Y-117701080D01*
X175047080Y-115501080D02*
X175847080Y-116301080D01*
X175847080Y-116301080D02*
X175847080Y-117701080D01*
X175847080Y-117701080D02*
X175047080Y-118501080D01*
X175047080Y-118501080D02*
X173847080Y-118501080D01*
X177547080Y-115501080D02*
X178747080Y-115501080D01*
X176747080Y-116301080D02*
X177547080Y-115501080D01*
X176747080Y-117701080D02*
X176747080Y-116301080D01*
X177547080Y-118501080D02*
X176747080Y-117701080D01*
X178747080Y-115501080D02*
X179547080Y-116301080D01*
X179547080Y-117701080D02*
X178747080Y-118501080D01*
X178747080Y-118501080D02*
X177547080Y-118501080D01*
X179547080Y-116301080D02*
X179547080Y-117701080D01*
X182447080Y-116901080D02*
X180847080Y-116901080D01*
X182647080Y-115501080D02*
X183247080Y-116101080D01*
X180647080Y-115501080D02*
X182647080Y-115501080D01*
X180647080Y-118501080D02*
X180647080Y-115501080D01*
X182447080Y-118501080D02*
X180647080Y-118501080D01*
X183247080Y-117701080D02*
X182447080Y-118501080D01*
X183247080Y-116101080D02*
X182447080Y-116901080D01*
X182447080Y-116901080D02*
X183247080Y-117701080D01*
D18*
X274047080Y-112201080D02*
X273247080Y-113001080D01*
X274067080Y-118601080D02*
X274067080Y-112221080D01*
X267447080Y-118601080D02*
X274067080Y-118601080D01*
X268347080Y-117701080D02*
X267447080Y-118601080D01*
X274047080Y-53801080D02*
X274047080Y-47181080D01*
X267647080Y-47201080D02*
X268447080Y-48001080D01*
X273147080Y-52901080D02*
X274047080Y-53801080D01*
X274047080Y-47181080D02*
X267667080Y-47181080D01*
X29647080Y-111601080D02*
X23047080Y-111601080D01*
X29647080Y-118201080D02*
X29647080Y-111601080D01*
X23047080Y-118201080D02*
X29647080Y-118201080D01*
X23047080Y-111801080D02*
X23047080Y-118201080D01*
X37817080Y-106281080D02*
X39957080Y-106281080D01*
X39957080Y-106281080D02*
X39937080Y-106281080D01*
X104481080Y-114961080D02*
X101351080Y-111831080D01*
X113987080Y-114961080D02*
X104481080Y-114961080D01*
D17*
X226547080Y-107201080D02*
X250587080Y-107201080D01*
X250587080Y-107201080D02*
X252567080Y-105221080D01*
X224567080Y-105221080D02*
X226547080Y-107201080D01*
X112557080Y-106461080D02*
X111107080Y-105011080D01*
X127187080Y-106461080D02*
X112557080Y-106461080D01*
X159257080Y-106811080D02*
X127537080Y-106811080D01*
X160147080Y-107701080D02*
X159257080Y-106811080D01*
X222087080Y-107701080D02*
X160147080Y-107701080D01*
X127537080Y-106811080D02*
X127187080Y-106461080D01*
X224567080Y-105221080D02*
X222087080Y-107701080D01*
X253727080Y-56531080D02*
X253817080Y-56621080D01*
X225767080Y-56531080D02*
X253727080Y-56531080D01*
X216777080Y-56531080D02*
X216747080Y-56501080D01*
X225767080Y-56531080D02*
X216777080Y-56531080D01*
X145002080Y-50826080D02*
X143107080Y-52721080D01*
X212272080Y-50826080D02*
X145002080Y-50826080D01*
X214247080Y-52801080D02*
X212272080Y-50826080D01*
X147082080Y-93276080D02*
X154272070Y-93276080D01*
X154272070Y-93276080D02*
X155722070Y-91826080D01*
X145647080Y-91841080D02*
X147082080Y-93276080D01*
X150847080Y-102341080D02*
X152562080Y-100626080D01*
X152562080Y-100626080D02*
X155722070Y-100626080D01*
X132307080Y-99551080D02*
X130657080Y-97901080D01*
X147977080Y-99551080D02*
X132307080Y-99551080D01*
X150767080Y-102341080D02*
X147977080Y-99551080D01*
X171987080Y-54381080D02*
X173647080Y-52721080D01*
X147307080Y-54381080D02*
X171987080Y-54381080D01*
X145647080Y-52721080D02*
X147307080Y-54381080D01*
X141907080Y-74961080D02*
X143147080Y-73721080D01*
X132097071Y-72741071D02*
X134317080Y-74961080D01*
X134317080Y-74961080D02*
X141907080Y-74961080D01*
X126217089Y-72741071D02*
X132097071Y-72741071D01*
X124467080Y-74491080D02*
X126217089Y-72741071D01*
X200167080Y-106701080D02*
X201647080Y-105221080D01*
X175127080Y-106701080D02*
X200167080Y-106701080D01*
X173647080Y-105221080D02*
X175127080Y-106701080D01*
X227967080Y-96401080D02*
X229647080Y-94721080D01*
X203327080Y-96401080D02*
X227967080Y-96401080D01*
X201647080Y-94721080D02*
X203327080Y-96401080D01*
X256167080Y-85701080D02*
X257647080Y-84221080D01*
X231127080Y-85701080D02*
X256167080Y-85701080D01*
X229647080Y-84221080D02*
X231127080Y-85701080D01*
X144366400Y-64531080D02*
X129547080Y-64531080D01*
X129547080Y-64531080D02*
X126277080Y-67801080D01*
X145687080Y-63210400D02*
X144366400Y-64531080D01*
X126277080Y-67801080D02*
X116827080Y-67801080D01*
X174767080Y-61801080D02*
X176187080Y-63221080D01*
X147096400Y-61801080D02*
X174767080Y-61801080D01*
X145687080Y-63210400D02*
X147096400Y-61801080D01*
X202767080Y-103801080D02*
X204187080Y-105221080D01*
X177607080Y-103801080D02*
X202767080Y-103801080D01*
X176187080Y-105221080D02*
X177607080Y-103801080D01*
X230607080Y-64801080D02*
X232187080Y-63221080D01*
X205767080Y-64801080D02*
X230607080Y-64801080D01*
X204187080Y-63221080D02*
X205767080Y-64801080D01*
X258607080Y-75301080D02*
X260187080Y-73721080D01*
X233767080Y-75301080D02*
X258607080Y-75301080D01*
X232187080Y-73721080D02*
X233767080Y-75301080D01*
X233307080Y-61801080D02*
X208147080Y-61801080D01*
X208147080Y-61801080D02*
X206727080Y-63221080D01*
X234727080Y-63221080D02*
X233307080Y-61801080D01*
X148277080Y-77251080D02*
X159567080Y-77251080D01*
X159567080Y-77251080D02*
X161637080Y-75181080D01*
X177267080Y-75181080D02*
X178727080Y-73721080D01*
X161637080Y-75181080D02*
X177267080Y-75181080D01*
X205307080Y-61801080D02*
X206727080Y-63221080D01*
X180147080Y-61801080D02*
X205307080Y-61801080D01*
X178727080Y-63221080D02*
X180147080Y-61801080D01*
X261307080Y-103801080D02*
X262727080Y-105221080D01*
X236147080Y-103801080D02*
X261307080Y-103801080D01*
X234727080Y-105221080D02*
X236147080Y-103801080D01*
X119852765Y-81911080D02*
X119287080Y-81911080D01*
X129487080Y-81911080D02*
X119852765Y-81911080D01*
X133297080Y-78101080D02*
X129487080Y-81911080D01*
X147427080Y-78101080D02*
X133297080Y-78101080D01*
X148277080Y-77251080D02*
X147427080Y-78101080D01*
X133817080Y-75431080D02*
X149057080Y-75431080D01*
X131577080Y-73191080D02*
X133817080Y-75431080D01*
X126407080Y-73191080D02*
X131577080Y-73191080D01*
X149057080Y-75431080D02*
X150767080Y-73721080D01*
X125717080Y-73881080D02*
X126407080Y-73191080D01*
X125287080Y-75721080D02*
X125717080Y-75291080D01*
X125717080Y-75291080D02*
X125717080Y-73881080D01*
X123153080Y-75721080D02*
X125287080Y-75721080D01*
X121925080Y-74493080D02*
X123153080Y-75721080D01*
X179947080Y-51401080D02*
X181267080Y-52721080D01*
X154587080Y-51401080D02*
X179947080Y-51401080D01*
X153267080Y-52721080D02*
X154587080Y-51401080D01*
X207787080Y-75201080D02*
X209267080Y-73721080D01*
X182747080Y-75201080D02*
X207787080Y-75201080D01*
X181267080Y-73721080D02*
X182747080Y-75201080D01*
X263587080Y-96401080D02*
X265267080Y-94721080D01*
X238947080Y-96401080D02*
X263587080Y-96401080D01*
X237267080Y-94721080D02*
X238947080Y-96401080D01*
X235887080Y-106601080D02*
X237267080Y-105221080D01*
X234247080Y-106601080D02*
X235887080Y-106601080D01*
X233447080Y-105801080D02*
X234247080Y-106601080D01*
X233447080Y-104601080D02*
X233447080Y-105801080D01*
X232647080Y-103801080D02*
X233447080Y-104601080D01*
X210687080Y-103801080D02*
X232647080Y-103801080D01*
X209267080Y-105221080D02*
X210687080Y-103801080D01*
X213562080Y-54476080D02*
X211807080Y-52721080D01*
X238052080Y-54476080D02*
X213562080Y-54476080D01*
X239807080Y-52721080D02*
X238052080Y-54476080D01*
X151097080Y-75931080D02*
X153307080Y-73721080D01*
X128443080Y-75931080D02*
X151097080Y-75931080D01*
X127005080Y-74493080D02*
X128443080Y-75931080D01*
X210682079Y-51596079D02*
X211807080Y-52721080D01*
X184932081Y-51596079D02*
X210682079Y-51596079D01*
X183807080Y-52721080D02*
X184932081Y-51596079D01*
X239807080Y-52721080D02*
X241517080Y-54431080D01*
X266097080Y-54431080D02*
X267807080Y-52721080D01*
X241517080Y-54431080D02*
X266097080Y-54431080D01*
X182327080Y-64701080D02*
X183807080Y-63221080D01*
X154797760Y-64701080D02*
X182327080Y-64701080D01*
X153307080Y-63210400D02*
X154797760Y-64701080D01*
X153222080Y-57651080D02*
X180147080Y-57651080D01*
X181267080Y-58771080D02*
X181267080Y-60341080D01*
X180147080Y-57651080D02*
X181267080Y-58771080D01*
X237267080Y-60341080D02*
X239357080Y-58251080D01*
X263177080Y-58251080D02*
X265267080Y-60341080D01*
X239357080Y-58251080D02*
X263177080Y-58251080D01*
X209247080Y-57801080D02*
X234727080Y-57801080D01*
X234727080Y-57801080D02*
X237267080Y-60341080D01*
X148567750Y-68631070D02*
X150767080Y-70830400D01*
X113367090Y-68631070D02*
X148567750Y-68631070D01*
X111767080Y-70231080D02*
X113367090Y-68631070D01*
X183807080Y-57801080D02*
X181267080Y-60341080D01*
X209247080Y-57801080D02*
X183807080Y-57801080D01*
X146477760Y-69081080D02*
X148227080Y-70830400D01*
X116820082Y-69081080D02*
X146477760Y-69081080D01*
X115660082Y-70241080D02*
X116820082Y-69081080D01*
X114317080Y-70241080D02*
X115660082Y-70241080D01*
X149497080Y-66901080D02*
X151347091Y-68751091D01*
X151347091Y-68751091D02*
X169485680Y-68751091D01*
X169485680Y-68751091D02*
X169585680Y-68851091D01*
X176737091Y-68851091D02*
X178727080Y-70841080D01*
X169585680Y-68851091D02*
X176737091Y-68851091D01*
X180517091Y-100551069D02*
X204937069Y-100551069D01*
X178727080Y-102341080D02*
X180517091Y-100551069D01*
X204937069Y-100551069D02*
X206727080Y-102341080D01*
X232587080Y-89701080D02*
X234727080Y-91841080D01*
X208867080Y-89701080D02*
X232587080Y-89701080D01*
X206727080Y-91841080D02*
X208867080Y-89701080D01*
X261267080Y-61801080D02*
X262727080Y-60341080D01*
X236187080Y-61801080D02*
X261267080Y-61801080D01*
X234727080Y-60341080D02*
X236187080Y-61801080D01*
X144437080Y-69611080D02*
X145656400Y-70830400D01*
X117287080Y-69611080D02*
X144437080Y-69611080D01*
X115907080Y-70991080D02*
X117287080Y-69611080D01*
X115907080Y-71671080D02*
X115907080Y-70991080D01*
X114657080Y-72921080D02*
X115907080Y-71671080D01*
X110797080Y-72921080D02*
X114657080Y-72921080D01*
X145656400Y-70830400D02*
X145687080Y-70830400D01*
X109225080Y-74493080D02*
X110797080Y-72921080D01*
X157117080Y-82841080D02*
X174687080Y-82841080D01*
X154217080Y-79941080D02*
X157117080Y-82841080D01*
X147087080Y-79941080D02*
X154217080Y-79941080D01*
X174687080Y-82841080D02*
X176187080Y-81341080D01*
X145687080Y-81341080D02*
X147087080Y-79941080D01*
X202747080Y-79901080D02*
X204187080Y-81341080D01*
X177627080Y-79901080D02*
X202747080Y-79901080D01*
X176187080Y-81341080D02*
X177627080Y-79901080D01*
X230647080Y-79801080D02*
X232187080Y-81341080D01*
X205727080Y-79801080D02*
X230647080Y-79801080D01*
X204187080Y-81341080D02*
X205727080Y-79801080D01*
X233827080Y-79701080D02*
X258547080Y-79701080D01*
X258547080Y-79701080D02*
X260187080Y-81341080D01*
X232187080Y-81341080D02*
X233827080Y-79701080D01*
X211527080Y-90201080D02*
X228007080Y-90201080D01*
X210547080Y-92361080D02*
X210547080Y-91181080D01*
X209547080Y-93361080D02*
X210547080Y-92361080D01*
X165304579Y-93361080D02*
X209547080Y-93361080D01*
X152507080Y-96941080D02*
X161724579Y-96941080D01*
X210547080Y-91181080D02*
X211527080Y-90201080D01*
X136047080Y-97681080D02*
X151767080Y-97681080D01*
X151767080Y-97681080D02*
X152507080Y-96941080D01*
X134382079Y-96016079D02*
X136047080Y-97681080D01*
X128452079Y-96016079D02*
X134382079Y-96016079D01*
X228007080Y-90201080D02*
X229647080Y-91841080D01*
X161724579Y-96941080D02*
X165304579Y-93361080D01*
X127177080Y-94741080D02*
X128452079Y-96016079D01*
X256207080Y-100901080D02*
X257647080Y-102341080D01*
X231087080Y-100901080D02*
X256207080Y-100901080D01*
X229647080Y-102341080D02*
X231087080Y-100901080D01*
X255107080Y-70841080D02*
X254937080Y-70841080D01*
X156487080Y-99011080D02*
X157287080Y-98211080D01*
X211397080Y-100001080D02*
X224767080Y-100001080D01*
X133527080Y-99011080D02*
X156487080Y-99011080D01*
X209607080Y-98211080D02*
X211397080Y-100001080D01*
X131507080Y-96991080D02*
X133527080Y-99011080D01*
X121927080Y-96991080D02*
X131507080Y-96991080D01*
X121587080Y-96651080D02*
X121927080Y-96991080D01*
X157287080Y-98211080D02*
X209607080Y-98211080D01*
X113557080Y-96651080D02*
X121587080Y-96651080D01*
X112127080Y-98081080D02*
X113557080Y-96651080D01*
X224767080Y-100001080D02*
X227107080Y-102341080D01*
X107687080Y-98081080D02*
X112127080Y-98081080D01*
X253747080Y-114201080D02*
X255107080Y-112841080D01*
X228467080Y-114201080D02*
X253747080Y-114201080D01*
X227107080Y-112841080D02*
X228467080Y-114201080D01*
X250027080Y-102341080D02*
X250027080Y-102181080D01*
X250027080Y-112841080D02*
X250027080Y-112181080D01*
X250027080Y-112841080D02*
X250027080Y-112681080D01*
X222027080Y-112841080D02*
X222027080Y-112306080D01*
X153767080Y-108851080D02*
X152517080Y-110101080D01*
X189327080Y-110421080D02*
X187757080Y-108851080D01*
X152517080Y-110101080D02*
X150772080Y-110101080D01*
X187757080Y-108851080D02*
X153767080Y-108851080D01*
X218827080Y-110421080D02*
X189327080Y-110421080D01*
X221247080Y-112841080D02*
X218827080Y-110421080D01*
X222027080Y-112841080D02*
X221247080Y-112841080D01*
X248587080Y-111401080D02*
X250027080Y-112841080D01*
X223467080Y-111401080D02*
X248587080Y-111401080D01*
X222027080Y-112841080D02*
X223467080Y-111401080D01*
X220612080Y-77526080D02*
X194022080Y-77526080D01*
X221954580Y-78868580D02*
X220612080Y-77526080D01*
X186776078Y-111126080D02*
X192312080Y-111126080D01*
X165547080Y-110301080D02*
X185951078Y-110301080D01*
X185951078Y-110301080D02*
X186776078Y-111126080D01*
X156397080Y-110031080D02*
X165277080Y-110031080D01*
X165277080Y-110031080D02*
X165547080Y-110301080D01*
X152077080Y-114351080D02*
X156397080Y-110031080D01*
X149737080Y-114351080D02*
X152077080Y-114351080D01*
X192312080Y-111126080D02*
X194027080Y-112841080D01*
X148227080Y-112841080D02*
X149737080Y-114351080D01*
X225567080Y-58801080D02*
X227107080Y-60341080D01*
X200647080Y-58801080D02*
X225567080Y-58801080D01*
X199107080Y-60341080D02*
X200647080Y-58801080D01*
X131947080Y-85201080D02*
X113617080Y-85201080D01*
X132847080Y-86101080D02*
X131947080Y-85201080D01*
X147050670Y-87461080D02*
X145690670Y-86101080D01*
X154937080Y-87461080D02*
X147050670Y-87461080D01*
X145690670Y-86101080D02*
X132847080Y-86101080D01*
X161767080Y-89141080D02*
X156617080Y-89141080D01*
X156617080Y-89141080D02*
X154937080Y-87461080D01*
X196217080Y-86551080D02*
X164357080Y-86551080D01*
X164357080Y-86551080D02*
X161767080Y-89141080D01*
X197982079Y-82466081D02*
X197982079Y-84786081D01*
X113617080Y-85201080D02*
X111637080Y-87181080D01*
X197982079Y-84786081D02*
X196217080Y-86551080D01*
X199107080Y-81341080D02*
X197982079Y-82466081D01*
X228107080Y-69301080D02*
X229647080Y-70841080D01*
X203187080Y-69301080D02*
X228107080Y-69301080D01*
X201647080Y-70841080D02*
X203187080Y-69301080D01*
X156093875Y-89701080D02*
X199507080Y-89701080D01*
X147044260Y-88091080D02*
X154483875Y-88091080D01*
X146074260Y-87121080D02*
X147044260Y-88091080D01*
X154483875Y-88091080D02*
X156093875Y-89701080D01*
X132808875Y-87121080D02*
X146074260Y-87121080D01*
X131743874Y-86056079D02*
X132808875Y-87121080D01*
X199507080Y-89701080D02*
X201647080Y-91841080D01*
X123032081Y-86056079D02*
X131743874Y-86056079D01*
X121887080Y-87201080D02*
X123032081Y-86056079D01*
X196597080Y-76276080D02*
X221947080Y-76276080D01*
X221947080Y-76276080D02*
X221997080Y-76326080D01*
X159637080Y-78701080D02*
X162062080Y-76276080D01*
X133647080Y-78701080D02*
X159637080Y-78701080D01*
X162062080Y-76276080D02*
X196597080Y-76276080D01*
X129712079Y-82636081D02*
X133647080Y-78701080D01*
X114342081Y-82636081D02*
X129712079Y-82636081D01*
X114287080Y-82581080D02*
X114342081Y-82636081D01*
X215872080Y-82801080D02*
X214297080Y-84376080D01*
X253687080Y-82801080D02*
X215872080Y-82801080D01*
X255107080Y-84221080D02*
X253687080Y-82801080D01*
X214272080Y-56501080D02*
X212122080Y-56501080D01*
X212122080Y-56501080D02*
X210972080Y-55351080D01*
X199107080Y-54031080D02*
X197787080Y-55351080D01*
X199107080Y-52721080D02*
X199107080Y-54031080D01*
X197787080Y-55351080D02*
X171122080Y-55351080D01*
X210972080Y-55351080D02*
X197787080Y-55351080D01*
X141997080Y-85651080D02*
X140567080Y-84221080D01*
X147197080Y-86971080D02*
X145877080Y-85651080D01*
X156377078Y-86971080D02*
X147197080Y-86971080D01*
X145877080Y-85651080D02*
X141997080Y-85651080D01*
X157407080Y-88001082D02*
X156377078Y-86971080D01*
X140807080Y-100001080D02*
X143147080Y-102341080D01*
X131397080Y-100001080D02*
X140807080Y-100001080D01*
X129347080Y-97951080D02*
X131397080Y-100001080D01*
X121907080Y-97951080D02*
X129347080Y-97951080D01*
X141397080Y-55351080D02*
X168597080Y-55351080D01*
X140567080Y-54521080D02*
X141397080Y-55351080D01*
X140567080Y-52721080D02*
X140567080Y-54521080D01*
X136637061Y-72291061D02*
X138067080Y-73721080D01*
X121987099Y-72291061D02*
X136637061Y-72291061D01*
X121897080Y-72381080D02*
X121987099Y-72291061D01*
X172107080Y-79801080D02*
X173647080Y-81341080D01*
X160727080Y-79801080D02*
X172107080Y-79801080D01*
X160227080Y-79301080D02*
X160727080Y-79801080D01*
X145187080Y-79301080D02*
X160227080Y-79301080D01*
X143147080Y-81341080D02*
X145187080Y-79301080D01*
X129957080Y-83391080D02*
X127057080Y-83391080D01*
X134047080Y-79301080D02*
X129957080Y-83391080D01*
X141107080Y-79301080D02*
X134047080Y-79301080D01*
X143147080Y-81341080D02*
X141107080Y-79301080D01*
X169467080Y-58701080D02*
X171107080Y-60341080D01*
X144747080Y-58701080D02*
X169467080Y-58701080D01*
X143107080Y-60341080D02*
X144747080Y-58701080D01*
X117217079Y-83861079D02*
X116817080Y-83461080D01*
X117602081Y-84246081D02*
X117217079Y-83861079D01*
X130152079Y-84246081D02*
X117602081Y-84246081D01*
X134497080Y-79901080D02*
X130152079Y-84246081D01*
X139167080Y-79901080D02*
X134497080Y-79901080D01*
X140607080Y-81341080D02*
X139167080Y-79901080D01*
X166047080Y-56501080D02*
X139347080Y-56501080D01*
X138027080Y-57821080D02*
X138027080Y-60341080D01*
X139347080Y-56501080D02*
X138027080Y-57821080D01*
X164337080Y-111151080D02*
X166027080Y-112841080D01*
X156907080Y-111151080D02*
X164337080Y-111151080D01*
X143217080Y-115451080D02*
X152607080Y-115451080D01*
X152607080Y-115451080D02*
X156907080Y-111151080D01*
X140607080Y-112841080D02*
X143217080Y-115451080D01*
X60239080Y-79791080D02*
X58679080Y-81351080D01*
X66797080Y-79791080D02*
X60239080Y-79791080D01*
X67987080Y-82741080D02*
X67587080Y-82341080D01*
X69975080Y-82741080D02*
X67987080Y-82741080D01*
X67587080Y-80581080D02*
X66797080Y-79791080D01*
X71379080Y-84145080D02*
X69975080Y-82741080D01*
X67587080Y-82341080D02*
X67587080Y-80581080D01*
X39477080Y-78731080D02*
X32217080Y-78731080D01*
X40602081Y-79856081D02*
X39477080Y-78731080D01*
X43030082Y-79851080D02*
X43025081Y-79856081D01*
X49247069Y-78871091D02*
X48267080Y-79851080D01*
X43025081Y-79856081D02*
X40602081Y-79856081D01*
X48267080Y-79851080D02*
X43030082Y-79851080D01*
X52280093Y-78871091D02*
X49247069Y-78871091D01*
X58679080Y-81351080D02*
X54760082Y-81351080D01*
X54760082Y-81351080D02*
X52280093Y-78871091D01*
X58401080Y-106981080D02*
X56352070Y-106981080D01*
X60711080Y-109291080D02*
X58401080Y-106981080D01*
X76707091Y-85291069D02*
X72525069Y-85291069D01*
X72525069Y-85291069D02*
X71379080Y-84145080D01*
X82237080Y-79761080D02*
X76707091Y-85291069D01*
X86108090Y-57726090D02*
X74237080Y-57726090D01*
X88651080Y-60269080D02*
X86108090Y-57726090D01*
X70107080Y-82121080D02*
X70107080Y-80761080D01*
X73919080Y-84145080D02*
X72485080Y-82711080D01*
X71637082Y-79231078D02*
X76737080Y-79231078D01*
X70107080Y-80761080D02*
X71637082Y-79231078D01*
X70697080Y-82711080D02*
X70107080Y-82121080D01*
X72485080Y-82711080D02*
X70697080Y-82711080D01*
X81468078Y-60351080D02*
X79967080Y-60351080D01*
X89579080Y-61881080D02*
X82998078Y-61881080D01*
X91191080Y-60269080D02*
X89579080Y-61881080D01*
X82998078Y-61881080D02*
X81468078Y-60351080D01*
X93731080Y-60269080D02*
X93522078Y-60269080D01*
X93731080Y-60269080D02*
X93602670Y-60269080D01*
X93602670Y-60269080D02*
X92110670Y-61761080D01*
X92110670Y-61761080D02*
X90687080Y-61761080D01*
X90687080Y-61761080D02*
X89947080Y-62501080D01*
X89947080Y-62501080D02*
X89947080Y-64471080D01*
X89947080Y-64471080D02*
X88777080Y-65641080D01*
X88777080Y-65641080D02*
X83147078Y-65641080D01*
X66677080Y-55601080D02*
X66417080Y-55861080D01*
X92632070Y-55601080D02*
X66677080Y-55601080D01*
X93697080Y-56666090D02*
X92632070Y-55601080D01*
X110847080Y-66201080D02*
X96807080Y-66201080D01*
X114517080Y-65981080D02*
X111067080Y-65981080D01*
X115567080Y-64931080D02*
X114517080Y-65981080D01*
X115567080Y-63547490D02*
X115567080Y-64931080D01*
X119967080Y-62791080D02*
X116323490Y-62791080D01*
X111067080Y-65981080D02*
X110847080Y-66201080D01*
X120717080Y-62041080D02*
X119967080Y-62791080D01*
X116323490Y-62791080D02*
X115567080Y-63547490D01*
X120717080Y-58161080D02*
X120717080Y-62041080D01*
X96807080Y-66201080D02*
X96267080Y-65661080D01*
X121952080Y-56926080D02*
X120717080Y-58161080D01*
X80177091Y-58451091D02*
X80517081Y-58791081D01*
X80517081Y-58791081D02*
X80917080Y-59191080D01*
X51547091Y-58451091D02*
X80177091Y-58451091D01*
X51117080Y-58021080D02*
X51547091Y-58451091D01*
X115377080Y-50201080D02*
X115407080Y-50231080D01*
X110577080Y-50161080D02*
X110537080Y-50201080D01*
X110577080Y-49511080D02*
X110577080Y-50161080D01*
X110537080Y-50201080D02*
X115377080Y-50201080D01*
X53317080Y-49771080D02*
X83227080Y-49771080D01*
X83227080Y-49771080D02*
X83307080Y-49851080D01*
X83627080Y-49531080D02*
X83307080Y-49851080D01*
X109477080Y-49531080D02*
X83627080Y-49531080D01*
X110147080Y-50201080D02*
X109477080Y-49531080D01*
X110537080Y-50201080D02*
X110147080Y-50201080D01*
X135647080Y-49701080D02*
X185522075Y-49701081D01*
X185522075Y-49701081D02*
X185522078Y-49701078D01*
X156667080Y-110591080D02*
X152357080Y-114901080D01*
X164837080Y-110591080D02*
X156667080Y-110591080D01*
X145207080Y-114901080D02*
X143147080Y-112841080D01*
X185447080Y-111101080D02*
X165347080Y-111101080D01*
X152357080Y-114901080D02*
X145207080Y-114901080D01*
X165347080Y-111101080D02*
X164837080Y-110591080D01*
X185622080Y-111276080D02*
X185447080Y-111101080D01*
X135527080Y-112841080D02*
X138712080Y-116026080D01*
X138712080Y-116026080D02*
X154062080Y-116026080D01*
X154062080Y-116026080D02*
X156077080Y-114011080D01*
X116817082Y-49191080D02*
X116817082Y-50291082D01*
X116817082Y-50291082D02*
X118117080Y-51591080D01*
X118117080Y-51591080D02*
X118117080Y-53771080D01*
X119412080Y-55066080D02*
X119412080Y-56926080D01*
X118117080Y-53771080D02*
X119412080Y-55066080D01*
X116817082Y-49191080D02*
X116147083Y-48521081D01*
X116147083Y-48521081D02*
X110147079Y-48521081D01*
X110147079Y-48521081D02*
X109622090Y-49046070D01*
X109622090Y-49046070D02*
X56127080Y-49046070D01*
X76743491Y-65571080D02*
X77237080Y-65571080D01*
X76073491Y-64901080D02*
X76743491Y-65571080D01*
X72017069Y-64471069D02*
X72447080Y-64901080D01*
X71977069Y-64471069D02*
X72017069Y-64471069D01*
X60547080Y-61681080D02*
X69187080Y-61681080D01*
X72447080Y-64901080D02*
X76073491Y-64901080D01*
X59135080Y-60269080D02*
X60547080Y-61681080D01*
X69187080Y-61681080D02*
X71977069Y-64471069D01*
X58679080Y-60269080D02*
X59135080Y-60269080D01*
X60622765Y-55361080D02*
X60057080Y-55361080D01*
X95297082Y-55501080D02*
X94822081Y-55026079D01*
X105287080Y-55501080D02*
X95297082Y-55501080D01*
X60957766Y-55026079D02*
X60622765Y-55361080D01*
X94822081Y-55026079D02*
X60957766Y-55026079D01*
X106712080Y-56926080D02*
X105287080Y-55501080D01*
X63487080Y-56671080D02*
X63947080Y-56211080D01*
X52867080Y-56671080D02*
X63487080Y-56671080D01*
X41027080Y-55681080D02*
X51877080Y-55681080D01*
X51877080Y-55681080D02*
X52867080Y-56671080D01*
X91191080Y-111831080D02*
X87381080Y-115641080D01*
X36127080Y-115641080D02*
X33337080Y-112851080D01*
X87381080Y-115641080D02*
X36127080Y-115641080D01*
X27317080Y-105061080D02*
X27317080Y-82651080D01*
X33337080Y-111081080D02*
X27317080Y-105061080D01*
X27317080Y-82651080D02*
X24557080Y-79891080D01*
X24557080Y-79891080D02*
X24557080Y-66881080D01*
X24557080Y-66881080D02*
X25437080Y-66001080D01*
X33337080Y-112851080D02*
X33337080Y-111081080D01*
X25437080Y-66001080D02*
X25437080Y-59341080D01*
X25437080Y-59341080D02*
X26827080Y-57951080D01*
X26827080Y-57951080D02*
X38757080Y-57951080D01*
X38757080Y-57951080D02*
X41027080Y-55681080D01*
X58679080Y-91765080D02*
X57443080Y-91765080D01*
X57443080Y-91765080D02*
X55902081Y-93306079D01*
X55902081Y-93306079D02*
X52412079Y-93306079D01*
X52412079Y-93306079D02*
X51927080Y-92821080D01*
X49757080Y-53951080D02*
X51059080Y-52649080D01*
X49757080Y-54301080D02*
X49757080Y-53951080D01*
X55007080Y-82821080D02*
X52637080Y-80451080D01*
X64975080Y-82821080D02*
X55007080Y-82821080D01*
X66299080Y-84145080D02*
X64975080Y-82821080D01*
X36462090Y-79986090D02*
X27509553Y-79986090D01*
X37237080Y-80761080D02*
X36462090Y-79986090D01*
X42167080Y-82711080D02*
X37927080Y-82711080D01*
X43587080Y-84131080D02*
X42167080Y-82711080D01*
X37237080Y-82021080D02*
X37237080Y-80761080D01*
X37927080Y-82711080D02*
X37237080Y-82021080D01*
X34295080Y-52649080D02*
X30843080Y-56101080D01*
X30843080Y-56101080D02*
X23947080Y-56101080D01*
X32843080Y-54101080D02*
X34295080Y-52649080D01*
X30667080Y-54101080D02*
X32843080Y-54101080D01*
X29215080Y-52649080D02*
X30667080Y-54101080D01*
X67583080Y-85401080D02*
X68839080Y-84145080D01*
X44857080Y-85401080D02*
X67583080Y-85401080D01*
X43587080Y-84131080D02*
X44857080Y-85401080D01*
X124465080Y-52841080D02*
X124612082Y-52841080D01*
X123665081Y-52041081D02*
X124465080Y-52841080D01*
X109247080Y-48481080D02*
X110017080Y-47711080D01*
X105417080Y-48481080D02*
X109247080Y-48481080D01*
X110017080Y-47711080D02*
X119335080Y-47711080D01*
X105197080Y-48261080D02*
X105417080Y-48481080D01*
X119335080Y-47711080D02*
X123665081Y-52041081D01*
X46997080Y-48261080D02*
X105197080Y-48261080D01*
X45547080Y-49711080D02*
X46997080Y-48261080D01*
X45547080Y-51751080D02*
X45547080Y-49711080D01*
X44627080Y-52671080D02*
X45547080Y-51751080D01*
X41257080Y-52671080D02*
X44627080Y-52671080D01*
X113637080Y-67031080D02*
X107947080Y-72721080D01*
X123887080Y-67031080D02*
X113637080Y-67031080D01*
X107947080Y-75771080D02*
X109217080Y-77041080D01*
X125737080Y-65181080D02*
X123887080Y-67031080D01*
X125737080Y-54113080D02*
X125737080Y-65181080D01*
X107947080Y-72721080D02*
X107947080Y-75771080D01*
X124465080Y-52841080D02*
X125737080Y-54113080D01*
X94387080Y-59081080D02*
X89857078Y-59081080D01*
X94977080Y-59671080D02*
X94387080Y-59081080D01*
X94977080Y-60891710D02*
X94977080Y-59671080D01*
X96271080Y-62185710D02*
X94977080Y-60891710D01*
X96271080Y-63317080D02*
X96271080Y-62185710D01*
X87777078Y-57001080D02*
X89857078Y-59081080D01*
X52427080Y-57871080D02*
X68567080Y-57871080D01*
X69437080Y-57001080D02*
X87777078Y-57001080D01*
X51577080Y-57021080D02*
X52427080Y-57871080D01*
X34295080Y-60269080D02*
X35803080Y-58761080D01*
X68567080Y-57871080D02*
X69437080Y-57001080D01*
X35803080Y-58761080D02*
X40727080Y-58761080D01*
X40727080Y-58761080D02*
X42467080Y-57021080D01*
X42467080Y-57021080D02*
X51577080Y-57021080D01*
X110965081Y-53641079D02*
X111765080Y-52841080D01*
X31755080Y-52649080D02*
X33103080Y-51301080D01*
X33103080Y-51301080D02*
X37547080Y-51301080D01*
X37547080Y-51301080D02*
X38107080Y-51861080D01*
X96032080Y-54401080D02*
X110205080Y-54401080D01*
X38107080Y-51861080D02*
X38107080Y-53461080D01*
X58427080Y-54611080D02*
X59107080Y-53931080D01*
X38107080Y-53461080D02*
X39737080Y-55091080D01*
X39737080Y-55091080D02*
X52284078Y-55091080D01*
X52764078Y-54611080D02*
X58427080Y-54611080D01*
X110205080Y-54401080D02*
X110965081Y-53641079D01*
X52284078Y-55091080D02*
X52764078Y-54611080D01*
X59107080Y-53931080D02*
X95562080Y-53931080D01*
X95562080Y-53931080D02*
X96032080Y-54401080D01*
X26675080Y-60269080D02*
X28213080Y-58731080D01*
X30217080Y-58731080D02*
X31755080Y-60269080D01*
X28213080Y-58731080D02*
X30217080Y-58731080D01*
X59485080Y-90031080D02*
X61219080Y-91765080D01*
X49857080Y-90031080D02*
X59485080Y-90031080D01*
X48547080Y-88721080D02*
X49857080Y-90031080D01*
X46127080Y-88721080D02*
X48547080Y-88721080D01*
X62483080Y-69661080D02*
X63759080Y-70937080D01*
X52217080Y-69661080D02*
X62483080Y-69661080D01*
X51067080Y-70811080D02*
X52217080Y-69661080D01*
X24135080Y-60269080D02*
X24135080Y-60429080D01*
X24135080Y-60269080D02*
X24165080Y-60269080D01*
X36835080Y-53743080D02*
X36835080Y-52649080D01*
X33377080Y-57201080D02*
X36835080Y-53743080D01*
X26037080Y-57201080D02*
X33377080Y-57201080D01*
X24135080Y-59103080D02*
X26037080Y-57201080D01*
X24135080Y-60269080D02*
X24135080Y-59103080D01*
X87526079Y-64442081D02*
X88651080Y-63317080D01*
X84318081Y-64442081D02*
X87526079Y-64442081D01*
X81827080Y-61951080D02*
X84318081Y-64442081D01*
X78577080Y-61951080D02*
X81827080Y-61951080D01*
X77897080Y-61271080D02*
X78577080Y-61951080D01*
X77897080Y-59421080D02*
X77897080Y-61271080D01*
X77397080Y-58921080D02*
X77897080Y-59421080D01*
X74540084Y-58921080D02*
X77397080Y-58921080D01*
X73819078Y-58946082D02*
X74515082Y-58946082D01*
X48657080Y-58921080D02*
X73794076Y-58921080D01*
X42647080Y-57761080D02*
X47497080Y-57761080D01*
X73794076Y-58921080D02*
X73819078Y-58946082D01*
X47497080Y-57761080D02*
X48657080Y-58921080D01*
X40817080Y-60991080D02*
X40817080Y-59591080D01*
X40107080Y-61701080D02*
X40817080Y-60991080D01*
X74515082Y-58946082D02*
X74540084Y-58921080D01*
X35987080Y-63311080D02*
X37597080Y-61701080D01*
X40817080Y-59591080D02*
X42647080Y-57761080D01*
X37597080Y-61701080D02*
X40107080Y-61701080D01*
X106467080Y-47501080D02*
X106697080Y-47731080D01*
X35277080Y-47501080D02*
X106467080Y-47501080D01*
X34267080Y-48511080D02*
X35277080Y-47501080D01*
X101417080Y-50656070D02*
X101177080Y-50416070D01*
X114305080Y-52841080D02*
X112120070Y-50656070D01*
X112120070Y-50656070D02*
X101417080Y-50656070D01*
X100982070Y-50611080D02*
X101177080Y-50416070D01*
X48047080Y-50611080D02*
X100982070Y-50611080D01*
X44557080Y-54101080D02*
X48047080Y-50611080D01*
X40827080Y-54101080D02*
X44557080Y-54101080D01*
X39375080Y-52649080D02*
X40827080Y-54101080D01*
X103467080Y-69941080D02*
X102737080Y-69211080D01*
X103467080Y-76371080D02*
X103467080Y-69941080D01*
X105397070Y-78301070D02*
X103467080Y-76371080D01*
X110357090Y-78301070D02*
X105397070Y-78301070D01*
X111637080Y-77021080D02*
X110357090Y-78301070D01*
X249467080Y-67741080D02*
X224567080Y-67741080D01*
X252567080Y-70841080D02*
X249467080Y-67741080D01*
X147947078Y-96251078D02*
X148227080Y-96251078D01*
X146967080Y-95271080D02*
X147947078Y-96251078D01*
X146967080Y-94046080D02*
X146967080Y-95271080D01*
X146122080Y-93201080D02*
X146967080Y-94046080D01*
X141927080Y-93201080D02*
X146122080Y-93201080D01*
X140567080Y-91841080D02*
X141927080Y-93201080D01*
X139327080Y-90601080D02*
X140567080Y-91841080D01*
X133537080Y-90601080D02*
X139327080Y-90601080D01*
X132207080Y-89271080D02*
X133537080Y-90601080D01*
X128197080Y-89271080D02*
X132207080Y-89271080D01*
X126977080Y-90491080D02*
X128197080Y-89271080D01*
X138067080Y-65446080D02*
X172817080Y-65446080D01*
X172817080Y-65446080D02*
X174022079Y-66651079D01*
X174022079Y-66651079D02*
X223477079Y-66651079D01*
X223477079Y-66651079D02*
X224067081Y-67241081D01*
X224067081Y-67241081D02*
X224567080Y-67741080D01*
X167002080Y-69276080D02*
X168567080Y-70841080D01*
X164372080Y-69276080D02*
X167002080Y-69276080D01*
X162797080Y-70851080D02*
X164372080Y-69276080D01*
X215322079Y-93276081D02*
X214322080Y-94276080D01*
X255107080Y-94721080D02*
X253662081Y-93276081D01*
X253662081Y-93276081D02*
X215322079Y-93276081D01*
X140607080Y-102341080D02*
X138807080Y-100541080D01*
X138807080Y-100541080D02*
X121517080Y-100541080D01*
X121517080Y-100541080D02*
X121327080Y-100351080D01*
X169772080Y-68401080D02*
X196747080Y-68401080D01*
X168547080Y-67176080D02*
X169772080Y-68401080D01*
X196747080Y-68401080D02*
X211747080Y-68401080D01*
X41187080Y-51161080D02*
X41217080Y-51191080D01*
X41187080Y-48271080D02*
X41187080Y-51161080D01*
X29947080Y-98291080D02*
X29947080Y-98281080D01*
X32037080Y-100381080D02*
X29947080Y-98291080D01*
X39277080Y-100381080D02*
X32037080Y-100381080D01*
X41057080Y-102161080D02*
X39277080Y-100381080D01*
X30387080Y-68391080D02*
X44470670Y-68391080D01*
X44470670Y-68391080D02*
X45270670Y-67591080D01*
X45270670Y-67591080D02*
X53517080Y-67591080D01*
X56139080Y-64423080D02*
X56139080Y-63317080D01*
X58177080Y-66461080D02*
X56139080Y-64423080D01*
X63087080Y-67701080D02*
X61847080Y-66461080D01*
X76417080Y-67701080D02*
X63087080Y-67701080D01*
X83355080Y-68181080D02*
X76897080Y-68181080D01*
X61847080Y-66461080D02*
X58177080Y-66461080D01*
X76897080Y-68181080D02*
X76417080Y-67701080D01*
X86111080Y-70937080D02*
X83355080Y-68181080D01*
X121925080Y-52841080D02*
X121925080Y-53223080D01*
X120677080Y-75671080D02*
X119287080Y-77061080D01*
X120677080Y-72121080D02*
X120677080Y-75671080D01*
X121367080Y-71431080D02*
X120677080Y-72121080D01*
X132147080Y-71431080D02*
X121367080Y-71431080D01*
X120667080Y-54099080D02*
X121925080Y-52841080D01*
X119357080Y-58811080D02*
X120667080Y-57501080D01*
X114167080Y-58811080D02*
X119357080Y-58811080D01*
X113047080Y-59931080D02*
X114167080Y-58811080D01*
X113047080Y-62211080D02*
X113047080Y-59931080D01*
X112741079Y-62517081D02*
X113047080Y-62211080D01*
X102151079Y-62517081D02*
X112741079Y-62517081D01*
X120667080Y-57501080D02*
X120667080Y-54099080D01*
X101351080Y-63317080D02*
X102151079Y-62517081D01*
X69697080Y-72311080D02*
X71027080Y-70981080D01*
X57513080Y-72311080D02*
X69697080Y-72311080D01*
X56139080Y-70937080D02*
X57513080Y-72311080D01*
X59157080Y-65971080D02*
X58677080Y-65491080D01*
X62217080Y-65971080D02*
X59157080Y-65971080D01*
X63467080Y-67221080D02*
X62217080Y-65971080D01*
X76957080Y-67221080D02*
X63467080Y-67221080D01*
X77357080Y-67621080D02*
X76957080Y-67221080D01*
X85335080Y-67621080D02*
X77357080Y-67621080D01*
X88651080Y-70937080D02*
X85335080Y-67621080D01*
X92545080Y-72291080D02*
X91191080Y-70937080D01*
X97457080Y-72291080D02*
X92545080Y-72291080D01*
X98811080Y-70937080D02*
X97457080Y-72291080D01*
X132607080Y-77031080D02*
X132717080Y-76921080D01*
X127007080Y-77031080D02*
X132607080Y-77031080D01*
X127007080Y-77031080D02*
X123847080Y-80191080D01*
X123847080Y-80191080D02*
X103507080Y-80191080D01*
X101057080Y-77741080D02*
X97547080Y-77741080D01*
X103507080Y-80191080D02*
X101057080Y-77741080D01*
X57385080Y-67849080D02*
X61219080Y-67849080D01*
X56187080Y-66651080D02*
X57385080Y-67849080D01*
X39787080Y-66651080D02*
X56187080Y-66651080D01*
X61997080Y-65011080D02*
X61257080Y-65011080D01*
X63727080Y-66741080D02*
X61997080Y-65011080D01*
X77277080Y-66741080D02*
X63727080Y-66741080D01*
X77637080Y-67101080D02*
X77277080Y-66741080D01*
X89895080Y-67101080D02*
X77637080Y-67101080D01*
X93731080Y-70937080D02*
X89895080Y-67101080D01*
X116867080Y-71831080D02*
X119237080Y-71831080D01*
X115537080Y-73161080D02*
X116867080Y-71831080D01*
X115537080Y-75731080D02*
X115537080Y-73161080D01*
X116817080Y-77011080D02*
X115537080Y-75731080D01*
X93697080Y-68941080D02*
X92617080Y-67861080D01*
X100047080Y-70381080D02*
X98607080Y-68941080D01*
X100047080Y-71411080D02*
X100047080Y-70381080D01*
X101047080Y-72411080D02*
X100047080Y-71411080D01*
X102077080Y-72411080D02*
X101047080Y-72411080D01*
X102727080Y-73061080D02*
X102077080Y-72411080D01*
X102727080Y-76981080D02*
X102727080Y-73061080D01*
X98607080Y-68941080D02*
X93697080Y-68941080D01*
X104677080Y-78931080D02*
X102727080Y-76981080D01*
X114897080Y-78931080D02*
X104677080Y-78931080D01*
X116817080Y-77011080D02*
X114897080Y-78931080D01*
X56699317Y-76446090D02*
X65023790Y-76446090D01*
X107720090Y-51336090D02*
X57347080Y-51336090D01*
X109225080Y-52841080D02*
X107720090Y-51336090D01*
X47157080Y-61231080D02*
X47157080Y-59641080D01*
X47157080Y-59641080D02*
X46342081Y-58826081D01*
X47577080Y-61651080D02*
X47157080Y-61231080D01*
X42822079Y-58826081D02*
X42837080Y-58811080D01*
X46342081Y-58826081D02*
X42822079Y-58826081D01*
X59553080Y-61651080D02*
X47577080Y-61651080D01*
X61219080Y-63317080D02*
X59553080Y-61651080D01*
X68839080Y-63317080D02*
X66385080Y-65771080D01*
X66385080Y-65771080D02*
X64747080Y-65771080D01*
X61219080Y-63317080D02*
X63673080Y-65771080D01*
X63673080Y-65771080D02*
X64747080Y-65771080D01*
X119427080Y-79501080D02*
X121887080Y-77041080D01*
X103977080Y-79501080D02*
X119427080Y-79501080D01*
X101277080Y-76801080D02*
X103977080Y-79501080D01*
X96837080Y-76801080D02*
X101277080Y-76801080D01*
X96127080Y-77511080D02*
X96837080Y-76801080D01*
X78467069Y-76741069D02*
X84167069Y-76741069D01*
X84167069Y-76741069D02*
X84937080Y-77511080D01*
X77422080Y-75696080D02*
X78467069Y-76741069D01*
X84937080Y-77511080D02*
X96127080Y-77511080D01*
X62367080Y-75696080D02*
X77422080Y-75696080D01*
X41927080Y-56301080D02*
X41197080Y-57031080D01*
X51617080Y-56301080D02*
X41927080Y-56301080D01*
X52647080Y-57331080D02*
X51617080Y-56301080D01*
X116845080Y-52841080D02*
X116845080Y-54239080D01*
X116845080Y-54239080D02*
X118147080Y-55541080D01*
X118147080Y-57601080D02*
X117387090Y-58361070D01*
X97732079Y-57536079D02*
X88948488Y-57536079D01*
X113347090Y-58361070D02*
X112527071Y-59181089D01*
X68170088Y-57331080D02*
X52647080Y-57331080D01*
X99377089Y-59181089D02*
X97732079Y-57536079D01*
X112527071Y-59181089D02*
X99377089Y-59181089D01*
X118147080Y-55541080D02*
X118147080Y-57601080D01*
X88948488Y-57536079D02*
X87813489Y-56401080D01*
X87813489Y-56401080D02*
X69100088Y-56401080D01*
X117387090Y-58361070D02*
X113347090Y-58361070D01*
X69100088Y-56401080D02*
X68170088Y-57331080D01*
X86117080Y-96371080D02*
X85717081Y-96771079D01*
X77262449Y-96771079D02*
X75050450Y-94559080D01*
X75050450Y-94559080D02*
X73919080Y-94559080D01*
X85717081Y-96771079D02*
X77262449Y-96771079D01*
X34847080Y-69531080D02*
X33447080Y-70931080D01*
X43967080Y-69531080D02*
X34847080Y-69531080D01*
X77267080Y-71751080D02*
X77267080Y-70021080D01*
X75937080Y-68691080D02*
X44807080Y-68691080D01*
X78517080Y-73001080D02*
X77267080Y-71751080D01*
X83407080Y-73001080D02*
X78517080Y-73001080D01*
X77267080Y-70021080D02*
X75937080Y-68691080D01*
X85557080Y-75151080D02*
X83407080Y-73001080D01*
X44807080Y-68691080D02*
X43967080Y-69531080D01*
X89771080Y-75151080D02*
X85557080Y-75151080D01*
X91191080Y-73731080D02*
X89771080Y-75151080D01*
X37467080Y-66401080D02*
X31647080Y-66401080D01*
X48687080Y-63311080D02*
X48387080Y-63311080D01*
X46997080Y-61921080D02*
X40575285Y-61921080D01*
X48387080Y-63311080D02*
X46997080Y-61921080D01*
X40575285Y-61921080D02*
X39747080Y-62749285D01*
X39747080Y-62749285D02*
X39747080Y-64121080D01*
X39747080Y-64121080D02*
X37467080Y-66401080D01*
X32712394Y-96916394D02*
X31127080Y-95331080D01*
X63941766Y-96916394D02*
X32712394Y-96916394D01*
X66299080Y-94559080D02*
X63941766Y-96916394D01*
X39267080Y-99221080D02*
X33437080Y-99221080D01*
X69711089Y-100511089D02*
X40557089Y-100511089D01*
X40557089Y-100511089D02*
X39267080Y-99221080D01*
X71379080Y-102179080D02*
X69711089Y-100511089D01*
X80317080Y-72381080D02*
X87301080Y-72381080D01*
X87301080Y-72381080D02*
X88651080Y-73731080D01*
X78627080Y-68671080D02*
X79877080Y-69921080D01*
X76553490Y-68671080D02*
X78627080Y-68671080D01*
X76113501Y-68231091D02*
X76553490Y-68671080D01*
X61667080Y-66971080D02*
X62927091Y-68231091D01*
X57717080Y-66971080D02*
X61667080Y-66971080D01*
X56157080Y-65411080D02*
X57717080Y-66971080D01*
X62927091Y-68231091D02*
X76113501Y-68231091D01*
X48247080Y-65411080D02*
X56157080Y-65411080D01*
X79877080Y-71941080D02*
X80317080Y-72381080D01*
X46147080Y-63311080D02*
X48247080Y-65411080D01*
X79877080Y-69921080D02*
X79877080Y-71941080D01*
X44857080Y-64601080D02*
X46147080Y-63311080D01*
X42357080Y-64601080D02*
X44857080Y-64601080D01*
X41067080Y-63311080D02*
X42357080Y-64601080D01*
X83181081Y-78421081D02*
X86111080Y-81351080D01*
X40527081Y-78421081D02*
X83181081Y-78421081D01*
X39622081Y-77516081D02*
X40527081Y-78421081D01*
X38622081Y-77516081D02*
X39622081Y-77516081D01*
X38027080Y-76921080D02*
X38622081Y-77516081D01*
X33527080Y-106061080D02*
X32937080Y-106061080D01*
X35347080Y-107881080D02*
X33527080Y-106061080D01*
X38497080Y-107881080D02*
X35347080Y-107881080D01*
X39137080Y-110011840D02*
X39137080Y-108521080D01*
X39646320Y-110521080D02*
X39137080Y-110011840D01*
X77261080Y-110521080D02*
X39646320Y-110521080D01*
X39137080Y-108521080D02*
X38497080Y-107881080D01*
X78491080Y-109291080D02*
X77261080Y-110521080D01*
X43587080Y-67661080D02*
X31407080Y-67661080D01*
X31407080Y-67661080D02*
X28337080Y-64591080D01*
X87421090Y-113061070D02*
X88651080Y-111831080D01*
X64227090Y-113061070D02*
X87421090Y-113061070D01*
X63247080Y-114041080D02*
X64227090Y-113061070D01*
X52647069Y-101001091D02*
X51367080Y-102281080D01*
X57501091Y-101001091D02*
X52647069Y-101001091D01*
X58679080Y-102179080D02*
X57501091Y-101001091D01*
X70597080Y-69211080D02*
X47867080Y-69211080D01*
X71947080Y-70561080D02*
X70597080Y-69211080D01*
X71947080Y-72001080D02*
X71947080Y-70561080D01*
X72377080Y-72431080D02*
X71947080Y-72001080D01*
X77227080Y-72431080D02*
X72377080Y-72431080D01*
X83117090Y-73451090D02*
X78247090Y-73451090D01*
X47867080Y-69211080D02*
X46147080Y-70931080D01*
X85267090Y-75601090D02*
X83117090Y-73451090D01*
X78247090Y-73451090D02*
X77227080Y-72431080D01*
X96941070Y-75601090D02*
X85267090Y-75601090D01*
X98811080Y-73731080D02*
X96941070Y-75601090D01*
X228552080Y-72276080D02*
X227107080Y-73721080D01*
X253662080Y-72276080D02*
X228552080Y-72276080D01*
X255107080Y-73721080D02*
X253662080Y-72276080D01*
X227107080Y-73721080D02*
X225612080Y-72226080D01*
X125627080Y-91911080D02*
X124465080Y-90749080D01*
X137957080Y-91911080D02*
X125627080Y-91911080D01*
X138027080Y-91841080D02*
X137957080Y-91911080D01*
X138067080Y-81341080D02*
X136437080Y-82971080D01*
X136437080Y-82971080D02*
X135627080Y-82971080D01*
X139322080Y-93136080D02*
X139322080Y-95626080D01*
X138027080Y-91841080D02*
X139322080Y-93136080D01*
X139322080Y-95626080D02*
X139917091Y-96221091D01*
X139917091Y-96221091D02*
X145687081Y-96221091D01*
X142102080Y-72226080D02*
X140607080Y-73721080D01*
X225612080Y-72226080D02*
X142102080Y-72226080D01*
X168647080Y-78826078D02*
X162872082Y-78826078D01*
X162872082Y-78826078D02*
X162822080Y-78876080D01*
X168647082Y-78826080D02*
X168647080Y-78826078D01*
X196522080Y-78826080D02*
X168647082Y-78826080D01*
X196572080Y-78876080D02*
X196522080Y-78826080D01*
X219072080Y-78876080D02*
X219147080Y-78801080D01*
X196572080Y-78876080D02*
X219072080Y-78876080D01*
X252567080Y-110646080D02*
X252567080Y-112841080D01*
X219147080Y-108801080D02*
X250722080Y-108801080D01*
X250722080Y-108801080D02*
X252567080Y-110646080D01*
X144322080Y-88826080D02*
X143427080Y-87931080D01*
X136827080Y-87931080D02*
X136797080Y-87961080D01*
X143427080Y-87931080D02*
X136827080Y-87931080D01*
X147797080Y-86371080D02*
X145647080Y-84221080D01*
X162467080Y-86371080D02*
X147797080Y-86371080D01*
X162872080Y-86776080D02*
X162467080Y-86371080D01*
X116214186Y-101041080D02*
X115507080Y-101041080D01*
X116249187Y-101076081D02*
X116214186Y-101041080D01*
X136802081Y-101076081D02*
X116249187Y-101076081D01*
X138067080Y-102341080D02*
X136802081Y-101076081D01*
X97411080Y-82751080D02*
X98811080Y-81351080D01*
X92591080Y-82751080D02*
X97411080Y-82751080D01*
X91191080Y-81351080D02*
X92591080Y-82751080D01*
X100211078Y-82751078D02*
X107937080Y-82751078D01*
X98811080Y-81351080D02*
X100211078Y-82751078D01*
X169437080Y-106891080D02*
X171107080Y-105221080D01*
X162897080Y-106891080D02*
X169437080Y-106891080D01*
X152897080Y-96271080D02*
X152847080Y-96271080D01*
X151497080Y-96271080D02*
X152897080Y-96271080D01*
X150717080Y-97051080D02*
X151497080Y-96271080D01*
X137597080Y-97051080D02*
X150717080Y-97051080D01*
X136777080Y-96231080D02*
X137597080Y-97051080D01*
X136777080Y-93781080D02*
X136777080Y-96231080D01*
X124397080Y-92791080D02*
X135787080Y-92791080D01*
X123617080Y-92011080D02*
X124397080Y-92791080D01*
X110717080Y-92011080D02*
X123617080Y-92011080D01*
X135787080Y-92791080D02*
X136777080Y-93781080D01*
X109197080Y-90491080D02*
X110717080Y-92011080D01*
X37467080Y-85901080D02*
X35967080Y-84401080D01*
X72827080Y-85901080D02*
X37467080Y-85901080D01*
X73267080Y-86341080D02*
X72827080Y-85901080D01*
X35967080Y-84401080D02*
X35967080Y-84131080D01*
X87347080Y-85071080D02*
X86077080Y-86341080D01*
X87347080Y-83331080D02*
X87347080Y-85071080D01*
X87967080Y-82711080D02*
X87347080Y-83331080D01*
X86077080Y-86341080D02*
X73267080Y-86341080D01*
X89831080Y-82711080D02*
X87967080Y-82711080D01*
X91191080Y-81351080D02*
X89831080Y-82711080D01*
X152897080Y-96271080D02*
X160877080Y-96271080D01*
X160877080Y-96271080D02*
X162747080Y-94401080D01*
X169927080Y-114201080D02*
X168567080Y-112841080D01*
X195207080Y-114201080D02*
X169927080Y-114201080D01*
X196567080Y-112841080D02*
X195207080Y-114201080D01*
X197927080Y-114201080D02*
X196567080Y-112841080D01*
X223207080Y-114201080D02*
X197927080Y-114201080D01*
X224567080Y-112841080D02*
X223207080Y-114201080D01*
X145627080Y-76721080D02*
X145672080Y-76676080D01*
X134027080Y-76721080D02*
X145627080Y-76721080D01*
X129012080Y-77881080D02*
X132867080Y-77881080D01*
X125942080Y-80951080D02*
X129012080Y-77881080D01*
X103067080Y-80951080D02*
X125942080Y-80951080D01*
X101977080Y-79861080D02*
X103067080Y-80951080D01*
X97761080Y-79861080D02*
X101977080Y-79861080D01*
X132867080Y-77881080D02*
X134027080Y-76721080D01*
X96271080Y-81351080D02*
X97761080Y-79861080D01*
X111657080Y-67961080D02*
X94967080Y-67961080D01*
X94967080Y-67961080D02*
X94947080Y-67941080D01*
X40187080Y-90071080D02*
X38507080Y-91751080D01*
X48617080Y-90071080D02*
X40187080Y-90071080D01*
X37647080Y-90071080D02*
X35967080Y-91751080D01*
X40187080Y-90071080D02*
X37647080Y-90071080D01*
X122457080Y-93411080D02*
X131677080Y-93411080D01*
X121667080Y-92621080D02*
X122457080Y-93411080D01*
X110467080Y-92621080D02*
X121667080Y-92621080D01*
X109797080Y-91951080D02*
X110467080Y-92621080D01*
X104917080Y-91951080D02*
X109797080Y-91951080D01*
X102787080Y-89821080D02*
X104917080Y-91951080D01*
X131677080Y-93411080D02*
X132987080Y-94721080D01*
X102787080Y-88211080D02*
X102787080Y-89821080D01*
X59881080Y-93221080D02*
X61219080Y-94559080D01*
X57627080Y-93221080D02*
X59881080Y-93221080D01*
X56267080Y-94581080D02*
X57627080Y-93221080D01*
X52087080Y-94581080D02*
X56267080Y-94581080D01*
X50097080Y-92591080D02*
X52087080Y-94581080D01*
X49007080Y-90071080D02*
X50097080Y-91161080D01*
X50097080Y-91161080D02*
X50097080Y-92591080D01*
X48617080Y-90071080D02*
X49007080Y-90071080D01*
X101807080Y-89191080D02*
X102787080Y-88211080D01*
X71327080Y-89191080D02*
X101807080Y-89191080D01*
X63137080Y-89991080D02*
X63127080Y-89981080D01*
X62467080Y-90661080D02*
X63137080Y-89991080D01*
X63127080Y-89981080D02*
X70537080Y-89981080D01*
X62467080Y-93311080D02*
X62467080Y-90661080D01*
X70537080Y-89981080D02*
X71327080Y-89191080D01*
X61219080Y-94559080D02*
X62467080Y-93311080D01*
X146497070Y-90151070D02*
X148187080Y-91841080D01*
X134073480Y-90151070D02*
X146497070Y-90151070D01*
X132743480Y-88821070D02*
X134073480Y-90151070D01*
X105047070Y-88821070D02*
X132743480Y-88821070D01*
X103687080Y-87461080D02*
X105047070Y-88821070D01*
X88607080Y-87461080D02*
X103687080Y-87461080D01*
X88367080Y-87701080D02*
X88607080Y-87461080D01*
X42547078Y-77801080D02*
X42347078Y-77601080D01*
X83297080Y-77801080D02*
X42547078Y-77801080D01*
X85447080Y-79951080D02*
X83297080Y-77801080D01*
X87251080Y-79951080D02*
X85447080Y-79951080D01*
X88651080Y-81351080D02*
X87251080Y-79951080D01*
X100257080Y-58261080D02*
X100257080Y-58261080D01*
X98991079Y-76091081D02*
X85517079Y-76091081D01*
X101351080Y-73731080D02*
X98991079Y-76091081D01*
X85517079Y-76091081D02*
X85237078Y-76371082D01*
X112017080Y-58731080D02*
X100727080Y-58731080D01*
X113047080Y-57701080D02*
X112017080Y-58731080D01*
X100727080Y-58731080D02*
X100257080Y-58261080D01*
X113847080Y-55301080D02*
X113047080Y-56101080D01*
X113047080Y-56101080D02*
X113047080Y-57701080D01*
X115247080Y-55301080D02*
X113847080Y-55301080D01*
X116872080Y-56926080D02*
X115247080Y-55301080D01*
X82977080Y-94791080D02*
X83257080Y-95071080D01*
X76247080Y-94791080D02*
X82977080Y-94791080D01*
X72647080Y-93551080D02*
X72947080Y-93251080D01*
X70847080Y-95901080D02*
X71947080Y-95901080D01*
X70147080Y-95201080D02*
X70847080Y-95901080D01*
X70147080Y-93901080D02*
X70147080Y-95201080D01*
X41057080Y-94541080D02*
X42417080Y-95901080D01*
X42417080Y-95901080D02*
X44192080Y-95901080D01*
X74707080Y-93251080D02*
X76247080Y-94791080D01*
X49547080Y-93201080D02*
X52147080Y-95801080D01*
X71947080Y-95901080D02*
X72647080Y-95201080D01*
X61887080Y-95801080D02*
X62517080Y-95171080D01*
X69387080Y-93141080D02*
X70147080Y-93901080D01*
X52147080Y-95801080D02*
X61887080Y-95801080D01*
X44847080Y-95246080D02*
X44847080Y-94001080D01*
X72947080Y-93251080D02*
X74707080Y-93251080D01*
X44192080Y-95901080D02*
X44847080Y-95246080D01*
X44847080Y-94001080D02*
X45647080Y-93201080D01*
X62517080Y-93931080D02*
X63307080Y-93141080D01*
X72647080Y-95201080D02*
X72647080Y-93551080D01*
X62517080Y-95171080D02*
X62517080Y-93931080D01*
X45647080Y-93201080D02*
X49547080Y-93201080D01*
X63307080Y-93141080D02*
X69387080Y-93141080D01*
X54987080Y-72301080D02*
X57857080Y-75171080D01*
X59779080Y-75171080D02*
X61219080Y-73731080D01*
X57857080Y-75171080D02*
X59779080Y-75171080D01*
X34827080Y-72301080D02*
X54987080Y-72301080D01*
X33407080Y-73721080D02*
X34827080Y-72301080D01*
X70487080Y-87401080D02*
X70717080Y-87631080D01*
X54647080Y-87401080D02*
X70487080Y-87401080D01*
X53647080Y-88401080D02*
X54647080Y-87401080D01*
X107623080Y-95751080D02*
X106431080Y-94559080D01*
X109947080Y-95751080D02*
X107623080Y-95751080D01*
X112067080Y-93631080D02*
X109947080Y-95751080D01*
X116297080Y-93631080D02*
X112067080Y-93631080D01*
X118797080Y-96131080D02*
X116297080Y-93631080D01*
X123077080Y-96131080D02*
X118797080Y-96131080D01*
X123087080Y-96121080D02*
X123077080Y-96131080D01*
X76077073Y-83509073D02*
X76077073Y-83921073D01*
X73919080Y-81351080D02*
X76077073Y-83509073D01*
X104963080Y-93091080D02*
X106431080Y-94559080D01*
X92437080Y-90451080D02*
X92437080Y-92501080D01*
X92437080Y-92501080D02*
X93027080Y-93091080D01*
X91767080Y-89781080D02*
X92437080Y-90451080D01*
X78037080Y-89781080D02*
X91767080Y-89781080D01*
X76077080Y-91741080D02*
X78037080Y-89781080D01*
X104077080Y-93091080D02*
X104963080Y-93091080D01*
X93027080Y-93091080D02*
X104077080Y-93091080D01*
X60057080Y-75721080D02*
X53227080Y-75721080D01*
X53227080Y-75721080D02*
X50717080Y-73211080D01*
X60807080Y-74971080D02*
X60057080Y-75721080D01*
X70139080Y-74971080D02*
X60807080Y-74971080D01*
X71379080Y-73731080D02*
X70139080Y-74971080D01*
X49247080Y-106581080D02*
X51407080Y-106581080D01*
X51407080Y-106581080D02*
X52397080Y-105591080D01*
X52397080Y-105591080D02*
X64207080Y-105591080D01*
X64827080Y-106211080D02*
X81787080Y-106211080D01*
X64207080Y-105591080D02*
X64827080Y-106211080D01*
X72549080Y-80181080D02*
X80562090Y-80181080D01*
X71379080Y-81351080D02*
X72549080Y-80181080D01*
X46247080Y-105031080D02*
X45397080Y-105881080D01*
X71117080Y-105031080D02*
X46247080Y-105031080D01*
X71517080Y-104631080D02*
X71117080Y-105031080D01*
X68839080Y-80219710D02*
X67710450Y-79091080D01*
X55417080Y-79091080D02*
X54787080Y-79721080D01*
X68839080Y-81351080D02*
X68839080Y-80219710D01*
X67710450Y-79091080D02*
X55417080Y-79091080D01*
X111487080Y-97041080D02*
X112857080Y-95671080D01*
X107147080Y-97041080D02*
X111487080Y-97041080D01*
X106027080Y-98161080D02*
X107147080Y-97041080D01*
X97467080Y-98161080D02*
X106027080Y-98161080D01*
X87107080Y-97901080D02*
X76107080Y-97901080D01*
X88815080Y-96193080D02*
X87107080Y-97901080D01*
X94637080Y-96193080D02*
X88815080Y-96193080D01*
X96271080Y-94559080D02*
X94637080Y-96193080D01*
X114037080Y-94521080D02*
X112297080Y-94521080D01*
X112297080Y-94521080D02*
X110507080Y-96311080D01*
X103103080Y-96311080D02*
X101351080Y-94559080D01*
X110507080Y-96311080D02*
X103103080Y-96311080D01*
X67987079Y-98241081D02*
X67587080Y-98641080D01*
X68457080Y-97771080D02*
X67987079Y-98241081D01*
X72007080Y-97771080D02*
X68457080Y-97771080D01*
X87183491Y-98691080D02*
X72927080Y-98691080D01*
X72927080Y-98691080D02*
X72007080Y-97771080D01*
X89043491Y-96831080D02*
X87183491Y-98691080D01*
X99079080Y-96831080D02*
X89043491Y-96831080D01*
X101351080Y-94559080D02*
X99079080Y-96831080D01*
X91097080Y-98631080D02*
X91117080Y-98651080D01*
X91117080Y-98651080D02*
X92417080Y-97351080D01*
X92417080Y-97351080D02*
X105217078Y-97351080D01*
X72027080Y-98651080D02*
X69692101Y-98651080D01*
X69692101Y-98651080D02*
X69677080Y-98666101D01*
X90627080Y-99141080D02*
X72517080Y-99141080D01*
X72517080Y-99141080D02*
X72027080Y-98651080D01*
X91117080Y-98651080D02*
X90627080Y-99141080D01*
X92187081Y-78271081D02*
X92587080Y-78671080D01*
X84527081Y-78271081D02*
X92187081Y-78271081D01*
X83447079Y-77191079D02*
X84527081Y-78271081D01*
X49147079Y-77191079D02*
X83447079Y-77191079D01*
X48747080Y-76791080D02*
X49147079Y-77191079D01*
X42820082Y-76791080D02*
X48747080Y-76791080D01*
X42805081Y-76776079D02*
X42820082Y-76791080D01*
X41082081Y-76776079D02*
X42805081Y-76776079D01*
X41067080Y-76791080D02*
X41082081Y-76776079D01*
X118137080Y-59351080D02*
X119437080Y-60651080D01*
X116277080Y-59351080D02*
X118137080Y-59351080D01*
X115647080Y-59981080D02*
X116277080Y-59351080D01*
X115647080Y-62481080D02*
X115647080Y-59981080D01*
X92517080Y-58351080D02*
X96807080Y-58351080D01*
X96807080Y-58351080D02*
X97557080Y-59101080D01*
X119437080Y-60651080D02*
X119437080Y-60801080D01*
X97557080Y-59101080D02*
X97557080Y-61051080D01*
X97557080Y-61051080D02*
X98387080Y-61881080D01*
X100097080Y-62561080D02*
X100097080Y-64331080D01*
X113037080Y-64941080D02*
X113037080Y-63611080D01*
X98387080Y-61881080D02*
X99417080Y-61881080D01*
X113717080Y-62931080D02*
X115197080Y-62931080D01*
X115197080Y-62931080D02*
X115647080Y-62481080D01*
X99417080Y-61881080D02*
X100097080Y-62561080D01*
X100097080Y-64331080D02*
X101257080Y-65491080D01*
X101257080Y-65491080D02*
X112487080Y-65491080D01*
X112487080Y-65491080D02*
X113037080Y-64941080D01*
X113037080Y-63611080D02*
X113717080Y-62931080D01*
X27997080Y-86751080D02*
X33407080Y-81341080D01*
X27997080Y-104721080D02*
X27997080Y-86751080D01*
X34167080Y-110891080D02*
X27997080Y-104721080D01*
X34167080Y-112551080D02*
X34167080Y-110891080D01*
X36657080Y-115041080D02*
X34167080Y-112551080D01*
X60041080Y-115041080D02*
X36657080Y-115041080D01*
X63251080Y-111831080D02*
X60041080Y-115041080D01*
X35947080Y-110456149D02*
X33770869Y-108279938D01*
X37577080Y-113881080D02*
X35947080Y-112251080D01*
X56121080Y-113881080D02*
X37577080Y-113881080D01*
X35947080Y-112251080D02*
X35947080Y-110456149D01*
X58171080Y-111831080D02*
X56121080Y-113881080D01*
X25367080Y-67331080D02*
X27367080Y-65331080D01*
X27187080Y-75731080D02*
X25367080Y-73911080D01*
X36477080Y-75731080D02*
X27187080Y-75731080D01*
X25367080Y-73911080D02*
X25367080Y-67331080D01*
X38487080Y-73721080D02*
X36477080Y-75731080D01*
X64607082Y-98411080D02*
X65077080Y-97941082D01*
X32317080Y-98411080D02*
X64607082Y-98411080D01*
X29087080Y-95181080D02*
X32317080Y-98411080D01*
X29087080Y-93271080D02*
X29087080Y-95181080D01*
X34842079Y-87516081D02*
X29087080Y-93271080D01*
X35947080Y-81341080D02*
X34842079Y-82446081D01*
X34842079Y-82446081D02*
X34842079Y-87516081D01*
X26377080Y-69681080D02*
X26377080Y-73451080D01*
X26377080Y-73451080D02*
X28047080Y-75121080D01*
X34547080Y-75121080D02*
X35947080Y-73721080D01*
X28047080Y-75121080D02*
X34547080Y-75121080D01*
X35137080Y-110751080D02*
X31807080Y-107421080D01*
X37047080Y-114481080D02*
X35137080Y-112571080D01*
X35137080Y-112571080D02*
X35137080Y-110751080D01*
X58061080Y-114481080D02*
X37047080Y-114481080D01*
X60711080Y-111831080D02*
X58061080Y-114481080D01*
X116097080Y-104991080D02*
X116627080Y-104991080D01*
X114597080Y-103491080D02*
X116097080Y-104991080D01*
X107743080Y-103491080D02*
X114597080Y-103491080D01*
X106431080Y-102179080D02*
X107743080Y-103491080D01*
X38797078Y-104121082D02*
X38557080Y-104361080D01*
X70427078Y-104121082D02*
X38797078Y-104121082D01*
X73127080Y-103511080D02*
X71037080Y-103511080D01*
X73997080Y-104381080D02*
X73127080Y-103511080D01*
X94277080Y-104381080D02*
X73997080Y-104381080D01*
X71037080Y-103511080D02*
X70427078Y-104121082D01*
X94927080Y-103731080D02*
X94277080Y-104381080D01*
X104879080Y-103731080D02*
X94927080Y-103731080D01*
X106431080Y-102179080D02*
X104879080Y-103731080D01*
X113567080Y-97751080D02*
X119447080Y-97751080D01*
X112207080Y-99111080D02*
X113567080Y-97751080D01*
X96267080Y-99111080D02*
X112207080Y-99111080D01*
X95787070Y-99591090D02*
X48952080Y-99591090D01*
X96267080Y-99111080D02*
X95787070Y-99591090D01*
X48952080Y-99591090D02*
X48497080Y-99136090D01*
X33767080Y-104401080D02*
X32687080Y-104401080D01*
X34822070Y-105456070D02*
X33767080Y-104401080D01*
X42362070Y-105456070D02*
X34822070Y-105456070D01*
X44987080Y-108081080D02*
X42362070Y-105456070D01*
X51881080Y-108081080D02*
X44987080Y-108081080D01*
X53091080Y-109291080D02*
X51881080Y-108081080D01*
X26687081Y-79735560D02*
X26687081Y-80521081D01*
X41027080Y-81341080D02*
X39177070Y-79491070D01*
X39177070Y-79491070D02*
X28087535Y-79491070D01*
X28087535Y-79491070D02*
X27857554Y-79261089D01*
X27857554Y-79261089D02*
X27161552Y-79261089D01*
X27161552Y-79261089D02*
X26687081Y-79735560D01*
X26687081Y-80521081D02*
X27427080Y-81261080D01*
X32137080Y-105191080D02*
X30707080Y-103761080D01*
X33837080Y-105191080D02*
X32137080Y-105191080D01*
X35752090Y-107106090D02*
X33837080Y-105191080D01*
X40746090Y-107106090D02*
X35752090Y-107106090D01*
X42931080Y-109291080D02*
X40746090Y-107106090D01*
X46107080Y-73721080D02*
X43837080Y-75991080D01*
X35983490Y-77781080D02*
X26687080Y-77781080D01*
X43837080Y-75991080D02*
X37773490Y-75991080D01*
X37773490Y-75991080D02*
X35983490Y-77781080D01*
X40137080Y-113291080D02*
X46551080Y-113291080D01*
X39177080Y-112331080D02*
X40137080Y-113291080D01*
X39177080Y-111191080D02*
X39177080Y-112331080D01*
X37147080Y-110571080D02*
X38557080Y-110571080D01*
X33502068Y-106926068D02*
X37147080Y-110571080D01*
X46551080Y-113291080D02*
X48011080Y-111831080D01*
X32502092Y-106926068D02*
X33502068Y-106926068D01*
X38557080Y-110571080D02*
X39177080Y-111191080D01*
X31020270Y-105444246D02*
X32502092Y-106926068D01*
X41997080Y-75291080D02*
X37837080Y-75291080D01*
X37837080Y-75291080D02*
X36347080Y-76781080D01*
X43567080Y-73721080D02*
X41997080Y-75291080D01*
X36347080Y-76781080D02*
X25987080Y-76781080D01*
X102689080Y-100841080D02*
X101351080Y-102179080D01*
X113757080Y-100841080D02*
X102689080Y-100841080D01*
X115297080Y-102381080D02*
X113757080Y-100841080D01*
X127957080Y-102381080D02*
X115297080Y-102381080D01*
X75044081Y-102708081D02*
X75044081Y-100978081D01*
X76237080Y-103901080D02*
X75044081Y-102708081D01*
X75044081Y-100978081D02*
X74127079Y-100061079D01*
X74127079Y-100061079D02*
X46902069Y-100061079D01*
X46902069Y-100061079D02*
X45977080Y-99136090D01*
X94992080Y-102786080D02*
X93877080Y-103901080D01*
X101351080Y-102179080D02*
X100226079Y-101054079D01*
X94992080Y-101776080D02*
X94992080Y-102786080D01*
X95714081Y-101054079D02*
X94992080Y-101776080D01*
X93877080Y-103901080D02*
X76237080Y-103901080D01*
X100226079Y-101054079D02*
X95714081Y-101054079D01*
X169567080Y-85761080D02*
X171107080Y-84221080D01*
X149727080Y-85761080D02*
X169567080Y-85761080D01*
X148187080Y-84221080D02*
X149727080Y-85761080D01*
X135527080Y-84701080D02*
X133417080Y-84701080D01*
X133377080Y-84741080D02*
X133417080Y-84701080D01*
X148187080Y-84221080D02*
X146787080Y-82821080D01*
X146787080Y-82821080D02*
X137407080Y-82821080D01*
X137407080Y-82821080D02*
X135527080Y-84701080D01*
X112907080Y-84741080D02*
X133377080Y-84741080D01*
X195127080Y-90401080D02*
X196567080Y-91841080D01*
X170007080Y-90401080D02*
X195127080Y-90401080D01*
X168567080Y-91841080D02*
X170007080Y-90401080D01*
X225627080Y-85701080D02*
X227107080Y-84221080D01*
X200587080Y-85701080D02*
X225627080Y-85701080D01*
X199107080Y-84221080D02*
X200587080Y-85701080D01*
X114032080Y-102001080D02*
X112697080Y-102001080D01*
X115832080Y-103801080D02*
X114032080Y-102001080D01*
X131527080Y-103801080D02*
X115832080Y-103801080D01*
X132987080Y-102341080D02*
X131527080Y-103801080D01*
X153317082Y-97481080D02*
X152527080Y-98271082D01*
X168347080Y-97481080D02*
X153317082Y-97481080D01*
X171107080Y-94721080D02*
X168347080Y-97481080D01*
X152507082Y-98291080D02*
X152527080Y-98271082D01*
X134437069Y-98291080D02*
X152507082Y-98291080D01*
X132987069Y-96841080D02*
X134437069Y-98291080D01*
X197427080Y-96401080D02*
X199107080Y-94721080D01*
X172787080Y-96401080D02*
X197427080Y-96401080D01*
X171107080Y-94721080D02*
X172787080Y-96401080D01*
X202147080Y-101001080D02*
X197907080Y-101001080D01*
X197907080Y-101001080D02*
X196567080Y-102341080D01*
X202947080Y-101801080D02*
X202147080Y-101001080D01*
X202947080Y-103101080D02*
X202947080Y-101801080D01*
X209647080Y-103801080D02*
X203647080Y-103801080D01*
X203647080Y-103801080D02*
X202947080Y-103101080D01*
X211212070Y-100981090D02*
X210547080Y-101646080D01*
X223207090Y-100981090D02*
X211212070Y-100981090D01*
X210547080Y-102901080D02*
X209647080Y-103801080D01*
X210547080Y-101646080D02*
X210547080Y-102901080D01*
X224567080Y-102341080D02*
X223207090Y-100981090D01*
X39037629Y-86401080D02*
X38342619Y-87096090D01*
X72617080Y-86401080D02*
X39037629Y-86401080D01*
X73127080Y-86911080D02*
X72617080Y-86401080D01*
X104157080Y-86911080D02*
X73127080Y-86911080D01*
X105567080Y-88321080D02*
X104157080Y-86911080D01*
X108672078Y-88321080D02*
X105567080Y-88321080D01*
X108677079Y-88326081D02*
X108672078Y-88321080D01*
X109757081Y-88326081D02*
X108677079Y-88326081D01*
X153272080Y-89376080D02*
X152997080Y-89651080D01*
X119827081Y-88346081D02*
X118747079Y-88346081D01*
X152997080Y-89651080D02*
X134507080Y-89651080D01*
X134507080Y-89651080D02*
X133177080Y-88321080D01*
X121342078Y-88321080D02*
X119852082Y-88321080D01*
X133177080Y-88321080D02*
X122432082Y-88321080D01*
X119852082Y-88321080D02*
X119827081Y-88346081D01*
X122432082Y-88321080D02*
X122427081Y-88326081D01*
X118722078Y-88321080D02*
X109762082Y-88321080D01*
X122427081Y-88326081D02*
X121347079Y-88326081D01*
X121347079Y-88326081D02*
X121342078Y-88321080D01*
X118747079Y-88346081D02*
X118722078Y-88321080D01*
X109762082Y-88321080D02*
X109757081Y-88326081D01*
X83757080Y-95981080D02*
X80477080Y-95981080D01*
X84477080Y-95261080D02*
X83757080Y-95981080D01*
X84477080Y-94001080D02*
X84477080Y-95261080D01*
X86111080Y-92367080D02*
X84477080Y-94001080D01*
X86111080Y-91765080D02*
X86111080Y-92367080D01*
X92477080Y-85431080D02*
X91191080Y-84145080D01*
X104923080Y-85431080D02*
X92477080Y-85431080D01*
X106685080Y-87193080D02*
X104923080Y-85431080D01*
X90687080Y-86181080D02*
X88651080Y-84145080D01*
X98797080Y-86181080D02*
X90687080Y-86181080D01*
X100225080Y-90351080D02*
X98811080Y-91765080D01*
X102227080Y-90351080D02*
X100225080Y-90351080D01*
X104397080Y-92521080D02*
X102227080Y-90351080D01*
X106850080Y-92521080D02*
X104397080Y-92521080D01*
X108888080Y-94559080D02*
X106850080Y-92521080D01*
X108971080Y-94559080D02*
X108888080Y-94559080D01*
X77127078Y-103421080D02*
X75877078Y-102171080D01*
X84869080Y-103421080D02*
X77127078Y-103421080D01*
X86111080Y-102179080D02*
X84869080Y-103421080D01*
X87387080Y-90856078D02*
X87387080Y-93295080D01*
X86992082Y-90461080D02*
X87387080Y-90856078D01*
X85077080Y-90461080D02*
X86992082Y-90461080D01*
X82097080Y-93441080D02*
X85077080Y-90461080D01*
X76397080Y-93441080D02*
X82097080Y-93441080D01*
X87387080Y-93295080D02*
X88651080Y-94559080D01*
X75257080Y-92301080D02*
X76397080Y-93441080D01*
X75257080Y-90921080D02*
X75257080Y-92301080D01*
X74797080Y-90461080D02*
X75257080Y-90921080D01*
X70143080Y-90461080D02*
X74797080Y-90461080D01*
X68839080Y-91765080D02*
X70143080Y-90461080D01*
X39767080Y-93291080D02*
X38517080Y-94541080D01*
X44587080Y-93291080D02*
X39767080Y-93291080D01*
X46127080Y-91751080D02*
X44587080Y-93291080D01*
X77977080Y-87751080D02*
X77997080Y-87771080D01*
X73257080Y-87751080D02*
X77977080Y-87751080D01*
X72407080Y-86901080D02*
X73257080Y-87751080D01*
X40037080Y-86901080D02*
X72407080Y-86901080D01*
X38747080Y-88191080D02*
X40037080Y-86901080D01*
X95267079Y-66571079D02*
X81327079Y-66571079D01*
X111247080Y-67001080D02*
X95697080Y-67001080D01*
X95697080Y-67001080D02*
X95267079Y-66571079D01*
X111677081Y-66571079D02*
X111247080Y-67001080D01*
X122277083Y-66571079D02*
X111677081Y-66571079D01*
X123227080Y-65621082D02*
X122277083Y-66571079D01*
X123227080Y-58191080D02*
X123227080Y-65621082D01*
X81327079Y-66571079D02*
X81057080Y-66301080D01*
X124492080Y-56926080D02*
X123227080Y-58191080D01*
X59837080Y-103561080D02*
X35517078Y-103561080D01*
X61219080Y-102179080D02*
X59837080Y-103561080D01*
X35517078Y-103561080D02*
X35447080Y-103631078D01*
X132187080Y-113341080D02*
X132107080Y-113421080D01*
X99951080Y-108151080D02*
X98811080Y-109291080D01*
X103327080Y-108151080D02*
X99951080Y-108151080D01*
X108297080Y-113121080D02*
X103327080Y-108151080D01*
X131967080Y-113121080D02*
X108297080Y-113121080D01*
X132187080Y-113341080D02*
X131967080Y-113121080D01*
X103587080Y-107651080D02*
X97911080Y-107651080D01*
X127437080Y-112561080D02*
X127327091Y-112671069D01*
X133247080Y-112561080D02*
X127437080Y-112561080D01*
X127327091Y-112671069D02*
X108607069Y-112671069D01*
X108607069Y-112671069D02*
X103587080Y-107651080D01*
X97911080Y-107651080D02*
X97033079Y-108529081D01*
X97033079Y-108529081D02*
X96271080Y-109291080D01*
X94921080Y-108101080D02*
X93731080Y-109291080D01*
X103977080Y-107091080D02*
X96787080Y-107091080D01*
X109107058Y-112221058D02*
X103977080Y-107091080D01*
X95777080Y-108101080D02*
X94921080Y-108101080D01*
X126527102Y-112221058D02*
X109107058Y-112221058D01*
X96787080Y-107091080D02*
X95777080Y-108101080D01*
X127277080Y-111471080D02*
X126527102Y-112221058D01*
X141847080Y-111471080D02*
X127277080Y-111471080D01*
X104307080Y-106451080D02*
X96717080Y-106451080D01*
X93491080Y-106991080D02*
X91191080Y-109291080D01*
X96177080Y-106991080D02*
X93491080Y-106991080D01*
X109627047Y-111771047D02*
X104307080Y-106451080D01*
X125887113Y-111771047D02*
X109627047Y-111771047D01*
X127057080Y-110601080D02*
X125887113Y-111771047D01*
X144072080Y-110601080D02*
X127057080Y-110601080D01*
X96717080Y-106451080D02*
X96177080Y-106991080D01*
X146732061Y-109531080D02*
X146947082Y-109746101D01*
X125727080Y-108701080D02*
X126557080Y-109531080D01*
X121457080Y-109901080D02*
X122657080Y-108701080D01*
X126557080Y-109531080D02*
X146732061Y-109531080D01*
X108757080Y-109901080D02*
X121457080Y-109901080D01*
X104667080Y-105811080D02*
X108757080Y-109901080D01*
X96477080Y-105811080D02*
X104667080Y-105811080D01*
X122657080Y-108701080D02*
X125727080Y-108701080D01*
X95897080Y-106391080D02*
X96477080Y-105811080D01*
X91551080Y-106391080D02*
X95897080Y-106391080D01*
X88651080Y-109291080D02*
X91551080Y-106391080D01*
X126717080Y-108811080D02*
X148992070Y-108811080D01*
X126007080Y-108101080D02*
X126717080Y-108811080D01*
X121137080Y-109341080D02*
X122377080Y-108101080D01*
X109267080Y-109341080D02*
X121137080Y-109341080D01*
X96037080Y-105271080D02*
X105197080Y-105271080D01*
X95477080Y-105831080D02*
X96037080Y-105271080D01*
X148992070Y-108811080D02*
X149477080Y-109296090D01*
X122377080Y-108101080D02*
X126007080Y-108101080D01*
X89571080Y-105831080D02*
X95477080Y-105831080D01*
X105197080Y-105271080D02*
X109267080Y-109341080D01*
X86111080Y-109291080D02*
X89571080Y-105831080D01*
X126387080Y-107521080D02*
X127017080Y-108151080D01*
X127017080Y-108151080D02*
X151172080Y-108151080D01*
X108347080Y-107521080D02*
X126387080Y-107521080D01*
X105557080Y-104731080D02*
X108347080Y-107521080D01*
X151172080Y-108151080D02*
X152047080Y-109026080D01*
X95747080Y-104731080D02*
X105557080Y-104731080D01*
X95187080Y-105291080D02*
X95747080Y-104731080D01*
X87617080Y-105291080D02*
X95187080Y-105291080D01*
X83617080Y-109291080D02*
X87617080Y-105291080D01*
X83571080Y-109291080D02*
X83617080Y-109291080D01*
X154422070Y-107501080D02*
X154687080Y-107766090D01*
X127247080Y-107501080D02*
X154422070Y-107501080D01*
X108713490Y-106981080D02*
X126727080Y-106981080D01*
X126727080Y-106981080D02*
X127247080Y-107501080D01*
X105953490Y-104221080D02*
X108713490Y-106981080D01*
X95377080Y-104221080D02*
X105953490Y-104221080D01*
X94757080Y-104841080D02*
X95377080Y-104221080D01*
X85481080Y-104841080D02*
X94757080Y-104841080D01*
X81031080Y-109291080D02*
X85481080Y-104841080D01*
X87321080Y-110621080D02*
X86111080Y-111831080D01*
X105047089Y-113571089D02*
X102097080Y-110621080D01*
X102097080Y-110621080D02*
X87321080Y-110621080D01*
X122187089Y-113571089D02*
X105047089Y-113571089D01*
X124057080Y-115441080D02*
X122187089Y-113571089D01*
X85024079Y-110744079D02*
X86111080Y-111831080D01*
X80509319Y-110744079D02*
X85024079Y-110744079D01*
X79787080Y-107631080D02*
X79787080Y-110021840D01*
X79127080Y-106971080D02*
X79787080Y-107631080D01*
X68902080Y-106971080D02*
X79127080Y-106971080D01*
X79787080Y-110021840D02*
X80509319Y-110744079D01*
X68867080Y-106936080D02*
X68902080Y-106971080D01*
X66807080Y-96591080D02*
X68839080Y-94559080D01*
X65277080Y-96591080D02*
X66807080Y-96591080D01*
X64182080Y-97686080D02*
X65277080Y-96591080D01*
X35957080Y-97686080D02*
X64182080Y-97686080D01*
X46587080Y-107311080D02*
X52837080Y-107311080D01*
X52837080Y-107311080D02*
X53917080Y-106231080D01*
X53917080Y-106231080D02*
X59057080Y-106231080D01*
X59057080Y-106231080D02*
X60447080Y-107621080D01*
X66661080Y-107621080D02*
X68331080Y-109291080D01*
X60447080Y-107621080D02*
X66661080Y-107621080D01*
X155917080Y-109531080D02*
X186402080Y-109531080D01*
X153997080Y-111451080D02*
X155917080Y-109531080D01*
X186402080Y-109531080D02*
X186622080Y-109751080D01*
X146172080Y-111451080D02*
X153997080Y-111451080D01*
X145697080Y-110976080D02*
X146172080Y-111451080D01*
X63599079Y-55486079D02*
X62974079Y-56111079D01*
X64802079Y-55486079D02*
X63599079Y-55486079D01*
X65147080Y-55831080D02*
X64802079Y-55486079D01*
X62974079Y-56111079D02*
X53977079Y-56111079D01*
X53977079Y-56111079D02*
X53267080Y-55401080D01*
X107227080Y-54901080D02*
X95550669Y-54901080D01*
X59694076Y-54421080D02*
X58714076Y-55401080D01*
X95070669Y-54421080D02*
X59694076Y-54421080D01*
X95550669Y-54901080D02*
X95070669Y-54421080D01*
X109252080Y-56926080D02*
X107227080Y-54901080D01*
X53832765Y-55401080D02*
X53267080Y-55401080D01*
X58714076Y-55401080D02*
X53832765Y-55401080D01*
X123207080Y-105441080D02*
X122637080Y-104871080D01*
X127027080Y-105441080D02*
X123207080Y-105441080D01*
X127717080Y-106131080D02*
X127027080Y-105441080D01*
X132177080Y-106131080D02*
X127717080Y-106131080D01*
X134467080Y-103841080D02*
X132177080Y-106131080D01*
X146847080Y-103841080D02*
X134467080Y-103841080D01*
X148227080Y-105221080D02*
X146847080Y-103841080D01*
X82287080Y-102181080D02*
X81317080Y-102181080D01*
X84117080Y-100351080D02*
X82287080Y-102181080D01*
X113197080Y-99221080D02*
X112067080Y-100351080D01*
X112067080Y-100351080D02*
X84117080Y-100351080D01*
X122667080Y-99221080D02*
X113197080Y-99221080D01*
X92597080Y-61911080D02*
X91191080Y-63317080D01*
X94367080Y-61911080D02*
X92597080Y-61911080D01*
X94997080Y-63931080D02*
X94997080Y-62541080D01*
X94997080Y-62541080D02*
X94367080Y-61911080D01*
X95707080Y-64641080D02*
X94997080Y-63931080D01*
X97487080Y-64641080D02*
X95707080Y-64641080D01*
X98811080Y-63317080D02*
X97487080Y-64641080D01*
X95747080Y-88641080D02*
X96087080Y-88301080D01*
X68477080Y-88641080D02*
X95747080Y-88641080D01*
X67907080Y-89211080D02*
X68477080Y-88641080D01*
X66277080Y-89211080D02*
X67907080Y-89211080D01*
X42912090Y-87701080D02*
X42507080Y-88106090D01*
X48597080Y-87701080D02*
X42912090Y-87701080D01*
X50107080Y-89211080D02*
X48597080Y-87701080D01*
X66277080Y-89211080D02*
X50107080Y-89211080D01*
X38527080Y-63311080D02*
X36397080Y-65441080D01*
X36397080Y-65441080D02*
X32977080Y-65441080D01*
X31197080Y-93101080D02*
X30997080Y-93301080D01*
X36527080Y-93101080D02*
X31197080Y-93101080D01*
X37247080Y-93821080D02*
X36527080Y-93101080D01*
X37247080Y-95501080D02*
X37247080Y-93821080D01*
X63048450Y-96401080D02*
X38147080Y-96401080D01*
X63759080Y-95690450D02*
X63048450Y-96401080D01*
X38147080Y-96401080D02*
X37247080Y-95501080D01*
X63759080Y-94559080D02*
X63759080Y-95690450D01*
M02*
