%FSLAX45Y45*%
G04 Gerber Fmt 4.5, Leading zero omitted, Abs format (unit mm)*
G04 Created by KiCad (PCBNEW (5.1.12)-1) date 2023-01-17 22:17:05*
%MOMM*%
%LPD*%
G01*
G04 APERTURE LIST*
%TA.AperFunction,Profile*%
%ADD10C,0.050000*%
%TD*%
%ADD11C,0.200000*%
%ADD12C,0.300000*%
G04 APERTURE END LIST*
D10*
X27534708Y-11990108D02*
X2134708Y-11990108D01*
X27534708Y-4590108D02*
X27534708Y-11990108D01*
X2134708Y-4590108D02*
X27534708Y-4590108D01*
X2134708Y-11990108D02*
X2134708Y-4590108D01*
D11*
X2374708Y-5590108D02*
X2414708Y-5630108D01*
X2414708Y-5590108D02*
X2374708Y-5630108D01*
X2578708Y-7658108D02*
X2618708Y-7698108D01*
X2618708Y-7658108D02*
X2578708Y-7698108D01*
X2617708Y-6948108D02*
X2657708Y-6988108D01*
X2657708Y-6948108D02*
X2617708Y-6988108D01*
X2648708Y-7758108D02*
X2688708Y-7798108D01*
X2688708Y-7758108D02*
X2648708Y-7798108D01*
X2716708Y-6513108D02*
X2756708Y-6553108D01*
X2756708Y-6513108D02*
X2716708Y-6553108D01*
X2722708Y-8106108D02*
X2762708Y-8146108D01*
X2762708Y-8106108D02*
X2722708Y-8146108D01*
X2730955Y-7978609D02*
X2770955Y-8018609D01*
X2770955Y-7978609D02*
X2730955Y-8018609D01*
X2813708Y-6439108D02*
X2853708Y-6479108D01*
X2853708Y-6439108D02*
X2813708Y-6479108D01*
X2974708Y-9808108D02*
X3014708Y-9848108D01*
X3014708Y-9808108D02*
X2974708Y-9848108D01*
X3018708Y-6819108D02*
X3058708Y-6859108D01*
X3058708Y-6819108D02*
X3018708Y-6859108D01*
X3050708Y-10356108D02*
X3090708Y-10396108D01*
X3090708Y-10356108D02*
X3050708Y-10396108D01*
X3079708Y-9310108D02*
X3119708Y-9350108D01*
X3119708Y-9310108D02*
X3079708Y-9350108D01*
X3082027Y-10524425D02*
X3122027Y-10564425D01*
X3122027Y-10524425D02*
X3082027Y-10564425D01*
X3092708Y-9513108D02*
X3132708Y-9553108D01*
X3132708Y-9513108D02*
X3092708Y-9553108D01*
X3144708Y-6620108D02*
X3184708Y-6660108D01*
X3184708Y-6620108D02*
X3144708Y-6660108D01*
X3160708Y-10722108D02*
X3200708Y-10762108D01*
X3200708Y-10722108D02*
X3160708Y-10762108D01*
X3201708Y-7853108D02*
X3241708Y-7893108D01*
X3241708Y-7853108D02*
X3201708Y-7893108D01*
X3248708Y-10420108D02*
X3288708Y-10460108D01*
X3288708Y-10420108D02*
X3248708Y-10460108D01*
X3273708Y-10586108D02*
X3313708Y-10626108D01*
X3313708Y-10586108D02*
X3273708Y-10626108D01*
X3277708Y-6524108D02*
X3317708Y-6564108D01*
X3317708Y-6524108D02*
X3277708Y-6564108D01*
X3323708Y-9902108D02*
X3363708Y-9942108D01*
X3363708Y-9902108D02*
X3323708Y-9942108D01*
X3357087Y-10807994D02*
X3397087Y-10847994D01*
X3397087Y-10807994D02*
X3357087Y-10847994D01*
X3406708Y-4831108D02*
X3446708Y-4871108D01*
X3446708Y-4831108D02*
X3406708Y-4871108D01*
X3524708Y-10343108D02*
X3564708Y-10383108D01*
X3564708Y-10343108D02*
X3524708Y-10383108D01*
X3575708Y-9748608D02*
X3615708Y-9788608D01*
X3615708Y-9748608D02*
X3575708Y-9788608D01*
X3761708Y-10608108D02*
X3801708Y-10648108D01*
X3801708Y-10608108D02*
X3761708Y-10648108D01*
X3782708Y-7672108D02*
X3822708Y-7712108D01*
X3822708Y-7672108D02*
X3782708Y-7712108D01*
X3814262Y-8689609D02*
X3854262Y-8729609D01*
X3854262Y-8689609D02*
X3814262Y-8729609D01*
X3835708Y-10416108D02*
X3875708Y-10456108D01*
X3875708Y-10416108D02*
X3835708Y-10456108D01*
X3854708Y-8799108D02*
X3894708Y-8839108D01*
X3894708Y-8799108D02*
X3854708Y-8839108D01*
X3958708Y-6645108D02*
X3998708Y-6685108D01*
X3998708Y-6645108D02*
X3958708Y-6685108D01*
X3973708Y-10608108D02*
X4013708Y-10648108D01*
X4013708Y-10608108D02*
X3973708Y-10648108D01*
X4086708Y-7659108D02*
X4126708Y-7699108D01*
X4126708Y-7659108D02*
X4086708Y-7699108D01*
X4098708Y-4807108D02*
X4138708Y-4847108D01*
X4138708Y-4807108D02*
X4098708Y-4847108D01*
X4099708Y-5683108D02*
X4139708Y-5723108D01*
X4139708Y-5683108D02*
X4099708Y-5723108D01*
X4101708Y-5099108D02*
X4141708Y-5139108D01*
X4141708Y-5099108D02*
X4101708Y-5139108D01*
X4105708Y-5247108D02*
X4145708Y-5287108D01*
X4145708Y-5247108D02*
X4105708Y-5287108D01*
X4214708Y-7740108D02*
X4254708Y-7780108D01*
X4254708Y-7740108D02*
X4214708Y-7780108D01*
X4230708Y-8790609D02*
X4270708Y-8830609D01*
X4270708Y-8790609D02*
X4230708Y-8830609D01*
X4263708Y-5861108D02*
X4303708Y-5901108D01*
X4303708Y-5861108D02*
X4263708Y-5901108D01*
X4338708Y-6746108D02*
X4378708Y-6786108D01*
X4378708Y-6746108D02*
X4338708Y-6786108D01*
X4519708Y-10568108D02*
X4559708Y-10608108D01*
X4559708Y-10568108D02*
X4519708Y-10608108D01*
X4577708Y-9893609D02*
X4617708Y-9933609D01*
X4617708Y-9893609D02*
X4577708Y-9933609D01*
X4592708Y-8852108D02*
X4632708Y-8892108D01*
X4632708Y-8852108D02*
X4592708Y-8892108D01*
X4638708Y-10711108D02*
X4678708Y-10751108D01*
X4678708Y-10711108D02*
X4638708Y-10751108D01*
X4829708Y-9893609D02*
X4869708Y-9933609D01*
X4869708Y-9893609D02*
X4829708Y-9933609D01*
X4841708Y-8987108D02*
X4881708Y-9027108D01*
X4881708Y-8987108D02*
X4841708Y-9027108D01*
X4904708Y-10638108D02*
X4944708Y-10678108D01*
X4944708Y-10638108D02*
X4904708Y-10678108D01*
X4955708Y-5410108D02*
X4995708Y-5450108D01*
X4995708Y-5410108D02*
X4955708Y-5450108D01*
X5051708Y-7301108D02*
X5091708Y-7341108D01*
X5091708Y-7301108D02*
X5051708Y-7341108D01*
X5086708Y-7061108D02*
X5126708Y-7101108D01*
X5126708Y-7061108D02*
X5086708Y-7101108D01*
X5091708Y-5782108D02*
X5131708Y-5822108D01*
X5131708Y-5782108D02*
X5091708Y-5822108D01*
X5116708Y-10208108D02*
X5156708Y-10248108D01*
X5156708Y-10208108D02*
X5116708Y-10248108D01*
X5172708Y-9262108D02*
X5212708Y-9302108D01*
X5212708Y-9262108D02*
X5172708Y-9302108D01*
X5243708Y-8025108D02*
X5283708Y-8065108D01*
X5283708Y-8025108D02*
X5243708Y-8065108D01*
X5306708Y-5520108D02*
X5346708Y-5560108D01*
X5346708Y-5520108D02*
X5306708Y-5560108D01*
X5311708Y-4957108D02*
X5351708Y-4997108D01*
X5351708Y-4957108D02*
X5311708Y-4997108D01*
X5331708Y-6739108D02*
X5371708Y-6779108D01*
X5371708Y-6739108D02*
X5331708Y-6779108D01*
X5344708Y-8820108D02*
X5384708Y-8860108D01*
X5384708Y-8820108D02*
X5344708Y-8860108D01*
X5458708Y-7952108D02*
X5498708Y-7992108D01*
X5498708Y-7952108D02*
X5458708Y-7992108D01*
X5592708Y-4884607D02*
X5632708Y-4924607D01*
X5632708Y-4884607D02*
X5592708Y-4924607D01*
X5615207Y-10678108D02*
X5655207Y-10718108D01*
X5655207Y-10678108D02*
X5615207Y-10718108D01*
X5649932Y-7624609D02*
X5689932Y-7664609D01*
X5689932Y-7624609D02*
X5649932Y-7664609D01*
X5714708Y-5113609D02*
X5754708Y-5153609D01*
X5754708Y-5113609D02*
X5714708Y-5153609D01*
X5847708Y-6529108D02*
X5887708Y-6569108D01*
X5887708Y-6529108D02*
X5847708Y-6569108D01*
X5985708Y-5516108D02*
X6025708Y-5556108D01*
X6025708Y-5516108D02*
X5985708Y-5556108D01*
X6101908Y-6764908D02*
X6141908Y-6804908D01*
X6141908Y-6764908D02*
X6101908Y-6804908D01*
X6105708Y-6481108D02*
X6145708Y-6521108D01*
X6145708Y-6481108D02*
X6105708Y-6521108D01*
X6216708Y-7549608D02*
X6256708Y-7589608D01*
X6256708Y-7549608D02*
X6216708Y-7589608D01*
X6304708Y-11384108D02*
X6344708Y-11424108D01*
X6344708Y-11384108D02*
X6304708Y-11424108D01*
X6374708Y-5601108D02*
X6414708Y-5641108D01*
X6414708Y-5601108D02*
X6374708Y-5641108D01*
X6454708Y-6557108D02*
X6494708Y-6597108D01*
X6494708Y-6557108D02*
X6454708Y-6597108D01*
X6482379Y-7624609D02*
X6522379Y-7664609D01*
X6522379Y-7624609D02*
X6482379Y-7664609D01*
X6487708Y-9774108D02*
X6527708Y-9814108D01*
X6527708Y-9774108D02*
X6487708Y-9814108D01*
X6494708Y-5563108D02*
X6534708Y-5603108D01*
X6534708Y-5563108D02*
X6494708Y-5603108D01*
X6607708Y-8901108D02*
X6647708Y-8941108D01*
X6647708Y-8901108D02*
X6607708Y-8941108D01*
X6621708Y-5566108D02*
X6661708Y-5606108D01*
X6661708Y-5566108D02*
X6621708Y-5606108D01*
X6738708Y-9844108D02*
X6778708Y-9884108D01*
X6778708Y-9844108D02*
X6738708Y-9884108D01*
X6866708Y-10673608D02*
X6906708Y-10713608D01*
X6906708Y-10673608D02*
X6866708Y-10713608D01*
X6947708Y-9846610D02*
X6987708Y-9886610D01*
X6987708Y-9846610D02*
X6947708Y-9886610D01*
X7051708Y-8743108D02*
X7091708Y-8783108D01*
X7091708Y-8743108D02*
X7051708Y-8783108D01*
X7082708Y-7078108D02*
X7122708Y-7118108D01*
X7122708Y-7078108D02*
X7082708Y-7118108D01*
X7131708Y-10443108D02*
X7171708Y-10483108D01*
X7171708Y-10443108D02*
X7131708Y-10483108D01*
X7403708Y-5752609D02*
X7443708Y-5792609D01*
X7443708Y-5752609D02*
X7403708Y-5792609D01*
X7567708Y-10197108D02*
X7607708Y-10237108D01*
X7607708Y-10197108D02*
X7567708Y-10237108D01*
X7587707Y-8372107D02*
X7627707Y-8412107D01*
X7627707Y-8372107D02*
X7587707Y-8412107D01*
X7587708Y-9154108D02*
X7627708Y-9194108D01*
X7627708Y-9154108D02*
X7587708Y-9194108D01*
X7590708Y-9770108D02*
X7630708Y-9810108D01*
X7630708Y-9770108D02*
X7590708Y-9810108D01*
X7653708Y-7903108D02*
X7693708Y-7943108D01*
X7693708Y-7903108D02*
X7653708Y-7943108D01*
X7703708Y-6537108D02*
X7743708Y-6577108D01*
X7743708Y-6537108D02*
X7703708Y-6577108D01*
X7779708Y-8757108D02*
X7819708Y-8797108D01*
X7819708Y-8757108D02*
X7779708Y-8797108D01*
X7976708Y-6015108D02*
X8016708Y-6055108D01*
X8016708Y-6015108D02*
X7976708Y-6055108D01*
X8027708Y-9578108D02*
X8067708Y-9618108D01*
X8067708Y-9578108D02*
X8027708Y-9618108D01*
X8036209Y-7998108D02*
X8076209Y-8038108D01*
X8076209Y-7998108D02*
X8036209Y-8038108D01*
X8071708Y-5899108D02*
X8111708Y-5939108D01*
X8111708Y-5899108D02*
X8071708Y-5939108D01*
X8085708Y-6610108D02*
X8125708Y-6650108D01*
X8125708Y-6610108D02*
X8085708Y-6650108D01*
X8158708Y-10601108D02*
X8198708Y-10641108D01*
X8198708Y-10601108D02*
X8158708Y-10641108D01*
X8203708Y-7956108D02*
X8243708Y-7996108D01*
X8243708Y-7956108D02*
X8203708Y-7996108D01*
X8294708Y-6544108D02*
X8334708Y-6584108D01*
X8334708Y-6544108D02*
X8294708Y-6584108D01*
X8305708Y-9487108D02*
X8345708Y-9527108D01*
X8345708Y-9487108D02*
X8305708Y-9527108D01*
X8310708Y-4965108D02*
X8350708Y-5005108D01*
X8350708Y-4965108D02*
X8310708Y-5005108D01*
X8503708Y-7617108D02*
X8543708Y-7657108D01*
X8543708Y-7617108D02*
X8503708Y-7657108D01*
X8591708Y-9617108D02*
X8631708Y-9657108D01*
X8631708Y-9617108D02*
X8591708Y-9657108D01*
X8816708Y-8750108D02*
X8856708Y-8790108D01*
X8856708Y-8750108D02*
X8816708Y-8790108D01*
X8965708Y-5888108D02*
X9005708Y-5928108D01*
X9005708Y-5888108D02*
X8965708Y-5928108D01*
X9091708Y-9845108D02*
X9131708Y-9885108D01*
X9131708Y-9845108D02*
X9091708Y-9885108D01*
X9231708Y-5815108D02*
X9271708Y-5855108D01*
X9271708Y-5815108D02*
X9231708Y-5855108D01*
X9238708Y-7847108D02*
X9278708Y-7887108D01*
X9278708Y-7847108D02*
X9238708Y-7887108D01*
X9241708Y-6766108D02*
X9281708Y-6806108D01*
X9281708Y-6766108D02*
X9241708Y-6806108D01*
X9349708Y-5646609D02*
X9389708Y-5686609D01*
X9389708Y-5646609D02*
X9349708Y-5686609D01*
X9474708Y-6774108D02*
X9514708Y-6814108D01*
X9514708Y-6774108D02*
X9474708Y-6814108D01*
X9588708Y-8810108D02*
X9628708Y-8850108D01*
X9628708Y-8810108D02*
X9588708Y-8850108D01*
X9606708Y-6546108D02*
X9646708Y-6586108D01*
X9646708Y-6546108D02*
X9606708Y-6586108D01*
X9606708Y-9891108D02*
X9646708Y-9931108D01*
X9646708Y-9891108D02*
X9606708Y-9931108D01*
X9726708Y-9796108D02*
X9766708Y-9836108D01*
X9766708Y-9796108D02*
X9726708Y-9836108D01*
X9734708Y-7754108D02*
X9774708Y-7794108D01*
X9774708Y-7754108D02*
X9734708Y-7794108D01*
X9859708Y-8598108D02*
X9899708Y-8638108D01*
X9899708Y-8598108D02*
X9859708Y-8638108D01*
X10005708Y-5806108D02*
X10045708Y-5846108D01*
X10045708Y-5806108D02*
X10005708Y-5846108D01*
X10097708Y-5021607D02*
X10137708Y-5061607D01*
X10137708Y-5021607D02*
X10097708Y-5061607D01*
X10253708Y-6901108D02*
X10293708Y-6941108D01*
X10293708Y-6901108D02*
X10253708Y-6941108D01*
X10258708Y-8801108D02*
X10298708Y-8841108D01*
X10298708Y-8801108D02*
X10258708Y-8841108D01*
X10501708Y-9715108D02*
X10541708Y-9755108D01*
X10541708Y-9715108D02*
X10501708Y-9755108D01*
X10649708Y-4753108D02*
X10689708Y-4793108D01*
X10689708Y-4753108D02*
X10649708Y-4793108D01*
X10748708Y-9788108D02*
X10788708Y-9828108D01*
X10788708Y-9788108D02*
X10748708Y-9828108D01*
X10773708Y-8255108D02*
X10813708Y-8295108D01*
X10813708Y-8255108D02*
X10773708Y-8295108D01*
X11037708Y-4931108D02*
X11077708Y-4971108D01*
X11077708Y-4931108D02*
X11037708Y-4971108D01*
X11090708Y-10481108D02*
X11130708Y-10521108D01*
X11130708Y-10481108D02*
X11090708Y-10521108D01*
X11145708Y-6776108D02*
X11185708Y-6816108D01*
X11185708Y-6776108D02*
X11145708Y-6816108D01*
X11156708Y-7003108D02*
X11196708Y-7043108D01*
X11196708Y-7003108D02*
X11156708Y-7043108D01*
X11249708Y-10180108D02*
X11289708Y-10220108D01*
X11289708Y-10180108D02*
X11249708Y-10220108D01*
X11265708Y-9547108D02*
X11305708Y-9587108D01*
X11305708Y-9547108D02*
X11265708Y-9587108D01*
X11270708Y-8454108D02*
X11310708Y-8494108D01*
X11310708Y-8454108D02*
X11270708Y-8494108D01*
X11383708Y-9432108D02*
X11423708Y-9472108D01*
X11423708Y-9432108D02*
X11383708Y-9472108D01*
X11408708Y-8238108D02*
X11448708Y-8278108D01*
X11448708Y-8238108D02*
X11408708Y-8278108D01*
X11411708Y-7004108D02*
X11451708Y-7044108D01*
X11451708Y-7004108D02*
X11411708Y-7044108D01*
X11520708Y-5003108D02*
X11560708Y-5043108D01*
X11560708Y-5003108D02*
X11520708Y-5043108D01*
X11530708Y-10084108D02*
X11570708Y-10124108D01*
X11570708Y-10084108D02*
X11530708Y-10124108D01*
X11642708Y-10479108D02*
X11682708Y-10519108D01*
X11682708Y-10479108D02*
X11642708Y-10519108D01*
X11661708Y-8326108D02*
X11701708Y-8366108D01*
X11701708Y-8326108D02*
X11661708Y-8366108D01*
X11661708Y-4899108D02*
X11701708Y-4939108D01*
X11701708Y-4899108D02*
X11661708Y-4939108D01*
X11662708Y-6760108D02*
X11702708Y-6800108D01*
X11702708Y-6760108D02*
X11662708Y-6800108D01*
X11903708Y-7163108D02*
X11943708Y-7203108D01*
X11943708Y-7163108D02*
X11903708Y-7203108D01*
X11908708Y-8171108D02*
X11948708Y-8211108D01*
X11948708Y-8171108D02*
X11908708Y-8211108D01*
X11924708Y-9755108D02*
X11964708Y-9795108D01*
X11964708Y-9755108D02*
X11924708Y-9795108D01*
X12112708Y-10015108D02*
X12152708Y-10055108D01*
X12152708Y-10015108D02*
X12112708Y-10055108D01*
X12169708Y-7218108D02*
X12209708Y-7258108D01*
X12209708Y-7218108D02*
X12169708Y-7258108D01*
X12170708Y-9775108D02*
X12210708Y-9815108D01*
X12210708Y-9775108D02*
X12170708Y-9815108D01*
X12243708Y-10467108D02*
X12283708Y-10507108D01*
X12283708Y-10467108D02*
X12243708Y-10507108D01*
X12246708Y-9902108D02*
X12286708Y-9942108D01*
X12286708Y-9902108D02*
X12246708Y-9942108D01*
X12288708Y-9592108D02*
X12328708Y-9632108D01*
X12328708Y-9592108D02*
X12288708Y-9632108D01*
X12385708Y-11524108D02*
X12425708Y-11564108D01*
X12425708Y-11524108D02*
X12385708Y-11564108D01*
X12685708Y-8319108D02*
X12725708Y-8359108D01*
X12725708Y-8319108D02*
X12685708Y-8359108D01*
X12697708Y-9454108D02*
X12737708Y-9494108D01*
X12737708Y-9454108D02*
X12697708Y-9494108D01*
X12775708Y-10218108D02*
X12815708Y-10258108D01*
X12815708Y-10218108D02*
X12775708Y-10258108D01*
X13045708Y-9770108D02*
X13085708Y-9810108D01*
X13085708Y-9770108D02*
X13045708Y-9810108D01*
X13194708Y-7123108D02*
X13234708Y-7163108D01*
X13234708Y-7123108D02*
X13194708Y-7163108D01*
X13198708Y-11314108D02*
X13238708Y-11354108D01*
X13238708Y-11314108D02*
X13198708Y-11354108D01*
X13251708Y-7672108D02*
X13291708Y-7712108D01*
X13291708Y-7672108D02*
X13251708Y-7712108D01*
X13278707Y-9664108D02*
X13318707Y-9704108D01*
X13318707Y-9664108D02*
X13278707Y-9704108D01*
X13304708Y-11236108D02*
X13344708Y-11276108D01*
X13344708Y-11236108D02*
X13304708Y-11276108D01*
X13321708Y-8450108D02*
X13361708Y-8490108D01*
X13361708Y-8450108D02*
X13321708Y-8490108D01*
X13542708Y-8277108D02*
X13582708Y-8317108D01*
X13582708Y-8277108D02*
X13542708Y-8317108D01*
X13544708Y-4950108D02*
X13584708Y-4990108D01*
X13584708Y-4950108D02*
X13544708Y-4990108D01*
X13659708Y-8776108D02*
X13699708Y-8816108D01*
X13699708Y-8776108D02*
X13659708Y-8816108D01*
X13786708Y-6524608D02*
X13826708Y-6564608D01*
X13826708Y-6524608D02*
X13786708Y-6564608D01*
X14164708Y-11127108D02*
X14204708Y-11167108D01*
X14204708Y-11127108D02*
X14164708Y-11167108D01*
X14387208Y-11040108D02*
X14427208Y-11080108D01*
X14427208Y-11040108D02*
X14387208Y-11080108D01*
X14412208Y-8862608D02*
X14452208Y-8902608D01*
X14452208Y-8862608D02*
X14412208Y-8902608D01*
X14547208Y-7647608D02*
X14587208Y-7687608D01*
X14587208Y-7647608D02*
X14547208Y-7687608D01*
X14548708Y-9602109D02*
X14588708Y-9642109D01*
X14588708Y-9602109D02*
X14548708Y-9642109D01*
X14549708Y-11077608D02*
X14589708Y-11117608D01*
X14589708Y-11077608D02*
X14549708Y-11117608D01*
X14674708Y-10954610D02*
X14714708Y-10994610D01*
X14714708Y-10954610D02*
X14674708Y-10994610D01*
X14802708Y-9605108D02*
X14842708Y-9645108D01*
X14842708Y-9605108D02*
X14802708Y-9645108D01*
X14807708Y-7705108D02*
X14847708Y-7745108D01*
X14847708Y-7705108D02*
X14807708Y-7745108D01*
X14927708Y-10909609D02*
X14967708Y-10949609D01*
X14967708Y-10909609D02*
X14927708Y-10949609D01*
X14929708Y-6670108D02*
X14969708Y-6710108D01*
X14969708Y-6670108D02*
X14929708Y-6710108D01*
X15057208Y-10990108D02*
X15097208Y-11030108D01*
X15097208Y-10990108D02*
X15057208Y-11030108D01*
X15184708Y-10882608D02*
X15224708Y-10922608D01*
X15224708Y-10882608D02*
X15184708Y-10922608D01*
X15232708Y-9807108D02*
X15272708Y-9847108D01*
X15272708Y-9807108D02*
X15232708Y-9847108D01*
X15302208Y-5745108D02*
X15342208Y-5785108D01*
X15342208Y-5745108D02*
X15302208Y-5785108D01*
X15307208Y-8917608D02*
X15347208Y-8957608D01*
X15347208Y-8917608D02*
X15307208Y-8957608D01*
X15448708Y-10756609D02*
X15488708Y-10796609D01*
X15488708Y-10756609D02*
X15448708Y-10796609D01*
X15552207Y-9162608D02*
X15592207Y-9202608D01*
X15592207Y-9162608D02*
X15552207Y-9202608D01*
X15552207Y-10042608D02*
X15592207Y-10082608D01*
X15592207Y-10042608D02*
X15552207Y-10082608D01*
X15587708Y-11381108D02*
X15627708Y-11421108D01*
X15627708Y-11381108D02*
X15587708Y-11421108D01*
X15720708Y-8780108D02*
X15760708Y-8820108D01*
X15760708Y-8780108D02*
X15720708Y-8820108D01*
X16254708Y-9420108D02*
X16294708Y-9460108D01*
X16294708Y-9420108D02*
X16254708Y-9460108D01*
X16259708Y-7065108D02*
X16299708Y-7105108D01*
X16299708Y-7065108D02*
X16259708Y-7105108D01*
X16262208Y-7867608D02*
X16302208Y-7907608D01*
X16302208Y-7867608D02*
X16262208Y-7907608D01*
X16267208Y-8657608D02*
X16307208Y-8697608D01*
X16307208Y-8657608D02*
X16267208Y-8697608D01*
X16269708Y-10669108D02*
X16309708Y-10709108D01*
X16309708Y-10669108D02*
X16269708Y-10709108D01*
X16584708Y-5630108D02*
X16624708Y-5670108D01*
X16624708Y-5630108D02*
X16584708Y-5670108D01*
X16834708Y-6697608D02*
X16874708Y-6737608D01*
X16874708Y-6697608D02*
X16834708Y-6737608D01*
X16839708Y-5515108D02*
X16879708Y-5555108D01*
X16879708Y-5515108D02*
X16839708Y-5555108D01*
X16844708Y-7862608D02*
X16884708Y-7902608D01*
X16884708Y-7862608D02*
X16844708Y-7902608D01*
X17092208Y-5515108D02*
X17132208Y-5555108D01*
X17132208Y-5515108D02*
X17092208Y-5555108D01*
X18532208Y-4950108D02*
X18572208Y-4990108D01*
X18572208Y-4950108D02*
X18532208Y-4990108D01*
X18542208Y-11107608D02*
X18582208Y-11147608D01*
X18582208Y-11107608D02*
X18542208Y-11147608D01*
X18642208Y-10955108D02*
X18682208Y-10995108D01*
X18682208Y-10955108D02*
X18642208Y-10995108D01*
X19382208Y-7732608D02*
X19422208Y-7772608D01*
X19422208Y-7732608D02*
X19382208Y-7772608D01*
X19637208Y-7867608D02*
X19677208Y-7907608D01*
X19677208Y-7867608D02*
X19637208Y-7907608D01*
X19639708Y-7607608D02*
X19679708Y-7647608D01*
X19679708Y-7607608D02*
X19639708Y-7647608D01*
X19654708Y-6820108D02*
X19694708Y-6860108D01*
X19694708Y-6820108D02*
X19654708Y-6860108D01*
X20904708Y-5760108D02*
X20944708Y-5800108D01*
X20944708Y-5760108D02*
X20904708Y-5800108D01*
X21154708Y-6820108D02*
X21194708Y-6860108D01*
X21194708Y-6820108D02*
X21154708Y-6860108D01*
X21404708Y-5260108D02*
X21444708Y-5300108D01*
X21444708Y-5260108D02*
X21404708Y-5300108D01*
X21407208Y-5630108D02*
X21447208Y-5670108D01*
X21447208Y-5630108D02*
X21407208Y-5670108D01*
X21409708Y-8417608D02*
X21449708Y-8457608D01*
X21449708Y-8417608D02*
X21409708Y-8457608D01*
X21412208Y-9407608D02*
X21452208Y-9447608D01*
X21452208Y-9407608D02*
X21412208Y-9447608D01*
X21654708Y-5630108D02*
X21694708Y-5670108D01*
X21694708Y-5630108D02*
X21654708Y-5670108D01*
X21894708Y-7860108D02*
X21934708Y-7900108D01*
X21934708Y-7860108D02*
X21894708Y-7900108D01*
X21894708Y-10860108D02*
X21934708Y-10900108D01*
X21934708Y-10860108D02*
X21894708Y-10900108D01*
X22175458Y-7866858D02*
X22215458Y-7906858D01*
X22215458Y-7866858D02*
X22175458Y-7906858D01*
X22179708Y-7612608D02*
X22219708Y-7652608D01*
X22219708Y-7612608D02*
X22179708Y-7652608D01*
X22436708Y-6754108D02*
X22476708Y-6794108D01*
X22476708Y-6754108D02*
X22436708Y-6794108D01*
X22556708Y-5633108D02*
X22596708Y-5673108D01*
X22596708Y-5633108D02*
X22556708Y-5673108D01*
X25361708Y-5642108D02*
X25401708Y-5682108D01*
X25401708Y-5642108D02*
X25361708Y-5682108D01*
X26760708Y-10912108D02*
X26800708Y-10952108D01*
X26800708Y-10912108D02*
X26760708Y-10952108D01*
X26964708Y-10910108D02*
X27004708Y-10950108D01*
X27004708Y-10910108D02*
X26964708Y-10950108D01*
X2453508Y-5264908D02*
G75*
G03*
X2453508Y-5264908I-40000J0D01*
G01*
X2453508Y-6026908D02*
G75*
G03*
X2453508Y-6026908I-40000J0D01*
G01*
X2707508Y-5264908D02*
G75*
G03*
X2707508Y-5264908I-40000J0D01*
G01*
X2707508Y-6026908D02*
G75*
G03*
X2707508Y-6026908I-40000J0D01*
G01*
X2961508Y-5264908D02*
G75*
G03*
X2961508Y-5264908I-40000J0D01*
G01*
X2961508Y-6026908D02*
G75*
G03*
X2961508Y-6026908I-40000J0D01*
G01*
X3126708Y-7372108D02*
G75*
G03*
X3126708Y-7372108I-40000J0D01*
G01*
X3126708Y-8134108D02*
G75*
G03*
X3126708Y-8134108I-40000J0D01*
G01*
X3215508Y-5264908D02*
G75*
G03*
X3215508Y-5264908I-40000J0D01*
G01*
X3215508Y-6026908D02*
G75*
G03*
X3215508Y-6026908I-40000J0D01*
G01*
X3380708Y-7372108D02*
G75*
G03*
X3380708Y-7372108I-40000J0D01*
G01*
X3380708Y-8134108D02*
G75*
G03*
X3380708Y-8134108I-40000J0D01*
G01*
X3382708Y-8413108D02*
G75*
G03*
X3382708Y-8413108I-40000J0D01*
G01*
X3382708Y-9175108D02*
G75*
G03*
X3382708Y-9175108I-40000J0D01*
G01*
X3383708Y-9454108D02*
G75*
G03*
X3383708Y-9454108I-40000J0D01*
G01*
X3383708Y-10216108D02*
G75*
G03*
X3383708Y-10216108I-40000J0D01*
G01*
X3384708Y-6331108D02*
G75*
G03*
X3384708Y-6331108I-40000J0D01*
G01*
X3384708Y-7093108D02*
G75*
G03*
X3384708Y-7093108I-40000J0D01*
G01*
X3469508Y-5264908D02*
G75*
G03*
X3469508Y-5264908I-40000J0D01*
G01*
X3469508Y-6026908D02*
G75*
G03*
X3469508Y-6026908I-40000J0D01*
G01*
X3634708Y-7372108D02*
G75*
G03*
X3634708Y-7372108I-40000J0D01*
G01*
X3634708Y-8134108D02*
G75*
G03*
X3634708Y-8134108I-40000J0D01*
G01*
X3636708Y-8413108D02*
G75*
G03*
X3636708Y-8413108I-40000J0D01*
G01*
X3636708Y-9175108D02*
G75*
G03*
X3636708Y-9175108I-40000J0D01*
G01*
X3637708Y-9454108D02*
G75*
G03*
X3637708Y-9454108I-40000J0D01*
G01*
X3637708Y-10216108D02*
G75*
G03*
X3637708Y-10216108I-40000J0D01*
G01*
X3638708Y-6331108D02*
G75*
G03*
X3638708Y-6331108I-40000J0D01*
G01*
X3638708Y-7093108D02*
G75*
G03*
X3638708Y-7093108I-40000J0D01*
G01*
X3723508Y-5264908D02*
G75*
G03*
X3723508Y-5264908I-40000J0D01*
G01*
X3723508Y-6026908D02*
G75*
G03*
X3723508Y-6026908I-40000J0D01*
G01*
X3888708Y-7372108D02*
G75*
G03*
X3888708Y-7372108I-40000J0D01*
G01*
X3888708Y-8134108D02*
G75*
G03*
X3888708Y-8134108I-40000J0D01*
G01*
X3890708Y-8413108D02*
G75*
G03*
X3890708Y-8413108I-40000J0D01*
G01*
X3890708Y-9175108D02*
G75*
G03*
X3890708Y-9175108I-40000J0D01*
G01*
X3891708Y-9454108D02*
G75*
G03*
X3891708Y-9454108I-40000J0D01*
G01*
X3891708Y-10216108D02*
G75*
G03*
X3891708Y-10216108I-40000J0D01*
G01*
X3892708Y-6331108D02*
G75*
G03*
X3892708Y-6331108I-40000J0D01*
G01*
X3892708Y-7093108D02*
G75*
G03*
X3892708Y-7093108I-40000J0D01*
G01*
X3977508Y-5264908D02*
G75*
G03*
X3977508Y-5264908I-40000J0D01*
G01*
X3977508Y-6026908D02*
G75*
G03*
X3977508Y-6026908I-40000J0D01*
G01*
X4142708Y-7372108D02*
G75*
G03*
X4142708Y-7372108I-40000J0D01*
G01*
X4142708Y-8134108D02*
G75*
G03*
X4142708Y-8134108I-40000J0D01*
G01*
X4144708Y-8413108D02*
G75*
G03*
X4144708Y-8413108I-40000J0D01*
G01*
X4144708Y-9175108D02*
G75*
G03*
X4144708Y-9175108I-40000J0D01*
G01*
X4145708Y-9454108D02*
G75*
G03*
X4145708Y-9454108I-40000J0D01*
G01*
X4145708Y-10216108D02*
G75*
G03*
X4145708Y-10216108I-40000J0D01*
G01*
X4146708Y-6331108D02*
G75*
G03*
X4146708Y-6331108I-40000J0D01*
G01*
X4146708Y-7093108D02*
G75*
G03*
X4146708Y-7093108I-40000J0D01*
G01*
X4396708Y-7372108D02*
G75*
G03*
X4396708Y-7372108I-40000J0D01*
G01*
X4396708Y-8134108D02*
G75*
G03*
X4396708Y-8134108I-40000J0D01*
G01*
X4398708Y-8413108D02*
G75*
G03*
X4398708Y-8413108I-40000J0D01*
G01*
X4398708Y-9175108D02*
G75*
G03*
X4398708Y-9175108I-40000J0D01*
G01*
X4399708Y-9454108D02*
G75*
G03*
X4399708Y-9454108I-40000J0D01*
G01*
X4399708Y-10216108D02*
G75*
G03*
X4399708Y-10216108I-40000J0D01*
G01*
X4400708Y-6331108D02*
G75*
G03*
X4400708Y-6331108I-40000J0D01*
G01*
X4400708Y-7093108D02*
G75*
G03*
X4400708Y-7093108I-40000J0D01*
G01*
X4434708Y-5026908D02*
G75*
G03*
X4434708Y-5026908I-40000J0D01*
G01*
X4434708Y-6026908D02*
G75*
G03*
X4434708Y-6026908I-40000J0D01*
G01*
X4650708Y-7372108D02*
G75*
G03*
X4650708Y-7372108I-40000J0D01*
G01*
X4650708Y-8134108D02*
G75*
G03*
X4650708Y-8134108I-40000J0D01*
G01*
X4652708Y-8413108D02*
G75*
G03*
X4652708Y-8413108I-40000J0D01*
G01*
X4652708Y-9175108D02*
G75*
G03*
X4652708Y-9175108I-40000J0D01*
G01*
X4653708Y-9454108D02*
G75*
G03*
X4653708Y-9454108I-40000J0D01*
G01*
X4653708Y-10216108D02*
G75*
G03*
X4653708Y-10216108I-40000J0D01*
G01*
X4654708Y-6331108D02*
G75*
G03*
X4654708Y-6331108I-40000J0D01*
G01*
X4654708Y-7093108D02*
G75*
G03*
X4654708Y-7093108I-40000J0D01*
G01*
X4891908Y-5264908D02*
G75*
G03*
X4891908Y-5264908I-40000J0D01*
G01*
X4891908Y-6026908D02*
G75*
G03*
X4891908Y-6026908I-40000J0D01*
G01*
X4904708Y-7372108D02*
G75*
G03*
X4904708Y-7372108I-40000J0D01*
G01*
X4904708Y-8134108D02*
G75*
G03*
X4904708Y-8134108I-40000J0D01*
G01*
X4906708Y-8413108D02*
G75*
G03*
X4906708Y-8413108I-40000J0D01*
G01*
X4906708Y-9175108D02*
G75*
G03*
X4906708Y-9175108I-40000J0D01*
G01*
X4907708Y-9454108D02*
G75*
G03*
X4907708Y-9454108I-40000J0D01*
G01*
X4907708Y-10216108D02*
G75*
G03*
X4907708Y-10216108I-40000J0D01*
G01*
X4908708Y-6331108D02*
G75*
G03*
X4908708Y-6331108I-40000J0D01*
G01*
X4908708Y-7093108D02*
G75*
G03*
X4908708Y-7093108I-40000J0D01*
G01*
X5145908Y-5264908D02*
G75*
G03*
X5145908Y-5264908I-40000J0D01*
G01*
X5145908Y-6026908D02*
G75*
G03*
X5145908Y-6026908I-40000J0D01*
G01*
X5399908Y-5264908D02*
G75*
G03*
X5399908Y-5264908I-40000J0D01*
G01*
X5399908Y-6026908D02*
G75*
G03*
X5399908Y-6026908I-40000J0D01*
G01*
X5399908Y-6331708D02*
G75*
G03*
X5399908Y-6331708I-40000J0D01*
G01*
X5399908Y-7093708D02*
G75*
G03*
X5399908Y-7093708I-40000J0D01*
G01*
X5399908Y-7414508D02*
G75*
G03*
X5399908Y-7414508I-40000J0D01*
G01*
X5399908Y-8414508D02*
G75*
G03*
X5399908Y-8414508I-40000J0D01*
G01*
X5399908Y-9217908D02*
G75*
G03*
X5399908Y-9217908I-40000J0D01*
G01*
X5399908Y-10217908D02*
G75*
G03*
X5399908Y-10217908I-40000J0D01*
G01*
X5653908Y-5264908D02*
G75*
G03*
X5653908Y-5264908I-40000J0D01*
G01*
X5653908Y-6026908D02*
G75*
G03*
X5653908Y-6026908I-40000J0D01*
G01*
X5653908Y-6331708D02*
G75*
G03*
X5653908Y-6331708I-40000J0D01*
G01*
X5653908Y-7093708D02*
G75*
G03*
X5653908Y-7093708I-40000J0D01*
G01*
X5907908Y-5264908D02*
G75*
G03*
X5907908Y-5264908I-40000J0D01*
G01*
X5907908Y-6026908D02*
G75*
G03*
X5907908Y-6026908I-40000J0D01*
G01*
X5907908Y-6331708D02*
G75*
G03*
X5907908Y-6331708I-40000J0D01*
G01*
X5907908Y-7093708D02*
G75*
G03*
X5907908Y-7093708I-40000J0D01*
G01*
X5907908Y-7373108D02*
G75*
G03*
X5907908Y-7373108I-40000J0D01*
G01*
X5907908Y-8135108D02*
G75*
G03*
X5907908Y-8135108I-40000J0D01*
G01*
X5907908Y-8414508D02*
G75*
G03*
X5907908Y-8414508I-40000J0D01*
G01*
X5907908Y-9176508D02*
G75*
G03*
X5907908Y-9176508I-40000J0D01*
G01*
X5907908Y-9455908D02*
G75*
G03*
X5907908Y-9455908I-40000J0D01*
G01*
X5907908Y-10217908D02*
G75*
G03*
X5907908Y-10217908I-40000J0D01*
G01*
X6161908Y-5264908D02*
G75*
G03*
X6161908Y-5264908I-40000J0D01*
G01*
X6161908Y-6026908D02*
G75*
G03*
X6161908Y-6026908I-40000J0D01*
G01*
X6161908Y-6331708D02*
G75*
G03*
X6161908Y-6331708I-40000J0D01*
G01*
X6161908Y-7093708D02*
G75*
G03*
X6161908Y-7093708I-40000J0D01*
G01*
X6161908Y-7373108D02*
G75*
G03*
X6161908Y-7373108I-40000J0D01*
G01*
X6161908Y-8135108D02*
G75*
G03*
X6161908Y-8135108I-40000J0D01*
G01*
X6161908Y-8414508D02*
G75*
G03*
X6161908Y-8414508I-40000J0D01*
G01*
X6161908Y-9176508D02*
G75*
G03*
X6161908Y-9176508I-40000J0D01*
G01*
X6161908Y-9455908D02*
G75*
G03*
X6161908Y-9455908I-40000J0D01*
G01*
X6161908Y-10217908D02*
G75*
G03*
X6161908Y-10217908I-40000J0D01*
G01*
X6415908Y-5264908D02*
G75*
G03*
X6415908Y-5264908I-40000J0D01*
G01*
X6415908Y-6026908D02*
G75*
G03*
X6415908Y-6026908I-40000J0D01*
G01*
X6415908Y-6331708D02*
G75*
G03*
X6415908Y-6331708I-40000J0D01*
G01*
X6415908Y-7093708D02*
G75*
G03*
X6415908Y-7093708I-40000J0D01*
G01*
X6415908Y-7373108D02*
G75*
G03*
X6415908Y-7373108I-40000J0D01*
G01*
X6415908Y-8135108D02*
G75*
G03*
X6415908Y-8135108I-40000J0D01*
G01*
X6415908Y-8414508D02*
G75*
G03*
X6415908Y-8414508I-40000J0D01*
G01*
X6415908Y-9176508D02*
G75*
G03*
X6415908Y-9176508I-40000J0D01*
G01*
X6415908Y-9455908D02*
G75*
G03*
X6415908Y-9455908I-40000J0D01*
G01*
X6415908Y-10217908D02*
G75*
G03*
X6415908Y-10217908I-40000J0D01*
G01*
X6669908Y-5264908D02*
G75*
G03*
X6669908Y-5264908I-40000J0D01*
G01*
X6669908Y-6026908D02*
G75*
G03*
X6669908Y-6026908I-40000J0D01*
G01*
X6669908Y-6331708D02*
G75*
G03*
X6669908Y-6331708I-40000J0D01*
G01*
X6669908Y-7093708D02*
G75*
G03*
X6669908Y-7093708I-40000J0D01*
G01*
X6669908Y-7373108D02*
G75*
G03*
X6669908Y-7373108I-40000J0D01*
G01*
X6669908Y-8135108D02*
G75*
G03*
X6669908Y-8135108I-40000J0D01*
G01*
X6669908Y-8414508D02*
G75*
G03*
X6669908Y-8414508I-40000J0D01*
G01*
X6669908Y-9176508D02*
G75*
G03*
X6669908Y-9176508I-40000J0D01*
G01*
X6669908Y-9455908D02*
G75*
G03*
X6669908Y-9455908I-40000J0D01*
G01*
X6669908Y-10217908D02*
G75*
G03*
X6669908Y-10217908I-40000J0D01*
G01*
X6923908Y-5264908D02*
G75*
G03*
X6923908Y-5264908I-40000J0D01*
G01*
X6923908Y-6026908D02*
G75*
G03*
X6923908Y-6026908I-40000J0D01*
G01*
X6923908Y-6331708D02*
G75*
G03*
X6923908Y-6331708I-40000J0D01*
G01*
X6923908Y-7093708D02*
G75*
G03*
X6923908Y-7093708I-40000J0D01*
G01*
X6923908Y-7373108D02*
G75*
G03*
X6923908Y-7373108I-40000J0D01*
G01*
X6923908Y-8135108D02*
G75*
G03*
X6923908Y-8135108I-40000J0D01*
G01*
X6923908Y-8414508D02*
G75*
G03*
X6923908Y-8414508I-40000J0D01*
G01*
X6923908Y-9176508D02*
G75*
G03*
X6923908Y-9176508I-40000J0D01*
G01*
X6923908Y-9455908D02*
G75*
G03*
X6923908Y-9455908I-40000J0D01*
G01*
X6923908Y-10217908D02*
G75*
G03*
X6923908Y-10217908I-40000J0D01*
G01*
X7177908Y-5264908D02*
G75*
G03*
X7177908Y-5264908I-40000J0D01*
G01*
X7177908Y-6026908D02*
G75*
G03*
X7177908Y-6026908I-40000J0D01*
G01*
X7177908Y-7373108D02*
G75*
G03*
X7177908Y-7373108I-40000J0D01*
G01*
X7177908Y-8135108D02*
G75*
G03*
X7177908Y-8135108I-40000J0D01*
G01*
X7177908Y-8414508D02*
G75*
G03*
X7177908Y-8414508I-40000J0D01*
G01*
X7177908Y-9176508D02*
G75*
G03*
X7177908Y-9176508I-40000J0D01*
G01*
X7177908Y-9455908D02*
G75*
G03*
X7177908Y-9455908I-40000J0D01*
G01*
X7177908Y-10217908D02*
G75*
G03*
X7177908Y-10217908I-40000J0D01*
G01*
X7386708Y-6354108D02*
G75*
G03*
X7386708Y-6354108I-40000J0D01*
G01*
X7386708Y-7116108D02*
G75*
G03*
X7386708Y-7116108I-40000J0D01*
G01*
X7431908Y-5264908D02*
G75*
G03*
X7431908Y-5264908I-40000J0D01*
G01*
X7431908Y-6026908D02*
G75*
G03*
X7431908Y-6026908I-40000J0D01*
G01*
X7431908Y-7373108D02*
G75*
G03*
X7431908Y-7373108I-40000J0D01*
G01*
X7431908Y-8135108D02*
G75*
G03*
X7431908Y-8135108I-40000J0D01*
G01*
X7431908Y-8414508D02*
G75*
G03*
X7431908Y-8414508I-40000J0D01*
G01*
X7431908Y-9176508D02*
G75*
G03*
X7431908Y-9176508I-40000J0D01*
G01*
X7431908Y-9455908D02*
G75*
G03*
X7431908Y-9455908I-40000J0D01*
G01*
X7431908Y-10217908D02*
G75*
G03*
X7431908Y-10217908I-40000J0D01*
G01*
X7640708Y-6354108D02*
G75*
G03*
X7640708Y-6354108I-40000J0D01*
G01*
X7640708Y-7116108D02*
G75*
G03*
X7640708Y-7116108I-40000J0D01*
G01*
X7685908Y-5264908D02*
G75*
G03*
X7685908Y-5264908I-40000J0D01*
G01*
X7685908Y-6026908D02*
G75*
G03*
X7685908Y-6026908I-40000J0D01*
G01*
X7685908Y-7373108D02*
G75*
G03*
X7685908Y-7373108I-40000J0D01*
G01*
X7685908Y-8135108D02*
G75*
G03*
X7685908Y-8135108I-40000J0D01*
G01*
X7842708Y-9213108D02*
G75*
G03*
X7842708Y-9213108I-40000J0D01*
G01*
X7842708Y-10213108D02*
G75*
G03*
X7842708Y-10213108I-40000J0D01*
G01*
X7894708Y-6354108D02*
G75*
G03*
X7894708Y-6354108I-40000J0D01*
G01*
X7894708Y-7116108D02*
G75*
G03*
X7894708Y-7116108I-40000J0D01*
G01*
X8148708Y-6354108D02*
G75*
G03*
X8148708Y-6354108I-40000J0D01*
G01*
X8148708Y-7116108D02*
G75*
G03*
X8148708Y-7116108I-40000J0D01*
G01*
X8168508Y-7516108D02*
G75*
G03*
X8168508Y-7516108I-40000J0D01*
G01*
X8168508Y-8516108D02*
G75*
G03*
X8168508Y-8516108I-40000J0D01*
G01*
X8171708Y-9202108D02*
G75*
G03*
X8171708Y-9202108I-40000J0D01*
G01*
X8171708Y-10218108D02*
G75*
G03*
X8171708Y-10218108I-40000J0D01*
G01*
X8397108Y-5264908D02*
G75*
G03*
X8397108Y-5264908I-40000J0D01*
G01*
X8397108Y-6026908D02*
G75*
G03*
X8397108Y-6026908I-40000J0D01*
G01*
X8651108Y-5264908D02*
G75*
G03*
X8651108Y-5264908I-40000J0D01*
G01*
X8651108Y-6026908D02*
G75*
G03*
X8651108Y-6026908I-40000J0D01*
G01*
X8651108Y-6331708D02*
G75*
G03*
X8651108Y-6331708I-40000J0D01*
G01*
X8651108Y-7093708D02*
G75*
G03*
X8651108Y-7093708I-40000J0D01*
G01*
X8651108Y-7373108D02*
G75*
G03*
X8651108Y-7373108I-40000J0D01*
G01*
X8651108Y-8135108D02*
G75*
G03*
X8651108Y-8135108I-40000J0D01*
G01*
X8651108Y-8414508D02*
G75*
G03*
X8651108Y-8414508I-40000J0D01*
G01*
X8651108Y-9176508D02*
G75*
G03*
X8651108Y-9176508I-40000J0D01*
G01*
X8651108Y-9455908D02*
G75*
G03*
X8651108Y-9455908I-40000J0D01*
G01*
X8651108Y-10217908D02*
G75*
G03*
X8651108Y-10217908I-40000J0D01*
G01*
X8905108Y-5264908D02*
G75*
G03*
X8905108Y-5264908I-40000J0D01*
G01*
X8905108Y-6026908D02*
G75*
G03*
X8905108Y-6026908I-40000J0D01*
G01*
X8905108Y-6331708D02*
G75*
G03*
X8905108Y-6331708I-40000J0D01*
G01*
X8905108Y-7093708D02*
G75*
G03*
X8905108Y-7093708I-40000J0D01*
G01*
X8905108Y-7373108D02*
G75*
G03*
X8905108Y-7373108I-40000J0D01*
G01*
X8905108Y-8135108D02*
G75*
G03*
X8905108Y-8135108I-40000J0D01*
G01*
X8905108Y-8414508D02*
G75*
G03*
X8905108Y-8414508I-40000J0D01*
G01*
X8905108Y-9176508D02*
G75*
G03*
X8905108Y-9176508I-40000J0D01*
G01*
X8905108Y-9455908D02*
G75*
G03*
X8905108Y-9455908I-40000J0D01*
G01*
X8905108Y-10217908D02*
G75*
G03*
X8905108Y-10217908I-40000J0D01*
G01*
X9159108Y-5264908D02*
G75*
G03*
X9159108Y-5264908I-40000J0D01*
G01*
X9159108Y-6026908D02*
G75*
G03*
X9159108Y-6026908I-40000J0D01*
G01*
X9159108Y-6331708D02*
G75*
G03*
X9159108Y-6331708I-40000J0D01*
G01*
X9159108Y-7093708D02*
G75*
G03*
X9159108Y-7093708I-40000J0D01*
G01*
X9159108Y-7373108D02*
G75*
G03*
X9159108Y-7373108I-40000J0D01*
G01*
X9159108Y-8135108D02*
G75*
G03*
X9159108Y-8135108I-40000J0D01*
G01*
X9159108Y-8414508D02*
G75*
G03*
X9159108Y-8414508I-40000J0D01*
G01*
X9159108Y-9176508D02*
G75*
G03*
X9159108Y-9176508I-40000J0D01*
G01*
X9159108Y-9455908D02*
G75*
G03*
X9159108Y-9455908I-40000J0D01*
G01*
X9159108Y-10217908D02*
G75*
G03*
X9159108Y-10217908I-40000J0D01*
G01*
X9413108Y-5264908D02*
G75*
G03*
X9413108Y-5264908I-40000J0D01*
G01*
X9413108Y-6026908D02*
G75*
G03*
X9413108Y-6026908I-40000J0D01*
G01*
X9413108Y-6331708D02*
G75*
G03*
X9413108Y-6331708I-40000J0D01*
G01*
X9413108Y-7093708D02*
G75*
G03*
X9413108Y-7093708I-40000J0D01*
G01*
X9413108Y-7373108D02*
G75*
G03*
X9413108Y-7373108I-40000J0D01*
G01*
X9413108Y-8135108D02*
G75*
G03*
X9413108Y-8135108I-40000J0D01*
G01*
X9413108Y-8414508D02*
G75*
G03*
X9413108Y-8414508I-40000J0D01*
G01*
X9413108Y-9176508D02*
G75*
G03*
X9413108Y-9176508I-40000J0D01*
G01*
X9413108Y-9455908D02*
G75*
G03*
X9413108Y-9455908I-40000J0D01*
G01*
X9413108Y-10217908D02*
G75*
G03*
X9413108Y-10217908I-40000J0D01*
G01*
X9667108Y-5264908D02*
G75*
G03*
X9667108Y-5264908I-40000J0D01*
G01*
X9667108Y-6026908D02*
G75*
G03*
X9667108Y-6026908I-40000J0D01*
G01*
X9667108Y-6331708D02*
G75*
G03*
X9667108Y-6331708I-40000J0D01*
G01*
X9667108Y-7093708D02*
G75*
G03*
X9667108Y-7093708I-40000J0D01*
G01*
X9667108Y-7373108D02*
G75*
G03*
X9667108Y-7373108I-40000J0D01*
G01*
X9667108Y-8135108D02*
G75*
G03*
X9667108Y-8135108I-40000J0D01*
G01*
X9667108Y-8414508D02*
G75*
G03*
X9667108Y-8414508I-40000J0D01*
G01*
X9667108Y-9176508D02*
G75*
G03*
X9667108Y-9176508I-40000J0D01*
G01*
X9667108Y-9455908D02*
G75*
G03*
X9667108Y-9455908I-40000J0D01*
G01*
X9667108Y-10217908D02*
G75*
G03*
X9667108Y-10217908I-40000J0D01*
G01*
X9921108Y-5264908D02*
G75*
G03*
X9921108Y-5264908I-40000J0D01*
G01*
X9921108Y-6026908D02*
G75*
G03*
X9921108Y-6026908I-40000J0D01*
G01*
X9921108Y-6331708D02*
G75*
G03*
X9921108Y-6331708I-40000J0D01*
G01*
X9921108Y-7093708D02*
G75*
G03*
X9921108Y-7093708I-40000J0D01*
G01*
X9921108Y-7373108D02*
G75*
G03*
X9921108Y-7373108I-40000J0D01*
G01*
X9921108Y-8135108D02*
G75*
G03*
X9921108Y-8135108I-40000J0D01*
G01*
X9921108Y-8414508D02*
G75*
G03*
X9921108Y-8414508I-40000J0D01*
G01*
X9921108Y-9176508D02*
G75*
G03*
X9921108Y-9176508I-40000J0D01*
G01*
X9921108Y-9455908D02*
G75*
G03*
X9921108Y-9455908I-40000J0D01*
G01*
X9921108Y-10217908D02*
G75*
G03*
X9921108Y-10217908I-40000J0D01*
G01*
X10175108Y-6331708D02*
G75*
G03*
X10175108Y-6331708I-40000J0D01*
G01*
X10175108Y-7093708D02*
G75*
G03*
X10175108Y-7093708I-40000J0D01*
G01*
X10175108Y-7373108D02*
G75*
G03*
X10175108Y-7373108I-40000J0D01*
G01*
X10175108Y-8135108D02*
G75*
G03*
X10175108Y-8135108I-40000J0D01*
G01*
X10175108Y-8414508D02*
G75*
G03*
X10175108Y-8414508I-40000J0D01*
G01*
X10175108Y-9176508D02*
G75*
G03*
X10175108Y-9176508I-40000J0D01*
G01*
X10175108Y-9455908D02*
G75*
G03*
X10175108Y-9455908I-40000J0D01*
G01*
X10175108Y-10217908D02*
G75*
G03*
X10175108Y-10217908I-40000J0D01*
G01*
X10429108Y-9455908D02*
G75*
G03*
X10429108Y-9455908I-40000J0D01*
G01*
X10429108Y-10217908D02*
G75*
G03*
X10429108Y-10217908I-40000J0D01*
G01*
X10454508Y-5284108D02*
G75*
G03*
X10454508Y-5284108I-40000J0D01*
G01*
X10457208Y-5692608D02*
G75*
G03*
X10457208Y-5692608I-40000J0D01*
G01*
X10459708Y-6080108D02*
G75*
G03*
X10459708Y-6080108I-40000J0D01*
G01*
X10683108Y-9455908D02*
G75*
G03*
X10683108Y-9455908I-40000J0D01*
G01*
X10683108Y-10217908D02*
G75*
G03*
X10683108Y-10217908I-40000J0D01*
G01*
X10705708Y-9049108D02*
G75*
G03*
X10705708Y-9049108I-40000J0D01*
G01*
X10708508Y-5284108D02*
G75*
G03*
X10708508Y-5284108I-40000J0D01*
G01*
X10708508Y-6433308D02*
G75*
G03*
X10708508Y-6433308I-40000J0D01*
G01*
X10708508Y-7449308D02*
G75*
G03*
X10708508Y-7449308I-40000J0D01*
G01*
X10708508Y-7703308D02*
G75*
G03*
X10708508Y-7703308I-40000J0D01*
G01*
X10708508Y-8719308D02*
G75*
G03*
X10708508Y-8719308I-40000J0D01*
G01*
X10711208Y-5692608D02*
G75*
G03*
X10711208Y-5692608I-40000J0D01*
G01*
X10713708Y-6080108D02*
G75*
G03*
X10713708Y-6080108I-40000J0D01*
G01*
X10937108Y-9455908D02*
G75*
G03*
X10937108Y-9455908I-40000J0D01*
G01*
X10937108Y-10217908D02*
G75*
G03*
X10937108Y-10217908I-40000J0D01*
G01*
X10959708Y-9049108D02*
G75*
G03*
X10959708Y-9049108I-40000J0D01*
G01*
X10961708Y-7704108D02*
G75*
G03*
X10961708Y-7704108I-40000J0D01*
G01*
X10961708Y-8720108D02*
G75*
G03*
X10961708Y-8720108I-40000J0D01*
G01*
X10962508Y-5284108D02*
G75*
G03*
X10962508Y-5284108I-40000J0D01*
G01*
X10962508Y-6433308D02*
G75*
G03*
X10962508Y-6433308I-40000J0D01*
G01*
X10962508Y-7449308D02*
G75*
G03*
X10962508Y-7449308I-40000J0D01*
G01*
X10965208Y-5692608D02*
G75*
G03*
X10965208Y-5692608I-40000J0D01*
G01*
X10967708Y-6080108D02*
G75*
G03*
X10967708Y-6080108I-40000J0D01*
G01*
X11203708Y-7702108D02*
G75*
G03*
X11203708Y-7702108I-40000J0D01*
G01*
X11203708Y-8718108D02*
G75*
G03*
X11203708Y-8718108I-40000J0D01*
G01*
X11213708Y-9049108D02*
G75*
G03*
X11213708Y-9049108I-40000J0D01*
G01*
X11216508Y-5284108D02*
G75*
G03*
X11216508Y-5284108I-40000J0D01*
G01*
X11216508Y-6433308D02*
G75*
G03*
X11216508Y-6433308I-40000J0D01*
G01*
X11216508Y-7449308D02*
G75*
G03*
X11216508Y-7449308I-40000J0D01*
G01*
X11219208Y-5692608D02*
G75*
G03*
X11219208Y-5692608I-40000J0D01*
G01*
X11221708Y-6080108D02*
G75*
G03*
X11221708Y-6080108I-40000J0D01*
G01*
X11438708Y-10496108D02*
G75*
G03*
X11438708Y-10496108I-40000J0D01*
G01*
X11438708Y-11496108D02*
G75*
G03*
X11438708Y-11496108I-40000J0D01*
G01*
X11464708Y-7702108D02*
G75*
G03*
X11464708Y-7702108I-40000J0D01*
G01*
X11464708Y-8718108D02*
G75*
G03*
X11464708Y-8718108I-40000J0D01*
G01*
X11467708Y-9049108D02*
G75*
G03*
X11467708Y-9049108I-40000J0D01*
G01*
X11470508Y-5284108D02*
G75*
G03*
X11470508Y-5284108I-40000J0D01*
G01*
X11470508Y-6433308D02*
G75*
G03*
X11470508Y-6433308I-40000J0D01*
G01*
X11470508Y-7449308D02*
G75*
G03*
X11470508Y-7449308I-40000J0D01*
G01*
X11473208Y-5692608D02*
G75*
G03*
X11473208Y-5692608I-40000J0D01*
G01*
X11475708Y-6080108D02*
G75*
G03*
X11475708Y-6080108I-40000J0D01*
G01*
X11721708Y-7701108D02*
G75*
G03*
X11721708Y-7701108I-40000J0D01*
G01*
X11721708Y-8717108D02*
G75*
G03*
X11721708Y-8717108I-40000J0D01*
G01*
X11721708Y-9049108D02*
G75*
G03*
X11721708Y-9049108I-40000J0D01*
G01*
X11724508Y-5284108D02*
G75*
G03*
X11724508Y-5284108I-40000J0D01*
G01*
X11724508Y-6433308D02*
G75*
G03*
X11724508Y-6433308I-40000J0D01*
G01*
X11724508Y-7449308D02*
G75*
G03*
X11724508Y-7449308I-40000J0D01*
G01*
X11727208Y-5692608D02*
G75*
G03*
X11727208Y-5692608I-40000J0D01*
G01*
X11729708Y-6080108D02*
G75*
G03*
X11729708Y-6080108I-40000J0D01*
G01*
X11968708Y-7706108D02*
G75*
G03*
X11968708Y-7706108I-40000J0D01*
G01*
X11968708Y-8722108D02*
G75*
G03*
X11968708Y-8722108I-40000J0D01*
G01*
X11975708Y-9049108D02*
G75*
G03*
X11975708Y-9049108I-40000J0D01*
G01*
X11977708Y-9477108D02*
G75*
G03*
X11977708Y-9477108I-40000J0D01*
G01*
X11977708Y-11477108D02*
G75*
G03*
X11977708Y-11477108I-40000J0D01*
G01*
X11978508Y-5284108D02*
G75*
G03*
X11978508Y-5284108I-40000J0D01*
G01*
X11978508Y-6433308D02*
G75*
G03*
X11978508Y-6433308I-40000J0D01*
G01*
X11978508Y-7449308D02*
G75*
G03*
X11978508Y-7449308I-40000J0D01*
G01*
X11981208Y-5692608D02*
G75*
G03*
X11981208Y-5692608I-40000J0D01*
G01*
X11983708Y-6080108D02*
G75*
G03*
X11983708Y-6080108I-40000J0D01*
G01*
X12228708Y-7704108D02*
G75*
G03*
X12228708Y-7704108I-40000J0D01*
G01*
X12228708Y-8720108D02*
G75*
G03*
X12228708Y-8720108I-40000J0D01*
G01*
X12229708Y-9049108D02*
G75*
G03*
X12229708Y-9049108I-40000J0D01*
G01*
X12232508Y-5284108D02*
G75*
G03*
X12232508Y-5284108I-40000J0D01*
G01*
X12232508Y-6433308D02*
G75*
G03*
X12232508Y-6433308I-40000J0D01*
G01*
X12232508Y-7449308D02*
G75*
G03*
X12232508Y-7449308I-40000J0D01*
G01*
X12235208Y-5692608D02*
G75*
G03*
X12235208Y-5692608I-40000J0D01*
G01*
X12237708Y-6080108D02*
G75*
G03*
X12237708Y-6080108I-40000J0D01*
G01*
X12483708Y-7702108D02*
G75*
G03*
X12483708Y-7702108I-40000J0D01*
G01*
X12483708Y-8718108D02*
G75*
G03*
X12483708Y-8718108I-40000J0D01*
G01*
X12483708Y-9049108D02*
G75*
G03*
X12483708Y-9049108I-40000J0D01*
G01*
X12486508Y-5284108D02*
G75*
G03*
X12486508Y-5284108I-40000J0D01*
G01*
X12486708Y-6433108D02*
G75*
G03*
X12486708Y-6433108I-40000J0D01*
G01*
X12486708Y-7449108D02*
G75*
G03*
X12486708Y-7449108I-40000J0D01*
G01*
X12489208Y-5692608D02*
G75*
G03*
X12489208Y-5692608I-40000J0D01*
G01*
X12491708Y-6080108D02*
G75*
G03*
X12491708Y-6080108I-40000J0D01*
G01*
X12737708Y-9049108D02*
G75*
G03*
X12737708Y-9049108I-40000J0D01*
G01*
X12740508Y-5284108D02*
G75*
G03*
X12740508Y-5284108I-40000J0D01*
G01*
X12740508Y-6433308D02*
G75*
G03*
X12740508Y-6433308I-40000J0D01*
G01*
X12740508Y-7449308D02*
G75*
G03*
X12740508Y-7449308I-40000J0D01*
G01*
X12740708Y-7703108D02*
G75*
G03*
X12740708Y-7703108I-40000J0D01*
G01*
X12740708Y-8719108D02*
G75*
G03*
X12740708Y-8719108I-40000J0D01*
G01*
X12743208Y-5692608D02*
G75*
G03*
X12743208Y-5692608I-40000J0D01*
G01*
X12745708Y-6080108D02*
G75*
G03*
X12745708Y-6080108I-40000J0D01*
G01*
X12991708Y-9049108D02*
G75*
G03*
X12991708Y-9049108I-40000J0D01*
G01*
X12994508Y-6699308D02*
G75*
G03*
X12994508Y-6699308I-40000J0D01*
G01*
X12994508Y-7449308D02*
G75*
G03*
X12994508Y-7449308I-40000J0D01*
G01*
X12994508Y-7969308D02*
G75*
G03*
X12994508Y-7969308I-40000J0D01*
G01*
X12994508Y-8719308D02*
G75*
G03*
X12994508Y-8719308I-40000J0D01*
G01*
X13023708Y-10497108D02*
G75*
G03*
X13023708Y-10497108I-40000J0D01*
G01*
X13023708Y-11497108D02*
G75*
G03*
X13023708Y-11497108I-40000J0D01*
G01*
X13084708Y-9472108D02*
G75*
G03*
X13084708Y-9472108I-40000J0D01*
G01*
X13084708Y-10234108D02*
G75*
G03*
X13084708Y-10234108I-40000J0D01*
G01*
X13317708Y-5284108D02*
G75*
G03*
X13317708Y-5284108I-40000J0D01*
G01*
X13317708Y-6034108D02*
G75*
G03*
X13317708Y-6034108I-40000J0D01*
G01*
X13338708Y-9472108D02*
G75*
G03*
X13338708Y-9472108I-40000J0D01*
G01*
X13338708Y-10234108D02*
G75*
G03*
X13338708Y-10234108I-40000J0D01*
G01*
X13592708Y-6321040D02*
G75*
G03*
X13592708Y-6321040I-40000J0D01*
G01*
X13592708Y-7083040D02*
G75*
G03*
X13592708Y-7083040I-40000J0D01*
G01*
X13592708Y-7372108D02*
G75*
G03*
X13592708Y-7372108I-40000J0D01*
G01*
X13592708Y-8134108D02*
G75*
G03*
X13592708Y-8134108I-40000J0D01*
G01*
X13592708Y-9472108D02*
G75*
G03*
X13592708Y-9472108I-40000J0D01*
G01*
X13592708Y-10234108D02*
G75*
G03*
X13592708Y-10234108I-40000J0D01*
G01*
X13592708Y-10522108D02*
G75*
G03*
X13592708Y-10522108I-40000J0D01*
G01*
X13592708Y-11284108D02*
G75*
G03*
X13592708Y-11284108I-40000J0D01*
G01*
X13842708Y-5272108D02*
G75*
G03*
X13842708Y-5272108I-40000J0D01*
G01*
X13842708Y-6034108D02*
G75*
G03*
X13842708Y-6034108I-40000J0D01*
G01*
X13842708Y-8422108D02*
G75*
G03*
X13842708Y-8422108I-40000J0D01*
G01*
X13842708Y-9184108D02*
G75*
G03*
X13842708Y-9184108I-40000J0D01*
G01*
X13846708Y-6321040D02*
G75*
G03*
X13846708Y-6321040I-40000J0D01*
G01*
X13846708Y-7083040D02*
G75*
G03*
X13846708Y-7083040I-40000J0D01*
G01*
X13846708Y-7372108D02*
G75*
G03*
X13846708Y-7372108I-40000J0D01*
G01*
X13846708Y-8134108D02*
G75*
G03*
X13846708Y-8134108I-40000J0D01*
G01*
X13846708Y-9472108D02*
G75*
G03*
X13846708Y-9472108I-40000J0D01*
G01*
X13846708Y-10234108D02*
G75*
G03*
X13846708Y-10234108I-40000J0D01*
G01*
X13846708Y-10522108D02*
G75*
G03*
X13846708Y-10522108I-40000J0D01*
G01*
X13846708Y-11284108D02*
G75*
G03*
X13846708Y-11284108I-40000J0D01*
G01*
X14096708Y-5272108D02*
G75*
G03*
X14096708Y-5272108I-40000J0D01*
G01*
X14096708Y-6034108D02*
G75*
G03*
X14096708Y-6034108I-40000J0D01*
G01*
X14096708Y-8422108D02*
G75*
G03*
X14096708Y-8422108I-40000J0D01*
G01*
X14096708Y-9184108D02*
G75*
G03*
X14096708Y-9184108I-40000J0D01*
G01*
X14100708Y-6321040D02*
G75*
G03*
X14100708Y-6321040I-40000J0D01*
G01*
X14100708Y-7083040D02*
G75*
G03*
X14100708Y-7083040I-40000J0D01*
G01*
X14100708Y-7372108D02*
G75*
G03*
X14100708Y-7372108I-40000J0D01*
G01*
X14100708Y-8134108D02*
G75*
G03*
X14100708Y-8134108I-40000J0D01*
G01*
X14100708Y-9472108D02*
G75*
G03*
X14100708Y-9472108I-40000J0D01*
G01*
X14100708Y-10234108D02*
G75*
G03*
X14100708Y-10234108I-40000J0D01*
G01*
X14100708Y-10522108D02*
G75*
G03*
X14100708Y-10522108I-40000J0D01*
G01*
X14100708Y-11284108D02*
G75*
G03*
X14100708Y-11284108I-40000J0D01*
G01*
X14350708Y-5272108D02*
G75*
G03*
X14350708Y-5272108I-40000J0D01*
G01*
X14350708Y-6034108D02*
G75*
G03*
X14350708Y-6034108I-40000J0D01*
G01*
X14350708Y-8422108D02*
G75*
G03*
X14350708Y-8422108I-40000J0D01*
G01*
X14350708Y-9184108D02*
G75*
G03*
X14350708Y-9184108I-40000J0D01*
G01*
X14354708Y-6321040D02*
G75*
G03*
X14354708Y-6321040I-40000J0D01*
G01*
X14354708Y-7083040D02*
G75*
G03*
X14354708Y-7083040I-40000J0D01*
G01*
X14354708Y-7372108D02*
G75*
G03*
X14354708Y-7372108I-40000J0D01*
G01*
X14354708Y-8134108D02*
G75*
G03*
X14354708Y-8134108I-40000J0D01*
G01*
X14354708Y-9472108D02*
G75*
G03*
X14354708Y-9472108I-40000J0D01*
G01*
X14354708Y-10234108D02*
G75*
G03*
X14354708Y-10234108I-40000J0D01*
G01*
X14354708Y-10522108D02*
G75*
G03*
X14354708Y-10522108I-40000J0D01*
G01*
X14354708Y-11284108D02*
G75*
G03*
X14354708Y-11284108I-40000J0D01*
G01*
X14604708Y-5272108D02*
G75*
G03*
X14604708Y-5272108I-40000J0D01*
G01*
X14604708Y-6034108D02*
G75*
G03*
X14604708Y-6034108I-40000J0D01*
G01*
X14604708Y-8422108D02*
G75*
G03*
X14604708Y-8422108I-40000J0D01*
G01*
X14604708Y-9184108D02*
G75*
G03*
X14604708Y-9184108I-40000J0D01*
G01*
X14608708Y-6321040D02*
G75*
G03*
X14608708Y-6321040I-40000J0D01*
G01*
X14608708Y-7083040D02*
G75*
G03*
X14608708Y-7083040I-40000J0D01*
G01*
X14608708Y-7372108D02*
G75*
G03*
X14608708Y-7372108I-40000J0D01*
G01*
X14608708Y-8134108D02*
G75*
G03*
X14608708Y-8134108I-40000J0D01*
G01*
X14608708Y-9472108D02*
G75*
G03*
X14608708Y-9472108I-40000J0D01*
G01*
X14608708Y-10234108D02*
G75*
G03*
X14608708Y-10234108I-40000J0D01*
G01*
X14608708Y-10522108D02*
G75*
G03*
X14608708Y-10522108I-40000J0D01*
G01*
X14608708Y-11284108D02*
G75*
G03*
X14608708Y-11284108I-40000J0D01*
G01*
X14858708Y-5272108D02*
G75*
G03*
X14858708Y-5272108I-40000J0D01*
G01*
X14858708Y-6034108D02*
G75*
G03*
X14858708Y-6034108I-40000J0D01*
G01*
X14858708Y-8422108D02*
G75*
G03*
X14858708Y-8422108I-40000J0D01*
G01*
X14858708Y-9184108D02*
G75*
G03*
X14858708Y-9184108I-40000J0D01*
G01*
X14862708Y-6321040D02*
G75*
G03*
X14862708Y-6321040I-40000J0D01*
G01*
X14862708Y-7083040D02*
G75*
G03*
X14862708Y-7083040I-40000J0D01*
G01*
X14862708Y-7372108D02*
G75*
G03*
X14862708Y-7372108I-40000J0D01*
G01*
X14862708Y-8134108D02*
G75*
G03*
X14862708Y-8134108I-40000J0D01*
G01*
X14862708Y-9472108D02*
G75*
G03*
X14862708Y-9472108I-40000J0D01*
G01*
X14862708Y-10234108D02*
G75*
G03*
X14862708Y-10234108I-40000J0D01*
G01*
X14862708Y-10522108D02*
G75*
G03*
X14862708Y-10522108I-40000J0D01*
G01*
X14862708Y-11284108D02*
G75*
G03*
X14862708Y-11284108I-40000J0D01*
G01*
X15112708Y-5272108D02*
G75*
G03*
X15112708Y-5272108I-40000J0D01*
G01*
X15112708Y-6034108D02*
G75*
G03*
X15112708Y-6034108I-40000J0D01*
G01*
X15112708Y-8422108D02*
G75*
G03*
X15112708Y-8422108I-40000J0D01*
G01*
X15112708Y-9184108D02*
G75*
G03*
X15112708Y-9184108I-40000J0D01*
G01*
X15116708Y-6321040D02*
G75*
G03*
X15116708Y-6321040I-40000J0D01*
G01*
X15116708Y-7083040D02*
G75*
G03*
X15116708Y-7083040I-40000J0D01*
G01*
X15116708Y-7372108D02*
G75*
G03*
X15116708Y-7372108I-40000J0D01*
G01*
X15116708Y-8134108D02*
G75*
G03*
X15116708Y-8134108I-40000J0D01*
G01*
X15116708Y-9472108D02*
G75*
G03*
X15116708Y-9472108I-40000J0D01*
G01*
X15116708Y-10234108D02*
G75*
G03*
X15116708Y-10234108I-40000J0D01*
G01*
X15116708Y-10522108D02*
G75*
G03*
X15116708Y-10522108I-40000J0D01*
G01*
X15116708Y-11284108D02*
G75*
G03*
X15116708Y-11284108I-40000J0D01*
G01*
X15366708Y-5272108D02*
G75*
G03*
X15366708Y-5272108I-40000J0D01*
G01*
X15366708Y-6034108D02*
G75*
G03*
X15366708Y-6034108I-40000J0D01*
G01*
X15366708Y-8422108D02*
G75*
G03*
X15366708Y-8422108I-40000J0D01*
G01*
X15366708Y-9184108D02*
G75*
G03*
X15366708Y-9184108I-40000J0D01*
G01*
X15370708Y-6321040D02*
G75*
G03*
X15370708Y-6321040I-40000J0D01*
G01*
X15370708Y-7083040D02*
G75*
G03*
X15370708Y-7083040I-40000J0D01*
G01*
X15370708Y-7372108D02*
G75*
G03*
X15370708Y-7372108I-40000J0D01*
G01*
X15370708Y-8134108D02*
G75*
G03*
X15370708Y-8134108I-40000J0D01*
G01*
X15370708Y-9472108D02*
G75*
G03*
X15370708Y-9472108I-40000J0D01*
G01*
X15370708Y-10234108D02*
G75*
G03*
X15370708Y-10234108I-40000J0D01*
G01*
X15620708Y-5272108D02*
G75*
G03*
X15620708Y-5272108I-40000J0D01*
G01*
X15620708Y-6034108D02*
G75*
G03*
X15620708Y-6034108I-40000J0D01*
G01*
X15992708Y-6334108D02*
G75*
G03*
X15992708Y-6334108I-40000J0D01*
G01*
X15992708Y-7084108D02*
G75*
G03*
X15992708Y-7084108I-40000J0D01*
G01*
X15992708Y-7384108D02*
G75*
G03*
X15992708Y-7384108I-40000J0D01*
G01*
X15992708Y-8134108D02*
G75*
G03*
X15992708Y-8134108I-40000J0D01*
G01*
X15992708Y-8434108D02*
G75*
G03*
X15992708Y-8434108I-40000J0D01*
G01*
X15992708Y-9184108D02*
G75*
G03*
X15992708Y-9184108I-40000J0D01*
G01*
X15992708Y-9484108D02*
G75*
G03*
X15992708Y-9484108I-40000J0D01*
G01*
X15992708Y-10234108D02*
G75*
G03*
X15992708Y-10234108I-40000J0D01*
G01*
X15992708Y-10534108D02*
G75*
G03*
X15992708Y-10534108I-40000J0D01*
G01*
X15992708Y-11284108D02*
G75*
G03*
X15992708Y-11284108I-40000J0D01*
G01*
X16117708Y-5284108D02*
G75*
G03*
X16117708Y-5284108I-40000J0D01*
G01*
X16117708Y-6034108D02*
G75*
G03*
X16117708Y-6034108I-40000J0D01*
G01*
X16642708Y-5272108D02*
G75*
G03*
X16642708Y-5272108I-40000J0D01*
G01*
X16642708Y-6034108D02*
G75*
G03*
X16642708Y-6034108I-40000J0D01*
G01*
X16642708Y-6322108D02*
G75*
G03*
X16642708Y-6322108I-40000J0D01*
G01*
X16642708Y-7084108D02*
G75*
G03*
X16642708Y-7084108I-40000J0D01*
G01*
X16642708Y-7372108D02*
G75*
G03*
X16642708Y-7372108I-40000J0D01*
G01*
X16642708Y-8134108D02*
G75*
G03*
X16642708Y-8134108I-40000J0D01*
G01*
X16642708Y-8422108D02*
G75*
G03*
X16642708Y-8422108I-40000J0D01*
G01*
X16642708Y-9184108D02*
G75*
G03*
X16642708Y-9184108I-40000J0D01*
G01*
X16642708Y-9472108D02*
G75*
G03*
X16642708Y-9472108I-40000J0D01*
G01*
X16642708Y-10234108D02*
G75*
G03*
X16642708Y-10234108I-40000J0D01*
G01*
X16642708Y-10522108D02*
G75*
G03*
X16642708Y-10522108I-40000J0D01*
G01*
X16642708Y-11284108D02*
G75*
G03*
X16642708Y-11284108I-40000J0D01*
G01*
X16896708Y-5272108D02*
G75*
G03*
X16896708Y-5272108I-40000J0D01*
G01*
X16896708Y-6034108D02*
G75*
G03*
X16896708Y-6034108I-40000J0D01*
G01*
X16896708Y-6322108D02*
G75*
G03*
X16896708Y-6322108I-40000J0D01*
G01*
X16896708Y-7084108D02*
G75*
G03*
X16896708Y-7084108I-40000J0D01*
G01*
X16896708Y-7372108D02*
G75*
G03*
X16896708Y-7372108I-40000J0D01*
G01*
X16896708Y-8134108D02*
G75*
G03*
X16896708Y-8134108I-40000J0D01*
G01*
X16896708Y-8422108D02*
G75*
G03*
X16896708Y-8422108I-40000J0D01*
G01*
X16896708Y-9184108D02*
G75*
G03*
X16896708Y-9184108I-40000J0D01*
G01*
X16896708Y-9472108D02*
G75*
G03*
X16896708Y-9472108I-40000J0D01*
G01*
X16896708Y-10234108D02*
G75*
G03*
X16896708Y-10234108I-40000J0D01*
G01*
X16896708Y-10522108D02*
G75*
G03*
X16896708Y-10522108I-40000J0D01*
G01*
X16896708Y-11284108D02*
G75*
G03*
X16896708Y-11284108I-40000J0D01*
G01*
X17150708Y-5272108D02*
G75*
G03*
X17150708Y-5272108I-40000J0D01*
G01*
X17150708Y-6034108D02*
G75*
G03*
X17150708Y-6034108I-40000J0D01*
G01*
X17150708Y-6322108D02*
G75*
G03*
X17150708Y-6322108I-40000J0D01*
G01*
X17150708Y-7084108D02*
G75*
G03*
X17150708Y-7084108I-40000J0D01*
G01*
X17150708Y-7372108D02*
G75*
G03*
X17150708Y-7372108I-40000J0D01*
G01*
X17150708Y-8134108D02*
G75*
G03*
X17150708Y-8134108I-40000J0D01*
G01*
X17150708Y-8422108D02*
G75*
G03*
X17150708Y-8422108I-40000J0D01*
G01*
X17150708Y-9184108D02*
G75*
G03*
X17150708Y-9184108I-40000J0D01*
G01*
X17150708Y-9472108D02*
G75*
G03*
X17150708Y-9472108I-40000J0D01*
G01*
X17150708Y-10234108D02*
G75*
G03*
X17150708Y-10234108I-40000J0D01*
G01*
X17150708Y-10522108D02*
G75*
G03*
X17150708Y-10522108I-40000J0D01*
G01*
X17150708Y-11284108D02*
G75*
G03*
X17150708Y-11284108I-40000J0D01*
G01*
X17404708Y-5272108D02*
G75*
G03*
X17404708Y-5272108I-40000J0D01*
G01*
X17404708Y-6034108D02*
G75*
G03*
X17404708Y-6034108I-40000J0D01*
G01*
X17404708Y-6322108D02*
G75*
G03*
X17404708Y-6322108I-40000J0D01*
G01*
X17404708Y-7084108D02*
G75*
G03*
X17404708Y-7084108I-40000J0D01*
G01*
X17404708Y-7372108D02*
G75*
G03*
X17404708Y-7372108I-40000J0D01*
G01*
X17404708Y-8134108D02*
G75*
G03*
X17404708Y-8134108I-40000J0D01*
G01*
X17404708Y-8422108D02*
G75*
G03*
X17404708Y-8422108I-40000J0D01*
G01*
X17404708Y-9184108D02*
G75*
G03*
X17404708Y-9184108I-40000J0D01*
G01*
X17404708Y-9472108D02*
G75*
G03*
X17404708Y-9472108I-40000J0D01*
G01*
X17404708Y-10234108D02*
G75*
G03*
X17404708Y-10234108I-40000J0D01*
G01*
X17404708Y-10522108D02*
G75*
G03*
X17404708Y-10522108I-40000J0D01*
G01*
X17404708Y-11284108D02*
G75*
G03*
X17404708Y-11284108I-40000J0D01*
G01*
X17658708Y-5272108D02*
G75*
G03*
X17658708Y-5272108I-40000J0D01*
G01*
X17658708Y-6034108D02*
G75*
G03*
X17658708Y-6034108I-40000J0D01*
G01*
X17658708Y-6322108D02*
G75*
G03*
X17658708Y-6322108I-40000J0D01*
G01*
X17658708Y-7084108D02*
G75*
G03*
X17658708Y-7084108I-40000J0D01*
G01*
X17658708Y-7372108D02*
G75*
G03*
X17658708Y-7372108I-40000J0D01*
G01*
X17658708Y-8134108D02*
G75*
G03*
X17658708Y-8134108I-40000J0D01*
G01*
X17658708Y-8422108D02*
G75*
G03*
X17658708Y-8422108I-40000J0D01*
G01*
X17658708Y-9184108D02*
G75*
G03*
X17658708Y-9184108I-40000J0D01*
G01*
X17658708Y-9472108D02*
G75*
G03*
X17658708Y-9472108I-40000J0D01*
G01*
X17658708Y-10234108D02*
G75*
G03*
X17658708Y-10234108I-40000J0D01*
G01*
X17658708Y-10522108D02*
G75*
G03*
X17658708Y-10522108I-40000J0D01*
G01*
X17658708Y-11284108D02*
G75*
G03*
X17658708Y-11284108I-40000J0D01*
G01*
X17912708Y-5272108D02*
G75*
G03*
X17912708Y-5272108I-40000J0D01*
G01*
X17912708Y-6034108D02*
G75*
G03*
X17912708Y-6034108I-40000J0D01*
G01*
X17912708Y-6322108D02*
G75*
G03*
X17912708Y-6322108I-40000J0D01*
G01*
X17912708Y-7084108D02*
G75*
G03*
X17912708Y-7084108I-40000J0D01*
G01*
X17912708Y-7372108D02*
G75*
G03*
X17912708Y-7372108I-40000J0D01*
G01*
X17912708Y-8134108D02*
G75*
G03*
X17912708Y-8134108I-40000J0D01*
G01*
X17912708Y-8422108D02*
G75*
G03*
X17912708Y-8422108I-40000J0D01*
G01*
X17912708Y-9184108D02*
G75*
G03*
X17912708Y-9184108I-40000J0D01*
G01*
X17912708Y-9472108D02*
G75*
G03*
X17912708Y-9472108I-40000J0D01*
G01*
X17912708Y-10234108D02*
G75*
G03*
X17912708Y-10234108I-40000J0D01*
G01*
X17912708Y-10522108D02*
G75*
G03*
X17912708Y-10522108I-40000J0D01*
G01*
X17912708Y-11284108D02*
G75*
G03*
X17912708Y-11284108I-40000J0D01*
G01*
X18166708Y-5272108D02*
G75*
G03*
X18166708Y-5272108I-40000J0D01*
G01*
X18166708Y-6034108D02*
G75*
G03*
X18166708Y-6034108I-40000J0D01*
G01*
X18166708Y-6322108D02*
G75*
G03*
X18166708Y-6322108I-40000J0D01*
G01*
X18166708Y-7084108D02*
G75*
G03*
X18166708Y-7084108I-40000J0D01*
G01*
X18166708Y-7372108D02*
G75*
G03*
X18166708Y-7372108I-40000J0D01*
G01*
X18166708Y-8134108D02*
G75*
G03*
X18166708Y-8134108I-40000J0D01*
G01*
X18166708Y-8422108D02*
G75*
G03*
X18166708Y-8422108I-40000J0D01*
G01*
X18166708Y-9184108D02*
G75*
G03*
X18166708Y-9184108I-40000J0D01*
G01*
X18166708Y-9472108D02*
G75*
G03*
X18166708Y-9472108I-40000J0D01*
G01*
X18166708Y-10234108D02*
G75*
G03*
X18166708Y-10234108I-40000J0D01*
G01*
X18166708Y-10522108D02*
G75*
G03*
X18166708Y-10522108I-40000J0D01*
G01*
X18166708Y-11284108D02*
G75*
G03*
X18166708Y-11284108I-40000J0D01*
G01*
X18420708Y-5272108D02*
G75*
G03*
X18420708Y-5272108I-40000J0D01*
G01*
X18420708Y-6034108D02*
G75*
G03*
X18420708Y-6034108I-40000J0D01*
G01*
X18420708Y-6322108D02*
G75*
G03*
X18420708Y-6322108I-40000J0D01*
G01*
X18420708Y-7084108D02*
G75*
G03*
X18420708Y-7084108I-40000J0D01*
G01*
X18420708Y-7372108D02*
G75*
G03*
X18420708Y-7372108I-40000J0D01*
G01*
X18420708Y-8134108D02*
G75*
G03*
X18420708Y-8134108I-40000J0D01*
G01*
X18420708Y-8422108D02*
G75*
G03*
X18420708Y-8422108I-40000J0D01*
G01*
X18420708Y-9184108D02*
G75*
G03*
X18420708Y-9184108I-40000J0D01*
G01*
X18420708Y-9472108D02*
G75*
G03*
X18420708Y-9472108I-40000J0D01*
G01*
X18420708Y-10234108D02*
G75*
G03*
X18420708Y-10234108I-40000J0D01*
G01*
X18420708Y-10522108D02*
G75*
G03*
X18420708Y-10522108I-40000J0D01*
G01*
X18420708Y-11284108D02*
G75*
G03*
X18420708Y-11284108I-40000J0D01*
G01*
X18917708Y-5284108D02*
G75*
G03*
X18917708Y-5284108I-40000J0D01*
G01*
X18917708Y-6034108D02*
G75*
G03*
X18917708Y-6034108I-40000J0D01*
G01*
X18917708Y-6334108D02*
G75*
G03*
X18917708Y-6334108I-40000J0D01*
G01*
X18917708Y-7084108D02*
G75*
G03*
X18917708Y-7084108I-40000J0D01*
G01*
X18917708Y-7384108D02*
G75*
G03*
X18917708Y-7384108I-40000J0D01*
G01*
X18917708Y-8134108D02*
G75*
G03*
X18917708Y-8134108I-40000J0D01*
G01*
X18917708Y-8434108D02*
G75*
G03*
X18917708Y-8434108I-40000J0D01*
G01*
X18917708Y-9184108D02*
G75*
G03*
X18917708Y-9184108I-40000J0D01*
G01*
X18917708Y-9484108D02*
G75*
G03*
X18917708Y-9484108I-40000J0D01*
G01*
X18917708Y-10234108D02*
G75*
G03*
X18917708Y-10234108I-40000J0D01*
G01*
X18917708Y-10534108D02*
G75*
G03*
X18917708Y-10534108I-40000J0D01*
G01*
X18917708Y-11284108D02*
G75*
G03*
X18917708Y-11284108I-40000J0D01*
G01*
X19442708Y-5272108D02*
G75*
G03*
X19442708Y-5272108I-40000J0D01*
G01*
X19442708Y-6034108D02*
G75*
G03*
X19442708Y-6034108I-40000J0D01*
G01*
X19442708Y-6322108D02*
G75*
G03*
X19442708Y-6322108I-40000J0D01*
G01*
X19442708Y-7084108D02*
G75*
G03*
X19442708Y-7084108I-40000J0D01*
G01*
X19442708Y-7372108D02*
G75*
G03*
X19442708Y-7372108I-40000J0D01*
G01*
X19442708Y-8134108D02*
G75*
G03*
X19442708Y-8134108I-40000J0D01*
G01*
X19442708Y-8422108D02*
G75*
G03*
X19442708Y-8422108I-40000J0D01*
G01*
X19442708Y-9184108D02*
G75*
G03*
X19442708Y-9184108I-40000J0D01*
G01*
X19442708Y-9472108D02*
G75*
G03*
X19442708Y-9472108I-40000J0D01*
G01*
X19442708Y-10234108D02*
G75*
G03*
X19442708Y-10234108I-40000J0D01*
G01*
X19442708Y-10522108D02*
G75*
G03*
X19442708Y-10522108I-40000J0D01*
G01*
X19442708Y-11284108D02*
G75*
G03*
X19442708Y-11284108I-40000J0D01*
G01*
X19696708Y-5272108D02*
G75*
G03*
X19696708Y-5272108I-40000J0D01*
G01*
X19696708Y-6034108D02*
G75*
G03*
X19696708Y-6034108I-40000J0D01*
G01*
X19696708Y-6322108D02*
G75*
G03*
X19696708Y-6322108I-40000J0D01*
G01*
X19696708Y-7084108D02*
G75*
G03*
X19696708Y-7084108I-40000J0D01*
G01*
X19696708Y-7372108D02*
G75*
G03*
X19696708Y-7372108I-40000J0D01*
G01*
X19696708Y-8134108D02*
G75*
G03*
X19696708Y-8134108I-40000J0D01*
G01*
X19696708Y-8422108D02*
G75*
G03*
X19696708Y-8422108I-40000J0D01*
G01*
X19696708Y-9184108D02*
G75*
G03*
X19696708Y-9184108I-40000J0D01*
G01*
X19696708Y-9472108D02*
G75*
G03*
X19696708Y-9472108I-40000J0D01*
G01*
X19696708Y-10234108D02*
G75*
G03*
X19696708Y-10234108I-40000J0D01*
G01*
X19696708Y-10522108D02*
G75*
G03*
X19696708Y-10522108I-40000J0D01*
G01*
X19696708Y-11284108D02*
G75*
G03*
X19696708Y-11284108I-40000J0D01*
G01*
X19950708Y-5272108D02*
G75*
G03*
X19950708Y-5272108I-40000J0D01*
G01*
X19950708Y-6034108D02*
G75*
G03*
X19950708Y-6034108I-40000J0D01*
G01*
X19950708Y-6322108D02*
G75*
G03*
X19950708Y-6322108I-40000J0D01*
G01*
X19950708Y-7084108D02*
G75*
G03*
X19950708Y-7084108I-40000J0D01*
G01*
X19950708Y-7372108D02*
G75*
G03*
X19950708Y-7372108I-40000J0D01*
G01*
X19950708Y-8134108D02*
G75*
G03*
X19950708Y-8134108I-40000J0D01*
G01*
X19950708Y-8422108D02*
G75*
G03*
X19950708Y-8422108I-40000J0D01*
G01*
X19950708Y-9184108D02*
G75*
G03*
X19950708Y-9184108I-40000J0D01*
G01*
X19950708Y-9472108D02*
G75*
G03*
X19950708Y-9472108I-40000J0D01*
G01*
X19950708Y-10234108D02*
G75*
G03*
X19950708Y-10234108I-40000J0D01*
G01*
X19950708Y-10522108D02*
G75*
G03*
X19950708Y-10522108I-40000J0D01*
G01*
X19950708Y-11284108D02*
G75*
G03*
X19950708Y-11284108I-40000J0D01*
G01*
X20204708Y-5272108D02*
G75*
G03*
X20204708Y-5272108I-40000J0D01*
G01*
X20204708Y-6034108D02*
G75*
G03*
X20204708Y-6034108I-40000J0D01*
G01*
X20204708Y-6322108D02*
G75*
G03*
X20204708Y-6322108I-40000J0D01*
G01*
X20204708Y-7084108D02*
G75*
G03*
X20204708Y-7084108I-40000J0D01*
G01*
X20204708Y-7372108D02*
G75*
G03*
X20204708Y-7372108I-40000J0D01*
G01*
X20204708Y-8134108D02*
G75*
G03*
X20204708Y-8134108I-40000J0D01*
G01*
X20204708Y-8422108D02*
G75*
G03*
X20204708Y-8422108I-40000J0D01*
G01*
X20204708Y-9184108D02*
G75*
G03*
X20204708Y-9184108I-40000J0D01*
G01*
X20204708Y-9472108D02*
G75*
G03*
X20204708Y-9472108I-40000J0D01*
G01*
X20204708Y-10234108D02*
G75*
G03*
X20204708Y-10234108I-40000J0D01*
G01*
X20204708Y-10522108D02*
G75*
G03*
X20204708Y-10522108I-40000J0D01*
G01*
X20204708Y-11284108D02*
G75*
G03*
X20204708Y-11284108I-40000J0D01*
G01*
X20458708Y-5272108D02*
G75*
G03*
X20458708Y-5272108I-40000J0D01*
G01*
X20458708Y-6034108D02*
G75*
G03*
X20458708Y-6034108I-40000J0D01*
G01*
X20458708Y-6322108D02*
G75*
G03*
X20458708Y-6322108I-40000J0D01*
G01*
X20458708Y-7084108D02*
G75*
G03*
X20458708Y-7084108I-40000J0D01*
G01*
X20458708Y-7372108D02*
G75*
G03*
X20458708Y-7372108I-40000J0D01*
G01*
X20458708Y-8134108D02*
G75*
G03*
X20458708Y-8134108I-40000J0D01*
G01*
X20458708Y-8422108D02*
G75*
G03*
X20458708Y-8422108I-40000J0D01*
G01*
X20458708Y-9184108D02*
G75*
G03*
X20458708Y-9184108I-40000J0D01*
G01*
X20458708Y-9472108D02*
G75*
G03*
X20458708Y-9472108I-40000J0D01*
G01*
X20458708Y-10234108D02*
G75*
G03*
X20458708Y-10234108I-40000J0D01*
G01*
X20458708Y-10522108D02*
G75*
G03*
X20458708Y-10522108I-40000J0D01*
G01*
X20458708Y-11284108D02*
G75*
G03*
X20458708Y-11284108I-40000J0D01*
G01*
X20712708Y-5272108D02*
G75*
G03*
X20712708Y-5272108I-40000J0D01*
G01*
X20712708Y-6034108D02*
G75*
G03*
X20712708Y-6034108I-40000J0D01*
G01*
X20712708Y-6322108D02*
G75*
G03*
X20712708Y-6322108I-40000J0D01*
G01*
X20712708Y-7084108D02*
G75*
G03*
X20712708Y-7084108I-40000J0D01*
G01*
X20712708Y-7372108D02*
G75*
G03*
X20712708Y-7372108I-40000J0D01*
G01*
X20712708Y-8134108D02*
G75*
G03*
X20712708Y-8134108I-40000J0D01*
G01*
X20712708Y-8422108D02*
G75*
G03*
X20712708Y-8422108I-40000J0D01*
G01*
X20712708Y-9184108D02*
G75*
G03*
X20712708Y-9184108I-40000J0D01*
G01*
X20712708Y-9472108D02*
G75*
G03*
X20712708Y-9472108I-40000J0D01*
G01*
X20712708Y-10234108D02*
G75*
G03*
X20712708Y-10234108I-40000J0D01*
G01*
X20712708Y-10522108D02*
G75*
G03*
X20712708Y-10522108I-40000J0D01*
G01*
X20712708Y-11284108D02*
G75*
G03*
X20712708Y-11284108I-40000J0D01*
G01*
X20966708Y-5272108D02*
G75*
G03*
X20966708Y-5272108I-40000J0D01*
G01*
X20966708Y-6034108D02*
G75*
G03*
X20966708Y-6034108I-40000J0D01*
G01*
X20966708Y-6322108D02*
G75*
G03*
X20966708Y-6322108I-40000J0D01*
G01*
X20966708Y-7084108D02*
G75*
G03*
X20966708Y-7084108I-40000J0D01*
G01*
X20966708Y-7372108D02*
G75*
G03*
X20966708Y-7372108I-40000J0D01*
G01*
X20966708Y-8134108D02*
G75*
G03*
X20966708Y-8134108I-40000J0D01*
G01*
X20966708Y-8422108D02*
G75*
G03*
X20966708Y-8422108I-40000J0D01*
G01*
X20966708Y-9184108D02*
G75*
G03*
X20966708Y-9184108I-40000J0D01*
G01*
X20966708Y-9472108D02*
G75*
G03*
X20966708Y-9472108I-40000J0D01*
G01*
X20966708Y-10234108D02*
G75*
G03*
X20966708Y-10234108I-40000J0D01*
G01*
X20966708Y-10522108D02*
G75*
G03*
X20966708Y-10522108I-40000J0D01*
G01*
X20966708Y-11284108D02*
G75*
G03*
X20966708Y-11284108I-40000J0D01*
G01*
X21220708Y-5272108D02*
G75*
G03*
X21220708Y-5272108I-40000J0D01*
G01*
X21220708Y-6034108D02*
G75*
G03*
X21220708Y-6034108I-40000J0D01*
G01*
X21220708Y-6322108D02*
G75*
G03*
X21220708Y-6322108I-40000J0D01*
G01*
X21220708Y-7084108D02*
G75*
G03*
X21220708Y-7084108I-40000J0D01*
G01*
X21220708Y-7372108D02*
G75*
G03*
X21220708Y-7372108I-40000J0D01*
G01*
X21220708Y-8134108D02*
G75*
G03*
X21220708Y-8134108I-40000J0D01*
G01*
X21220708Y-8422108D02*
G75*
G03*
X21220708Y-8422108I-40000J0D01*
G01*
X21220708Y-9184108D02*
G75*
G03*
X21220708Y-9184108I-40000J0D01*
G01*
X21220708Y-9472108D02*
G75*
G03*
X21220708Y-9472108I-40000J0D01*
G01*
X21220708Y-10234108D02*
G75*
G03*
X21220708Y-10234108I-40000J0D01*
G01*
X21220708Y-10522108D02*
G75*
G03*
X21220708Y-10522108I-40000J0D01*
G01*
X21220708Y-11284108D02*
G75*
G03*
X21220708Y-11284108I-40000J0D01*
G01*
X21717708Y-5284108D02*
G75*
G03*
X21717708Y-5284108I-40000J0D01*
G01*
X21717708Y-6034108D02*
G75*
G03*
X21717708Y-6034108I-40000J0D01*
G01*
X21717708Y-6334108D02*
G75*
G03*
X21717708Y-6334108I-40000J0D01*
G01*
X21717708Y-7084108D02*
G75*
G03*
X21717708Y-7084108I-40000J0D01*
G01*
X21717708Y-7384108D02*
G75*
G03*
X21717708Y-7384108I-40000J0D01*
G01*
X21717708Y-8134108D02*
G75*
G03*
X21717708Y-8134108I-40000J0D01*
G01*
X21717708Y-8434108D02*
G75*
G03*
X21717708Y-8434108I-40000J0D01*
G01*
X21717708Y-9184108D02*
G75*
G03*
X21717708Y-9184108I-40000J0D01*
G01*
X21717708Y-9484108D02*
G75*
G03*
X21717708Y-9484108I-40000J0D01*
G01*
X21717708Y-10234108D02*
G75*
G03*
X21717708Y-10234108I-40000J0D01*
G01*
X21717708Y-10534108D02*
G75*
G03*
X21717708Y-10534108I-40000J0D01*
G01*
X21717708Y-11284108D02*
G75*
G03*
X21717708Y-11284108I-40000J0D01*
G01*
X22242708Y-5272108D02*
G75*
G03*
X22242708Y-5272108I-40000J0D01*
G01*
X22242708Y-6034108D02*
G75*
G03*
X22242708Y-6034108I-40000J0D01*
G01*
X22242708Y-6322108D02*
G75*
G03*
X22242708Y-6322108I-40000J0D01*
G01*
X22242708Y-7084108D02*
G75*
G03*
X22242708Y-7084108I-40000J0D01*
G01*
X22242708Y-7372108D02*
G75*
G03*
X22242708Y-7372108I-40000J0D01*
G01*
X22242708Y-8134108D02*
G75*
G03*
X22242708Y-8134108I-40000J0D01*
G01*
X22242708Y-8422108D02*
G75*
G03*
X22242708Y-8422108I-40000J0D01*
G01*
X22242708Y-9184108D02*
G75*
G03*
X22242708Y-9184108I-40000J0D01*
G01*
X22242708Y-9472108D02*
G75*
G03*
X22242708Y-9472108I-40000J0D01*
G01*
X22242708Y-10234108D02*
G75*
G03*
X22242708Y-10234108I-40000J0D01*
G01*
X22242708Y-10522108D02*
G75*
G03*
X22242708Y-10522108I-40000J0D01*
G01*
X22242708Y-11284108D02*
G75*
G03*
X22242708Y-11284108I-40000J0D01*
G01*
X22496708Y-5272108D02*
G75*
G03*
X22496708Y-5272108I-40000J0D01*
G01*
X22496708Y-6034108D02*
G75*
G03*
X22496708Y-6034108I-40000J0D01*
G01*
X22496708Y-6322108D02*
G75*
G03*
X22496708Y-6322108I-40000J0D01*
G01*
X22496708Y-7084108D02*
G75*
G03*
X22496708Y-7084108I-40000J0D01*
G01*
X22496708Y-7372108D02*
G75*
G03*
X22496708Y-7372108I-40000J0D01*
G01*
X22496708Y-8134108D02*
G75*
G03*
X22496708Y-8134108I-40000J0D01*
G01*
X22496708Y-8422108D02*
G75*
G03*
X22496708Y-8422108I-40000J0D01*
G01*
X22496708Y-9184108D02*
G75*
G03*
X22496708Y-9184108I-40000J0D01*
G01*
X22496708Y-9472108D02*
G75*
G03*
X22496708Y-9472108I-40000J0D01*
G01*
X22496708Y-10234108D02*
G75*
G03*
X22496708Y-10234108I-40000J0D01*
G01*
X22496708Y-10522108D02*
G75*
G03*
X22496708Y-10522108I-40000J0D01*
G01*
X22496708Y-11284108D02*
G75*
G03*
X22496708Y-11284108I-40000J0D01*
G01*
X22750708Y-5272108D02*
G75*
G03*
X22750708Y-5272108I-40000J0D01*
G01*
X22750708Y-6034108D02*
G75*
G03*
X22750708Y-6034108I-40000J0D01*
G01*
X22750708Y-6322108D02*
G75*
G03*
X22750708Y-6322108I-40000J0D01*
G01*
X22750708Y-7084108D02*
G75*
G03*
X22750708Y-7084108I-40000J0D01*
G01*
X22750708Y-7372108D02*
G75*
G03*
X22750708Y-7372108I-40000J0D01*
G01*
X22750708Y-8134108D02*
G75*
G03*
X22750708Y-8134108I-40000J0D01*
G01*
X22750708Y-8422108D02*
G75*
G03*
X22750708Y-8422108I-40000J0D01*
G01*
X22750708Y-9184108D02*
G75*
G03*
X22750708Y-9184108I-40000J0D01*
G01*
X22750708Y-9472108D02*
G75*
G03*
X22750708Y-9472108I-40000J0D01*
G01*
X22750708Y-10234108D02*
G75*
G03*
X22750708Y-10234108I-40000J0D01*
G01*
X22750708Y-10522108D02*
G75*
G03*
X22750708Y-10522108I-40000J0D01*
G01*
X22750708Y-11284108D02*
G75*
G03*
X22750708Y-11284108I-40000J0D01*
G01*
X23004708Y-5272108D02*
G75*
G03*
X23004708Y-5272108I-40000J0D01*
G01*
X23004708Y-6034108D02*
G75*
G03*
X23004708Y-6034108I-40000J0D01*
G01*
X23004708Y-6322108D02*
G75*
G03*
X23004708Y-6322108I-40000J0D01*
G01*
X23004708Y-7084108D02*
G75*
G03*
X23004708Y-7084108I-40000J0D01*
G01*
X23004708Y-7372108D02*
G75*
G03*
X23004708Y-7372108I-40000J0D01*
G01*
X23004708Y-8134108D02*
G75*
G03*
X23004708Y-8134108I-40000J0D01*
G01*
X23004708Y-8422108D02*
G75*
G03*
X23004708Y-8422108I-40000J0D01*
G01*
X23004708Y-9184108D02*
G75*
G03*
X23004708Y-9184108I-40000J0D01*
G01*
X23004708Y-9472108D02*
G75*
G03*
X23004708Y-9472108I-40000J0D01*
G01*
X23004708Y-10234108D02*
G75*
G03*
X23004708Y-10234108I-40000J0D01*
G01*
X23004708Y-10522108D02*
G75*
G03*
X23004708Y-10522108I-40000J0D01*
G01*
X23004708Y-11284108D02*
G75*
G03*
X23004708Y-11284108I-40000J0D01*
G01*
X23258708Y-5272108D02*
G75*
G03*
X23258708Y-5272108I-40000J0D01*
G01*
X23258708Y-6034108D02*
G75*
G03*
X23258708Y-6034108I-40000J0D01*
G01*
X23258708Y-6322108D02*
G75*
G03*
X23258708Y-6322108I-40000J0D01*
G01*
X23258708Y-7084108D02*
G75*
G03*
X23258708Y-7084108I-40000J0D01*
G01*
X23258708Y-7372108D02*
G75*
G03*
X23258708Y-7372108I-40000J0D01*
G01*
X23258708Y-8134108D02*
G75*
G03*
X23258708Y-8134108I-40000J0D01*
G01*
X23258708Y-8422108D02*
G75*
G03*
X23258708Y-8422108I-40000J0D01*
G01*
X23258708Y-9184108D02*
G75*
G03*
X23258708Y-9184108I-40000J0D01*
G01*
X23258708Y-9472108D02*
G75*
G03*
X23258708Y-9472108I-40000J0D01*
G01*
X23258708Y-10234108D02*
G75*
G03*
X23258708Y-10234108I-40000J0D01*
G01*
X23258708Y-10522108D02*
G75*
G03*
X23258708Y-10522108I-40000J0D01*
G01*
X23258708Y-11284108D02*
G75*
G03*
X23258708Y-11284108I-40000J0D01*
G01*
X23512708Y-5272108D02*
G75*
G03*
X23512708Y-5272108I-40000J0D01*
G01*
X23512708Y-6034108D02*
G75*
G03*
X23512708Y-6034108I-40000J0D01*
G01*
X23512708Y-6322108D02*
G75*
G03*
X23512708Y-6322108I-40000J0D01*
G01*
X23512708Y-7084108D02*
G75*
G03*
X23512708Y-7084108I-40000J0D01*
G01*
X23512708Y-7372108D02*
G75*
G03*
X23512708Y-7372108I-40000J0D01*
G01*
X23512708Y-8134108D02*
G75*
G03*
X23512708Y-8134108I-40000J0D01*
G01*
X23512708Y-8422108D02*
G75*
G03*
X23512708Y-8422108I-40000J0D01*
G01*
X23512708Y-9184108D02*
G75*
G03*
X23512708Y-9184108I-40000J0D01*
G01*
X23512708Y-9472108D02*
G75*
G03*
X23512708Y-9472108I-40000J0D01*
G01*
X23512708Y-10234108D02*
G75*
G03*
X23512708Y-10234108I-40000J0D01*
G01*
X23512708Y-10522108D02*
G75*
G03*
X23512708Y-10522108I-40000J0D01*
G01*
X23512708Y-11284108D02*
G75*
G03*
X23512708Y-11284108I-40000J0D01*
G01*
X23766708Y-5272108D02*
G75*
G03*
X23766708Y-5272108I-40000J0D01*
G01*
X23766708Y-6034108D02*
G75*
G03*
X23766708Y-6034108I-40000J0D01*
G01*
X23766708Y-6322108D02*
G75*
G03*
X23766708Y-6322108I-40000J0D01*
G01*
X23766708Y-7084108D02*
G75*
G03*
X23766708Y-7084108I-40000J0D01*
G01*
X23766708Y-7372108D02*
G75*
G03*
X23766708Y-7372108I-40000J0D01*
G01*
X23766708Y-8134108D02*
G75*
G03*
X23766708Y-8134108I-40000J0D01*
G01*
X23766708Y-8422108D02*
G75*
G03*
X23766708Y-8422108I-40000J0D01*
G01*
X23766708Y-9184108D02*
G75*
G03*
X23766708Y-9184108I-40000J0D01*
G01*
X23766708Y-9472108D02*
G75*
G03*
X23766708Y-9472108I-40000J0D01*
G01*
X23766708Y-10234108D02*
G75*
G03*
X23766708Y-10234108I-40000J0D01*
G01*
X23766708Y-10522108D02*
G75*
G03*
X23766708Y-10522108I-40000J0D01*
G01*
X23766708Y-11284108D02*
G75*
G03*
X23766708Y-11284108I-40000J0D01*
G01*
X24020708Y-5272108D02*
G75*
G03*
X24020708Y-5272108I-40000J0D01*
G01*
X24020708Y-6034108D02*
G75*
G03*
X24020708Y-6034108I-40000J0D01*
G01*
X24020708Y-6322108D02*
G75*
G03*
X24020708Y-6322108I-40000J0D01*
G01*
X24020708Y-7084108D02*
G75*
G03*
X24020708Y-7084108I-40000J0D01*
G01*
X24020708Y-7372108D02*
G75*
G03*
X24020708Y-7372108I-40000J0D01*
G01*
X24020708Y-8134108D02*
G75*
G03*
X24020708Y-8134108I-40000J0D01*
G01*
X24020708Y-8422108D02*
G75*
G03*
X24020708Y-8422108I-40000J0D01*
G01*
X24020708Y-9184108D02*
G75*
G03*
X24020708Y-9184108I-40000J0D01*
G01*
X24020708Y-9472108D02*
G75*
G03*
X24020708Y-9472108I-40000J0D01*
G01*
X24020708Y-10234108D02*
G75*
G03*
X24020708Y-10234108I-40000J0D01*
G01*
X24020708Y-10522108D02*
G75*
G03*
X24020708Y-10522108I-40000J0D01*
G01*
X24020708Y-11284108D02*
G75*
G03*
X24020708Y-11284108I-40000J0D01*
G01*
X24517708Y-5284108D02*
G75*
G03*
X24517708Y-5284108I-40000J0D01*
G01*
X24517708Y-6034108D02*
G75*
G03*
X24517708Y-6034108I-40000J0D01*
G01*
X24517708Y-6334108D02*
G75*
G03*
X24517708Y-6334108I-40000J0D01*
G01*
X24517708Y-7084108D02*
G75*
G03*
X24517708Y-7084108I-40000J0D01*
G01*
X24517708Y-7384108D02*
G75*
G03*
X24517708Y-7384108I-40000J0D01*
G01*
X24517708Y-8134108D02*
G75*
G03*
X24517708Y-8134108I-40000J0D01*
G01*
X24517708Y-8434108D02*
G75*
G03*
X24517708Y-8434108I-40000J0D01*
G01*
X24517708Y-9184108D02*
G75*
G03*
X24517708Y-9184108I-40000J0D01*
G01*
X24517708Y-9484108D02*
G75*
G03*
X24517708Y-9484108I-40000J0D01*
G01*
X24517708Y-10234108D02*
G75*
G03*
X24517708Y-10234108I-40000J0D01*
G01*
X24517708Y-10534108D02*
G75*
G03*
X24517708Y-10534108I-40000J0D01*
G01*
X24517708Y-11284108D02*
G75*
G03*
X24517708Y-11284108I-40000J0D01*
G01*
X25042708Y-5272108D02*
G75*
G03*
X25042708Y-5272108I-40000J0D01*
G01*
X25042708Y-6034108D02*
G75*
G03*
X25042708Y-6034108I-40000J0D01*
G01*
X25042708Y-6322108D02*
G75*
G03*
X25042708Y-6322108I-40000J0D01*
G01*
X25042708Y-7084108D02*
G75*
G03*
X25042708Y-7084108I-40000J0D01*
G01*
X25042708Y-7372108D02*
G75*
G03*
X25042708Y-7372108I-40000J0D01*
G01*
X25042708Y-8134108D02*
G75*
G03*
X25042708Y-8134108I-40000J0D01*
G01*
X25042708Y-8422108D02*
G75*
G03*
X25042708Y-8422108I-40000J0D01*
G01*
X25042708Y-9184108D02*
G75*
G03*
X25042708Y-9184108I-40000J0D01*
G01*
X25042708Y-9472108D02*
G75*
G03*
X25042708Y-9472108I-40000J0D01*
G01*
X25042708Y-10234108D02*
G75*
G03*
X25042708Y-10234108I-40000J0D01*
G01*
X25042708Y-10522108D02*
G75*
G03*
X25042708Y-10522108I-40000J0D01*
G01*
X25042708Y-11284108D02*
G75*
G03*
X25042708Y-11284108I-40000J0D01*
G01*
X25296708Y-5272108D02*
G75*
G03*
X25296708Y-5272108I-40000J0D01*
G01*
X25296708Y-6034108D02*
G75*
G03*
X25296708Y-6034108I-40000J0D01*
G01*
X25296708Y-6322108D02*
G75*
G03*
X25296708Y-6322108I-40000J0D01*
G01*
X25296708Y-7084108D02*
G75*
G03*
X25296708Y-7084108I-40000J0D01*
G01*
X25296708Y-7372108D02*
G75*
G03*
X25296708Y-7372108I-40000J0D01*
G01*
X25296708Y-8134108D02*
G75*
G03*
X25296708Y-8134108I-40000J0D01*
G01*
X25296708Y-8422108D02*
G75*
G03*
X25296708Y-8422108I-40000J0D01*
G01*
X25296708Y-9184108D02*
G75*
G03*
X25296708Y-9184108I-40000J0D01*
G01*
X25296708Y-9472108D02*
G75*
G03*
X25296708Y-9472108I-40000J0D01*
G01*
X25296708Y-10234108D02*
G75*
G03*
X25296708Y-10234108I-40000J0D01*
G01*
X25296708Y-10522108D02*
G75*
G03*
X25296708Y-10522108I-40000J0D01*
G01*
X25296708Y-11284108D02*
G75*
G03*
X25296708Y-11284108I-40000J0D01*
G01*
X25550708Y-5272108D02*
G75*
G03*
X25550708Y-5272108I-40000J0D01*
G01*
X25550708Y-6034108D02*
G75*
G03*
X25550708Y-6034108I-40000J0D01*
G01*
X25550708Y-6322108D02*
G75*
G03*
X25550708Y-6322108I-40000J0D01*
G01*
X25550708Y-7084108D02*
G75*
G03*
X25550708Y-7084108I-40000J0D01*
G01*
X25550708Y-7372108D02*
G75*
G03*
X25550708Y-7372108I-40000J0D01*
G01*
X25550708Y-8134108D02*
G75*
G03*
X25550708Y-8134108I-40000J0D01*
G01*
X25550708Y-8422108D02*
G75*
G03*
X25550708Y-8422108I-40000J0D01*
G01*
X25550708Y-9184108D02*
G75*
G03*
X25550708Y-9184108I-40000J0D01*
G01*
X25550708Y-9472108D02*
G75*
G03*
X25550708Y-9472108I-40000J0D01*
G01*
X25550708Y-10234108D02*
G75*
G03*
X25550708Y-10234108I-40000J0D01*
G01*
X25550708Y-10522108D02*
G75*
G03*
X25550708Y-10522108I-40000J0D01*
G01*
X25550708Y-11284108D02*
G75*
G03*
X25550708Y-11284108I-40000J0D01*
G01*
X25804708Y-5272108D02*
G75*
G03*
X25804708Y-5272108I-40000J0D01*
G01*
X25804708Y-6034108D02*
G75*
G03*
X25804708Y-6034108I-40000J0D01*
G01*
X25804708Y-6322108D02*
G75*
G03*
X25804708Y-6322108I-40000J0D01*
G01*
X25804708Y-7084108D02*
G75*
G03*
X25804708Y-7084108I-40000J0D01*
G01*
X25804708Y-7372108D02*
G75*
G03*
X25804708Y-7372108I-40000J0D01*
G01*
X25804708Y-8134108D02*
G75*
G03*
X25804708Y-8134108I-40000J0D01*
G01*
X25804708Y-8422108D02*
G75*
G03*
X25804708Y-8422108I-40000J0D01*
G01*
X25804708Y-9184108D02*
G75*
G03*
X25804708Y-9184108I-40000J0D01*
G01*
X25804708Y-9472108D02*
G75*
G03*
X25804708Y-9472108I-40000J0D01*
G01*
X25804708Y-10234108D02*
G75*
G03*
X25804708Y-10234108I-40000J0D01*
G01*
X25804708Y-10522108D02*
G75*
G03*
X25804708Y-10522108I-40000J0D01*
G01*
X25804708Y-11284108D02*
G75*
G03*
X25804708Y-11284108I-40000J0D01*
G01*
X26058708Y-5272108D02*
G75*
G03*
X26058708Y-5272108I-40000J0D01*
G01*
X26058708Y-6034108D02*
G75*
G03*
X26058708Y-6034108I-40000J0D01*
G01*
X26058708Y-6322108D02*
G75*
G03*
X26058708Y-6322108I-40000J0D01*
G01*
X26058708Y-7084108D02*
G75*
G03*
X26058708Y-7084108I-40000J0D01*
G01*
X26058708Y-7372108D02*
G75*
G03*
X26058708Y-7372108I-40000J0D01*
G01*
X26058708Y-8134108D02*
G75*
G03*
X26058708Y-8134108I-40000J0D01*
G01*
X26058708Y-8422108D02*
G75*
G03*
X26058708Y-8422108I-40000J0D01*
G01*
X26058708Y-9184108D02*
G75*
G03*
X26058708Y-9184108I-40000J0D01*
G01*
X26058708Y-9472108D02*
G75*
G03*
X26058708Y-9472108I-40000J0D01*
G01*
X26058708Y-10234108D02*
G75*
G03*
X26058708Y-10234108I-40000J0D01*
G01*
X26058708Y-10522108D02*
G75*
G03*
X26058708Y-10522108I-40000J0D01*
G01*
X26058708Y-11284108D02*
G75*
G03*
X26058708Y-11284108I-40000J0D01*
G01*
X26312708Y-5272108D02*
G75*
G03*
X26312708Y-5272108I-40000J0D01*
G01*
X26312708Y-6034108D02*
G75*
G03*
X26312708Y-6034108I-40000J0D01*
G01*
X26312708Y-6322108D02*
G75*
G03*
X26312708Y-6322108I-40000J0D01*
G01*
X26312708Y-7084108D02*
G75*
G03*
X26312708Y-7084108I-40000J0D01*
G01*
X26312708Y-7372108D02*
G75*
G03*
X26312708Y-7372108I-40000J0D01*
G01*
X26312708Y-8134108D02*
G75*
G03*
X26312708Y-8134108I-40000J0D01*
G01*
X26312708Y-8422108D02*
G75*
G03*
X26312708Y-8422108I-40000J0D01*
G01*
X26312708Y-9184108D02*
G75*
G03*
X26312708Y-9184108I-40000J0D01*
G01*
X26312708Y-9472108D02*
G75*
G03*
X26312708Y-9472108I-40000J0D01*
G01*
X26312708Y-10234108D02*
G75*
G03*
X26312708Y-10234108I-40000J0D01*
G01*
X26312708Y-10522108D02*
G75*
G03*
X26312708Y-10522108I-40000J0D01*
G01*
X26312708Y-11284108D02*
G75*
G03*
X26312708Y-11284108I-40000J0D01*
G01*
X26566708Y-5272108D02*
G75*
G03*
X26566708Y-5272108I-40000J0D01*
G01*
X26566708Y-6034108D02*
G75*
G03*
X26566708Y-6034108I-40000J0D01*
G01*
X26566708Y-6322108D02*
G75*
G03*
X26566708Y-6322108I-40000J0D01*
G01*
X26566708Y-7084108D02*
G75*
G03*
X26566708Y-7084108I-40000J0D01*
G01*
X26566708Y-7372108D02*
G75*
G03*
X26566708Y-7372108I-40000J0D01*
G01*
X26566708Y-8134108D02*
G75*
G03*
X26566708Y-8134108I-40000J0D01*
G01*
X26566708Y-8422108D02*
G75*
G03*
X26566708Y-8422108I-40000J0D01*
G01*
X26566708Y-9184108D02*
G75*
G03*
X26566708Y-9184108I-40000J0D01*
G01*
X26566708Y-9472108D02*
G75*
G03*
X26566708Y-9472108I-40000J0D01*
G01*
X26566708Y-10234108D02*
G75*
G03*
X26566708Y-10234108I-40000J0D01*
G01*
X26566708Y-10522108D02*
G75*
G03*
X26566708Y-10522108I-40000J0D01*
G01*
X26566708Y-11284108D02*
G75*
G03*
X26566708Y-11284108I-40000J0D01*
G01*
X26820708Y-5272108D02*
G75*
G03*
X26820708Y-5272108I-40000J0D01*
G01*
X26820708Y-6034108D02*
G75*
G03*
X26820708Y-6034108I-40000J0D01*
G01*
X26820708Y-6322108D02*
G75*
G03*
X26820708Y-6322108I-40000J0D01*
G01*
X26820708Y-7084108D02*
G75*
G03*
X26820708Y-7084108I-40000J0D01*
G01*
X26820708Y-7372108D02*
G75*
G03*
X26820708Y-7372108I-40000J0D01*
G01*
X26820708Y-8134108D02*
G75*
G03*
X26820708Y-8134108I-40000J0D01*
G01*
X26820708Y-8422108D02*
G75*
G03*
X26820708Y-8422108I-40000J0D01*
G01*
X26820708Y-9184108D02*
G75*
G03*
X26820708Y-9184108I-40000J0D01*
G01*
X26820708Y-9472108D02*
G75*
G03*
X26820708Y-9472108I-40000J0D01*
G01*
X26820708Y-10234108D02*
G75*
G03*
X26820708Y-10234108I-40000J0D01*
G01*
X26820708Y-10522108D02*
G75*
G03*
X26820708Y-10522108I-40000J0D01*
G01*
X26820708Y-11284108D02*
G75*
G03*
X26820708Y-11284108I-40000J0D01*
G01*
X12472708Y-9439108D02*
X12472708Y-9539108D01*
X12422708Y-9489108D02*
X12522708Y-9489108D01*
X12472708Y-10963108D02*
X12472708Y-11063108D01*
X12422708Y-11013108D02*
X12522708Y-11013108D01*
X3821029Y-10965029D02*
X3821029Y-10893187D01*
X3749187Y-10893187D01*
X3749187Y-10965029D01*
X3821029Y-10965029D01*
X3821029Y-11219029D02*
X3821029Y-11147187D01*
X3749187Y-11147187D01*
X3749187Y-11219029D01*
X3821029Y-11219029D01*
X4075029Y-10965029D02*
X4075029Y-10893187D01*
X4003187Y-10893187D01*
X4003187Y-10965029D01*
X4075029Y-10965029D01*
X4075029Y-11219029D02*
X4075029Y-11147187D01*
X4003187Y-11147187D01*
X4003187Y-11219029D01*
X4075029Y-11219029D01*
X4329029Y-10965029D02*
X4329029Y-10893187D01*
X4257187Y-10893187D01*
X4257187Y-10965029D01*
X4329029Y-10965029D01*
X4329029Y-11219029D02*
X4329029Y-11147187D01*
X4257187Y-11147187D01*
X4257187Y-11219029D01*
X4329029Y-11219029D01*
X4583029Y-10965029D02*
X4583029Y-10893187D01*
X4511187Y-10893187D01*
X4511187Y-10965029D01*
X4583029Y-10965029D01*
X4583029Y-11219029D02*
X4583029Y-11147187D01*
X4511187Y-11147187D01*
X4511187Y-11219029D01*
X4583029Y-11219029D01*
X4837029Y-10965029D02*
X4837029Y-10893187D01*
X4765187Y-10893187D01*
X4765187Y-10965029D01*
X4837029Y-10965029D01*
X4837029Y-11219029D02*
X4837029Y-11147187D01*
X4765187Y-11147187D01*
X4765187Y-11219029D01*
X4837029Y-11219029D01*
X5091029Y-10965029D02*
X5091029Y-10893187D01*
X5019187Y-10893187D01*
X5019187Y-10965029D01*
X5091029Y-10965029D01*
X5091029Y-11219029D02*
X5091029Y-11147187D01*
X5019187Y-11147187D01*
X5019187Y-11219029D01*
X5091029Y-11219029D01*
X5345029Y-10965029D02*
X5345029Y-10893187D01*
X5273187Y-10893187D01*
X5273187Y-10965029D01*
X5345029Y-10965029D01*
X5345029Y-11219029D02*
X5345029Y-11147187D01*
X5273187Y-11147187D01*
X5273187Y-11219029D01*
X5345029Y-11219029D01*
X5599029Y-10965029D02*
X5599029Y-10893187D01*
X5527187Y-10893187D01*
X5527187Y-10965029D01*
X5599029Y-10965029D01*
X5599029Y-11219029D02*
X5599029Y-11147187D01*
X5527187Y-11147187D01*
X5527187Y-11219029D01*
X5599029Y-11219029D01*
X5853029Y-10965029D02*
X5853029Y-10893187D01*
X5781187Y-10893187D01*
X5781187Y-10965029D01*
X5853029Y-10965029D01*
X5853029Y-11219029D02*
X5853029Y-11147187D01*
X5781187Y-11147187D01*
X5781187Y-11219029D01*
X5853029Y-11219029D01*
X6107029Y-10965029D02*
X6107029Y-10893187D01*
X6035187Y-10893187D01*
X6035187Y-10965029D01*
X6107029Y-10965029D01*
X6107029Y-11219029D02*
X6107029Y-11147187D01*
X6035187Y-11147187D01*
X6035187Y-11219029D01*
X6107029Y-11219029D01*
X6361029Y-10965029D02*
X6361029Y-10893187D01*
X6289187Y-10893187D01*
X6289187Y-10965029D01*
X6361029Y-10965029D01*
X6361029Y-11219029D02*
X6361029Y-11147187D01*
X6289187Y-11147187D01*
X6289187Y-11219029D01*
X6361029Y-11219029D01*
X6615029Y-10965029D02*
X6615029Y-10893187D01*
X6543187Y-10893187D01*
X6543187Y-10965029D01*
X6615029Y-10965029D01*
X6615029Y-11219029D02*
X6615029Y-11147187D01*
X6543187Y-11147187D01*
X6543187Y-11219029D01*
X6615029Y-11219029D01*
X6869029Y-10965029D02*
X6869029Y-10893187D01*
X6797187Y-10893187D01*
X6797187Y-10965029D01*
X6869029Y-10965029D01*
X6869029Y-11219029D02*
X6869029Y-11147187D01*
X6797187Y-11147187D01*
X6797187Y-11219029D01*
X6869029Y-11219029D01*
X7123029Y-10965029D02*
X7123029Y-10893187D01*
X7051187Y-10893187D01*
X7051187Y-10965029D01*
X7123029Y-10965029D01*
X7123029Y-11219029D02*
X7123029Y-11147187D01*
X7051187Y-11147187D01*
X7051187Y-11219029D01*
X7123029Y-11219029D01*
X7377029Y-10965029D02*
X7377029Y-10893187D01*
X7305187Y-10893187D01*
X7305187Y-10965029D01*
X7377029Y-10965029D01*
X7377029Y-11219029D02*
X7377029Y-11147187D01*
X7305187Y-11147187D01*
X7305187Y-11219029D01*
X7377029Y-11219029D01*
X7631029Y-10965029D02*
X7631029Y-10893187D01*
X7559187Y-10893187D01*
X7559187Y-10965029D01*
X7631029Y-10965029D01*
X7631029Y-11219029D02*
X7631029Y-11147187D01*
X7559187Y-11147187D01*
X7559187Y-11219029D01*
X7631029Y-11219029D01*
X7885029Y-10965029D02*
X7885029Y-10893187D01*
X7813187Y-10893187D01*
X7813187Y-10965029D01*
X7885029Y-10965029D01*
X7885029Y-11219029D02*
X7885029Y-11147187D01*
X7813187Y-11147187D01*
X7813187Y-11219029D01*
X7885029Y-11219029D01*
X8139029Y-10965029D02*
X8139029Y-10893187D01*
X8067187Y-10893187D01*
X8067187Y-10965029D01*
X8139029Y-10965029D01*
X8139029Y-11219029D02*
X8139029Y-11147187D01*
X8067187Y-11147187D01*
X8067187Y-11219029D01*
X8139029Y-11219029D01*
X8393029Y-10965029D02*
X8393029Y-10893187D01*
X8321187Y-10893187D01*
X8321187Y-10965029D01*
X8393029Y-10965029D01*
X8393029Y-11219029D02*
X8393029Y-11147187D01*
X8321187Y-11147187D01*
X8321187Y-11219029D01*
X8393029Y-11219029D01*
X8647029Y-10965029D02*
X8647029Y-10893187D01*
X8575187Y-10893187D01*
X8575187Y-10965029D01*
X8647029Y-10965029D01*
X8647029Y-11219029D02*
X8647029Y-11147187D01*
X8575187Y-11147187D01*
X8575187Y-11219029D01*
X8647029Y-11219029D01*
X8901029Y-10965029D02*
X8901029Y-10893187D01*
X8829187Y-10893187D01*
X8829187Y-10965029D01*
X8901029Y-10965029D01*
X8901029Y-11219029D02*
X8901029Y-11147187D01*
X8829187Y-11147187D01*
X8829187Y-11219029D01*
X8901029Y-11219029D01*
X9155029Y-10965029D02*
X9155029Y-10893187D01*
X9083187Y-10893187D01*
X9083187Y-10965029D01*
X9155029Y-10965029D01*
X9155029Y-11219029D02*
X9155029Y-11147187D01*
X9083187Y-11147187D01*
X9083187Y-11219029D01*
X9155029Y-11219029D01*
X9409029Y-10965029D02*
X9409029Y-10893187D01*
X9337187Y-10893187D01*
X9337187Y-10965029D01*
X9409029Y-10965029D01*
X9409029Y-11219029D02*
X9409029Y-11147187D01*
X9337187Y-11147187D01*
X9337187Y-11219029D01*
X9409029Y-11219029D01*
X9663029Y-10965029D02*
X9663029Y-10893187D01*
X9591187Y-10893187D01*
X9591187Y-10965029D01*
X9663029Y-10965029D01*
X9663029Y-11219029D02*
X9663029Y-11147187D01*
X9591187Y-11147187D01*
X9591187Y-11219029D01*
X9663029Y-11219029D01*
X9917029Y-10965029D02*
X9917029Y-10893187D01*
X9845187Y-10893187D01*
X9845187Y-10965029D01*
X9917029Y-10965029D01*
X9917029Y-11219029D02*
X9917029Y-11147187D01*
X9845187Y-11147187D01*
X9845187Y-11219029D01*
X9917029Y-11219029D01*
X10171029Y-10965029D02*
X10171029Y-10893187D01*
X10099187Y-10893187D01*
X10099187Y-10965029D01*
X10171029Y-10965029D01*
X10171029Y-11219029D02*
X10171029Y-11147187D01*
X10099187Y-11147187D01*
X10099187Y-11219029D01*
X10171029Y-11219029D01*
D12*
X2418636Y-12458322D02*
X2418636Y-12158322D01*
X2490065Y-12158322D01*
X2532922Y-12172608D01*
X2561494Y-12201179D01*
X2575779Y-12229751D01*
X2590065Y-12286894D01*
X2590065Y-12329751D01*
X2575779Y-12386894D01*
X2561494Y-12415465D01*
X2532922Y-12444037D01*
X2490065Y-12458322D01*
X2418636Y-12458322D01*
X2718636Y-12458322D02*
X2718636Y-12258322D01*
X2718636Y-12315465D02*
X2732922Y-12286894D01*
X2747208Y-12272608D01*
X2775779Y-12258322D01*
X2804351Y-12258322D01*
X2904351Y-12458322D02*
X2904351Y-12258322D01*
X2904351Y-12158322D02*
X2890065Y-12172608D01*
X2904351Y-12186894D01*
X2918636Y-12172608D01*
X2904351Y-12158322D01*
X2904351Y-12186894D01*
X3090065Y-12458322D02*
X3061494Y-12444037D01*
X3047208Y-12415465D01*
X3047208Y-12158322D01*
X3247208Y-12458322D02*
X3218636Y-12444037D01*
X3204351Y-12415465D01*
X3204351Y-12158322D01*
X3590065Y-12458322D02*
X3590065Y-12158322D01*
X3690065Y-12372608D01*
X3790065Y-12158322D01*
X3790065Y-12458322D01*
X4061494Y-12458322D02*
X4061494Y-12301179D01*
X4047208Y-12272608D01*
X4018636Y-12258322D01*
X3961494Y-12258322D01*
X3932922Y-12272608D01*
X4061494Y-12444037D02*
X4032922Y-12458322D01*
X3961494Y-12458322D01*
X3932922Y-12444037D01*
X3918636Y-12415465D01*
X3918636Y-12386894D01*
X3932922Y-12358322D01*
X3961494Y-12344037D01*
X4032922Y-12344037D01*
X4061494Y-12329751D01*
X4204351Y-12258322D02*
X4204351Y-12558322D01*
X4204351Y-12272608D02*
X4232922Y-12258322D01*
X4290065Y-12258322D01*
X4318636Y-12272608D01*
X4332922Y-12286894D01*
X4347208Y-12315465D01*
X4347208Y-12401179D01*
X4332922Y-12429751D01*
X4318636Y-12444037D01*
X4290065Y-12458322D01*
X4232922Y-12458322D01*
X4204351Y-12444037D01*
X4475779Y-12429751D02*
X4490065Y-12444037D01*
X4475779Y-12458322D01*
X4461494Y-12444037D01*
X4475779Y-12429751D01*
X4475779Y-12458322D01*
X4475779Y-12272608D02*
X4490065Y-12286894D01*
X4475779Y-12301179D01*
X4461494Y-12286894D01*
X4475779Y-12272608D01*
X4475779Y-12301179D01*
X2092208Y-12932608D02*
X2132208Y-12972608D01*
X2132208Y-12932608D02*
X2092208Y-12972608D01*
X2475779Y-12788322D02*
X2504351Y-12788322D01*
X2532922Y-12802608D01*
X2547208Y-12816894D01*
X2561494Y-12845465D01*
X2575779Y-12902608D01*
X2575779Y-12974037D01*
X2561494Y-13031179D01*
X2547208Y-13059751D01*
X2532922Y-13074037D01*
X2504351Y-13088322D01*
X2475779Y-13088322D01*
X2447208Y-13074037D01*
X2432922Y-13059751D01*
X2418636Y-13031179D01*
X2404351Y-12974037D01*
X2404351Y-12902608D01*
X2418636Y-12845465D01*
X2432922Y-12816894D01*
X2447208Y-12802608D01*
X2475779Y-12788322D01*
X2704351Y-13059751D02*
X2718636Y-13074037D01*
X2704351Y-13088322D01*
X2690065Y-13074037D01*
X2704351Y-13059751D01*
X2704351Y-13088322D01*
X2975779Y-12888322D02*
X2975779Y-13088322D01*
X2904351Y-12774037D02*
X2832922Y-12988322D01*
X3018636Y-12988322D01*
X3190065Y-12788322D02*
X3218636Y-12788322D01*
X3247208Y-12802608D01*
X3261494Y-12816894D01*
X3275779Y-12845465D01*
X3290065Y-12902608D01*
X3290065Y-12974037D01*
X3275779Y-13031179D01*
X3261494Y-13059751D01*
X3247208Y-13074037D01*
X3218636Y-13088322D01*
X3190065Y-13088322D01*
X3161494Y-13074037D01*
X3147208Y-13059751D01*
X3132922Y-13031179D01*
X3118636Y-12974037D01*
X3118636Y-12902608D01*
X3132922Y-12845465D01*
X3147208Y-12816894D01*
X3161494Y-12802608D01*
X3190065Y-12788322D01*
X3475779Y-12788322D02*
X3504351Y-12788322D01*
X3532922Y-12802608D01*
X3547208Y-12816894D01*
X3561494Y-12845465D01*
X3575779Y-12902608D01*
X3575779Y-12974037D01*
X3561494Y-13031179D01*
X3547208Y-13059751D01*
X3532922Y-13074037D01*
X3504351Y-13088322D01*
X3475779Y-13088322D01*
X3447208Y-13074037D01*
X3432922Y-13059751D01*
X3418636Y-13031179D01*
X3404351Y-12974037D01*
X3404351Y-12902608D01*
X3418636Y-12845465D01*
X3432922Y-12816894D01*
X3447208Y-12802608D01*
X3475779Y-12788322D01*
X3704351Y-13088322D02*
X3704351Y-12888322D01*
X3704351Y-12916894D02*
X3718636Y-12902608D01*
X3747208Y-12888322D01*
X3790065Y-12888322D01*
X3818636Y-12902608D01*
X3832922Y-12931179D01*
X3832922Y-13088322D01*
X3832922Y-12931179D02*
X3847208Y-12902608D01*
X3875779Y-12888322D01*
X3918636Y-12888322D01*
X3947208Y-12902608D01*
X3961494Y-12931179D01*
X3961494Y-13088322D01*
X4104351Y-13088322D02*
X4104351Y-12888322D01*
X4104351Y-12916894D02*
X4118636Y-12902608D01*
X4147208Y-12888322D01*
X4190065Y-12888322D01*
X4218636Y-12902608D01*
X4232922Y-12931179D01*
X4232922Y-13088322D01*
X4232922Y-12931179D02*
X4247208Y-12902608D01*
X4275779Y-12888322D01*
X4318636Y-12888322D01*
X4347208Y-12902608D01*
X4361494Y-12931179D01*
X4361494Y-13088322D01*
X4947208Y-12774037D02*
X4690065Y-13159751D01*
X5332922Y-12788322D02*
X5361494Y-12788322D01*
X5390065Y-12802608D01*
X5404351Y-12816894D01*
X5418636Y-12845465D01*
X5432922Y-12902608D01*
X5432922Y-12974037D01*
X5418636Y-13031179D01*
X5404351Y-13059751D01*
X5390065Y-13074037D01*
X5361494Y-13088322D01*
X5332922Y-13088322D01*
X5304351Y-13074037D01*
X5290065Y-13059751D01*
X5275779Y-13031179D01*
X5261494Y-12974037D01*
X5261494Y-12902608D01*
X5275779Y-12845465D01*
X5290065Y-12816894D01*
X5304351Y-12802608D01*
X5332922Y-12788322D01*
X5561494Y-13059751D02*
X5575779Y-13074037D01*
X5561494Y-13088322D01*
X5547208Y-13074037D01*
X5561494Y-13059751D01*
X5561494Y-13088322D01*
X5761494Y-12788322D02*
X5790065Y-12788322D01*
X5818636Y-12802608D01*
X5832922Y-12816894D01*
X5847208Y-12845465D01*
X5861494Y-12902608D01*
X5861494Y-12974037D01*
X5847208Y-13031179D01*
X5832922Y-13059751D01*
X5818636Y-13074037D01*
X5790065Y-13088322D01*
X5761494Y-13088322D01*
X5732922Y-13074037D01*
X5718636Y-13059751D01*
X5704351Y-13031179D01*
X5690065Y-12974037D01*
X5690065Y-12902608D01*
X5704351Y-12845465D01*
X5718636Y-12816894D01*
X5732922Y-12802608D01*
X5761494Y-12788322D01*
X6147208Y-13088322D02*
X5975779Y-13088322D01*
X6061494Y-13088322D02*
X6061494Y-12788322D01*
X6032922Y-12831179D01*
X6004351Y-12859751D01*
X5975779Y-12874037D01*
X6418636Y-12788322D02*
X6275779Y-12788322D01*
X6261494Y-12931179D01*
X6275779Y-12916894D01*
X6304351Y-12902608D01*
X6375779Y-12902608D01*
X6404351Y-12916894D01*
X6418636Y-12931179D01*
X6432922Y-12959751D01*
X6432922Y-13031179D01*
X6418636Y-13059751D01*
X6404351Y-13074037D01*
X6375779Y-13088322D01*
X6304351Y-13088322D01*
X6275779Y-13074037D01*
X6261494Y-13059751D01*
X6532922Y-12788322D02*
X6732922Y-12788322D01*
X6604351Y-13088322D01*
X6832922Y-12788322D02*
X6832922Y-12845465D01*
X6947208Y-12788322D02*
X6947208Y-12845465D01*
X7390065Y-13202608D02*
X7375779Y-13188322D01*
X7347208Y-13145465D01*
X7332922Y-13116894D01*
X7318636Y-13074037D01*
X7304351Y-13002608D01*
X7304351Y-12945465D01*
X7318636Y-12874037D01*
X7332922Y-12831179D01*
X7347208Y-12802608D01*
X7375779Y-12759751D01*
X7390065Y-12745465D01*
X7490065Y-12816894D02*
X7504351Y-12802608D01*
X7532922Y-12788322D01*
X7604351Y-12788322D01*
X7632922Y-12802608D01*
X7647208Y-12816894D01*
X7661494Y-12845465D01*
X7661494Y-12874037D01*
X7647208Y-12916894D01*
X7475779Y-13088322D01*
X7661494Y-13088322D01*
X7947208Y-13088322D02*
X7775779Y-13088322D01*
X7861494Y-13088322D02*
X7861494Y-12788322D01*
X7832922Y-12831179D01*
X7804351Y-12859751D01*
X7775779Y-12874037D01*
X8090065Y-13088322D02*
X8147208Y-13088322D01*
X8175779Y-13074037D01*
X8190065Y-13059751D01*
X8218636Y-13016894D01*
X8232922Y-12959751D01*
X8232922Y-12845465D01*
X8218636Y-12816894D01*
X8204351Y-12802608D01*
X8175779Y-12788322D01*
X8118636Y-12788322D01*
X8090065Y-12802608D01*
X8075779Y-12816894D01*
X8061494Y-12845465D01*
X8061494Y-12916894D01*
X8075779Y-12945465D01*
X8090065Y-12959751D01*
X8118636Y-12974037D01*
X8175779Y-12974037D01*
X8204351Y-12959751D01*
X8218636Y-12945465D01*
X8232922Y-12916894D01*
X8590065Y-13088322D02*
X8590065Y-12788322D01*
X8718636Y-13088322D02*
X8718636Y-12931179D01*
X8704351Y-12902608D01*
X8675779Y-12888322D01*
X8632922Y-12888322D01*
X8604351Y-12902608D01*
X8590065Y-12916894D01*
X8904351Y-13088322D02*
X8875779Y-13074037D01*
X8861494Y-13059751D01*
X8847208Y-13031179D01*
X8847208Y-12945465D01*
X8861494Y-12916894D01*
X8875779Y-12902608D01*
X8904351Y-12888322D01*
X8947208Y-12888322D01*
X8975779Y-12902608D01*
X8990065Y-12916894D01*
X9004351Y-12945465D01*
X9004351Y-13031179D01*
X8990065Y-13059751D01*
X8975779Y-13074037D01*
X8947208Y-13088322D01*
X8904351Y-13088322D01*
X9175779Y-13088322D02*
X9147208Y-13074037D01*
X9132922Y-13045465D01*
X9132922Y-12788322D01*
X9404351Y-13074037D02*
X9375779Y-13088322D01*
X9318636Y-13088322D01*
X9290065Y-13074037D01*
X9275779Y-13045465D01*
X9275779Y-12931179D01*
X9290065Y-12902608D01*
X9318636Y-12888322D01*
X9375779Y-12888322D01*
X9404351Y-12902608D01*
X9418636Y-12931179D01*
X9418636Y-12959751D01*
X9275779Y-12988322D01*
X9532922Y-13074037D02*
X9561494Y-13088322D01*
X9618636Y-13088322D01*
X9647208Y-13074037D01*
X9661494Y-13045465D01*
X9661494Y-13031179D01*
X9647208Y-13002608D01*
X9618636Y-12988322D01*
X9575779Y-12988322D01*
X9547208Y-12974037D01*
X9532922Y-12945465D01*
X9532922Y-12931179D01*
X9547208Y-12902608D01*
X9575779Y-12888322D01*
X9618636Y-12888322D01*
X9647208Y-12902608D01*
X9761494Y-13202608D02*
X9775779Y-13188322D01*
X9804351Y-13145465D01*
X9818636Y-13116894D01*
X9832922Y-13074037D01*
X9847208Y-13002608D01*
X9847208Y-12945465D01*
X9832922Y-12874037D01*
X9818636Y-12831179D01*
X9804351Y-12802608D01*
X9775779Y-12759751D01*
X9761494Y-12745465D01*
X2132208Y-13348608D02*
G75*
G03*
X2132208Y-13348608I-40000J0D01*
G01*
X2475779Y-13184322D02*
X2504351Y-13184322D01*
X2532922Y-13198608D01*
X2547208Y-13212894D01*
X2561494Y-13241465D01*
X2575779Y-13298608D01*
X2575779Y-13370037D01*
X2561494Y-13427179D01*
X2547208Y-13455751D01*
X2532922Y-13470037D01*
X2504351Y-13484322D01*
X2475779Y-13484322D01*
X2447208Y-13470037D01*
X2432922Y-13455751D01*
X2418636Y-13427179D01*
X2404351Y-13370037D01*
X2404351Y-13298608D01*
X2418636Y-13241465D01*
X2432922Y-13212894D01*
X2447208Y-13198608D01*
X2475779Y-13184322D01*
X2704351Y-13455751D02*
X2718636Y-13470037D01*
X2704351Y-13484322D01*
X2690065Y-13470037D01*
X2704351Y-13455751D01*
X2704351Y-13484322D01*
X2890065Y-13312894D02*
X2861494Y-13298608D01*
X2847208Y-13284322D01*
X2832922Y-13255751D01*
X2832922Y-13241465D01*
X2847208Y-13212894D01*
X2861494Y-13198608D01*
X2890065Y-13184322D01*
X2947208Y-13184322D01*
X2975779Y-13198608D01*
X2990065Y-13212894D01*
X3004351Y-13241465D01*
X3004351Y-13255751D01*
X2990065Y-13284322D01*
X2975779Y-13298608D01*
X2947208Y-13312894D01*
X2890065Y-13312894D01*
X2861494Y-13327179D01*
X2847208Y-13341465D01*
X2832922Y-13370037D01*
X2832922Y-13427179D01*
X2847208Y-13455751D01*
X2861494Y-13470037D01*
X2890065Y-13484322D01*
X2947208Y-13484322D01*
X2975779Y-13470037D01*
X2990065Y-13455751D01*
X3004351Y-13427179D01*
X3004351Y-13370037D01*
X2990065Y-13341465D01*
X2975779Y-13327179D01*
X2947208Y-13312894D01*
X3190065Y-13184322D02*
X3218636Y-13184322D01*
X3247208Y-13198608D01*
X3261494Y-13212894D01*
X3275779Y-13241465D01*
X3290065Y-13298608D01*
X3290065Y-13370037D01*
X3275779Y-13427179D01*
X3261494Y-13455751D01*
X3247208Y-13470037D01*
X3218636Y-13484322D01*
X3190065Y-13484322D01*
X3161494Y-13470037D01*
X3147208Y-13455751D01*
X3132922Y-13427179D01*
X3118636Y-13370037D01*
X3118636Y-13298608D01*
X3132922Y-13241465D01*
X3147208Y-13212894D01*
X3161494Y-13198608D01*
X3190065Y-13184322D01*
X3475779Y-13184322D02*
X3504351Y-13184322D01*
X3532922Y-13198608D01*
X3547208Y-13212894D01*
X3561494Y-13241465D01*
X3575779Y-13298608D01*
X3575779Y-13370037D01*
X3561494Y-13427179D01*
X3547208Y-13455751D01*
X3532922Y-13470037D01*
X3504351Y-13484322D01*
X3475779Y-13484322D01*
X3447208Y-13470037D01*
X3432922Y-13455751D01*
X3418636Y-13427179D01*
X3404351Y-13370037D01*
X3404351Y-13298608D01*
X3418636Y-13241465D01*
X3432922Y-13212894D01*
X3447208Y-13198608D01*
X3475779Y-13184322D01*
X3704351Y-13484322D02*
X3704351Y-13284322D01*
X3704351Y-13312894D02*
X3718636Y-13298608D01*
X3747208Y-13284322D01*
X3790065Y-13284322D01*
X3818636Y-13298608D01*
X3832922Y-13327179D01*
X3832922Y-13484322D01*
X3832922Y-13327179D02*
X3847208Y-13298608D01*
X3875779Y-13284322D01*
X3918636Y-13284322D01*
X3947208Y-13298608D01*
X3961494Y-13327179D01*
X3961494Y-13484322D01*
X4104351Y-13484322D02*
X4104351Y-13284322D01*
X4104351Y-13312894D02*
X4118636Y-13298608D01*
X4147208Y-13284322D01*
X4190065Y-13284322D01*
X4218636Y-13298608D01*
X4232922Y-13327179D01*
X4232922Y-13484322D01*
X4232922Y-13327179D02*
X4247208Y-13298608D01*
X4275779Y-13284322D01*
X4318636Y-13284322D01*
X4347208Y-13298608D01*
X4361494Y-13327179D01*
X4361494Y-13484322D01*
X4947208Y-13170037D02*
X4690065Y-13555751D01*
X5332922Y-13184322D02*
X5361494Y-13184322D01*
X5390065Y-13198608D01*
X5404351Y-13212894D01*
X5418636Y-13241465D01*
X5432922Y-13298608D01*
X5432922Y-13370037D01*
X5418636Y-13427179D01*
X5404351Y-13455751D01*
X5390065Y-13470037D01*
X5361494Y-13484322D01*
X5332922Y-13484322D01*
X5304351Y-13470037D01*
X5290065Y-13455751D01*
X5275779Y-13427179D01*
X5261494Y-13370037D01*
X5261494Y-13298608D01*
X5275779Y-13241465D01*
X5290065Y-13212894D01*
X5304351Y-13198608D01*
X5332922Y-13184322D01*
X5561494Y-13455751D02*
X5575779Y-13470037D01*
X5561494Y-13484322D01*
X5547208Y-13470037D01*
X5561494Y-13455751D01*
X5561494Y-13484322D01*
X5761494Y-13184322D02*
X5790065Y-13184322D01*
X5818636Y-13198608D01*
X5832922Y-13212894D01*
X5847208Y-13241465D01*
X5861494Y-13298608D01*
X5861494Y-13370037D01*
X5847208Y-13427179D01*
X5832922Y-13455751D01*
X5818636Y-13470037D01*
X5790065Y-13484322D01*
X5761494Y-13484322D01*
X5732922Y-13470037D01*
X5718636Y-13455751D01*
X5704351Y-13427179D01*
X5690065Y-13370037D01*
X5690065Y-13298608D01*
X5704351Y-13241465D01*
X5718636Y-13212894D01*
X5732922Y-13198608D01*
X5761494Y-13184322D01*
X5961494Y-13184322D02*
X6147208Y-13184322D01*
X6047208Y-13298608D01*
X6090065Y-13298608D01*
X6118636Y-13312894D01*
X6132922Y-13327179D01*
X6147208Y-13355751D01*
X6147208Y-13427179D01*
X6132922Y-13455751D01*
X6118636Y-13470037D01*
X6090065Y-13484322D01*
X6004351Y-13484322D01*
X5975779Y-13470037D01*
X5961494Y-13455751D01*
X6432922Y-13484322D02*
X6261494Y-13484322D01*
X6347208Y-13484322D02*
X6347208Y-13184322D01*
X6318636Y-13227179D01*
X6290065Y-13255751D01*
X6261494Y-13270037D01*
X6704351Y-13184322D02*
X6561494Y-13184322D01*
X6547208Y-13327179D01*
X6561494Y-13312894D01*
X6590065Y-13298608D01*
X6661494Y-13298608D01*
X6690065Y-13312894D01*
X6704351Y-13327179D01*
X6718636Y-13355751D01*
X6718636Y-13427179D01*
X6704351Y-13455751D01*
X6690065Y-13470037D01*
X6661494Y-13484322D01*
X6590065Y-13484322D01*
X6561494Y-13470037D01*
X6547208Y-13455751D01*
X6832922Y-13184322D02*
X6832922Y-13241465D01*
X6947208Y-13184322D02*
X6947208Y-13241465D01*
X7390065Y-13598608D02*
X7375779Y-13584322D01*
X7347208Y-13541465D01*
X7332922Y-13512894D01*
X7318636Y-13470037D01*
X7304351Y-13398608D01*
X7304351Y-13341465D01*
X7318636Y-13270037D01*
X7332922Y-13227179D01*
X7347208Y-13198608D01*
X7375779Y-13155751D01*
X7390065Y-13141465D01*
X7547208Y-13312894D02*
X7518636Y-13298608D01*
X7504351Y-13284322D01*
X7490065Y-13255751D01*
X7490065Y-13241465D01*
X7504351Y-13212894D01*
X7518636Y-13198608D01*
X7547208Y-13184322D01*
X7604351Y-13184322D01*
X7632922Y-13198608D01*
X7647208Y-13212894D01*
X7661494Y-13241465D01*
X7661494Y-13255751D01*
X7647208Y-13284322D01*
X7632922Y-13298608D01*
X7604351Y-13312894D01*
X7547208Y-13312894D01*
X7518636Y-13327179D01*
X7504351Y-13341465D01*
X7490065Y-13370037D01*
X7490065Y-13427179D01*
X7504351Y-13455751D01*
X7518636Y-13470037D01*
X7547208Y-13484322D01*
X7604351Y-13484322D01*
X7632922Y-13470037D01*
X7647208Y-13455751D01*
X7661494Y-13427179D01*
X7661494Y-13370037D01*
X7647208Y-13341465D01*
X7632922Y-13327179D01*
X7604351Y-13312894D01*
X7918636Y-13184322D02*
X7861494Y-13184322D01*
X7832922Y-13198608D01*
X7818636Y-13212894D01*
X7790065Y-13255751D01*
X7775779Y-13312894D01*
X7775779Y-13427179D01*
X7790065Y-13455751D01*
X7804351Y-13470037D01*
X7832922Y-13484322D01*
X7890065Y-13484322D01*
X7918636Y-13470037D01*
X7932922Y-13455751D01*
X7947208Y-13427179D01*
X7947208Y-13355751D01*
X7932922Y-13327179D01*
X7918636Y-13312894D01*
X7890065Y-13298608D01*
X7832922Y-13298608D01*
X7804351Y-13312894D01*
X7790065Y-13327179D01*
X7775779Y-13355751D01*
X8204351Y-13184322D02*
X8147208Y-13184322D01*
X8118636Y-13198608D01*
X8104351Y-13212894D01*
X8075779Y-13255751D01*
X8061494Y-13312894D01*
X8061494Y-13427179D01*
X8075779Y-13455751D01*
X8090065Y-13470037D01*
X8118636Y-13484322D01*
X8175779Y-13484322D01*
X8204351Y-13470037D01*
X8218636Y-13455751D01*
X8232922Y-13427179D01*
X8232922Y-13355751D01*
X8218636Y-13327179D01*
X8204351Y-13312894D01*
X8175779Y-13298608D01*
X8118636Y-13298608D01*
X8090065Y-13312894D01*
X8075779Y-13327179D01*
X8061494Y-13355751D01*
X8590065Y-13484322D02*
X8590065Y-13184322D01*
X8718636Y-13484322D02*
X8718636Y-13327179D01*
X8704351Y-13298608D01*
X8675779Y-13284322D01*
X8632922Y-13284322D01*
X8604351Y-13298608D01*
X8590065Y-13312894D01*
X8904351Y-13484322D02*
X8875779Y-13470037D01*
X8861494Y-13455751D01*
X8847208Y-13427179D01*
X8847208Y-13341465D01*
X8861494Y-13312894D01*
X8875779Y-13298608D01*
X8904351Y-13284322D01*
X8947208Y-13284322D01*
X8975779Y-13298608D01*
X8990065Y-13312894D01*
X9004351Y-13341465D01*
X9004351Y-13427179D01*
X8990065Y-13455751D01*
X8975779Y-13470037D01*
X8947208Y-13484322D01*
X8904351Y-13484322D01*
X9175779Y-13484322D02*
X9147208Y-13470037D01*
X9132922Y-13441465D01*
X9132922Y-13184322D01*
X9404351Y-13470037D02*
X9375779Y-13484322D01*
X9318636Y-13484322D01*
X9290065Y-13470037D01*
X9275779Y-13441465D01*
X9275779Y-13327179D01*
X9290065Y-13298608D01*
X9318636Y-13284322D01*
X9375779Y-13284322D01*
X9404351Y-13298608D01*
X9418636Y-13327179D01*
X9418636Y-13355751D01*
X9275779Y-13384322D01*
X9532922Y-13470037D02*
X9561494Y-13484322D01*
X9618636Y-13484322D01*
X9647208Y-13470037D01*
X9661494Y-13441465D01*
X9661494Y-13427179D01*
X9647208Y-13398608D01*
X9618636Y-13384322D01*
X9575779Y-13384322D01*
X9547208Y-13370037D01*
X9532922Y-13341465D01*
X9532922Y-13327179D01*
X9547208Y-13298608D01*
X9575779Y-13284322D01*
X9618636Y-13284322D01*
X9647208Y-13298608D01*
X9761494Y-13598608D02*
X9775779Y-13584322D01*
X9804351Y-13541465D01*
X9818636Y-13512894D01*
X9832922Y-13470037D01*
X9847208Y-13398608D01*
X9847208Y-13341465D01*
X9832922Y-13270037D01*
X9818636Y-13227179D01*
X9804351Y-13198608D01*
X9775779Y-13155751D01*
X9761494Y-13141465D01*
X2082208Y-13694608D02*
X2082208Y-13794608D01*
X2032208Y-13744608D02*
X2132208Y-13744608D01*
X2575779Y-13880322D02*
X2404351Y-13880322D01*
X2490065Y-13880322D02*
X2490065Y-13580322D01*
X2461494Y-13623179D01*
X2432922Y-13651751D01*
X2404351Y-13666037D01*
X2704351Y-13851751D02*
X2718636Y-13866037D01*
X2704351Y-13880322D01*
X2690065Y-13866037D01*
X2704351Y-13851751D01*
X2704351Y-13880322D01*
X2904351Y-13580322D02*
X2932922Y-13580322D01*
X2961494Y-13594608D01*
X2975779Y-13608894D01*
X2990065Y-13637465D01*
X3004351Y-13694608D01*
X3004351Y-13766037D01*
X2990065Y-13823179D01*
X2975779Y-13851751D01*
X2961494Y-13866037D01*
X2932922Y-13880322D01*
X2904351Y-13880322D01*
X2875779Y-13866037D01*
X2861494Y-13851751D01*
X2847208Y-13823179D01*
X2832922Y-13766037D01*
X2832922Y-13694608D01*
X2847208Y-13637465D01*
X2861494Y-13608894D01*
X2875779Y-13594608D01*
X2904351Y-13580322D01*
X3190065Y-13580322D02*
X3218636Y-13580322D01*
X3247208Y-13594608D01*
X3261494Y-13608894D01*
X3275779Y-13637465D01*
X3290065Y-13694608D01*
X3290065Y-13766037D01*
X3275779Y-13823179D01*
X3261494Y-13851751D01*
X3247208Y-13866037D01*
X3218636Y-13880322D01*
X3190065Y-13880322D01*
X3161494Y-13866037D01*
X3147208Y-13851751D01*
X3132922Y-13823179D01*
X3118636Y-13766037D01*
X3118636Y-13694608D01*
X3132922Y-13637465D01*
X3147208Y-13608894D01*
X3161494Y-13594608D01*
X3190065Y-13580322D01*
X3475779Y-13580322D02*
X3504351Y-13580322D01*
X3532922Y-13594608D01*
X3547208Y-13608894D01*
X3561494Y-13637465D01*
X3575779Y-13694608D01*
X3575779Y-13766037D01*
X3561494Y-13823179D01*
X3547208Y-13851751D01*
X3532922Y-13866037D01*
X3504351Y-13880322D01*
X3475779Y-13880322D01*
X3447208Y-13866037D01*
X3432922Y-13851751D01*
X3418636Y-13823179D01*
X3404351Y-13766037D01*
X3404351Y-13694608D01*
X3418636Y-13637465D01*
X3432922Y-13608894D01*
X3447208Y-13594608D01*
X3475779Y-13580322D01*
X3704351Y-13880322D02*
X3704351Y-13680322D01*
X3704351Y-13708894D02*
X3718636Y-13694608D01*
X3747208Y-13680322D01*
X3790065Y-13680322D01*
X3818636Y-13694608D01*
X3832922Y-13723179D01*
X3832922Y-13880322D01*
X3832922Y-13723179D02*
X3847208Y-13694608D01*
X3875779Y-13680322D01*
X3918636Y-13680322D01*
X3947208Y-13694608D01*
X3961494Y-13723179D01*
X3961494Y-13880322D01*
X4104351Y-13880322D02*
X4104351Y-13680322D01*
X4104351Y-13708894D02*
X4118636Y-13694608D01*
X4147208Y-13680322D01*
X4190065Y-13680322D01*
X4218636Y-13694608D01*
X4232922Y-13723179D01*
X4232922Y-13880322D01*
X4232922Y-13723179D02*
X4247208Y-13694608D01*
X4275779Y-13680322D01*
X4318636Y-13680322D01*
X4347208Y-13694608D01*
X4361494Y-13723179D01*
X4361494Y-13880322D01*
X4947208Y-13566037D02*
X4690065Y-13951751D01*
X5332922Y-13580322D02*
X5361494Y-13580322D01*
X5390065Y-13594608D01*
X5404351Y-13608894D01*
X5418636Y-13637465D01*
X5432922Y-13694608D01*
X5432922Y-13766037D01*
X5418636Y-13823179D01*
X5404351Y-13851751D01*
X5390065Y-13866037D01*
X5361494Y-13880322D01*
X5332922Y-13880322D01*
X5304351Y-13866037D01*
X5290065Y-13851751D01*
X5275779Y-13823179D01*
X5261494Y-13766037D01*
X5261494Y-13694608D01*
X5275779Y-13637465D01*
X5290065Y-13608894D01*
X5304351Y-13594608D01*
X5332922Y-13580322D01*
X5561494Y-13851751D02*
X5575779Y-13866037D01*
X5561494Y-13880322D01*
X5547208Y-13866037D01*
X5561494Y-13851751D01*
X5561494Y-13880322D01*
X5761494Y-13580322D02*
X5790065Y-13580322D01*
X5818636Y-13594608D01*
X5832922Y-13608894D01*
X5847208Y-13637465D01*
X5861494Y-13694608D01*
X5861494Y-13766037D01*
X5847208Y-13823179D01*
X5832922Y-13851751D01*
X5818636Y-13866037D01*
X5790065Y-13880322D01*
X5761494Y-13880322D01*
X5732922Y-13866037D01*
X5718636Y-13851751D01*
X5704351Y-13823179D01*
X5690065Y-13766037D01*
X5690065Y-13694608D01*
X5704351Y-13637465D01*
X5718636Y-13608894D01*
X5732922Y-13594608D01*
X5761494Y-13580322D01*
X5961494Y-13580322D02*
X6147208Y-13580322D01*
X6047208Y-13694608D01*
X6090065Y-13694608D01*
X6118636Y-13708894D01*
X6132922Y-13723179D01*
X6147208Y-13751751D01*
X6147208Y-13823179D01*
X6132922Y-13851751D01*
X6118636Y-13866037D01*
X6090065Y-13880322D01*
X6004351Y-13880322D01*
X5975779Y-13866037D01*
X5961494Y-13851751D01*
X6290065Y-13880322D02*
X6347208Y-13880322D01*
X6375779Y-13866037D01*
X6390065Y-13851751D01*
X6418636Y-13808894D01*
X6432922Y-13751751D01*
X6432922Y-13637465D01*
X6418636Y-13608894D01*
X6404351Y-13594608D01*
X6375779Y-13580322D01*
X6318636Y-13580322D01*
X6290065Y-13594608D01*
X6275779Y-13608894D01*
X6261494Y-13637465D01*
X6261494Y-13708894D01*
X6275779Y-13737465D01*
X6290065Y-13751751D01*
X6318636Y-13766037D01*
X6375779Y-13766037D01*
X6404351Y-13751751D01*
X6418636Y-13737465D01*
X6432922Y-13708894D01*
X6690065Y-13680322D02*
X6690065Y-13880322D01*
X6618636Y-13566037D02*
X6547208Y-13780322D01*
X6732922Y-13780322D01*
X6832922Y-13580322D02*
X6832922Y-13637465D01*
X6947208Y-13580322D02*
X6947208Y-13637465D01*
X7390065Y-13994608D02*
X7375779Y-13980322D01*
X7347208Y-13937465D01*
X7332922Y-13908894D01*
X7318636Y-13866037D01*
X7304351Y-13794608D01*
X7304351Y-13737465D01*
X7318636Y-13666037D01*
X7332922Y-13623179D01*
X7347208Y-13594608D01*
X7375779Y-13551751D01*
X7390065Y-13537465D01*
X7490065Y-13608894D02*
X7504351Y-13594608D01*
X7532922Y-13580322D01*
X7604351Y-13580322D01*
X7632922Y-13594608D01*
X7647208Y-13608894D01*
X7661494Y-13637465D01*
X7661494Y-13666037D01*
X7647208Y-13708894D01*
X7475779Y-13880322D01*
X7661494Y-13880322D01*
X8018636Y-13880322D02*
X8018636Y-13580322D01*
X8147208Y-13880322D02*
X8147208Y-13723179D01*
X8132922Y-13694608D01*
X8104351Y-13680322D01*
X8061494Y-13680322D01*
X8032922Y-13694608D01*
X8018636Y-13708894D01*
X8332922Y-13880322D02*
X8304351Y-13866037D01*
X8290065Y-13851751D01*
X8275779Y-13823179D01*
X8275779Y-13737465D01*
X8290065Y-13708894D01*
X8304351Y-13694608D01*
X8332922Y-13680322D01*
X8375779Y-13680322D01*
X8404351Y-13694608D01*
X8418636Y-13708894D01*
X8432922Y-13737465D01*
X8432922Y-13823179D01*
X8418636Y-13851751D01*
X8404351Y-13866037D01*
X8375779Y-13880322D01*
X8332922Y-13880322D01*
X8604351Y-13880322D02*
X8575779Y-13866037D01*
X8561494Y-13837465D01*
X8561494Y-13580322D01*
X8832922Y-13866037D02*
X8804351Y-13880322D01*
X8747208Y-13880322D01*
X8718636Y-13866037D01*
X8704351Y-13837465D01*
X8704351Y-13723179D01*
X8718636Y-13694608D01*
X8747208Y-13680322D01*
X8804351Y-13680322D01*
X8832922Y-13694608D01*
X8847208Y-13723179D01*
X8847208Y-13751751D01*
X8704351Y-13780322D01*
X8961494Y-13866037D02*
X8990065Y-13880322D01*
X9047208Y-13880322D01*
X9075779Y-13866037D01*
X9090065Y-13837465D01*
X9090065Y-13823179D01*
X9075779Y-13794608D01*
X9047208Y-13780322D01*
X9004351Y-13780322D01*
X8975779Y-13766037D01*
X8961494Y-13737465D01*
X8961494Y-13723179D01*
X8975779Y-13694608D01*
X9004351Y-13680322D01*
X9047208Y-13680322D01*
X9075779Y-13694608D01*
X9190065Y-13994608D02*
X9204351Y-13980322D01*
X9232922Y-13937465D01*
X9247208Y-13908894D01*
X9261494Y-13866037D01*
X9275779Y-13794608D01*
X9275779Y-13737465D01*
X9261494Y-13666037D01*
X9247208Y-13623179D01*
X9232922Y-13594608D01*
X9204351Y-13551751D01*
X9190065Y-13537465D01*
X2117329Y-14176529D02*
X2117329Y-14104687D01*
X2045486Y-14104687D01*
X2045486Y-14176529D01*
X2117329Y-14176529D01*
X2575779Y-14276322D02*
X2404351Y-14276322D01*
X2490065Y-14276322D02*
X2490065Y-13976322D01*
X2461494Y-14019179D01*
X2432922Y-14047751D01*
X2404351Y-14062037D01*
X2704351Y-14247751D02*
X2718636Y-14262037D01*
X2704351Y-14276322D01*
X2690065Y-14262037D01*
X2704351Y-14247751D01*
X2704351Y-14276322D01*
X2904351Y-13976322D02*
X2932922Y-13976322D01*
X2961494Y-13990608D01*
X2975779Y-14004894D01*
X2990065Y-14033465D01*
X3004351Y-14090608D01*
X3004351Y-14162037D01*
X2990065Y-14219179D01*
X2975779Y-14247751D01*
X2961494Y-14262037D01*
X2932922Y-14276322D01*
X2904351Y-14276322D01*
X2875779Y-14262037D01*
X2861494Y-14247751D01*
X2847208Y-14219179D01*
X2832922Y-14162037D01*
X2832922Y-14090608D01*
X2847208Y-14033465D01*
X2861494Y-14004894D01*
X2875779Y-13990608D01*
X2904351Y-13976322D01*
X3290065Y-14276322D02*
X3118636Y-14276322D01*
X3204351Y-14276322D02*
X3204351Y-13976322D01*
X3175779Y-14019179D01*
X3147208Y-14047751D01*
X3118636Y-14062037D01*
X3547208Y-13976322D02*
X3490065Y-13976322D01*
X3461494Y-13990608D01*
X3447208Y-14004894D01*
X3418636Y-14047751D01*
X3404351Y-14104894D01*
X3404351Y-14219179D01*
X3418636Y-14247751D01*
X3432922Y-14262037D01*
X3461494Y-14276322D01*
X3518636Y-14276322D01*
X3547208Y-14262037D01*
X3561494Y-14247751D01*
X3575779Y-14219179D01*
X3575779Y-14147751D01*
X3561494Y-14119179D01*
X3547208Y-14104894D01*
X3518636Y-14090608D01*
X3461494Y-14090608D01*
X3432922Y-14104894D01*
X3418636Y-14119179D01*
X3404351Y-14147751D01*
X3704351Y-14276322D02*
X3704351Y-14076322D01*
X3704351Y-14104894D02*
X3718636Y-14090608D01*
X3747208Y-14076322D01*
X3790065Y-14076322D01*
X3818636Y-14090608D01*
X3832922Y-14119179D01*
X3832922Y-14276322D01*
X3832922Y-14119179D02*
X3847208Y-14090608D01*
X3875779Y-14076322D01*
X3918636Y-14076322D01*
X3947208Y-14090608D01*
X3961494Y-14119179D01*
X3961494Y-14276322D01*
X4104351Y-14276322D02*
X4104351Y-14076322D01*
X4104351Y-14104894D02*
X4118636Y-14090608D01*
X4147208Y-14076322D01*
X4190065Y-14076322D01*
X4218636Y-14090608D01*
X4232922Y-14119179D01*
X4232922Y-14276322D01*
X4232922Y-14119179D02*
X4247208Y-14090608D01*
X4275779Y-14076322D01*
X4318636Y-14076322D01*
X4347208Y-14090608D01*
X4361494Y-14119179D01*
X4361494Y-14276322D01*
X4947208Y-13962037D02*
X4690065Y-14347751D01*
X5332922Y-13976322D02*
X5361494Y-13976322D01*
X5390065Y-13990608D01*
X5404351Y-14004894D01*
X5418636Y-14033465D01*
X5432922Y-14090608D01*
X5432922Y-14162037D01*
X5418636Y-14219179D01*
X5404351Y-14247751D01*
X5390065Y-14262037D01*
X5361494Y-14276322D01*
X5332922Y-14276322D01*
X5304351Y-14262037D01*
X5290065Y-14247751D01*
X5275779Y-14219179D01*
X5261494Y-14162037D01*
X5261494Y-14090608D01*
X5275779Y-14033465D01*
X5290065Y-14004894D01*
X5304351Y-13990608D01*
X5332922Y-13976322D01*
X5561494Y-14247751D02*
X5575779Y-14262037D01*
X5561494Y-14276322D01*
X5547208Y-14262037D01*
X5561494Y-14247751D01*
X5561494Y-14276322D01*
X5761494Y-13976322D02*
X5790065Y-13976322D01*
X5818636Y-13990608D01*
X5832922Y-14004894D01*
X5847208Y-14033465D01*
X5861494Y-14090608D01*
X5861494Y-14162037D01*
X5847208Y-14219179D01*
X5832922Y-14247751D01*
X5818636Y-14262037D01*
X5790065Y-14276322D01*
X5761494Y-14276322D01*
X5732922Y-14262037D01*
X5718636Y-14247751D01*
X5704351Y-14219179D01*
X5690065Y-14162037D01*
X5690065Y-14090608D01*
X5704351Y-14033465D01*
X5718636Y-14004894D01*
X5732922Y-13990608D01*
X5761494Y-13976322D01*
X6118636Y-14076322D02*
X6118636Y-14276322D01*
X6047208Y-13962037D02*
X5975779Y-14176322D01*
X6161494Y-14176322D01*
X6332922Y-13976322D02*
X6361494Y-13976322D01*
X6390065Y-13990608D01*
X6404351Y-14004894D01*
X6418636Y-14033465D01*
X6432922Y-14090608D01*
X6432922Y-14162037D01*
X6418636Y-14219179D01*
X6404351Y-14247751D01*
X6390065Y-14262037D01*
X6361494Y-14276322D01*
X6332922Y-14276322D01*
X6304351Y-14262037D01*
X6290065Y-14247751D01*
X6275779Y-14219179D01*
X6261494Y-14162037D01*
X6261494Y-14090608D01*
X6275779Y-14033465D01*
X6290065Y-14004894D01*
X6304351Y-13990608D01*
X6332922Y-13976322D01*
X6618636Y-13976322D02*
X6647208Y-13976322D01*
X6675779Y-13990608D01*
X6690065Y-14004894D01*
X6704351Y-14033465D01*
X6718636Y-14090608D01*
X6718636Y-14162037D01*
X6704351Y-14219179D01*
X6690065Y-14247751D01*
X6675779Y-14262037D01*
X6647208Y-14276322D01*
X6618636Y-14276322D01*
X6590065Y-14262037D01*
X6575779Y-14247751D01*
X6561494Y-14219179D01*
X6547208Y-14162037D01*
X6547208Y-14090608D01*
X6561494Y-14033465D01*
X6575779Y-14004894D01*
X6590065Y-13990608D01*
X6618636Y-13976322D01*
X6832922Y-13976322D02*
X6832922Y-14033465D01*
X6947208Y-13976322D02*
X6947208Y-14033465D01*
X7390065Y-14390608D02*
X7375779Y-14376322D01*
X7347208Y-14333465D01*
X7332922Y-14304894D01*
X7318636Y-14262037D01*
X7304351Y-14190608D01*
X7304351Y-14133465D01*
X7318636Y-14062037D01*
X7332922Y-14019179D01*
X7347208Y-13990608D01*
X7375779Y-13947751D01*
X7390065Y-13933465D01*
X7647208Y-13976322D02*
X7504351Y-13976322D01*
X7490065Y-14119179D01*
X7504351Y-14104894D01*
X7532922Y-14090608D01*
X7604351Y-14090608D01*
X7632922Y-14104894D01*
X7647208Y-14119179D01*
X7661494Y-14147751D01*
X7661494Y-14219179D01*
X7647208Y-14247751D01*
X7632922Y-14262037D01*
X7604351Y-14276322D01*
X7532922Y-14276322D01*
X7504351Y-14262037D01*
X7490065Y-14247751D01*
X7775779Y-14004894D02*
X7790065Y-13990608D01*
X7818636Y-13976322D01*
X7890065Y-13976322D01*
X7918636Y-13990608D01*
X7932922Y-14004894D01*
X7947208Y-14033465D01*
X7947208Y-14062037D01*
X7932922Y-14104894D01*
X7761494Y-14276322D01*
X7947208Y-14276322D01*
X8304351Y-14276322D02*
X8304351Y-13976322D01*
X8432922Y-14276322D02*
X8432922Y-14119179D01*
X8418636Y-14090608D01*
X8390065Y-14076322D01*
X8347208Y-14076322D01*
X8318636Y-14090608D01*
X8304351Y-14104894D01*
X8618636Y-14276322D02*
X8590065Y-14262037D01*
X8575779Y-14247751D01*
X8561494Y-14219179D01*
X8561494Y-14133465D01*
X8575779Y-14104894D01*
X8590065Y-14090608D01*
X8618636Y-14076322D01*
X8661494Y-14076322D01*
X8690065Y-14090608D01*
X8704351Y-14104894D01*
X8718636Y-14133465D01*
X8718636Y-14219179D01*
X8704351Y-14247751D01*
X8690065Y-14262037D01*
X8661494Y-14276322D01*
X8618636Y-14276322D01*
X8890065Y-14276322D02*
X8861494Y-14262037D01*
X8847208Y-14233465D01*
X8847208Y-13976322D01*
X9118636Y-14262037D02*
X9090065Y-14276322D01*
X9032922Y-14276322D01*
X9004351Y-14262037D01*
X8990065Y-14233465D01*
X8990065Y-14119179D01*
X9004351Y-14090608D01*
X9032922Y-14076322D01*
X9090065Y-14076322D01*
X9118636Y-14090608D01*
X9132922Y-14119179D01*
X9132922Y-14147751D01*
X8990065Y-14176322D01*
X9247208Y-14262037D02*
X9275779Y-14276322D01*
X9332922Y-14276322D01*
X9361494Y-14262037D01*
X9375779Y-14233465D01*
X9375779Y-14219179D01*
X9361494Y-14190608D01*
X9332922Y-14176322D01*
X9290065Y-14176322D01*
X9261494Y-14162037D01*
X9247208Y-14133465D01*
X9247208Y-14119179D01*
X9261494Y-14090608D01*
X9290065Y-14076322D01*
X9332922Y-14076322D01*
X9361494Y-14090608D01*
X9475779Y-14390608D02*
X9490065Y-14376322D01*
X9518636Y-14333465D01*
X9532922Y-14304894D01*
X9547208Y-14262037D01*
X9561494Y-14190608D01*
X9561494Y-14133465D01*
X9547208Y-14062037D01*
X9532922Y-14019179D01*
X9518636Y-13990608D01*
X9490065Y-13947751D01*
X9475779Y-13933465D01*
M02*
